<svg xmlns="http://www.w3.org/2000/svg" viewBox="0 0 88.76 100.55"><defs><style>.cls-1{fill:#2d3c6b;}</style></defs><title>logo-sofia-final</title><g id="Layer_2" data-name="Layer 2"><g id="Layer_1-2" data-name="Layer 1"><path class="cls-1" d="M5,42l3.29-3.92A31.66,31.66,0,0,0,16.53,44a20.76,20.76,0,0,0,8.65,1.75,15.08,15.08,0,0,0,9.38-2.83,8.58,8.58,0,0,0,3.71-7,6.71,6.71,0,0,0-2.49-5.6q-2.47-2-8.43-3L19.44,25.9q-6.72-1.18-9.84-4.1A10.15,10.15,0,0,1,6.49,14,12.52,12.52,0,0,1,11.18,3.92Q15.88,0,23.29,0A33.16,33.16,0,0,1,33.44,1.5a34,34,0,0,1,9.24,4.73l-2.8,4.2a31.44,31.44,0,0,0-8-4.34,24.6,24.6,0,0,0-8.5-1.54A13.3,13.3,0,0,0,15,7.1a7.74,7.74,0,0,0-3.29,6.34,6.2,6.2,0,0,0,2.17,5c1.45,1.21,3.8,2.08,7.07,2.59l7.84,1.33Q36.52,23.8,40.09,27a10.89,10.89,0,0,1,3.57,8.61,12.74,12.74,0,0,1-1.4,5.88,14.11,14.11,0,0,1-3.89,4.69,18.81,18.81,0,0,1-5.91,3.08A23.69,23.69,0,0,1,25,50.33a27.33,27.33,0,0,1-10.68-2.07A31.47,31.47,0,0,1,5,42Z"/><path class="cls-1" d="M84.61,50.66a25.18,25.18,0,0,1-1.79,9.48,23.74,23.74,0,0,1-4.9,7.7A23,23,0,0,1,70.54,73a22.59,22.59,0,0,1-9.24,1.89,23.93,23.93,0,0,1-9.73-2,24.8,24.8,0,0,1-13.2-13.4,25.79,25.79,0,0,1,5.25-27.76,24.92,24.92,0,0,1,7.88-5.39,23.92,23.92,0,0,1,9.73-2,28.12,28.12,0,0,1,10.57,2,22.25,22.25,0,0,1,8.54,6L76.7,36a18.32,18.32,0,0,0-6.9-5,21.51,21.51,0,0,0-8.57-1.78,18.63,18.63,0,0,0-7.67,1.57,19,19,0,0,0-6.12,4.31,19.8,19.8,0,0,0-4.06,6.47,21.76,21.76,0,0,0-1.47,8,21.36,21.36,0,0,0,5.56,14.52,18.27,18.27,0,0,0,6.13,4.34,18.68,18.68,0,0,0,7.63,1.58,17.69,17.69,0,0,0,12.28-4.83,18.61,18.61,0,0,0,5.64-12H62.63V48.49h22Z"/><path class="cls-1" d="M3.85,83.83a.29.29,0,0,1-.11.13.24.24,0,0,1-.15,0,.41.41,0,0,1-.2-.06l-.25-.15a1.6,1.6,0,0,0-.35-.15,1.33,1.33,0,0,0-.47-.07,1.33,1.33,0,0,0-.42.06,1,1,0,0,0-.31.16.64.64,0,0,0-.18.25.83.83,0,0,0-.06.32.57.57,0,0,0,.12.37A1,1,0,0,0,1.8,85a3.53,3.53,0,0,0,.47.19l.53.18a4.87,4.87,0,0,1,.53.21,2,2,0,0,1,.47.32,1.4,1.4,0,0,1,.32.46,1.47,1.47,0,0,1,.13.66,2.11,2.11,0,0,1-.15.8,1.78,1.78,0,0,1-.42.65,2.21,2.21,0,0,1-.69.44,2.65,2.65,0,0,1-.92.15,4,4,0,0,1-.6-.05,3.2,3.2,0,0,1-.55-.17,2.62,2.62,0,0,1-.5-.26A2.4,2.4,0,0,1,0,88.22l.34-.56a.43.43,0,0,1,.12-.11.33.33,0,0,1,.14,0,.4.4,0,0,1,.24.09,3.11,3.11,0,0,0,.3.2,2.48,2.48,0,0,0,.4.2,1.57,1.57,0,0,0,.56.09,1.17,1.17,0,0,0,.78-.24.85.85,0,0,0,.27-.68.62.62,0,0,0-.12-.4,1.09,1.09,0,0,0-.33-.27,2.56,2.56,0,0,0-.47-.18l-.53-.16A4.87,4.87,0,0,1,1.17,86a1.47,1.47,0,0,1-.46-.32,1.37,1.37,0,0,1-.33-.48,1.88,1.88,0,0,1,0-1.4,1.63,1.63,0,0,1,.4-.58,1.84,1.84,0,0,1,.65-.4,2.33,2.33,0,0,1,.87-.15,2.89,2.89,0,0,1,1,.17,2.39,2.39,0,0,1,.8.49Z"/><path class="cls-1" d="M13.79,85.83a3.55,3.55,0,0,1-.23,1.28,3.18,3.18,0,0,1-.65,1,2.84,2.84,0,0,1-1,.67,3.38,3.38,0,0,1-1.3.24,3.42,3.42,0,0,1-1.3-.24,2.93,2.93,0,0,1-1-.67,3.18,3.18,0,0,1-.65-1,3.68,3.68,0,0,1,0-2.56,3.18,3.18,0,0,1,.65-1,2.93,2.93,0,0,1,1-.67,3.42,3.42,0,0,1,1.3-.24,3.38,3.38,0,0,1,1.3.24,3,3,0,0,1,1,.67,3.18,3.18,0,0,1,.65,1A3.55,3.55,0,0,1,13.79,85.83Zm-1.2,0a3,3,0,0,0-.14-.93,2.08,2.08,0,0,0-.39-.7,1.88,1.88,0,0,0-.63-.44,2.16,2.16,0,0,0-.83-.15,2.23,2.23,0,0,0-.83.15,2,2,0,0,0-.63.44,2.08,2.08,0,0,0-.39.7,2.75,2.75,0,0,0-.14.93,2.71,2.71,0,0,0,.14.93,1.94,1.94,0,0,0,.39.69,1.84,1.84,0,0,0,.63.44,2.23,2.23,0,0,0,.83.15,2.16,2.16,0,0,0,.83-.15,1.75,1.75,0,0,0,.63-.44,1.94,1.94,0,0,0,.39-.69A3,3,0,0,0,12.59,85.83Z"/><path class="cls-1" d="M21.29,82.69v.93H18.5v1.86h2.35v.93H18.5V89H17.32V82.69Z"/><path class="cls-1" d="M26.13,89H25V82.69h1.17Z"/><path class="cls-1" d="M35.68,89h-.9a.37.37,0,0,1-.25-.07.45.45,0,0,1-.15-.19l-.47-1.28h-2.6l-.47,1.28a.34.34,0,0,1-.14.18.36.36,0,0,1-.25.08h-.91L32,82.69h1.2ZM31.61,86.6h2l-.76-2.09c0-.09-.07-.2-.12-.33s-.08-.26-.12-.41c0,.15-.08.28-.12.41l-.11.34Z"/><path class="cls-1" d="M50.4,88.11a2.77,2.77,0,0,0,.69-.07,2.66,2.66,0,0,0,.56-.2V86.7h-.79a.28.28,0,0,1-.18-.06.23.23,0,0,1-.06-.16v-.66h2.09v2.55a4.14,4.14,0,0,1-.5.3A3.49,3.49,0,0,1,51,89a5.39,5.39,0,0,1-.72,0A3.5,3.5,0,0,1,49,88.81a3.25,3.25,0,0,1-1-.67,2.83,2.83,0,0,1-.65-1,3.37,3.37,0,0,1-.24-1.29,3.62,3.62,0,0,1,.23-1.3,3,3,0,0,1,.65-1,3.14,3.14,0,0,1,1-.66,3.66,3.66,0,0,1,1.36-.23,3.56,3.56,0,0,1,1.33.22,3.08,3.08,0,0,1,1,.6l-.34.53a.31.31,0,0,1-.27.16.35.35,0,0,1-.21-.07l-.29-.16a1.35,1.35,0,0,0-.32-.15,3.15,3.15,0,0,0-.39-.1,3.77,3.77,0,0,0-.51,0,2.06,2.06,0,0,0-.84.16,1.62,1.62,0,0,0-.64.45,1.8,1.8,0,0,0-.41.7,2.59,2.59,0,0,0-.15.91,2.9,2.9,0,0,0,.16,1,2,2,0,0,0,.42.71,1.77,1.77,0,0,0,.66.45A2.18,2.18,0,0,0,50.4,88.11Z"/><path class="cls-1" d="M62.44,85.83a3.35,3.35,0,0,1-.23,1.28,3.15,3.15,0,0,1-.64,1,2.93,2.93,0,0,1-1,.67,3.64,3.64,0,0,1-2.6,0,2.84,2.84,0,0,1-1-.67,3,3,0,0,1-.65-1,3.68,3.68,0,0,1,0-2.56,3,3,0,0,1,.65-1,2.84,2.84,0,0,1,1-.67,3.64,3.64,0,0,1,2.6,0,3.07,3.07,0,0,1,1,.67,3.15,3.15,0,0,1,.64,1A3.35,3.35,0,0,1,62.44,85.83Zm-1.2,0a3,3,0,0,0-.13-.93,2.29,2.29,0,0,0-.4-.7,1.84,1.84,0,0,0-.62-.44,2.37,2.37,0,0,0-1.66,0,1.79,1.79,0,0,0-.63.44,2.29,2.29,0,0,0-.4.7,3,3,0,0,0-.14.93,3,3,0,0,0,.14.93,2.12,2.12,0,0,0,.4.69,1.67,1.67,0,0,0,.63.44,2.37,2.37,0,0,0,1.66,0,1.71,1.71,0,0,0,.62-.44,2.12,2.12,0,0,0,.4-.69A3,3,0,0,0,61.24,85.83Z"/><path class="cls-1" d="M69.27,86.65l.12.31c0-.11.09-.21.13-.31a2.59,2.59,0,0,1,.14-.29l1.86-3.49a.43.43,0,0,1,.07-.1.21.21,0,0,1,.08-.06l.11,0h1V89h-1V84.91c0-.07,0-.16,0-.25a2.45,2.45,0,0,1,0-.27L69.89,88a.52.52,0,0,1-.17.19.48.48,0,0,1-.24.06h-.17a.48.48,0,0,1-.24-.06A.63.63,0,0,1,68.9,88L67,84.38a1.33,1.33,0,0,1,0,.28c0,.09,0,.17,0,.25V89H66V82.69h1l.1,0a.24.24,0,0,1,.09.06.26.26,0,0,1,.07.1l1.88,3.5A2.44,2.44,0,0,1,69.27,86.65Z"/><path class="cls-1" d="M80.64,82.69v.93H77.85v1.74h2.2v.9h-2.2V88h2.79V89h-4V82.69Z"/><path class="cls-1" d="M88.76,82.69v.43a.6.6,0,0,1-.12.36L85.42,88h3.26V89H83.9v-.46a.45.45,0,0,1,0-.16A.36.36,0,0,1,84,88.2l3.23-4.58H84.1v-.93Z"/><path class="cls-1" d="M6.62,100.16a1.83,1.83,0,0,0,.79-.16A1.58,1.58,0,0,0,8,99.57a1.79,1.79,0,0,0,.38-.64,2.63,2.63,0,0,0,.12-.8V94.32H9v3.81a3,3,0,0,1-.16,1,2.25,2.25,0,0,1-.47.77,2.13,2.13,0,0,1-.73.51,2.33,2.33,0,0,1-1,.19,2.3,2.3,0,0,1-1-.19,2.17,2.17,0,0,1-.74-.51,2.23,2.23,0,0,1-.46-.77,2.71,2.71,0,0,1-.16-1V94.32h.44v3.8a2.53,2.53,0,0,0,.13.8,2,2,0,0,0,.37.65,1.7,1.7,0,0,0,.59.43A2,2,0,0,0,6.62,100.16Z"/><path class="cls-1" d="M14.71,97.32l-2.12-3H13a.12.12,0,0,1,.09,0,.1.1,0,0,1,.05.06L15,97.1l0-.06a.25.25,0,0,1,0-.07l1.8-2.56.06-.06a.09.09,0,0,1,.07,0h.43l-2.13,3,2.22,3.17h-.44a.15.15,0,0,1-.1,0l-.06-.07L15,97.53a.38.38,0,0,1-.06.13l-1.9,2.71-.07.07a.16.16,0,0,1-.09,0h-.41Z"/><path class="cls-1" d="M30.62,97.4a3.7,3.7,0,0,1-.21,1.28,2.74,2.74,0,0,1-.6,1,2.55,2.55,0,0,1-.93.61,3.19,3.19,0,0,1-1.19.21H25.44V94.32h2.25a3.19,3.19,0,0,1,1.19.21,2.71,2.71,0,0,1,.93.62,2.65,2.65,0,0,1,.6,1A3.66,3.66,0,0,1,30.62,97.4Zm-.46,0A3.66,3.66,0,0,0,30,96.25a2.33,2.33,0,0,0-.51-.85,2.06,2.06,0,0,0-.78-.54,2.71,2.71,0,0,0-1-.18h-1.8v5.43h1.8a2.71,2.71,0,0,0,1-.18,2,2,0,0,0,.78-.53,2.41,2.41,0,0,0,.51-.85A3.71,3.71,0,0,0,30.16,97.4Z"/><path class="cls-1" d="M38.35,94.32v.37H35.11v2.49h2.7v.36h-2.7v2.56h3.24v.37H34.66V94.32Z"/><path class="cls-1" d="M45.39,95.07a.11.11,0,0,1-.11.07.22.22,0,0,1-.15-.08l-.24-.18a2.74,2.74,0,0,0-.38-.18,1.79,1.79,0,0,0-.56-.08,1.57,1.57,0,0,0-.6.1,1.11,1.11,0,0,0-.42.26,1,1,0,0,0-.26.38,1.05,1.05,0,0,0-.09.46.88.88,0,0,0,.13.51,1.06,1.06,0,0,0,.35.35,1.86,1.86,0,0,0,.49.24l.57.2a5.54,5.54,0,0,1,.57.21,1.72,1.72,0,0,1,.49.29,1.13,1.13,0,0,1,.35.43,1.33,1.33,0,0,1,.14.63,2.2,2.2,0,0,1-.13.73,1.76,1.76,0,0,1-1,1,2.16,2.16,0,0,1-.83.14,2.4,2.4,0,0,1-1.05-.21,2.44,2.44,0,0,1-.77-.59l.12-.19a.15.15,0,0,1,.12-.07s.06,0,.1.06l.15.12.21.17a1.87,1.87,0,0,0,.28.16,1.87,1.87,0,0,0,.85.18,1.67,1.67,0,0,0,.65-.11,1.44,1.44,0,0,0,.49-.3,1.37,1.37,0,0,0,.3-.45,1.56,1.56,0,0,0,.1-.57,1,1,0,0,0-.13-.53,1.2,1.2,0,0,0-.35-.36,2.22,2.22,0,0,0-.49-.23l-.57-.19c-.2-.06-.39-.13-.57-.2a2.35,2.35,0,0,1-.49-.29,1.39,1.39,0,0,1-.36-.44,1.62,1.62,0,0,1-.13-.66,1.53,1.53,0,0,1,.12-.6,1.43,1.43,0,0,1,.34-.5,1.69,1.69,0,0,1,.56-.36,2.28,2.28,0,0,1,.76-.13,2.31,2.31,0,0,1,.86.15,2,2,0,0,1,.7.47Z"/><path class="cls-1" d="M50.18,100.47h-.45V94.32h.45Z"/><path class="cls-1" d="M57.42,100.18a5.09,5.09,0,0,0,.58,0,2.5,2.5,0,0,0,.49-.1,1.92,1.92,0,0,0,.42-.16,4,4,0,0,0,.41-.21V98H58.14a.1.1,0,0,1-.08,0,.09.09,0,0,1,0-.07v-.25h1.7v2.19a4.57,4.57,0,0,1-.47.29,4.33,4.33,0,0,1-.54.21,4.85,4.85,0,0,1-.6.13,5.39,5.39,0,0,1-.72,0,3.14,3.14,0,0,1-1.21-.22,2.82,2.82,0,0,1-1-.63,3.05,3.05,0,0,1-.61-1,3.92,3.92,0,0,1,0-2.59,2.78,2.78,0,0,1,.62-1,2.67,2.67,0,0,1,1-.63,3.47,3.47,0,0,1,1.28-.23,4.29,4.29,0,0,1,.65,0,3.06,3.06,0,0,1,.56.14,2.65,2.65,0,0,1,.48.23,3.9,3.9,0,0,1,.42.32l-.12.19a.11.11,0,0,1-.1.06H59.3l-.19-.13a2.18,2.18,0,0,0-.33-.2,2.51,2.51,0,0,0-.53-.18,3.14,3.14,0,0,0-1.85.11,2.25,2.25,0,0,0-.83.54,2.38,2.38,0,0,0-.52.87,3.25,3.25,0,0,0-.19,1.16,3.34,3.34,0,0,0,.19,1.17,2.52,2.52,0,0,0,.52.87,2.38,2.38,0,0,0,.81.55A2.71,2.71,0,0,0,57.42,100.18Z"/><path class="cls-1" d="M64.21,94.34a.21.21,0,0,1,.08.06l4,5.34a2.35,2.35,0,0,1,0-.26V94.32h.39v6.15h-.22a.18.18,0,0,1-.16-.08l-4-5.34a2.12,2.12,0,0,1,0,.24v5.18H63.9V94.32h.22Z"/><path class="cls-1" d="M76.77,94.32v.37H73.53v2.49h2.7v.36h-2.7v2.56h3.24v.37H73.08V94.32Z"/><path class="cls-1" d="M81.41,97.69v2.78H81V94.32h1.57a2.58,2.58,0,0,1,1.59.41,1.43,1.43,0,0,1,.53,1.21,1.66,1.66,0,0,1-.12.64,1.41,1.41,0,0,1-.35.51,1.75,1.75,0,0,1-.55.36,2.3,2.3,0,0,1-.73.19.61.61,0,0,1,.19.17l2.12,2.66h-.39a.23.23,0,0,1-.12,0l-.1-.09-2-2.49a.42.42,0,0,0-.16-.14.56.56,0,0,0-.26,0Zm0-.33h1.07a2.39,2.39,0,0,0,.73-.1,1.5,1.5,0,0,0,.55-.28,1.22,1.22,0,0,0,.34-.44,1.34,1.34,0,0,0,.12-.58,1.15,1.15,0,0,0-.43-1,2.13,2.13,0,0,0-1.26-.32H81.41Z"/></g></g></svg>