<svg xmlns="http://www.w3.org/2000/svg" viewBox="0 0 88.76 66.09"><defs><style>.cls-1{fill:#3c8089;}</style></defs><title>logo-sofia_3</title><g id="Layer_2" data-name="Layer 2"><g id="Layer_1-2" data-name="Layer 1"><path class="cls-1" d="M47.55,17.16a21.36,21.36,0,0,1,3.75-6,19.85,19.85,0,0,1,6.6-4.8,20.69,20.69,0,0,1,8.74-1.78A21.35,21.35,0,0,1,75,6.1a18.38,18.38,0,0,1,6.28,4.31l3.56-3.56a22.58,22.58,0,0,0-7.7-5A28.06,28.06,0,0,0,66.56,0,27,27,0,0,0,56.12,2,25.08,25.08,0,0,0,42.24,15.91c-.17.41-.33.83-.47,1.25Z"/><path class="cls-1" d="M80.26,32.09V45.22a19.71,19.71,0,0,1-5.78,2.35,31,31,0,0,1-7.84.93,20.69,20.69,0,0,1-8.74-1.78A20.2,20.2,0,0,1,51.3,42a20.89,20.89,0,0,1-4.17-7,23.72,23.72,0,0,1-.83-2.88H40.74a26.46,26.46,0,0,0,1.47,5.07A24.62,24.62,0,0,0,56,51.07a27.45,27.45,0,0,0,10.55,2,40.11,40.11,0,0,0,9.92-1.22,32.77,32.77,0,0,0,8.92-3.72v-16Z"/><path class="cls-1" d="M7.36,17.16a8.52,8.52,0,0,1-.6-3.32,8.64,8.64,0,0,1,1-4.21,8.85,8.85,0,0,1,2.53-3,10.81,10.81,0,0,1,3.49-1.75,13.34,13.34,0,0,1,3.78-.57,12.83,12.83,0,0,1,6.21,1.39A12.37,12.37,0,0,1,28,9.42L32,6.13a15.13,15.13,0,0,0-5.49-4.31A19.46,19.46,0,0,0,17.75,0a20.91,20.91,0,0,0-5.64.79,15.92,15.92,0,0,0-5.2,2.49A13.15,13.15,0,0,0,3.09,7.63a12.7,12.7,0,0,0-1.46,6.28A15.64,15.64,0,0,0,2,17.16Z"/><path class="cls-1" d="M31.19,32.09H24.43a9.23,9.23,0,0,1,2.05,2.4,8.45,8.45,0,0,1,1,4.38,8.47,8.47,0,0,1-1,4.25,10.23,10.23,0,0,1-2.63,3.06A11.06,11.06,0,0,1,20.24,48a13.58,13.58,0,0,1-3.92.6,13,13,0,0,1-7-1.81,13.57,13.57,0,0,1-4.6-4.53L.34,45.58a17.43,17.43,0,0,0,3.14,3.28,17.89,17.89,0,0,0,3.85,2.35,20.54,20.54,0,0,0,4.36,1.39,22.77,22.77,0,0,0,4.56.47,21.3,21.3,0,0,0,5.95-.86,15.55,15.55,0,0,0,5.27-2.64,13.4,13.4,0,0,0,5.18-11,12.94,12.94,0,0,0-1.35-6.25C31.27,32.21,31.23,32.16,31.19,32.09Z"/><path class="cls-1" d="M3.85,22.46a.29.29,0,0,1-.11.13.24.24,0,0,1-.15,0,.35.35,0,0,1-.2-.07l-.25-.15-.35-.15a1.63,1.63,0,0,0-.47-.06,1.33,1.33,0,0,0-.42.06.72.72,0,0,0-.3.16.58.58,0,0,0-.19.25.83.83,0,0,0-.06.32.57.57,0,0,0,.12.37,1,1,0,0,0,.33.25,3.53,3.53,0,0,0,.47.19L2.8,24l.53.22a1.92,1.92,0,0,1,.47.31,1.45,1.45,0,0,1,.32.47,1.47,1.47,0,0,1,.13.66,2.11,2.11,0,0,1-.15.8,1.73,1.73,0,0,1-.42.65,2,2,0,0,1-.69.43,2.43,2.43,0,0,1-.92.16,3.05,3.05,0,0,1-.6-.06,3.19,3.19,0,0,1-.55-.16,2.65,2.65,0,0,1-.5-.27A2.36,2.36,0,0,1,0,26.85l.34-.57a.4.4,0,0,1,.12-.1.33.33,0,0,1,.15,0,.4.4,0,0,1,.23.09l.3.2a2.48,2.48,0,0,0,.4.2,1.57,1.57,0,0,0,.56.09,1.16,1.16,0,0,0,.78-.24.87.87,0,0,0,.27-.68A.66.66,0,0,0,3,25.39a1.23,1.23,0,0,0-.33-.26A2.56,2.56,0,0,0,2.23,25l-.53-.16a4.87,4.87,0,0,1-.53-.21,1.65,1.65,0,0,1-.46-.32,1.32,1.32,0,0,1-.33-.49,1.69,1.69,0,0,1-.13-.72,1.75,1.75,0,0,1,.14-.67,1.77,1.77,0,0,1,.4-.58,1.84,1.84,0,0,1,.65-.4,2.33,2.33,0,0,1,.87-.16,2.9,2.9,0,0,1,1,.18,2.24,2.24,0,0,1,.8.49Z"/><path class="cls-1" d="M13.79,24.46a3.55,3.55,0,0,1-.23,1.28,3.18,3.18,0,0,1-.65,1,2.84,2.84,0,0,1-1,.67,3.38,3.38,0,0,1-1.3.24,3.46,3.46,0,0,1-1.3-.24,2.93,2.93,0,0,1-1-.67,3.18,3.18,0,0,1-.65-1,3.68,3.68,0,0,1,0-2.56,3,3,0,0,1,.65-1,2.93,2.93,0,0,1,1-.67,3.27,3.27,0,0,1,1.3-.25,3.38,3.38,0,0,1,1.3.25,2.84,2.84,0,0,1,1,.67,3.07,3.07,0,0,1,.65,1A3.55,3.55,0,0,1,13.79,24.46Zm-1.2,0a2.93,2.93,0,0,0-.14-.93,2,2,0,0,0-.39-.7,1.75,1.75,0,0,0-.63-.44,2.16,2.16,0,0,0-.83-.15,2.23,2.23,0,0,0-.83.15,1.84,1.84,0,0,0-.63.44,2,2,0,0,0-.39.7,2.67,2.67,0,0,0-.14.93,2.75,2.75,0,0,0,.14.93,1.94,1.94,0,0,0,.39.69,1.84,1.84,0,0,0,.63.44,2.23,2.23,0,0,0,.83.15,2.16,2.16,0,0,0,.83-.15,1.75,1.75,0,0,0,.63-.44,1.94,1.94,0,0,0,.39-.69A3,3,0,0,0,12.59,24.46Z"/><path class="cls-1" d="M21.29,21.31v.93H18.5v1.87h2.35V25H18.5V27.6H17.32V21.31Z"/><path class="cls-1" d="M26.13,27.6H25V21.31h1.17Z"/><path class="cls-1" d="M35.68,27.6h-.9a.37.37,0,0,1-.25-.07.45.45,0,0,1-.15-.19l-.47-1.29h-2.6l-.47,1.29a.39.39,0,0,1-.14.18.36.36,0,0,1-.25.08h-.91L32,21.31h1.2Zm-4.07-2.37h2l-.77-2.09c0-.1-.07-.21-.12-.33l-.12-.41-.12.41c0,.13-.08.24-.11.33Z"/><path class="cls-1" d="M50.4,26.74a2.77,2.77,0,0,0,.69-.07,2.66,2.66,0,0,0,.56-.2V25.33h-.79a.21.21,0,0,1-.17-.07.18.18,0,0,1-.07-.15v-.66h2.09V27a3.21,3.21,0,0,1-.5.31,3.93,3.93,0,0,1-.55.21,5.14,5.14,0,0,1-1.35.16A3.3,3.3,0,0,1,49,27.43a3.22,3.22,0,0,1-1-.66,3,3,0,0,1-.65-1,3.37,3.37,0,0,1-.24-1.29,3.62,3.62,0,0,1,.23-1.3,2.83,2.83,0,0,1,.65-1,3.14,3.14,0,0,1,1-.66,3.66,3.66,0,0,1,1.36-.24,3.56,3.56,0,0,1,1.33.23,2.9,2.9,0,0,1,1,.6l-.34.53a.33.33,0,0,1-.27.16.44.44,0,0,1-.21-.07l-.28-.17a2.52,2.52,0,0,0-.33-.14,3.15,3.15,0,0,0-.39-.1,2.64,2.64,0,0,0-.51,0,2.06,2.06,0,0,0-.84.16,1.62,1.62,0,0,0-.64.45,1.8,1.8,0,0,0-.41.7,2.6,2.6,0,0,0-.14.91,3,3,0,0,0,.15,1,2,2,0,0,0,.42.71,1.89,1.89,0,0,0,.66.45A2.18,2.18,0,0,0,50.4,26.74Z"/><path class="cls-1" d="M62.44,24.46a3.35,3.35,0,0,1-.23,1.28,3.15,3.15,0,0,1-.64,1,2.93,2.93,0,0,1-1,.67,3.38,3.38,0,0,1-1.3.24,3.42,3.42,0,0,1-1.3-.24,2.84,2.84,0,0,1-1-.67,3,3,0,0,1-.65-1,3.68,3.68,0,0,1,0-2.56A2.92,2.92,0,0,1,58,21.49a3.24,3.24,0,0,1,1.3-.25,3.38,3.38,0,0,1,1.3.25,2.93,2.93,0,0,1,1,.67,3,3,0,0,1,.64,1A3.35,3.35,0,0,1,62.44,24.46Zm-1.2,0a2.94,2.94,0,0,0-.13-.93,2,2,0,0,0-.4-.7,1.71,1.71,0,0,0-.62-.44,2.37,2.37,0,0,0-1.66,0,1.67,1.67,0,0,0-.63.44,2.17,2.17,0,0,0-.4.7,2.93,2.93,0,0,0-.14.93,3,3,0,0,0,.14.93,2.12,2.12,0,0,0,.4.69,1.67,1.67,0,0,0,.63.44,2.37,2.37,0,0,0,1.66,0,1.71,1.71,0,0,0,.62-.44,2,2,0,0,0,.4-.69A3,3,0,0,0,61.24,24.46Z"/><path class="cls-1" d="M69.27,25.28l.12.3.13-.3a2.75,2.75,0,0,1,.14-.3l1.86-3.48a.43.43,0,0,1,.07-.1.21.21,0,0,1,.08-.06l.11,0h1V27.6h-1V23.54c0-.07,0-.16,0-.25s0-.18,0-.27l-1.9,3.57a.42.42,0,0,1-.17.18.4.4,0,0,1-.24.07h-.17a.4.4,0,0,1-.24-.07.49.49,0,0,1-.17-.18L67,23a1.27,1.27,0,0,1,0,.28c0,.09,0,.17,0,.25V27.6H66V21.31h1l.11,0,.08.06a.26.26,0,0,1,.07.1L69.13,25C69.18,25.09,69.23,25.18,69.27,25.28Z"/><path class="cls-1" d="M80.64,21.31v.93H77.85V24h2.2v.9h-2.2v1.78h2.79v.93h-4V21.31Z"/><path class="cls-1" d="M88.76,21.31v.43a.61.61,0,0,1-.12.37l-3.22,4.56h3.26v.93H83.9v-.46a.51.51,0,0,1,0-.17.55.55,0,0,1,.08-.15l3.23-4.58H84.1v-.93Z"/><path class="cls-1" d="M6.31,65.7a2,2,0,0,0,.8-.15,1.83,1.83,0,0,0,.59-.43,1.9,1.9,0,0,0,.37-.65,2.32,2.32,0,0,0,.13-.8V59.86h.44v3.81a2.67,2.67,0,0,1-.16,1,2.23,2.23,0,0,1-.46.77,2.09,2.09,0,0,1-.73.51,2.38,2.38,0,0,1-1,.19,2.33,2.33,0,0,1-1-.19,2,2,0,0,1-.73-.51,2.25,2.25,0,0,1-.47-.77,2.91,2.91,0,0,1-.16-1V59.86h.45v3.81a2.36,2.36,0,0,0,.13.8,1.77,1.77,0,0,0,.37.64,1.58,1.58,0,0,0,.59.43A1.83,1.83,0,0,0,6.31,65.7Z"/><path class="cls-1" d="M14.41,62.86l-2.12-3h.44a.12.12,0,0,1,.09,0l0,.06,1.87,2.7a.64.64,0,0,1,0-.07.16.16,0,0,0,0-.07L16.61,60a.18.18,0,0,1,.05-.07.11.11,0,0,1,.08,0h.42l-2.12,3L17.25,66h-.44a.1.1,0,0,1-.09,0,.19.19,0,0,1-.06-.07l-1.94-2.84a.31.31,0,0,1-.06.13l-1.91,2.71a.23.23,0,0,1-.07.07.1.1,0,0,1-.09,0h-.4Z"/><path class="cls-1" d="M30.32,62.94a3.7,3.7,0,0,1-.21,1.28,3,3,0,0,1-.6,1,2.71,2.71,0,0,1-.93.62,3.29,3.29,0,0,1-1.2.21H25.14V59.86h2.24a3.09,3.09,0,0,1,1.2.22,2.55,2.55,0,0,1,.93.61,3.06,3.06,0,0,1,.6,1A3.7,3.7,0,0,1,30.32,62.94Zm-.46,0a3.43,3.43,0,0,0-.18-1.15,2.45,2.45,0,0,0-.5-.85,2.21,2.21,0,0,0-.78-.53,2.8,2.8,0,0,0-1-.19H25.59v5.44h1.79a2.61,2.61,0,0,0,1-.19,2.08,2.08,0,0,0,.78-.53,2.45,2.45,0,0,0,.5-.85A3.39,3.39,0,0,0,29.86,62.94Z"/><path class="cls-1" d="M38.05,59.86v.37H34.81v2.49H37.5v.36H34.81v2.57h3.24V66H34.36V59.86Z"/><path class="cls-1" d="M45.09,60.61a.14.14,0,0,1-.11.08.28.28,0,0,1-.15-.08,1.25,1.25,0,0,0-.24-.18,1.49,1.49,0,0,0-.38-.18,1.62,1.62,0,0,0-.57-.09,1.78,1.78,0,0,0-.59.1,1.24,1.24,0,0,0-.43.26,1.15,1.15,0,0,0-.35.84.93.93,0,0,0,.13.52,1.45,1.45,0,0,0,.35.35,2.9,2.9,0,0,0,.5.24l.57.19c.19.06.38.14.56.21a2.43,2.43,0,0,1,.5.29,1.47,1.47,0,0,1,.35.43,1.34,1.34,0,0,1,.13.63,2,2,0,0,1-.13.73,1.6,1.6,0,0,1-.39.59,1.62,1.62,0,0,1-.61.4,2.21,2.21,0,0,1-.84.15,2.32,2.32,0,0,1-1-.22,2.44,2.44,0,0,1-.77-.59l.13-.19a.14.14,0,0,1,.12-.06.15.15,0,0,1,.1,0l.15.13a1.41,1.41,0,0,0,.21.16,1.48,1.48,0,0,0,.28.17,2.64,2.64,0,0,0,.37.13,2.26,2.26,0,0,0,.47,0,1.9,1.9,0,0,0,.66-.11,1.63,1.63,0,0,0,.48-.3,1.19,1.19,0,0,0,.3-.46,1.3,1.3,0,0,0,.11-.56,1,1,0,0,0-.13-.54,1.17,1.17,0,0,0-.35-.35,1.93,1.93,0,0,0-.5-.24L43.4,63c-.19-.06-.38-.12-.57-.2a2.18,2.18,0,0,1-.49-.29A1.39,1.39,0,0,1,42,62a1.41,1.41,0,0,1-.13-.66,1.71,1.71,0,0,1,.11-.59,1.6,1.6,0,0,1,.35-.51,1.67,1.67,0,0,1,.56-.35,2,2,0,0,1,.76-.14,2.31,2.31,0,0,1,.86.16,2,2,0,0,1,.69.46Z"/><path class="cls-1" d="M49.87,66h-.45V59.86h.45Z"/><path class="cls-1" d="M57.12,65.73a3.52,3.52,0,0,0,.58,0,3.41,3.41,0,0,0,.48-.09l.43-.16a3.84,3.84,0,0,0,.4-.21V63.57H57.83a.11.11,0,0,1-.08,0,.09.09,0,0,1,0-.07v-.24h1.7v2.18a3.4,3.4,0,0,1-.48.29A3.57,3.57,0,0,1,57.8,66a5.16,5.16,0,0,1-.71,0,3.19,3.19,0,0,1-1.22-.23,2.68,2.68,0,0,1-.94-.63,2.89,2.89,0,0,1-.61-1,3.53,3.53,0,0,1-.22-1.29,3.58,3.58,0,0,1,.22-1.3,2.94,2.94,0,0,1,.61-1,2.85,2.85,0,0,1,1-.63,3.44,3.44,0,0,1,1.28-.23,4.4,4.4,0,0,1,.65.05,3,3,0,0,1,.55.14,3.54,3.54,0,0,1,.48.23,4.35,4.35,0,0,1,.43.32l-.12.19a.14.14,0,0,1-.11.07l-.07,0a.93.93,0,0,1-.19-.12,2,2,0,0,0-.34-.2,2.3,2.3,0,0,0-.53-.19,3.31,3.31,0,0,0-.77-.08,2.85,2.85,0,0,0-1.08.19,2.32,2.32,0,0,0-.82.55,2.24,2.24,0,0,0-.53.87,3.43,3.43,0,0,0-.18,1.15,3.59,3.59,0,0,0,.18,1.17,2.59,2.59,0,0,0,.53.88,2.33,2.33,0,0,0,.81.55A2.87,2.87,0,0,0,57.12,65.73Z"/><path class="cls-1" d="M63.91,59.88A.15.15,0,0,1,64,60l4,5.33c0-.09,0-.17,0-.25V59.86h.39V66h-.21a.18.18,0,0,1-.16-.09l-4-5.34a2.18,2.18,0,0,1,0,.25V66h-.39V59.86h.22Z"/><path class="cls-1" d="M76.47,59.86v.37H73.23v2.49h2.69v.36H73.23v2.57h3.24V66H72.78V59.86Z"/><path class="cls-1" d="M81.1,63.23V66h-.44V59.86h1.57a2.58,2.58,0,0,1,1.59.41,1.46,1.46,0,0,1,.53,1.21,1.71,1.71,0,0,1-.12.65,1.78,1.78,0,0,1-.35.51,2.38,2.38,0,0,1-.55.36,2.69,2.69,0,0,1-.73.18.8.8,0,0,1,.19.18L84.9,66h-.38a.27.27,0,0,1-.22-.12l-2-2.49a.52.52,0,0,0-.16-.14.78.78,0,0,0-.26,0Zm0-.33h1.07a2.78,2.78,0,0,0,.74-.09,1.72,1.72,0,0,0,.54-.28,1.19,1.19,0,0,0,.34-.44,1.37,1.37,0,0,0,.12-.58,1.14,1.14,0,0,0-.43-1,2.1,2.1,0,0,0-1.25-.31H81.1Z"/></g></g></svg>