<svg xmlns="http://www.w3.org/2000/svg" viewBox="0 0 88.76 79.11"><defs><style>.cls-1{fill:#2d3c6b;}</style></defs><title>Asset 13</title><g id="Layer_2" data-name="Layer 2"><g id="Layer_1-2" data-name="Layer 1"><path class="cls-1" d="M46.41,23.86a23.88,23.88,0,0,1,1.3-5.69,21.55,21.55,0,0,1,4.17-7,19.72,19.72,0,0,1,6.6-4.8,20.69,20.69,0,0,1,8.74-1.79A21.31,21.31,0,0,1,75.56,6.1a18.38,18.38,0,0,1,6.28,4.31l3.57-3.56a22.72,22.72,0,0,0-7.71-5A28,28,0,0,0,67.15,0,27,27,0,0,0,56.7,2,25,25,0,0,0,42.82,15.91a26.88,26.88,0,0,0-1.88,8Z"/><path class="cls-1" d="M80.84,31.11V45.22a19.71,19.71,0,0,1-5.78,2.35,31,31,0,0,1-7.84.93,20.69,20.69,0,0,1-8.74-1.78A20.2,20.2,0,0,1,51.88,42a21.06,21.06,0,0,1-4.17-7,23.14,23.14,0,0,1-1-3.86H41.16a26.84,26.84,0,0,0,1.63,6,25.22,25.22,0,0,0,5.46,8.38,24.92,24.92,0,0,0,8.34,5.53,27.47,27.47,0,0,0,10.56,2,40.09,40.09,0,0,0,9.91-1.22A32.64,32.64,0,0,0,86,48.13v-17Z"/><path class="cls-1" d="M3.85,62.39a.29.29,0,0,1-.11.13.24.24,0,0,1-.15,0,.35.35,0,0,1-.2-.07l-.25-.15-.35-.15a1.63,1.63,0,0,0-.47-.06,1.73,1.73,0,0,0-.42,0,1,1,0,0,0-.31.17.64.64,0,0,0-.18.25.79.79,0,0,0-.06.32.57.57,0,0,0,.12.37,1,1,0,0,0,.33.25,3.53,3.53,0,0,0,.47.19l.53.17a4.93,4.93,0,0,1,.53.22,1.92,1.92,0,0,1,.47.31,1.45,1.45,0,0,1,.32.47,1.47,1.47,0,0,1,.13.66,2.11,2.11,0,0,1-.15.8,1.87,1.87,0,0,1-.42.65,2,2,0,0,1-.69.43,2.43,2.43,0,0,1-.92.16,3.05,3.05,0,0,1-.6-.06,3.19,3.19,0,0,1-.55-.16,2.65,2.65,0,0,1-.5-.27A2,2,0,0,1,0,66.77l.34-.56a.4.4,0,0,1,.12-.1.23.23,0,0,1,.14,0,.4.4,0,0,1,.24.09,3.11,3.11,0,0,0,.3.2,2.48,2.48,0,0,0,.4.2,1.84,1.84,0,0,0,.56.08,1.17,1.17,0,0,0,.78-.23.87.87,0,0,0,.27-.68A.66.66,0,0,0,3,65.32a1.23,1.23,0,0,0-.33-.26,2.56,2.56,0,0,0-.47-.18l-.53-.16a4.87,4.87,0,0,1-.53-.21,1.65,1.65,0,0,1-.46-.32,1.32,1.32,0,0,1-.33-.49A1.72,1.72,0,0,1,.25,63a1.75,1.75,0,0,1,.14-.67,1.63,1.63,0,0,1,.4-.58,1.84,1.84,0,0,1,.65-.4,2.14,2.14,0,0,1,.87-.16,2.9,2.9,0,0,1,1,.18,2.37,2.37,0,0,1,.8.48Z"/><path class="cls-1" d="M13.79,64.39a3.55,3.55,0,0,1-.23,1.28,3.18,3.18,0,0,1-.65,1,2.84,2.84,0,0,1-1,.67,3.38,3.38,0,0,1-1.3.24,3.42,3.42,0,0,1-1.3-.24,2.93,2.93,0,0,1-1-.67,3.18,3.18,0,0,1-.65-1,3.68,3.68,0,0,1,0-2.56,3,3,0,0,1,.65-1,2.93,2.93,0,0,1,1-.67,3.24,3.24,0,0,1,1.3-.25,3.21,3.21,0,0,1,1.3.25,2.84,2.84,0,0,1,1,.67,3,3,0,0,1,.65,1A3.55,3.55,0,0,1,13.79,64.39Zm-1.2,0a2.93,2.93,0,0,0-.14-.93,1.9,1.9,0,0,0-.39-.7,1.75,1.75,0,0,0-.63-.44,2.16,2.16,0,0,0-.83-.15,2.23,2.23,0,0,0-.83.15,1.84,1.84,0,0,0-.63.44,1.9,1.9,0,0,0-.39.7,2.67,2.67,0,0,0-.14.93,2.75,2.75,0,0,0,.14.93,1.94,1.94,0,0,0,.39.69,1.84,1.84,0,0,0,.63.44,2.23,2.23,0,0,0,.83.15,2.16,2.16,0,0,0,.83-.15,1.75,1.75,0,0,0,.63-.44,1.94,1.94,0,0,0,.39-.69A3,3,0,0,0,12.59,64.39Z"/><path class="cls-1" d="M21.29,61.24v.93H18.5V64h2.35V65H18.5v2.56H17.32V61.24Z"/><path class="cls-1" d="M26.13,67.53H25V61.24h1.17Z"/><path class="cls-1" d="M35.68,67.53h-.9a.37.37,0,0,1-.25-.07.45.45,0,0,1-.15-.19L33.91,66h-2.6l-.47,1.29a.44.44,0,0,1-.14.18.41.41,0,0,1-.25.08h-.91L32,61.24h1.2Zm-4.07-2.37h2l-.76-2.09c0-.1-.07-.21-.12-.33l-.12-.41-.12.41-.11.33Z"/><path class="cls-1" d="M50.4,66.67a2.77,2.77,0,0,0,.69-.07,2.66,2.66,0,0,0,.56-.2V65.26h-.79a.24.24,0,0,1-.18-.07.2.2,0,0,1-.06-.15v-.66h2.09v2.54a3.21,3.21,0,0,1-.5.31,3.93,3.93,0,0,1-.55.21,5.14,5.14,0,0,1-1.35.16A3.3,3.3,0,0,1,49,67.36a3.22,3.22,0,0,1-1-.66,3,3,0,0,1-.65-1,3.44,3.44,0,0,1-.24-1.29,3.62,3.62,0,0,1,.23-1.3,2.83,2.83,0,0,1,.65-1,3.14,3.14,0,0,1,1-.66,3.66,3.66,0,0,1,1.36-.24,3.56,3.56,0,0,1,1.33.23,2.9,2.9,0,0,1,1,.6l-.34.53a.33.33,0,0,1-.27.16.44.44,0,0,1-.21-.07l-.29-.17a1.92,1.92,0,0,0-.32-.14,2,2,0,0,0-.39-.1,2.64,2.64,0,0,0-.51,0,2.06,2.06,0,0,0-.84.16,1.7,1.7,0,0,0-.64.44,2,2,0,0,0-.41.7,2.69,2.69,0,0,0-.15.92,2.84,2.84,0,0,0,.16,1,2,2,0,0,0,.42.72,2,2,0,0,0,.66.45A2.18,2.18,0,0,0,50.4,66.67Z"/><path class="cls-1" d="M62.44,64.39a3.35,3.35,0,0,1-.23,1.28,3.15,3.15,0,0,1-.64,1,2.93,2.93,0,0,1-1,.67,3.64,3.64,0,0,1-2.6,0,2.84,2.84,0,0,1-1-.67,3,3,0,0,1-.65-1,3.68,3.68,0,0,1,0-2.56A2.92,2.92,0,0,1,58,61.42a3.5,3.5,0,0,1,2.6,0,2.87,2.87,0,0,1,1.65,1.69A3.35,3.35,0,0,1,62.44,64.39Zm-1.2,0a2.94,2.94,0,0,0-.13-.93,2.07,2.07,0,0,0-.4-.7,1.71,1.71,0,0,0-.62-.44,2.37,2.37,0,0,0-1.66,0,1.67,1.67,0,0,0-.63.44,2.07,2.07,0,0,0-.4.7,2.93,2.93,0,0,0-.14.93,3,3,0,0,0,.14.93,2.12,2.12,0,0,0,.4.69,1.67,1.67,0,0,0,.63.44,2.37,2.37,0,0,0,1.66,0,1.71,1.71,0,0,0,.62-.44,2.12,2.12,0,0,0,.4-.69A3,3,0,0,0,61.24,64.39Z"/><path class="cls-1" d="M69.27,65.21l.12.3.13-.3a2.75,2.75,0,0,1,.14-.3l1.86-3.48a.43.43,0,0,1,.07-.1.21.21,0,0,1,.08-.06l.11,0h1v6.29h-1V63.47c0-.08,0-.16,0-.25a2.45,2.45,0,0,1,0-.27l-1.9,3.56a.45.45,0,0,1-.17.19.4.4,0,0,1-.24.07h-.17a.4.4,0,0,1-.24-.07.53.53,0,0,1-.17-.19L67,62.93a1.43,1.43,0,0,1,0,.29c0,.09,0,.17,0,.25v4.06H66V61.24h1l.1,0a.24.24,0,0,1,.09.06.26.26,0,0,1,.07.1l1.88,3.49A2.59,2.59,0,0,1,69.27,65.21Z"/><path class="cls-1" d="M80.64,61.24v.93H77.85v1.75h2.2v.9h-2.2V66.6h2.79v.93h-4V61.24Z"/><path class="cls-1" d="M88.76,61.24v.43a.61.61,0,0,1-.12.37L85.42,66.6h3.26v.93H83.9v-.46a.51.51,0,0,1,0-.17.55.55,0,0,1,.08-.15l3.23-4.58H84.1v-.93Z"/><path class="cls-1" d="M6.72,78.71a2,2,0,0,0,.79-.15,1.7,1.7,0,0,0,.59-.43,1.88,1.88,0,0,0,.38-.64,2.64,2.64,0,0,0,.12-.81v-3.8h.45v3.8a2.91,2.91,0,0,1-.16.95,2.24,2.24,0,0,1-1.2,1.29,2.5,2.5,0,0,1-1,.19,2.47,2.47,0,0,1-1-.19A2.2,2.2,0,0,1,5,78.4a2.14,2.14,0,0,1-.46-.77,2.67,2.67,0,0,1-.16-.95v-3.8h.44v3.8a2.58,2.58,0,0,0,.13.8,2.08,2.08,0,0,0,.37.65,1.83,1.83,0,0,0,.59.43A2,2,0,0,0,6.72,78.71Z"/><path class="cls-1" d="M14.81,75.87l-2.12-3h.44l.09,0,0,.06,1.87,2.7,0-.07a.21.21,0,0,1,0-.06L17,73l.06-.06a.09.09,0,0,1,.07,0h.43l-2.13,3L17.66,79h-.44a.13.13,0,0,1-.1,0l-.06-.08-1.94-2.83a.34.34,0,0,1-.06.12l-1.9,2.71-.07.08A.16.16,0,0,1,13,79h-.41Z"/><path class="cls-1" d="M30.72,76a3.71,3.71,0,0,1-.21,1.29,2.74,2.74,0,0,1-.6,1,2.69,2.69,0,0,1-.93.61,3.23,3.23,0,0,1-1.19.21H25.54V72.88h2.25a3.23,3.23,0,0,1,1.19.21,2.69,2.69,0,0,1,.93.61,2.74,2.74,0,0,1,.6,1A3.7,3.7,0,0,1,30.72,76Zm-.46,0a3.43,3.43,0,0,0-.18-1.15,2.25,2.25,0,0,0-.5-.85,2,2,0,0,0-.78-.53,2.71,2.71,0,0,0-1-.18H26v5.43h1.8a2.71,2.71,0,0,0,1-.18,2,2,0,0,0,.78-.53,2.22,2.22,0,0,0,.5-.86A3.39,3.39,0,0,0,30.26,76Z"/><path class="cls-1" d="M38.45,72.88v.37H35.21v2.49h2.7v.36h-2.7v2.56h3.24V79H34.76V72.88Z"/><path class="cls-1" d="M45.49,73.63a.12.12,0,0,1-.11.07.28.28,0,0,1-.15-.08L45,73.44a2.74,2.74,0,0,0-.38-.18,1.82,1.82,0,0,0-.57-.08,1.78,1.78,0,0,0-.59.09,1.25,1.25,0,0,0-.42.26,1.05,1.05,0,0,0-.27.39,1.13,1.13,0,0,0-.09.45.94.94,0,0,0,.14.52,1.17,1.17,0,0,0,.35.35,2.23,2.23,0,0,0,.49.24l.57.19.57.22a2,2,0,0,1,.49.28,1.21,1.21,0,0,1,.35.43,1.35,1.35,0,0,1,.14.64,1.92,1.92,0,0,1-.14.72,1.58,1.58,0,0,1-.38.6,1.79,1.79,0,0,1-.62.4,2.37,2.37,0,0,1-.83.14,2.4,2.4,0,0,1-1-.21A2.59,2.59,0,0,1,42,78.3l.12-.19a.15.15,0,0,1,.12-.07.19.19,0,0,1,.1,0l.15.13.21.17a1.87,1.87,0,0,0,.28.16,2.64,2.64,0,0,0,.37.13,2.28,2.28,0,0,0,.48,0,1.88,1.88,0,0,0,.65-.11,1.44,1.44,0,0,0,.49-.3,1.31,1.31,0,0,0,.3-.46,1.47,1.47,0,0,0,.1-.56,1,1,0,0,0-.13-.54,1.17,1.17,0,0,0-.35-.35,2.79,2.79,0,0,0-.49-.24L43.81,76a4.79,4.79,0,0,1-.57-.21,1.59,1.59,0,0,1-.49-.29,1.2,1.2,0,0,1-.36-.44,1.63,1.63,0,0,1,0-1.25,1.57,1.57,0,0,1,.34-.51,1.84,1.84,0,0,1,.56-.35,2,2,0,0,1,.76-.13,2.31,2.31,0,0,1,.86.15,2,2,0,0,1,.7.47Z"/><path class="cls-1" d="M50.28,79h-.45V72.88h.45Z"/><path class="cls-1" d="M57.52,78.74a5.09,5.09,0,0,0,.58,0,3.54,3.54,0,0,0,.49-.1,2.61,2.61,0,0,0,.42-.16,4,4,0,0,0,.41-.21V76.58H58.24a.1.1,0,0,1-.08,0,.08.08,0,0,1,0-.07v-.24h1.7v2.19a3.77,3.77,0,0,1-.48.28,2.25,2.25,0,0,1-.53.21,3.52,3.52,0,0,1-.6.14,5.39,5.39,0,0,1-.72,0,3.14,3.14,0,0,1-1.21-.22,2.62,2.62,0,0,1-1-.64,2.91,2.91,0,0,1-.61-1,3.92,3.92,0,0,1,0-2.59,2.78,2.78,0,0,1,.62-1,2.69,2.69,0,0,1,1-.64,3.47,3.47,0,0,1,1.28-.22,3.3,3.3,0,0,1,.65,0,2.42,2.42,0,0,1,.56.14,2.65,2.65,0,0,1,.48.23,3.77,3.77,0,0,1,.42.31l-.12.19a.1.1,0,0,1-.1.07l-.08,0-.19-.12a2.18,2.18,0,0,0-.33-.2,3.18,3.18,0,0,0-.53-.19,3.37,3.37,0,0,0-.77-.08,2.85,2.85,0,0,0-1.08.19,2.28,2.28,0,0,0-.83.55,2.38,2.38,0,0,0-.52.87A3.23,3.23,0,0,0,55,76a3.26,3.26,0,0,0,.19,1.17,2.48,2.48,0,0,0,.52.88,2.38,2.38,0,0,0,.81.55A2.68,2.68,0,0,0,57.52,78.74Z"/><path class="cls-1" d="M64.31,72.89l.08.07,4,5.33a2.09,2.09,0,0,1,0-.25V72.88h.39V79h-.22a.19.19,0,0,1-.16-.09l-4-5.34a2.29,2.29,0,0,1,0,.25V79H64V72.88h.31Z"/><path class="cls-1" d="M76.87,72.88v.37H73.63v2.49h2.7v.36h-2.7v2.56h3.24V79H73.18V72.88Z"/><path class="cls-1" d="M81.51,76.25V79h-.45V72.88h1.57a2.52,2.52,0,0,1,1.59.41,1.41,1.41,0,0,1,.53,1.21,1.66,1.66,0,0,1-.12.64,1.6,1.6,0,0,1-.35.51,1.75,1.75,0,0,1-.55.36,2.37,2.37,0,0,1-.73.19.75.75,0,0,1,.19.17L85.31,79h-.39l-.12,0-.1-.09-2-2.5a.38.38,0,0,0-.16-.13.56.56,0,0,0-.26,0Zm0-.33h1.07a2.39,2.39,0,0,0,.73-.1,1.67,1.67,0,0,0,.55-.28,1.22,1.22,0,0,0,.34-.44,1.34,1.34,0,0,0,.12-.58,1.14,1.14,0,0,0-.43-1,2.13,2.13,0,0,0-1.26-.32H81.51Z"/><path class="cls-1" d="M31.17,31.11H23.61c.24.15.48.29.71.45a9.26,9.26,0,0,1,2.75,2.93,8.55,8.55,0,0,1,1,4.38,8.57,8.57,0,0,1-1,4.25,10.26,10.26,0,0,1-2.64,3.06A11.15,11.15,0,0,1,20.82,48a13.53,13.53,0,0,1-3.92.6A12.93,12.93,0,0,1,10,46.82a13.4,13.4,0,0,1-4.6-4.53L.92,45.58a17.43,17.43,0,0,0,3.14,3.28,18.13,18.13,0,0,0,3.85,2.35,20.54,20.54,0,0,0,4.36,1.39,22.77,22.77,0,0,0,4.56.47,21.42,21.42,0,0,0,6-.86,15.59,15.59,0,0,0,5.26-2.64A13.74,13.74,0,0,0,31.79,45a13.86,13.86,0,0,0,1.44-6.53,12.93,12.93,0,0,0-1.35-6.24C31.66,31.87,31.42,31.48,31.17,31.11Z"/><path class="cls-1" d="M6.49,23.64a3.15,3.15,0,0,0,.29.22H18.63l-.33-.11c-1.42-.47-2.79-.95-4.09-1.43a14.2,14.2,0,0,1-3.49-1.81,8.68,8.68,0,0,1-2.45-2.68,7.73,7.73,0,0,1-.93-4,8.75,8.75,0,0,1,1-4.21,8.85,8.85,0,0,1,2.53-3,10.81,10.81,0,0,1,3.49-1.75,13.34,13.34,0,0,1,3.78-.57,12.83,12.83,0,0,1,6.21,1.39,12.37,12.37,0,0,1,4.21,3.68l4.06-3.29A15,15,0,0,0,27.1,1.82,19.46,19.46,0,0,0,18.33,0a21.3,21.3,0,0,0-5.64.78,16.15,16.15,0,0,0-5.2,2.5A13.15,13.15,0,0,0,3.67,7.63a12.81,12.81,0,0,0-1.46,6.28,12.78,12.78,0,0,0,1.18,5.78A12.07,12.07,0,0,0,6.49,23.64Z"/></g></g></svg>