<?xml version="1.0" encoding="utf-8"?>
<!-- Generator: Adobe Illustrator 22.1.0, SVG Export Plug-In . SVG Version: 6.00 Build 0)  -->
<svg version="1.1" id="Layer_1" xmlns="http://www.w3.org/2000/svg" xmlns:xlink="http://www.w3.org/1999/xlink" x="0px" y="0px"
	 viewBox="0 0 665 265" style="enable-background:new 0 0 665 265;" xml:space="preserve">
<style type="text/css">
	.st0{fill:#3C8089;stroke:#FFFFFF;stroke-width:11.27;}
	.st1{fill:#3C8089;stroke:#FFFFFF;stroke-width:6;}
	.st2{enable-background:new    ;}
	.st3{fill:#FFFFFF;}
	.st4{fill:none;stroke:#FFFFFF;stroke-width:5;}
	.st5{fill:url(#Path_4_);}
	.st6{fill:url(#Path_5_);}
</style>
<title>usercentric</title>
<desc>Created with Sketch.</desc>
<g id="Page-1">
	<path id="Rectangle" class="st0" d="M355.2,111.3l96.1-96.1c11.7-11.7,30.7-11.7,42.4,0l96.1,96.1c11.7,11.7,11.7,30.7,0,42.4
		l-96.1,96.1c-11.7,11.7-30.7,11.7-42.4,0l-96.1-96.1C343.5,142,343.5,123,355.2,111.3z"/>
	<path id="Rectangle_1_" class="st0" d="M80.2,111.3l96.1-96.1c11.7-11.7,30.7-11.7,42.4,0l96.1,96.1c11.7,11.7,11.7,30.7,0,42.4
		l-96.1,96.1c-11.7,11.7-30.7,11.7-42.4,0l-96.1-96.1C68.5,142,68.5,123,80.2,111.3z"/>
	<circle id="Oval_1_" class="st1" cx="333" cy="140" r="43"/>
	<circle id="Oval_2_" class="st1" cx="619" cy="140" r="43"/>
	<circle class="st1" cx="46" cy="133" r="43"/>
	<g class="st2">
		<path class="st3" d="M22.1,130.9c0,1.2-0.4,2-1.2,2.7s-1.9,0.9-3.4,0.9h-1.3v4.5h-1.3v-11.4h3C20.7,127.6,22.1,128.7,22.1,130.9z
			 M16.2,133.4h1.2c1.2,0,2-0.2,2.6-0.6c0.5-0.4,0.8-1,0.8-1.8c0-0.8-0.2-1.3-0.7-1.7c-0.5-0.4-1.3-0.6-2.3-0.6h-1.5V133.4z"/>
		<path class="st3" d="M28.2,130.3c0.4,0,0.7,0,1,0.1l-0.2,1.2c-0.4-0.1-0.7-0.1-0.9-0.1c-0.7,0-1.3,0.3-1.8,0.8s-0.7,1.3-0.7,2.1
			v4.6h-1.3v-8.6h1.1l0.1,1.6h0.1c0.3-0.6,0.7-1,1.1-1.3C27.2,130.4,27.6,130.3,28.2,130.3z"/>
		<path class="st3" d="M38.2,134.7c0,1.4-0.4,2.5-1.1,3.3s-1.7,1.2-2.9,1.2c-0.8,0-1.4-0.2-2-0.5s-1.1-0.9-1.4-1.5
			c-0.3-0.7-0.5-1.5-0.5-2.4c0-1.4,0.3-2.5,1-3.3c0.7-0.8,1.7-1.2,2.9-1.2c1.2,0,2.1,0.4,2.9,1.2C37.8,132.3,38.2,133.4,38.2,134.7z
			 M31.7,134.7c0,1.1,0.2,1.9,0.7,2.5s1.1,0.9,1.9,0.9c0.8,0,1.5-0.3,1.9-0.9c0.4-0.6,0.7-1.4,0.7-2.5c0-1.1-0.2-1.9-0.7-2.5
			c-0.4-0.6-1.1-0.8-1.9-0.8c-0.8,0-1.5,0.3-1.9,0.8C31.9,132.8,31.7,133.6,31.7,134.7z"/>
		<path class="st3" d="M44.5,130.3c1.1,0,2,0.4,2.6,1.2c0.6,0.8,0.9,1.9,0.9,3.3s-0.3,2.5-0.9,3.3c-0.6,0.8-1.5,1.2-2.6,1.2
			c-0.6,0-1.1-0.1-1.5-0.3s-0.8-0.5-1.2-0.9h-0.1l-0.3,1.1h-0.9v-12.2h1.3v3c0,0.7,0,1.3-0.1,1.8h0.1
			C42.4,130.7,43.3,130.3,44.5,130.3z M44.3,131.4c-0.9,0-1.5,0.3-1.9,0.8s-0.6,1.4-0.6,2.6s0.2,2.1,0.6,2.6c0.4,0.5,1,0.8,1.9,0.8
			c0.8,0,1.4-0.3,1.8-0.9s0.6-1.4,0.6-2.5c0-1.1-0.2-1.9-0.6-2.5S45.1,131.4,44.3,131.4z"/>
		<path class="st3" d="M51.6,139h-1.3v-12.2h1.3V139z"/>
		<path class="st3" d="M57.9,139.2c-1.3,0-2.3-0.4-3-1.2c-0.7-0.8-1.1-1.8-1.1-3.2c0-1.4,0.3-2.5,1-3.3s1.6-1.2,2.7-1.2
			c1.1,0,1.9,0.4,2.5,1.1s0.9,1.6,0.9,2.8v0.8h-5.9c0,1,0.3,1.8,0.8,2.3c0.5,0.5,1.2,0.8,2,0.8c0.9,0,1.8-0.2,2.7-0.6v1.2
			c-0.5,0.2-0.9,0.3-1.3,0.4C59,139.1,58.5,139.2,57.9,139.2z M57.6,131.4c-0.7,0-1.2,0.2-1.6,0.7c-0.4,0.4-0.6,1.1-0.7,1.9h4.5
			c0-0.8-0.2-1.4-0.5-1.9C58.8,131.6,58.3,131.4,57.6,131.4z"/>
		<path class="st3" d="M74.2,139v-5.6c0-0.7-0.1-1.2-0.4-1.5c-0.3-0.3-0.7-0.5-1.4-0.5c-0.8,0-1.4,0.2-1.8,0.7
			c-0.4,0.5-0.6,1.2-0.6,2.1v4.8h-1.3v-5.6c0-0.7-0.1-1.2-0.4-1.5c-0.3-0.3-0.7-0.5-1.4-0.5c-0.8,0-1.4,0.2-1.8,0.7
			c-0.4,0.5-0.6,1.3-0.6,2.4v4.5h-1.3v-8.6h1.1l0.2,1.2h0.1c0.2-0.4,0.6-0.7,1-1s0.9-0.4,1.5-0.4c1.3,0,2.2,0.5,2.6,1.5h0.1
			c0.3-0.4,0.6-0.8,1.1-1.1s1-0.4,1.7-0.4c1,0,1.7,0.2,2.2,0.7c0.5,0.5,0.7,1.3,0.7,2.4v5.6H74.2z"/>
	</g>
	<g class="st2">
		<path class="st3" d="M595.1,143c0,1-0.4,1.8-1.1,2.4c-0.7,0.6-1.7,0.8-3,0.8c-1.4,0-2.4-0.2-3.1-0.5v-1.3c0.5,0.2,1,0.4,1.5,0.5
			c0.6,0.1,1.1,0.2,1.6,0.2c0.9,0,1.6-0.2,2-0.5c0.4-0.3,0.7-0.8,0.7-1.4c0-0.4-0.1-0.7-0.2-1c-0.2-0.3-0.4-0.5-0.8-0.7
			c-0.4-0.2-0.9-0.5-1.7-0.7c-1.1-0.4-1.8-0.8-2.3-1.4c-0.5-0.5-0.7-1.2-0.7-2c0-0.9,0.3-1.6,1-2.1c0.7-0.5,1.5-0.8,2.6-0.8
			c1.1,0,2.2,0.2,3.1,0.6l-0.4,1.2c-0.9-0.4-1.9-0.6-2.8-0.6c-0.7,0-1.3,0.2-1.6,0.5c-0.4,0.3-0.6,0.7-0.6,1.3c0,0.4,0.1,0.7,0.2,1
			c0.1,0.3,0.4,0.5,0.7,0.7c0.3,0.2,0.9,0.4,1.6,0.7c1.2,0.4,2,0.9,2.5,1.4C594.9,141.5,595.1,142.2,595.1,143z"/>
		<path class="st3" d="M604.6,141.7c0,1.4-0.4,2.5-1.1,3.3s-1.7,1.2-2.9,1.2c-0.8,0-1.4-0.2-2-0.5s-1.1-0.9-1.4-1.5
			c-0.3-0.7-0.5-1.5-0.5-2.4c0-1.4,0.3-2.5,1-3.3c0.7-0.8,1.7-1.2,2.9-1.2c1.2,0,2.1,0.4,2.9,1.2
			C604.3,139.3,604.6,140.4,604.6,141.7z M598.1,141.7c0,1.1,0.2,1.9,0.7,2.5s1.1,0.9,1.9,0.9c0.8,0,1.5-0.3,1.9-0.9
			c0.4-0.6,0.7-1.4,0.7-2.5c0-1.1-0.2-1.9-0.7-2.5c-0.4-0.6-1.1-0.8-1.9-0.8c-0.8,0-1.5,0.3-1.9,0.8
			C598.3,139.8,598.1,140.6,598.1,141.7z"/>
		<path class="st3" d="M608.2,146h-1.3v-12.2h1.3V146z"/>
		<path class="st3" d="M612.2,137.4v5.6c0,0.7,0.2,1.2,0.5,1.6c0.3,0.3,0.8,0.5,1.5,0.5c0.9,0,1.6-0.2,2-0.7s0.6-1.3,0.6-2.4v-4.5
			h1.3v8.6h-1.1l-0.2-1.1h-0.1c-0.3,0.4-0.6,0.7-1.1,1c-0.5,0.2-1,0.3-1.6,0.3c-1,0-1.8-0.2-2.3-0.7c-0.5-0.5-0.8-1.3-0.8-2.4v-5.6
			H612.2z"/>
		<path class="st3" d="M623.5,145.1c0.2,0,0.5,0,0.7-0.1c0.2,0,0.4-0.1,0.5-0.1v1c-0.1,0.1-0.3,0.1-0.6,0.2s-0.5,0.1-0.7,0.1
			c-1.7,0-2.5-0.9-2.5-2.6v-5.1h-1.2v-0.6l1.2-0.5l0.5-1.8h0.8v2h2.5v1h-2.5v5c0,0.5,0.1,0.9,0.4,1.2
			C622.8,144.9,623.1,145.1,623.5,145.1z"/>
		<path class="st3" d="M626.3,135.1c0-0.3,0.1-0.5,0.2-0.7c0.1-0.1,0.3-0.2,0.5-0.2c0.2,0,0.4,0.1,0.5,0.2c0.2,0.1,0.2,0.4,0.2,0.6
			s-0.1,0.5-0.2,0.7c-0.2,0.1-0.3,0.2-0.5,0.2c-0.2,0-0.4-0.1-0.5-0.2C626.4,135.6,626.3,135.4,626.3,135.1z M627.7,146h-1.3v-8.6
			h1.3V146z"/>
		<path class="st3" d="M637.8,141.7c0,1.4-0.4,2.5-1.1,3.3s-1.7,1.2-2.9,1.2c-0.8,0-1.4-0.2-2-0.5s-1.1-0.9-1.4-1.5
			c-0.3-0.7-0.5-1.5-0.5-2.4c0-1.4,0.3-2.5,1-3.3c0.7-0.8,1.7-1.2,2.9-1.2c1.2,0,2.1,0.4,2.9,1.2
			C637.5,139.3,637.8,140.4,637.8,141.7z M631.3,141.7c0,1.1,0.2,1.9,0.7,2.5s1.1,0.9,1.9,0.9c0.8,0,1.5-0.3,1.9-0.9
			c0.4-0.6,0.7-1.4,0.7-2.5c0-1.1-0.2-1.9-0.7-2.5c-0.4-0.6-1.1-0.8-1.9-0.8c-0.8,0-1.5,0.3-1.9,0.8
			C631.5,139.8,631.3,140.6,631.3,141.7z"/>
		<path class="st3" d="M646,146v-5.5c0-0.7-0.2-1.2-0.5-1.6c-0.3-0.3-0.8-0.5-1.5-0.5c-0.9,0-1.6,0.2-2,0.7
			c-0.4,0.5-0.6,1.3-0.6,2.4v4.5h-1.3v-8.6h1.1l0.2,1.2h0.1c0.3-0.4,0.6-0.7,1.1-1c0.5-0.2,1-0.3,1.6-0.3c1,0,1.8,0.2,2.3,0.7
			c0.5,0.5,0.8,1.3,0.8,2.4v5.6H646z"/>
	</g>
	<g class="st2">
		<path class="st3" d="M325.4,137.9c0,1.2-0.4,2-1.2,2.7s-1.9,0.9-3.4,0.9h-1.3v4.5h-1.3v-11.4h3C324,134.6,325.4,135.7,325.4,137.9
			z M319.5,140.4h1.2c1.2,0,2-0.2,2.6-0.6c0.5-0.4,0.8-1,0.8-1.8c0-0.8-0.2-1.3-0.7-1.7c-0.5-0.4-1.3-0.6-2.3-0.6h-1.5V140.4z"/>
		<path class="st3" d="M328.9,146h-1.3v-12.2h1.3V146z"/>
		<path class="st3" d="M336.9,146l-0.3-1.2h-0.1c-0.4,0.5-0.9,0.9-1.3,1.1c-0.4,0.2-1,0.3-1.6,0.3c-0.8,0-1.5-0.2-2-0.7
			c-0.5-0.4-0.7-1.1-0.7-1.9c0-1.7,1.4-2.6,4.1-2.7l1.5,0v-0.5c0-0.7-0.1-1.2-0.4-1.5s-0.8-0.5-1.4-0.5c-0.7,0-1.5,0.2-2.4,0.7
			l-0.4-1c0.4-0.2,0.9-0.4,1.4-0.5c0.5-0.1,1-0.2,1.5-0.2c1,0,1.8,0.2,2.3,0.7s0.7,1.2,0.7,2.2v5.8H336.9z M334,145.1
			c0.8,0,1.4-0.2,1.9-0.7s0.7-1.1,0.7-1.9v-0.8l-1.3,0.1c-1,0-1.8,0.2-2.2,0.5c-0.5,0.3-0.7,0.7-0.7,1.3c0,0.5,0.1,0.8,0.4,1.1
			C333.1,145,333.5,145.1,334,145.1z"/>
		<path class="st3" d="M346.4,146v-5.5c0-0.7-0.2-1.2-0.5-1.6c-0.3-0.3-0.8-0.5-1.5-0.5c-0.9,0-1.6,0.2-2,0.7
			c-0.4,0.5-0.6,1.3-0.6,2.4v4.5h-1.3v-8.6h1.1l0.2,1.2h0.1c0.3-0.4,0.6-0.7,1.1-1c0.5-0.2,1-0.3,1.6-0.3c1,0,1.8,0.2,2.3,0.7
			c0.5,0.5,0.8,1.3,0.8,2.4v5.6H346.4z"/>
	</g>
	<g class="st2">
		<path class="st3" d="M117.1,133.2c0,1.9-0.5,3.3-1.6,4.3s-2.6,1.5-4.5,1.5h-3.2v-11.4h3.5c1.8,0,3.2,0.5,4.2,1.5
			C116.6,130,117.1,131.4,117.1,133.2z M115.1,133.2c0-2.7-1.3-4.1-3.8-4.1h-1.6v8.3h1.3C113.7,137.4,115.1,136,115.1,133.2z"/>
		<path class="st3" d="M119.2,128.1c0-0.3,0.1-0.6,0.3-0.8s0.4-0.3,0.8-0.3c0.3,0,0.6,0.1,0.8,0.3s0.3,0.4,0.3,0.8
			c0,0.3-0.1,0.6-0.3,0.7s-0.4,0.3-0.8,0.3c-0.3,0-0.6-0.1-0.8-0.3S119.2,128.4,119.2,128.1z M121.2,139h-1.8v-8.6h1.8V139z"/>
		<path class="st3" d="M129.6,136.5c0,0.8-0.3,1.5-0.9,1.9c-0.6,0.5-1.5,0.7-2.6,0.7c-1.2,0-2.1-0.2-2.8-0.5V137
			c1,0.5,2,0.7,2.8,0.7c1.1,0,1.7-0.3,1.7-1c0-0.2-0.1-0.4-0.2-0.5s-0.3-0.3-0.6-0.5c-0.3-0.2-0.7-0.3-1.2-0.5c-1-0.4-1.7-0.8-2-1.2
			s-0.5-0.9-0.5-1.5c0-0.7,0.3-1.3,0.9-1.7c0.6-0.4,1.4-0.6,2.4-0.6c1,0,2,0.2,2.9,0.6l-0.6,1.4c-0.9-0.4-1.7-0.6-2.4-0.6
			c-1,0-1.5,0.3-1.5,0.8c0,0.3,0.1,0.5,0.4,0.7c0.3,0.2,0.8,0.4,1.7,0.8c0.7,0.3,1.2,0.5,1.6,0.8c0.3,0.2,0.6,0.5,0.7,0.8
			S129.6,136.1,129.6,136.5z"/>
		<path class="st3" d="M135.1,139.2c-1.3,0-2.3-0.4-3-1.1s-1-1.9-1-3.3c0-1.5,0.4-2.6,1.1-3.4s1.7-1.2,3.1-1.2
			c0.9,0,1.7,0.2,2.5,0.5l-0.6,1.5c-0.8-0.3-1.4-0.5-1.9-0.5c-1.5,0-2.2,1-2.2,3c0,1,0.2,1.7,0.6,2.2c0.4,0.5,0.9,0.7,1.6,0.7
			c0.8,0,1.6-0.2,2.3-0.6v1.6c-0.3,0.2-0.7,0.3-1.1,0.4C136,139.1,135.6,139.2,135.1,139.2z"/>
		<path class="st3" d="M147.2,134.7c0,1.4-0.4,2.5-1.1,3.3c-0.7,0.8-1.7,1.2-3,1.2c-0.8,0-1.5-0.2-2.1-0.5c-0.6-0.4-1.1-0.9-1.4-1.6
			c-0.3-0.7-0.5-1.5-0.5-2.4c0-1.4,0.4-2.5,1.1-3.3s1.7-1.2,3-1.2c1.2,0,2.2,0.4,3,1.2C146.8,132.2,147.2,133.3,147.2,134.7z
			 M140.9,134.7c0,2,0.7,3,2.2,3c1.5,0,2.2-1,2.2-3c0-2-0.7-3-2.2-3c-0.8,0-1.3,0.3-1.7,0.8C141,133,140.9,133.7,140.9,134.7z"/>
		<path class="st3" d="M151.2,139l-3.3-8.6h1.9l1.8,5c0.3,0.8,0.5,1.5,0.5,2h0.1c0-0.4,0.2-1.1,0.5-2l1.8-5h2l-3.3,8.6H151.2z"/>
		<path class="st3" d="M161.6,139.2c-1.3,0-2.4-0.4-3.2-1.2s-1.1-1.9-1.1-3.2c0-1.4,0.4-2.5,1.1-3.3s1.7-1.2,2.9-1.2
			c1.1,0,2,0.3,2.7,1c0.7,0.7,1,1.6,1,2.9v1h-5.8c0,0.8,0.3,1.5,0.7,1.9c0.4,0.5,1,0.7,1.8,0.7c0.5,0,1,0,1.4-0.1
			c0.4-0.1,0.9-0.3,1.4-0.5v1.5c-0.4,0.2-0.9,0.4-1.4,0.5C162.7,139.1,162.2,139.2,161.6,139.2z M161.3,131.6
			c-0.6,0-1.1,0.2-1.4,0.6s-0.6,0.9-0.6,1.6h3.9c0-0.7-0.2-1.3-0.5-1.6C162.3,131.8,161.8,131.6,161.3,131.6z"/>
		<path class="st3" d="M171.4,130.2c0.4,0,0.7,0,0.9,0.1l-0.2,1.7c-0.3-0.1-0.5-0.1-0.8-0.1c-0.7,0-1.3,0.2-1.8,0.7
			c-0.5,0.5-0.7,1.1-0.7,1.9v4.5H167v-8.6h1.4l0.2,1.5h0.1c0.3-0.5,0.7-0.9,1.1-1.2S170.9,130.2,171.4,130.2z"/>
	</g>
	<g class="st2">
		<path class="st3" d="M225.8,133.2c0,1.9-0.5,3.3-1.6,4.3s-2.6,1.5-4.5,1.5h-3.2v-11.4h3.5c1.8,0,3.2,0.5,4.2,1.5
			C225.3,130,225.8,131.4,225.8,133.2z M223.8,133.2c0-2.7-1.3-4.1-3.8-4.1h-1.6v8.3h1.3C222.4,137.4,223.8,136,223.8,133.2z"/>
		<path class="st3" d="M231.8,139.2c-1.3,0-2.4-0.4-3.2-1.2s-1.1-1.9-1.1-3.2c0-1.4,0.4-2.5,1.1-3.3s1.7-1.2,2.9-1.2
			c1.1,0,2,0.3,2.7,1c0.7,0.7,1,1.6,1,2.9v1h-5.8c0,0.8,0.3,1.5,0.7,1.9c0.4,0.5,1,0.7,1.8,0.7c0.5,0,1,0,1.4-0.1
			c0.4-0.1,0.9-0.3,1.4-0.5v1.5c-0.4,0.2-0.9,0.4-1.4,0.5C232.9,139.1,232.4,139.2,231.8,139.2z M231.5,131.6
			c-0.6,0-1.1,0.2-1.4,0.6s-0.6,0.9-0.6,1.6h3.9c0-0.7-0.2-1.3-0.5-1.6C232.5,131.8,232,131.6,231.5,131.6z"/>
		<path class="st3" d="M241.6,131.8h-2.1v7.2h-1.8v-7.2h-1.4v-0.9l1.4-0.6v-0.6c0-1,0.2-1.8,0.7-2.3c0.5-0.5,1.2-0.7,2.2-0.7
			c0.6,0,1.3,0.1,1.9,0.3l-0.5,1.4c-0.5-0.1-0.9-0.2-1.3-0.2c-0.4,0-0.7,0.1-0.9,0.4c-0.2,0.3-0.3,0.6-0.3,1.2v0.6h2.1V131.8z
			 M242.9,128.1c0-0.3,0.1-0.6,0.3-0.8s0.4-0.3,0.8-0.3c0.3,0,0.6,0.1,0.8,0.3s0.3,0.4,0.3,0.8c0,0.3-0.1,0.6-0.3,0.7
			s-0.4,0.3-0.8,0.3c-0.3,0-0.6-0.1-0.8-0.3S242.9,128.4,242.9,128.1z M244.9,139h-1.8v-8.6h1.8V139z"/>
		<path class="st3" d="M255.1,139h-1.8v-5.3c0-0.7-0.1-1.2-0.4-1.5c-0.3-0.3-0.7-0.5-1.3-0.5c-0.8,0-1.3,0.2-1.7,0.7
			s-0.5,1.2-0.5,2.3v4.3h-1.8v-8.6h1.4l0.3,1.1h0.1c0.3-0.4,0.6-0.7,1.1-1c0.5-0.2,1-0.3,1.6-0.3c2.1,0,3.1,1.1,3.1,3.2V139z"/>
		<path class="st3" d="M261.4,139.2c-1.3,0-2.4-0.4-3.2-1.2s-1.1-1.9-1.1-3.2c0-1.4,0.4-2.5,1.1-3.3s1.7-1.2,2.9-1.2
			c1.1,0,2,0.3,2.7,1c0.7,0.7,1,1.6,1,2.9v1h-5.8c0,0.8,0.3,1.5,0.7,1.9c0.4,0.5,1,0.7,1.8,0.7c0.5,0,1,0,1.4-0.1
			c0.4-0.1,0.9-0.3,1.4-0.5v1.5c-0.4,0.2-0.9,0.4-1.4,0.5C262.6,139.1,262,139.2,261.4,139.2z M261.1,131.6c-0.6,0-1.1,0.2-1.4,0.6
			s-0.6,0.9-0.6,1.6h3.9c0-0.7-0.2-1.3-0.5-1.6C262.2,131.8,261.7,131.6,261.1,131.6z"/>
	</g>
	<g class="st2">
		<path class="st3" d="M401.5,139h-6.5v-11.4h6.5v1.6h-4.6v3.1h4.3v1.6h-4.3v3.6h4.6V139z"/>
		<path class="st3" d="M405.7,134.6l-2.9-4.2h2.1l2,3l2-3h2.1l-2.9,4.2l3.1,4.4H409l-2.1-3.2l-2.1,3.2h-2.1L405.7,134.6z"/>
		<path class="st3" d="M417,139.2c-1.1,0-1.9-0.4-2.5-1.2h-0.1c0.1,0.7,0.1,1.2,0.1,1.3v3.5h-1.8v-12.5h1.5c0,0.2,0.1,0.5,0.3,1.2
			h0.1c0.6-0.9,1.4-1.3,2.6-1.3c1.1,0,1.9,0.4,2.5,1.2s0.9,1.9,0.9,3.3s-0.3,2.5-0.9,3.3C418.9,138.8,418.1,139.2,417,139.2z
			 M416.5,131.7c-0.7,0-1.3,0.2-1.6,0.6s-0.5,1.1-0.5,2v0.3c0,1.1,0.2,1.8,0.5,2.3c0.3,0.5,0.9,0.7,1.6,0.7c0.6,0,1.1-0.3,1.5-0.8
			s0.5-1.3,0.5-2.2c0-1-0.2-1.7-0.5-2.2C417.7,132,417.2,131.7,416.5,131.7z"/>
		<path class="st3" d="M424.4,139h-1.8v-12.2h1.8V139z"/>
		<path class="st3" d="M434.7,134.7c0,1.4-0.4,2.5-1.1,3.3c-0.7,0.8-1.7,1.2-3,1.2c-0.8,0-1.5-0.2-2.1-0.5c-0.6-0.4-1.1-0.9-1.4-1.6
			c-0.3-0.7-0.5-1.5-0.5-2.4c0-1.4,0.4-2.5,1.1-3.3s1.7-1.2,3-1.2c1.2,0,2.2,0.4,3,1.2C434.3,132.2,434.7,133.3,434.7,134.7z
			 M428.4,134.7c0,2,0.7,3,2.2,3c1.5,0,2.2-1,2.2-3c0-2-0.7-3-2.2-3c-0.8,0-1.3,0.3-1.7,0.8C428.6,133,428.4,133.7,428.4,134.7z"/>
		<path class="st3" d="M441.2,130.2c0.4,0,0.7,0,0.9,0.1l-0.2,1.7c-0.3-0.1-0.5-0.1-0.8-0.1c-0.7,0-1.3,0.2-1.8,0.7
			c-0.5,0.5-0.7,1.1-0.7,1.9v4.5h-1.8v-8.6h1.4l0.2,1.5h0.1c0.3-0.5,0.7-0.9,1.1-1.2S440.7,130.2,441.2,130.2z"/>
		<path class="st3" d="M447.5,139.2c-1.3,0-2.4-0.4-3.2-1.2s-1.1-1.9-1.1-3.2c0-1.4,0.4-2.5,1.1-3.3s1.7-1.2,2.9-1.2
			c1.1,0,2,0.3,2.7,1c0.7,0.7,1,1.6,1,2.9v1h-5.8c0,0.8,0.3,1.5,0.7,1.9c0.4,0.5,1,0.7,1.8,0.7c0.5,0,1,0,1.4-0.1
			c0.4-0.1,0.9-0.3,1.4-0.5v1.5c-0.4,0.2-0.9,0.4-1.4,0.5C448.6,139.1,448.1,139.2,447.5,139.2z M447.1,131.6
			c-0.6,0-1.1,0.2-1.4,0.6s-0.6,0.9-0.6,1.6h3.9c0-0.7-0.2-1.3-0.5-1.6C448.2,131.8,447.7,131.6,447.1,131.6z"/>
	</g>
	<g class="st2">
		<path class="st3" d="M501.8,139h-6.5v-11.4h6.5v1.6h-4.6v3.1h4.3v1.6h-4.3v3.6h4.6V139z"/>
		<path class="st3" d="M506,134.6l-2.9-4.2h2.1l2,3l2-3h2.1l-2.9,4.2l3.1,4.4h-2.1l-2.1-3.2L505,139H503L506,134.6z"/>
		<path class="st3" d="M516.7,139.2c-1.3,0-2.4-0.4-3.2-1.2s-1.1-1.9-1.1-3.2c0-1.4,0.4-2.5,1.1-3.3s1.7-1.2,2.9-1.2
			c1.1,0,2,0.3,2.7,1c0.7,0.7,1,1.6,1,2.9v1h-5.8c0,0.8,0.3,1.5,0.7,1.9c0.4,0.5,1,0.7,1.8,0.7c0.5,0,1,0,1.4-0.1
			c0.4-0.1,0.9-0.3,1.4-0.5v1.5c-0.4,0.2-0.9,0.4-1.4,0.5C517.8,139.1,517.2,139.2,516.7,139.2z M516.3,131.6
			c-0.6,0-1.1,0.2-1.4,0.6s-0.6,0.9-0.6,1.6h3.9c0-0.7-0.2-1.3-0.5-1.6C517.4,131.8,516.9,131.6,516.3,131.6z"/>
		<path class="st3" d="M525.6,139.2c-1.3,0-2.3-0.4-3-1.1s-1-1.9-1-3.3c0-1.5,0.4-2.6,1.1-3.4s1.7-1.2,3.1-1.2
			c0.9,0,1.7,0.2,2.5,0.5l-0.6,1.5c-0.8-0.3-1.4-0.5-1.9-0.5c-1.5,0-2.2,1-2.2,3c0,1,0.2,1.7,0.6,2.2c0.4,0.5,0.9,0.7,1.6,0.7
			c0.8,0,1.6-0.2,2.3-0.6v1.6c-0.3,0.2-0.7,0.3-1.1,0.4C526.6,139.1,526.1,139.2,525.6,139.2z"/>
		<path class="st3" d="M536.1,139l-0.3-1.1h-0.1c-0.3,0.4-0.6,0.7-1.1,0.9c-0.5,0.2-1,0.3-1.6,0.3c-1,0-1.8-0.3-2.3-0.8
			s-0.8-1.3-0.8-2.4v-5.6h1.9v5.3c0,0.7,0.1,1.2,0.4,1.5c0.3,0.3,0.7,0.5,1.3,0.5c0.8,0,1.3-0.2,1.7-0.7c0.4-0.5,0.5-1.2,0.5-2.3
			v-4.3h1.8v8.6H536.1z"/>
		<path class="st3" d="M543.4,137.7c0.4,0,0.9-0.1,1.3-0.2v1.4c-0.2,0.1-0.5,0.2-0.8,0.2s-0.7,0.1-1,0.1c-1.7,0-2.6-0.9-2.6-2.8
			v-4.7h-1.2v-0.8l1.3-0.7l0.6-1.8h1.1v1.9h2.5v1.4h-2.5v4.6c0,0.4,0.1,0.8,0.3,1C542.7,137.6,543,137.7,543.4,137.7z"/>
		<path class="st3" d="M550.2,139.2c-1.3,0-2.4-0.4-3.2-1.2s-1.1-1.9-1.1-3.2c0-1.4,0.4-2.5,1.1-3.3s1.7-1.2,2.9-1.2
			c1.1,0,2,0.3,2.7,1c0.7,0.7,1,1.6,1,2.9v1h-5.8c0,0.8,0.3,1.5,0.7,1.9c0.4,0.5,1,0.7,1.8,0.7c0.5,0,1,0,1.4-0.1
			c0.4-0.1,0.9-0.3,1.4-0.5v1.5c-0.4,0.2-0.9,0.4-1.4,0.5C551.4,139.1,550.8,139.2,550.2,139.2z M549.9,131.6
			c-0.6,0-1.1,0.2-1.4,0.6s-0.6,0.9-0.6,1.6h3.9c0-0.7-0.2-1.3-0.5-1.6C550.9,131.8,550.5,131.6,549.9,131.6z"/>
	</g>
	<line id="Path" class="st4" x1="472.5" y1="10.5" x2="472.5" y2="254.5"/>
	
		<linearGradient id="Path_4_" gradientUnits="userSpaceOnUse" x1="-176.1535" y1="514.4068" x2="-175.2888" y2="514.7044" gradientTransform="matrix(88.4388 41.2397 32.0923 -68.8221 -632.5428 42722.8828)">
		<stop  offset="0" style="stop-color:#6FB7BE"/>
		<stop  offset="1" style="stop-color:#3C8089"/>
	</linearGradient>
	<path id="Path_1_" class="st5" d="M318.1,42.6c23.3-7.1,47.9,4,58.3,25.2l-13.4-5.6c-1.7-0.7-3.7,0.1-4.4,1.8
		c-0.7,1.7,0.1,3.6,1.7,4.4c0,0,0.1,0,0.1,0.1l20.6,8.6c1.7,0.7,3.6,0,4.4-1.7l0.1-0.2c0,0,0-0.1,0.1-0.1l0,0l8.6-20.2
		c0.7-1.7-0.1-3.7-1.8-4.4c-1.7-0.7-3.7,0.1-4.4,1.8l-5.4,12.7c-5.1-10.5-13.4-19.1-24-24.7c-13.1-6.9-28.2-8.3-42.3-4
		c-19.5,6-34.1,22-38.1,41.9c-0.3,1.6,0.5,3.1,1.9,3.7c0.2,0.1,0.5,0.2,0.8,0.2c1.8,0.4,3.6-0.8,4-2.6C288.2,62,301,47.8,318.1,42.6
		z"/>
	
		<linearGradient id="Path_5_" gradientUnits="userSpaceOnUse" x1="-181.7053" y1="518.2812" x2="-180.8406" y2="518.5788" gradientTransform="matrix(-86.9457 -44.3011 -34.4746 67.6602 2443.1113 -42905.2656)">
		<stop  offset="0" style="stop-color:#6FB7BE"/>
		<stop  offset="1" style="stop-color:#3C8089"/>
	</linearGradient>
	<path id="Path_2_" class="st6" d="M352.7,223.9c-23.5,6.3-47.8-5.7-57.3-27.2l13.2,6.1c1.7,0.8,3.7,0.1,4.5-1.6
		c0.8-1.7,0.1-3.6-1.5-4.4c0,0-0.1,0-0.1-0.1l-20.3-9.4c-1.7-0.8-3.6-0.1-4.4,1.5l-0.1,0.2c0,0,0,0.1-0.1,0.1l0,0l-9.3,19.9
		c-0.8,1.7,0,3.7,1.6,4.5c1.7,0.8,3.7,0.1,4.5-1.6l5.8-12.5c4.7,10.7,12.7,19.6,23.1,25.5c12.9,7.4,27.8,9.3,42.1,5.4
		c19.7-5.3,34.8-20.8,39.5-40.5c0.4-1.5-0.4-3.1-1.8-3.8c-0.2-0.1-0.5-0.2-0.8-0.3c-1.8-0.4-3.6,0.7-4.1,2.5
		C383.3,205.6,370,219.3,352.7,223.9z"/>
	<line id="Path_3_" class="st4" x1="197.5" y1="10.3" x2="197.5" y2="254.7"/>
</g>
</svg>
