<?xml version="1.0" encoding="UTF-8"?>
<svg width="670px" height="265px" viewBox="0 0 670 265" version="1.1" xmlns="http://www.w3.org/2000/svg" xmlns:xlink="http://www.w3.org/1999/xlink">
    <!-- Generator: Sketch 64 (93537) - https://sketch.com -->
    <title>usercentric</title>
    <desc>Created with Sketch.</desc>
    <defs>
        <linearGradient x1="13.5342933%" y1="70.5306252%" x2="100%" y2="40.7735633%" id="linearGradient-1">
            <stop stop-color="#FF0081" offset="0%"></stop>
            <stop stop-color="#2D3C6B" offset="100%"></stop>
        </linearGradient>
    </defs>
    <g id="Page-1" stroke="none" stroke-width="1" fill="none" fill-rule="evenodd">
        <g id="Artboard" transform="translate(-177.000000, -139.000000)">
            <g id="usercentric" transform="translate(180.000000, 133.000000)">
                <path d="M352.213203,117.286797 L448.286797,21.2132034 C460.002525,9.49747468 478.997475,9.49747468 490.713203,21.2132034 L586.786797,117.286797 C598.502525,129.002525 598.502525,147.997475 586.786797,159.713203 L490.713203,255.786797 C478.997475,267.502525 460.002525,267.502525 448.286797,255.786797 L352.213203,159.713203 C340.497475,147.997475 340.497475,129.002525 352.213203,117.286797 Z" id="Rectangle" stroke="#FF0081" stroke-width="11.27" fill="#FFFFFF" fill-rule="nonzero"></path>
                <path d="M77.2132034,117.286797 L173.286797,21.2132034 C185.002525,9.49747468 203.997475,9.49747468 215.713203,21.2132034 L311.786797,117.286797 C323.502525,129.002525 323.502525,147.997475 311.786797,159.713203 L215.713203,255.786797 C203.997475,267.502525 185.002525,267.502525 173.286797,255.786797 L77.2132034,159.713203 C65.4974747,147.997475 65.4974747,129.002525 77.2132034,117.286797 Z" id="Rectangle" stroke="#FF0081" stroke-width="11.27" fill="#FFFFFF" fill-rule="nonzero"></path>
                <circle id="Oval" stroke="#FF0081" stroke-width="6" fill="#FFFFFF" cx="43" cy="139" r="43"></circle>
                <circle id="Oval" stroke="#FF0081" stroke-width="6" fill="#FFFFFF" cx="332" cy="139" r="43"></circle>
                <circle id="Oval" stroke="#FF0081" stroke-width="6" fill="#FFFFFF" cx="621" cy="139" r="43"></circle>
                <path d="M13.6445312,145 L13.6445312,140.726562 L14.8320312,140.726562 C16.2747396,140.726562 17.3867188,140.408854 18.1679688,139.773438 C18.9492188,139.138021 19.3398438,138.223958 19.3398438,137.03125 C19.3398438,135.895833 18.984375,135.036458 18.2734375,134.453125 C17.5625,133.869792 16.4934896,133.578125 15.0664062,133.578125 L15.0664062,133.578125 L11.7773438,133.578125 L11.7773438,145 L13.6445312,145 Z M14.6367188,139.15625 L13.6445312,139.15625 L13.6445312,135.140625 L14.9414062,135.140625 C15.7903646,135.140625 16.4153646,135.302083 16.8164062,135.625 C17.2174479,135.947917 17.4179688,136.4375 17.4179688,137.09375 C17.4179688,137.802083 17.1940104,138.322917 16.7460938,138.65625 C16.2981771,138.989583 15.5950521,139.15625 14.6367188,139.15625 L14.6367188,139.15625 Z M23.2617188,145 L23.2617188,140.484375 C23.2617188,139.71875 23.4895833,139.096354 23.9453125,138.617188 C24.4010417,138.138021 24.9960938,137.898438 25.7304688,137.898438 C26.0117188,137.898438 26.2825521,137.929688 26.5429688,137.992188 L26.5429688,137.992188 L26.7226562,136.28125 C26.4830729,136.229167 26.1783854,136.203125 25.8085938,136.203125 C25.2773438,136.203125 24.78125,136.354167 24.3203125,136.65625 C23.859375,136.958333 23.4856771,137.367188 23.1992188,137.882812 L23.1992188,137.882812 L23.1054688,137.882812 L22.8632812,136.359375 L21.4257812,136.359375 L21.4257812,145 L23.2617188,145 Z M31.8789062,145.15625 C33.1705729,145.15625 34.1783854,144.760417 34.9023438,143.96875 C35.6263021,143.177083 35.9882812,142.075521 35.9882812,140.664062 C35.9882812,139.299479 35.6236979,138.214844 34.8945312,137.410156 C34.1653646,136.605469 33.1757812,136.203125 31.9257812,136.203125 C30.6184896,136.203125 29.6054688,136.596354 28.8867188,137.382812 C28.1679688,138.169271 27.8085938,139.263021 27.8085938,140.664062 C27.8085938,141.565104 27.9752604,142.356771 28.3085938,143.039062 C28.6419271,143.721354 29.1184896,144.244792 29.7382812,144.609375 C30.3580729,144.973958 31.0716146,145.15625 31.8789062,145.15625 Z M31.9101562,143.65625 C30.4361979,143.65625 29.6992188,142.658854 29.6992188,140.664062 C29.6992188,139.710938 29.8723958,138.979167 30.21875,138.46875 C30.5651042,137.958333 31.1236979,137.703125 31.8945312,137.703125 C33.3632812,137.703125 34.0976562,138.690104 34.0976562,140.664062 C34.0976562,142.658854 33.3684896,143.65625 31.9101562,143.65625 Z M42.4804688,145.15625 C43.5638021,145.15625 44.4101562,144.761719 45.0195312,143.972656 C45.6289062,143.183594 45.9335938,142.080729 45.9335938,140.664062 C45.9335938,139.252604 45.6328125,138.15625 45.03125,137.375 C44.4296875,136.59375 43.5898438,136.203125 42.5117188,136.203125 C41.3763021,136.203125 40.5169271,136.632812 39.9335938,137.492188 L39.9335938,137.492188 L39.8554688,137.492188 C39.8658854,137.377604 39.8815104,137.109375 39.9023438,136.6875 C39.9231771,136.265625 39.9335938,135.947917 39.9335938,135.734375 L39.9335938,135.734375 L39.9335938,132.84375 L38.0976562,132.84375 L38.0976562,145 L39.4726562,145 L39.8085938,143.976562 L39.9335938,143.976562 C40.5377604,144.763021 41.3867188,145.15625 42.4804688,145.15625 Z M42.0664062,143.65625 C41.3111979,143.65625 40.7669271,143.420573 40.4335938,142.949219 C40.1002604,142.477865 39.9335938,141.716146 39.9335938,140.664062 L39.9335938,140.664062 L39.9335938,140.539062 C39.9440104,139.518229 40.1119792,138.790365 40.4375,138.355469 C40.7630208,137.920573 41.2955729,137.703125 42.0351562,137.703125 C43.3789062,137.703125 44.0507812,138.684896 44.0507812,140.648438 C44.0507812,141.622396 43.8828125,142.367188 43.546875,142.882812 C43.2109375,143.398438 42.7174479,143.65625 42.0664062,143.65625 Z M49.9023438,145 L49.9023438,132.84375 L48.0664062,132.84375 L48.0664062,145 L49.9023438,145 Z M56.3007812,145.15625 C56.8893229,145.15625 57.4127604,145.111979 57.8710938,145.023438 C58.3294271,144.934896 58.7825521,144.783854 59.2304688,144.570312 L59.2304688,144.570312 L59.2304688,143.078125 C58.7252604,143.302083 58.2526042,143.46224 57.8125,143.558594 C57.3723958,143.654948 56.8971354,143.703125 56.3867188,143.703125 C55.6106771,143.703125 55.0091146,143.477865 54.5820312,143.027344 C54.1549479,142.576823 53.9283854,141.932292 53.9023438,141.09375 L53.9023438,141.09375 L59.6601562,141.09375 L59.6601562,140.101562 C59.6601562,138.888021 59.3294271,137.934896 58.6679688,137.242188 C58.0065104,136.549479 57.1054688,136.203125 55.9648438,136.203125 C54.7356771,136.203125 53.7695312,136.606771 53.0664062,137.414062 C52.3632812,138.221354 52.0117188,139.330729 52.0117188,140.742188 C52.0117188,142.117188 52.390625,143.196615 53.1484375,143.980469 C53.90625,144.764323 54.9570312,145.15625 56.3007812,145.15625 Z M57.8554688,139.765625 L53.9335938,139.765625 C54.0013021,139.057292 54.2109375,138.518229 54.5625,138.148438 C54.9140625,137.778646 55.3815104,137.59375 55.9648438,137.59375 C56.5481771,137.59375 57.0065104,137.777344 57.3398438,138.144531 C57.6731771,138.511719 57.8450521,139.052083 57.8554688,139.765625 L57.8554688,139.765625 Z M63.5820312,145 L63.5820312,140.695312 C63.5820312,139.622396 63.7473958,138.855469 64.078125,138.394531 C64.4088542,137.933594 64.9283854,137.703125 65.6367188,137.703125 C66.1679688,137.703125 66.5585938,137.865885 66.8085938,138.191406 C67.0585938,138.516927 67.1835938,139.010417 67.1835938,139.671875 L67.1835938,139.671875 L67.1835938,145 L69.0273438,145 L69.0273438,140.421875 C69.0273438,139.5 69.1927083,138.816406 69.5234375,138.371094 C69.8541667,137.925781 70.3763021,137.703125 71.0898438,137.703125 C71.6210938,137.703125 72.0130208,137.865885 72.265625,138.191406 C72.5182292,138.516927 72.6445312,139.010417 72.6445312,139.671875 L72.6445312,139.671875 L72.6445312,145 L74.4804688,145 L74.4804688,139.367188 C74.4804688,138.299479 74.2447917,137.505208 73.7734375,136.984375 C73.3020833,136.463542 72.5507812,136.203125 71.5195312,136.203125 C70.9205729,136.203125 70.3893229,136.322917 69.9257812,136.5625 C69.4622396,136.802083 69.1028646,137.135417 68.8476562,137.5625 L68.8476562,137.5625 L68.7226562,137.5625 C68.2903646,136.65625 67.4101562,136.203125 66.0820312,136.203125 C65.5351562,136.203125 65.0338542,136.315104 64.578125,136.539062 C64.1223958,136.763021 63.7747396,137.080729 63.5351562,137.492188 L63.5351562,137.492188 L63.4414062,137.492188 L63.1835938,136.359375 L61.7460938,136.359375 L61.7460938,145 L63.5820312,145 Z" id="Problem" fill="#FF0081" fill-rule="nonzero"></path>
                <path d="M593.019531,145.15625 C594.311198,145.15625 595.324219,144.867188 596.058594,144.289062 C596.792969,143.710938 597.160156,142.914062 597.160156,141.898438 C597.160156,141.382812 597.06901,140.934896 596.886719,140.554688 C596.704427,140.174479 596.417969,139.833333 596.027344,139.53125 C595.636719,139.229167 595.022135,138.903646 594.183594,138.554688 C593.438802,138.247396 592.923177,138 592.636719,137.8125 C592.35026,137.625 592.144531,137.425781 592.019531,137.214844 C591.894531,137.003906 591.832031,136.75 591.832031,136.453125 C591.832031,136.020833 591.988281,135.673177 592.300781,135.410156 C592.613281,135.147135 593.071615,135.015625 593.675781,135.015625 C594.472656,135.015625 595.378906,135.229167 596.394531,135.65625 L596.394531,135.65625 L596.988281,134.132812 C595.904948,133.653646 594.816406,133.414062 593.722656,133.414062 C592.582031,133.414062 591.673177,133.6875 590.996094,134.234375 C590.31901,134.78125 589.980469,135.53125 589.980469,136.484375 C589.980469,137.244792 590.19401,137.895833 590.621094,138.4375 C591.048177,138.979167 591.782552,139.460938 592.824219,139.882812 C593.834635,140.289062 594.501302,140.640625 594.824219,140.9375 C595.147135,141.234375 595.308594,141.596354 595.308594,142.023438 C595.308594,142.497396 595.132812,142.875 594.78125,143.15625 C594.429688,143.4375 593.884115,143.578125 593.144531,143.578125 C592.639323,143.578125 592.09375,143.507812 591.507812,143.367188 C590.921875,143.226562 590.36849,143.033854 589.847656,142.789062 L589.847656,142.789062 L589.847656,144.554688 C590.670573,144.955729 591.727865,145.15625 593.019531,145.15625 Z M602.730469,145.15625 C604.022135,145.15625 605.029948,144.760417 605.753906,143.96875 C606.477865,143.177083 606.839844,142.075521 606.839844,140.664062 C606.839844,139.299479 606.47526,138.214844 605.746094,137.410156 C605.016927,136.605469 604.027344,136.203125 602.777344,136.203125 C601.470052,136.203125 600.457031,136.596354 599.738281,137.382812 C599.019531,138.169271 598.660156,139.263021 598.660156,140.664062 C598.660156,141.565104 598.826823,142.356771 599.160156,143.039062 C599.49349,143.721354 599.970052,144.244792 600.589844,144.609375 C601.209635,144.973958 601.923177,145.15625 602.730469,145.15625 Z M602.761719,143.65625 C601.28776,143.65625 600.550781,142.658854 600.550781,140.664062 C600.550781,139.710938 600.723958,138.979167 601.070312,138.46875 C601.416667,137.958333 601.97526,137.703125 602.746094,137.703125 C604.214844,137.703125 604.949219,138.690104 604.949219,140.664062 C604.949219,142.658854 604.220052,143.65625 602.761719,143.65625 Z M610.785156,145 L610.785156,132.84375 L608.949219,132.84375 L608.949219,145 L610.785156,145 Z M616.449219,145.15625 C617.053385,145.15625 617.591146,145.041667 618.0625,144.8125 C618.533854,144.583333 618.897135,144.268229 619.152344,143.867188 L619.152344,143.867188 L619.246094,143.867188 L619.503906,145 L620.949219,145 L620.949219,136.359375 L619.105469,136.359375 L619.105469,140.664062 C619.105469,141.747396 618.924479,142.519531 618.5625,142.980469 C618.200521,143.441406 617.634115,143.671875 616.863281,143.671875 C616.285156,143.671875 615.860677,143.50651 615.589844,143.175781 C615.31901,142.845052 615.183594,142.348958 615.183594,141.6875 L615.183594,141.6875 L615.183594,136.359375 L613.332031,136.359375 L613.332031,142.007812 C613.332031,143.065104 613.589844,143.854167 614.105469,144.375 C614.621094,144.895833 615.402344,145.15625 616.449219,145.15625 Z M626.347656,145.15625 C626.691406,145.15625 627.023438,145.126302 627.34375,145.066406 C627.664062,145.00651 627.925781,144.932292 628.128906,144.84375 L628.128906,144.84375 L628.128906,143.460938 C627.68099,143.601562 627.233073,143.671875 626.785156,143.671875 C626.425781,143.671875 626.135417,143.566406 625.914062,143.355469 C625.692708,143.144531 625.582031,142.817708 625.582031,142.375 L625.582031,142.375 L625.582031,137.75 L628.042969,137.75 L628.042969,136.359375 L625.582031,136.359375 L625.582031,134.4375 L624.449219,134.4375 L623.824219,136.265625 L622.558594,136.9375 L622.558594,137.75 L623.738281,137.75 L623.738281,142.40625 C623.738281,144.239583 624.608073,145.15625 626.347656,145.15625 Z M630.785156,135.078125 C631.108073,135.078125 631.359375,134.988281 631.539062,134.808594 C631.71875,134.628906 631.808594,134.382812 631.808594,134.070312 C631.808594,133.742188 631.71875,133.489583 631.539062,133.3125 C631.359375,133.135417 631.108073,133.046875 630.785156,133.046875 C630.451823,133.046875 630.195312,133.135417 630.015625,133.3125 C629.835938,133.489583 629.746094,133.742188 629.746094,134.070312 C629.746094,134.382812 629.835938,134.628906 630.015625,134.808594 C630.195312,134.988281 630.451823,135.078125 630.785156,135.078125 Z M631.691406,145 L631.691406,136.359375 L629.855469,136.359375 L629.855469,145 L631.691406,145 Z M637.871094,145.15625 C639.16276,145.15625 640.170573,144.760417 640.894531,143.96875 C641.61849,143.177083 641.980469,142.075521 641.980469,140.664062 C641.980469,139.299479 641.615885,138.214844 640.886719,137.410156 C640.157552,136.605469 639.167969,136.203125 637.917969,136.203125 C636.610677,136.203125 635.597656,136.596354 634.878906,137.382812 C634.160156,138.169271 633.800781,139.263021 633.800781,140.664062 C633.800781,141.565104 633.967448,142.356771 634.300781,143.039062 C634.634115,143.721354 635.110677,144.244792 635.730469,144.609375 C636.35026,144.973958 637.063802,145.15625 637.871094,145.15625 Z M637.902344,143.65625 C636.428385,143.65625 635.691406,142.658854 635.691406,140.664062 C635.691406,139.710938 635.864583,138.979167 636.210938,138.46875 C636.557292,137.958333 637.115885,137.703125 637.886719,137.703125 C639.355469,137.703125 640.089844,138.690104 640.089844,140.664062 C640.089844,142.658854 639.360677,143.65625 637.902344,143.65625 Z M645.925781,145 L645.925781,140.695312 C645.925781,139.617188 646.105469,138.848958 646.464844,138.390625 C646.824219,137.932292 647.391927,137.703125 648.167969,137.703125 C648.751302,137.703125 649.177083,137.867188 649.445312,138.195312 C649.713542,138.523438 649.847656,139.020833 649.847656,139.6875 L649.847656,139.6875 L649.847656,145 L651.691406,145 L651.691406,139.367188 C651.691406,137.257812 650.654948,136.203125 648.582031,136.203125 C647.998698,136.203125 647.467448,136.315104 646.988281,136.539062 C646.509115,136.763021 646.139323,137.080729 645.878906,137.492188 L645.878906,137.492188 L645.785156,137.492188 L645.527344,136.359375 L644.089844,136.359375 L644.089844,145 L645.925781,145 Z" id="Solution" fill="#FF0081" fill-rule="nonzero"></path>
                <path d="M318.503906,145 L318.503906,140.726562 L319.691406,140.726562 C321.134115,140.726562 322.246094,140.408854 323.027344,139.773438 C323.808594,139.138021 324.199219,138.223958 324.199219,137.03125 C324.199219,135.895833 323.84375,135.036458 323.132812,134.453125 C322.421875,133.869792 321.352865,133.578125 319.925781,133.578125 L319.925781,133.578125 L316.636719,133.578125 L316.636719,145 L318.503906,145 Z M319.496094,139.15625 L318.503906,139.15625 L318.503906,135.140625 L319.800781,135.140625 C320.64974,135.140625 321.27474,135.302083 321.675781,135.625 C322.076823,135.947917 322.277344,136.4375 322.277344,137.09375 C322.277344,137.802083 322.053385,138.322917 321.605469,138.65625 C321.157552,138.989583 320.454427,139.15625 319.496094,139.15625 L319.496094,139.15625 Z M328.121094,145 L328.121094,132.84375 L326.285156,132.84375 L326.285156,145 L328.121094,145 Z M332.839844,145.15625 C333.501302,145.15625 334.042969,145.061198 334.464844,144.871094 C334.886719,144.68099 335.30599,144.322917 335.722656,143.796875 L335.722656,143.796875 L335.785156,143.796875 L336.152344,145 L337.464844,145 L337.464844,139.179688 C337.464844,138.153646 337.184896,137.401042 336.625,136.921875 C336.065104,136.442708 335.235677,136.203125 334.136719,136.203125 C333.641927,136.203125 333.115885,136.266927 332.558594,136.394531 C332.001302,136.522135 331.488281,136.708333 331.019531,136.953125 L331.019531,136.953125 L331.613281,138.265625 C331.988281,138.088542 332.378906,137.934896 332.785156,137.804688 C333.191406,137.674479 333.615885,137.609375 334.058594,137.609375 C334.60026,137.609375 335,137.746094 335.257812,138.019531 C335.515625,138.292969 335.644531,138.705729 335.644531,139.257812 L335.644531,139.257812 L335.644531,139.71875 L334.152344,139.765625 C332.798177,139.807292 331.790365,140.054688 331.128906,140.507812 C330.467448,140.960938 330.136719,141.632812 330.136719,142.523438 C330.136719,143.361979 330.375,144.010417 330.851562,144.46875 C331.328125,144.927083 331.990885,145.15625 332.839844,145.15625 Z M333.417969,143.75 C332.959635,143.75 332.615885,143.644531 332.386719,143.433594 C332.157552,143.222656 332.042969,142.924479 332.042969,142.539062 C332.042969,142.007812 332.239583,141.613281 332.632812,141.355469 C333.026042,141.097656 333.654948,140.953125 334.519531,140.921875 L334.519531,140.921875 L335.628906,140.875 L335.628906,141.625 C335.628906,142.296875 335.427083,142.81901 335.023438,143.191406 C334.619792,143.563802 334.084635,143.75 333.417969,143.75 Z M341.863281,145 L341.863281,140.695312 C341.863281,139.617188 342.042969,138.848958 342.402344,138.390625 C342.761719,137.932292 343.329427,137.703125 344.105469,137.703125 C344.688802,137.703125 345.114583,137.867188 345.382812,138.195312 C345.651042,138.523438 345.785156,139.020833 345.785156,139.6875 L345.785156,139.6875 L345.785156,145 L347.628906,145 L347.628906,139.367188 C347.628906,137.257812 346.592448,136.203125 344.519531,136.203125 C343.936198,136.203125 343.404948,136.315104 342.925781,136.539062 C342.446615,136.763021 342.076823,137.080729 341.816406,137.492188 L341.816406,137.492188 L341.722656,137.492188 L341.464844,136.359375 L340.027344,136.359375 L340.027344,145 L341.863281,145 Z" id="Plan" fill="#FF0081" fill-rule="nonzero"></path>
                <path d="M109.195312,145 C111.096354,145 112.571615,144.484375 113.621094,143.453125 C114.670573,142.421875 115.195312,140.953125 115.195312,139.046875 C115.195312,137.276042 114.696615,135.921875 113.699219,134.984375 C112.701823,134.046875 111.286458,133.578125 109.453125,133.578125 L109.453125,133.578125 L105.5,133.578125 L105.5,145 L109.195312,145 Z M109.273438,142.46875 L108.585938,142.46875 L108.585938,136.070312 L109.484375,136.070312 C110.328125,136.070312 110.957031,136.322917 111.371094,136.828125 C111.785156,137.333333 111.992188,138.109375 111.992188,139.15625 C111.992188,140.276042 111.773438,141.108073 111.335938,141.652344 C110.898438,142.196615 110.210938,142.46875 109.273438,142.46875 L109.273438,142.46875 Z M118.617188,135.289062 C119.705729,135.289062 120.25,134.841146 120.25,133.945312 C120.25,133.497396 120.119792,133.158854 119.859375,132.929688 C119.598958,132.700521 119.184896,132.585938 118.617188,132.585938 C118.049479,132.585938 117.638021,132.697917 117.382812,132.921875 C117.127604,133.145833 117,133.486979 117,133.945312 C117,134.841146 117.539062,135.289062 118.617188,135.289062 Z M120.132812,145 L120.132812,136.148438 L117.078125,136.148438 L117.078125,145 L120.132812,145 Z M125.351562,145.15625 C126.559896,145.15625 127.486979,144.914062 128.132812,144.429688 C128.778646,143.945312 129.101562,143.229167 129.101562,142.28125 C129.101562,141.807292 129.029948,141.404948 128.886719,141.074219 C128.74349,140.74349 128.519531,140.455729 128.214844,140.210938 C127.910156,139.966146 127.447917,139.716146 126.828125,139.460938 C125.994792,139.132812 125.490885,138.915365 125.316406,138.808594 C125.141927,138.701823 125.054688,138.572917 125.054688,138.421875 C125.054688,138.177083 125.304688,138.054688 125.804688,138.054688 C126.091146,138.054688 126.460938,138.11849 126.914062,138.246094 C127.367188,138.373698 127.796875,138.528646 128.203125,138.710938 L128.203125,138.710938 L129.03125,136.742188 C128.479167,136.497396 127.946615,136.311198 127.433594,136.183594 C126.920573,136.05599 126.372396,135.992188 125.789062,135.992188 C124.627604,135.992188 123.729167,136.221354 123.09375,136.679688 C122.458333,137.138021 122.140625,137.778646 122.140625,138.601562 C122.140625,139.252604 122.302083,139.790365 122.625,140.214844 C122.947917,140.639323 123.515625,141.018229 124.328125,141.351562 C125.21875,141.705729 125.75651,141.94401 125.941406,142.066406 C126.126302,142.188802 126.21875,142.328125 126.21875,142.484375 C126.21875,142.786458 125.888021,142.9375 125.226562,142.9375 C124.783854,142.9375 124.279948,142.869792 123.714844,142.734375 C123.14974,142.598958 122.630208,142.427083 122.15625,142.21875 L122.15625,142.21875 L122.15625,144.664062 C122.661458,144.851562 123.15625,144.980469 123.640625,145.050781 C124.125,145.121094 124.695312,145.15625 125.351562,145.15625 Z M134.828125,145.15625 C135.932292,145.15625 136.877604,144.895833 137.664062,144.375 L137.664062,144.375 L137.664062,141.945312 C136.841146,142.466146 135.981771,142.726562 135.085938,142.726562 C134.039062,142.726562 133.515625,142.018229 133.515625,140.601562 C133.515625,139.898438 133.651042,139.354167 133.921875,138.96875 C134.192708,138.583333 134.575521,138.390625 135.070312,138.390625 C135.408854,138.390625 135.734375,138.438802 136.046875,138.535156 C136.359375,138.63151 136.700521,138.760417 137.070312,138.921875 L137.070312,138.921875 L137.96875,136.664062 C137.0625,136.216146 136.096354,135.992188 135.070312,135.992188 C133.580729,135.992188 132.432292,136.395833 131.625,137.203125 C130.817708,138.010417 130.414062,139.148438 130.414062,140.617188 C130.414062,142.080729 130.78776,143.203125 131.535156,143.984375 C132.282552,144.765625 133.380208,145.15625 134.828125,145.15625 Z M143.4375,145.15625 C144.838542,145.15625 145.928385,144.751302 146.707031,143.941406 C147.485677,143.13151 147.875,142.002604 147.875,140.554688 C147.875,139.632812 147.69401,138.826823 147.332031,138.136719 C146.970052,137.446615 146.455729,136.916667 145.789062,136.546875 C145.122396,136.177083 144.354167,135.992188 143.484375,135.992188 C142.078125,135.992188 140.985677,136.391927 140.207031,137.191406 C139.428385,137.990885 139.039062,139.111979 139.039062,140.554688 C139.039062,141.966146 139.436198,143.085938 140.230469,143.914062 C141.02474,144.742188 142.09375,145.15625 143.4375,145.15625 Z M143.46875,142.890625 C142.989583,142.890625 142.648438,142.691406 142.445312,142.292969 C142.242188,141.894531 142.140625,141.315104 142.140625,140.554688 C142.140625,139.794271 142.242188,139.222656 142.445312,138.839844 C142.648438,138.457031 142.984375,138.265625 143.453125,138.265625 C143.932292,138.265625 144.270833,138.458333 144.46875,138.84375 C144.666667,139.229167 144.765625,139.799479 144.765625,140.554688 C144.765625,141.315104 144.667969,141.894531 144.472656,142.292969 C144.277344,142.691406 143.942708,142.890625 143.46875,142.890625 Z M154.960938,145 L158.335938,136.148438 L155.15625,136.148438 L153.585938,141.398438 C153.492188,141.716146 153.445312,142.010417 153.445312,142.28125 L153.445312,142.28125 L153.390625,142.28125 C153.390625,142.197917 153.384115,142.108073 153.371094,142.011719 C153.358073,141.915365 153.34375,141.824219 153.328125,141.738281 C153.3125,141.652344 153.296875,141.578125 153.28125,141.515625 C153.265625,141.453125 153.255208,141.408854 153.25,141.382812 L153.25,141.382812 L151.75,136.148438 L148.5625,136.148438 L151.9375,145 L154.960938,145 Z M163.664062,145.15625 C164.372396,145.15625 164.981771,145.109375 165.492188,145.015625 C166.002604,144.921875 166.497396,144.752604 166.976562,144.507812 L166.976562,144.507812 L166.976562,142.3125 C166.450521,142.557292 165.96224,142.730469 165.511719,142.832031 C165.061198,142.933594 164.567708,142.984375 164.03125,142.984375 C163.442708,142.984375 162.977865,142.84375 162.636719,142.5625 C162.295573,142.28125 162.114583,141.893229 162.09375,141.398438 L162.09375,141.398438 L167.554688,141.398438 L167.554688,140.039062 C167.554688,138.731771 167.191406,137.730469 166.464844,137.035156 C165.738281,136.339844 164.708333,135.992188 163.375,135.992188 C161.973958,135.992188 160.895833,136.391927 160.140625,137.191406 C159.385417,137.990885 159.007812,139.138021 159.007812,140.632812 C159.007812,142.080729 159.415365,143.196615 160.230469,143.980469 C161.045573,144.764323 162.190104,145.15625 163.664062,145.15625 Z M164.78125,139.476562 L162.15625,139.476562 C162.197917,138.992188 162.339844,138.636719 162.582031,138.410156 C162.824219,138.183594 163.125,138.070312 163.484375,138.070312 C163.875,138.070312 164.186198,138.197917 164.417969,138.453125 C164.64974,138.708333 164.770833,139.049479 164.78125,139.476562 L164.78125,139.476562 Z M172.335938,145 L172.335938,140.648438 C172.335938,140.075521 172.486979,139.636719 172.789062,139.332031 C173.091146,139.027344 173.575521,138.875 174.242188,138.875 C174.684896,138.875 175.03125,138.90625 175.28125,138.96875 L175.28125,138.96875 L175.554688,136.085938 L175.382812,136.054688 C175.143229,136.013021 174.890625,135.992188 174.625,135.992188 C174.161458,135.992188 173.701823,136.136719 173.246094,136.425781 C172.790365,136.714844 172.434896,137.09375 172.179688,137.5625 L172.179688,137.5625 L172.03125,137.5625 L171.554688,136.148438 L169.28125,136.148438 L169.28125,145 L172.335938,145 Z" id="Discover" fill="#FF0081" fill-rule="nonzero"></path>
                <path d="M223.902344,145 C225.803385,145 227.278646,144.484375 228.328125,143.453125 C229.377604,142.421875 229.902344,140.953125 229.902344,139.046875 C229.902344,137.276042 229.403646,135.921875 228.40625,134.984375 C227.408854,134.046875 225.99349,133.578125 224.160156,133.578125 L224.160156,133.578125 L220.207031,133.578125 L220.207031,145 L223.902344,145 Z M223.980469,142.46875 L223.292969,142.46875 L223.292969,136.070312 L224.191406,136.070312 C225.035156,136.070312 225.664062,136.322917 226.078125,136.828125 C226.492188,137.333333 226.699219,138.109375 226.699219,139.15625 C226.699219,140.276042 226.480469,141.108073 226.042969,141.652344 C225.605469,142.196615 224.917969,142.46875 223.980469,142.46875 L223.980469,142.46875 Z M236.042969,145.15625 C236.751302,145.15625 237.360677,145.109375 237.871094,145.015625 C238.38151,144.921875 238.876302,144.752604 239.355469,144.507812 L239.355469,144.507812 L239.355469,142.3125 C238.829427,142.557292 238.341146,142.730469 237.890625,142.832031 C237.440104,142.933594 236.946615,142.984375 236.410156,142.984375 C235.821615,142.984375 235.356771,142.84375 235.015625,142.5625 C234.674479,142.28125 234.49349,141.893229 234.472656,141.398438 L234.472656,141.398438 L239.933594,141.398438 L239.933594,140.039062 C239.933594,138.731771 239.570312,137.730469 238.84375,137.035156 C238.117188,136.339844 237.08724,135.992188 235.753906,135.992188 C234.352865,135.992188 233.27474,136.391927 232.519531,137.191406 C231.764323,137.990885 231.386719,139.138021 231.386719,140.632812 C231.386719,142.080729 231.794271,143.196615 232.609375,143.980469 C233.424479,144.764323 234.56901,145.15625 236.042969,145.15625 Z M237.160156,139.476562 L234.535156,139.476562 C234.576823,138.992188 234.71875,138.636719 234.960938,138.410156 C235.203125,138.183594 235.503906,138.070312 235.863281,138.070312 C236.253906,138.070312 236.565104,138.197917 236.796875,138.453125 C237.028646,138.708333 237.14974,139.049479 237.160156,139.476562 L237.160156,139.476562 Z M245.183594,145 L245.183594,138.4375 L247.066406,138.4375 L247.066406,136.148438 L245.183594,136.148438 L245.183594,135.914062 C245.183594,135.591146 245.236979,135.358073 245.34375,135.214844 C245.450521,135.071615 245.621094,135 245.855469,135 C246.214844,135 246.582031,135.052083 246.957031,135.15625 L246.957031,135.15625 L247.613281,133.179688 C247.134115,133.023438 246.713542,132.914062 246.351562,132.851562 C245.989583,132.789062 245.605469,132.757812 245.199219,132.757812 C244.147135,132.757812 243.382812,133.013021 242.90625,133.523438 C242.429688,134.033854 242.191406,134.872396 242.191406,136.039062 L242.191406,136.039062 L242.191406,136.1875 L240.957031,136.9375 L240.957031,138.4375 L242.128906,138.4375 L242.128906,145 L245.183594,145 Z M249.824219,135.289062 C250.91276,135.289062 251.457031,134.841146 251.457031,133.945312 C251.457031,133.497396 251.326823,133.158854 251.066406,132.929688 C250.80599,132.700521 250.391927,132.585938 249.824219,132.585938 C249.25651,132.585938 248.845052,132.697917 248.589844,132.921875 C248.334635,133.145833 248.207031,133.486979 248.207031,133.945312 C248.207031,134.841146 248.746094,135.289062 249.824219,135.289062 Z M251.339844,145 L251.339844,136.148438 L248.285156,136.148438 L248.285156,145 L251.339844,145 Z M256.527344,145 L256.527344,141.125 C256.527344,140.125 256.641927,139.419271 256.871094,139.007812 C257.10026,138.596354 257.472656,138.390625 257.988281,138.390625 C258.363281,138.390625 258.635417,138.540365 258.804688,138.839844 C258.973958,139.139323 259.058594,139.583333 259.058594,140.171875 L259.058594,140.171875 L259.058594,145 L262.113281,145 L262.113281,139.242188 C262.113281,138.210938 261.841146,137.411458 261.296875,136.84375 C260.752604,136.276042 259.990885,135.992188 259.011719,135.992188 C258.41276,135.992188 257.882812,136.096354 257.421875,136.304688 C256.960938,136.513021 256.60026,136.825521 256.339844,137.242188 L256.339844,137.242188 L256.160156,137.242188 L255.777344,136.148438 L253.472656,136.148438 L253.472656,145 L256.527344,145 Z M268.464844,145.15625 C269.173177,145.15625 269.782552,145.109375 270.292969,145.015625 C270.803385,144.921875 271.298177,144.752604 271.777344,144.507812 L271.777344,144.507812 L271.777344,142.3125 C271.251302,142.557292 270.763021,142.730469 270.3125,142.832031 C269.861979,142.933594 269.36849,142.984375 268.832031,142.984375 C268.24349,142.984375 267.778646,142.84375 267.4375,142.5625 C267.096354,142.28125 266.915365,141.893229 266.894531,141.398438 L266.894531,141.398438 L272.355469,141.398438 L272.355469,140.039062 C272.355469,138.731771 271.992188,137.730469 271.265625,137.035156 C270.539062,136.339844 269.509115,135.992188 268.175781,135.992188 C266.77474,135.992188 265.696615,136.391927 264.941406,137.191406 C264.186198,137.990885 263.808594,139.138021 263.808594,140.632812 C263.808594,142.080729 264.216146,143.196615 265.03125,143.980469 C265.846354,144.764323 266.990885,145.15625 268.464844,145.15625 Z M269.582031,139.476562 L266.957031,139.476562 C266.998698,138.992188 267.140625,138.636719 267.382812,138.410156 C267.625,138.183594 267.925781,138.070312 268.285156,138.070312 C268.675781,138.070312 268.986979,138.197917 269.21875,138.453125 C269.450521,138.708333 269.571615,139.049479 269.582031,139.476562 L269.582031,139.476562 Z" id="Define" fill="#FF0081" fill-rule="nonzero"></path>
                <path d="M399.058594,145 L399.058594,142.484375 L395.363281,142.484375 L395.363281,140.328125 L398.785156,140.328125 L398.785156,137.851562 L395.363281,137.851562 L395.363281,136.054688 L399.058594,136.054688 L399.058594,133.578125 L392.277344,133.578125 L392.277344,145 L399.058594,145 Z M403.378906,145 L404.863281,142.3125 L406.355469,145 L409.824219,145 L406.941406,140.484375 L409.714844,136.148438 L406.238281,136.148438 L404.863281,138.632812 L403.519531,136.148438 L400.050781,136.148438 L402.753906,140.484375 L399.902344,145 L403.378906,145 Z M414.011719,148.84375 L414.011719,145.289062 C414.011719,145.138021 413.964844,144.752604 413.871094,144.132812 L413.871094,144.132812 L414.011719,144.132812 C414.360677,144.518229 414.71224,144.785156 415.066406,144.933594 C415.420573,145.082031 415.821615,145.15625 416.269531,145.15625 C417.264323,145.15625 418.052083,144.746094 418.632812,143.925781 C419.213542,143.105469 419.503906,141.981771 419.503906,140.554688 C419.503906,139.138021 419.22526,138.023438 418.667969,137.210938 C418.110677,136.398438 417.342448,135.992188 416.363281,135.992188 C415.363281,135.992188 414.579427,136.419271 414.011719,137.273438 L414.011719,137.273438 L413.871094,137.273438 L413.441406,136.148438 L410.957031,136.148438 L410.957031,148.84375 L414.011719,148.84375 Z M415.277344,142.695312 C414.839844,142.695312 414.519531,142.526042 414.316406,142.1875 C414.113281,141.848958 414.011719,141.299479 414.011719,140.539062 L414.011719,140.539062 L414.011719,140.296875 C414.027344,139.666667 414.125,139.191406 414.304688,138.871094 C414.484375,138.550781 414.798177,138.390625 415.246094,138.390625 C415.657552,138.390625 415.951823,138.55599 416.128906,138.886719 C416.30599,139.217448 416.394531,139.763021 416.394531,140.523438 C416.394531,141.299479 416.30599,141.855469 416.128906,142.191406 C415.951823,142.527344 415.667969,142.695312 415.277344,142.695312 Z M424.300781,145 L424.300781,132.84375 L421.246094,132.84375 L421.246094,145 L424.300781,145 Z M430.433594,145.15625 C431.834635,145.15625 432.924479,144.751302 433.703125,143.941406 C434.481771,143.13151 434.871094,142.002604 434.871094,140.554688 C434.871094,139.632812 434.690104,138.826823 434.328125,138.136719 C433.966146,137.446615 433.451823,136.916667 432.785156,136.546875 C432.11849,136.177083 431.35026,135.992188 430.480469,135.992188 C429.074219,135.992188 427.981771,136.391927 427.203125,137.191406 C426.424479,137.990885 426.035156,139.111979 426.035156,140.554688 C426.035156,141.966146 426.432292,143.085938 427.226562,143.914062 C428.020833,144.742188 429.089844,145.15625 430.433594,145.15625 Z M430.464844,142.890625 C429.985677,142.890625 429.644531,142.691406 429.441406,142.292969 C429.238281,141.894531 429.136719,141.315104 429.136719,140.554688 C429.136719,139.794271 429.238281,139.222656 429.441406,138.839844 C429.644531,138.457031 429.980469,138.265625 430.449219,138.265625 C430.928385,138.265625 431.266927,138.458333 431.464844,138.84375 C431.66276,139.229167 431.761719,139.799479 431.761719,140.554688 C431.761719,141.315104 431.664062,141.894531 431.46875,142.292969 C431.273438,142.691406 430.938802,142.890625 430.464844,142.890625 Z M439.667969,145 L439.667969,140.648438 C439.667969,140.075521 439.81901,139.636719 440.121094,139.332031 C440.423177,139.027344 440.907552,138.875 441.574219,138.875 C442.016927,138.875 442.363281,138.90625 442.613281,138.96875 L442.613281,138.96875 L442.886719,136.085938 L442.714844,136.054688 C442.47526,136.013021 442.222656,135.992188 441.957031,135.992188 C441.49349,135.992188 441.033854,136.136719 440.578125,136.425781 C440.122396,136.714844 439.766927,137.09375 439.511719,137.5625 L439.511719,137.5625 L439.363281,137.5625 L438.886719,136.148438 L436.613281,136.148438 L436.613281,145 L439.667969,145 Z M448.394531,145.15625 C449.102865,145.15625 449.71224,145.109375 450.222656,145.015625 C450.733073,144.921875 451.227865,144.752604 451.707031,144.507812 L451.707031,144.507812 L451.707031,142.3125 C451.18099,142.557292 450.692708,142.730469 450.242188,142.832031 C449.791667,142.933594 449.298177,142.984375 448.761719,142.984375 C448.173177,142.984375 447.708333,142.84375 447.367188,142.5625 C447.026042,142.28125 446.845052,141.893229 446.824219,141.398438 L446.824219,141.398438 L452.285156,141.398438 L452.285156,140.039062 C452.285156,138.731771 451.921875,137.730469 451.195312,137.035156 C450.46875,136.339844 449.438802,135.992188 448.105469,135.992188 C446.704427,135.992188 445.626302,136.391927 444.871094,137.191406 C444.115885,137.990885 443.738281,139.138021 443.738281,140.632812 C443.738281,142.080729 444.145833,143.196615 444.960938,143.980469 C445.776042,144.764323 446.920573,145.15625 448.394531,145.15625 Z M449.511719,139.476562 L446.886719,139.476562 C446.928385,138.992188 447.070312,138.636719 447.3125,138.410156 C447.554688,138.183594 447.855469,138.070312 448.214844,138.070312 C448.605469,138.070312 448.916667,138.197917 449.148438,138.453125 C449.380208,138.708333 449.501302,139.049479 449.511719,139.476562 L449.511719,139.476562 Z" id="Explore" fill="#FF0081" fill-rule="nonzero"></path>
                <path d="M499.34375,145 L499.34375,142.484375 L495.648438,142.484375 L495.648438,140.328125 L499.070312,140.328125 L499.070312,137.851562 L495.648438,137.851562 L495.648438,136.054688 L499.34375,136.054688 L499.34375,133.578125 L492.5625,133.578125 L492.5625,145 L499.34375,145 Z M503.664062,145 L505.148438,142.3125 L506.640625,145 L510.109375,145 L507.226562,140.484375 L510,136.148438 L506.523438,136.148438 L505.148438,138.632812 L503.804688,136.148438 L500.335938,136.148438 L503.039062,140.484375 L500.1875,145 L503.664062,145 Z M515.515625,145.15625 C516.223958,145.15625 516.833333,145.109375 517.34375,145.015625 C517.854167,144.921875 518.348958,144.752604 518.828125,144.507812 L518.828125,144.507812 L518.828125,142.3125 C518.302083,142.557292 517.813802,142.730469 517.363281,142.832031 C516.91276,142.933594 516.419271,142.984375 515.882812,142.984375 C515.294271,142.984375 514.829427,142.84375 514.488281,142.5625 C514.147135,142.28125 513.966146,141.893229 513.945312,141.398438 L513.945312,141.398438 L519.40625,141.398438 L519.40625,140.039062 C519.40625,138.731771 519.042969,137.730469 518.316406,137.035156 C517.589844,136.339844 516.559896,135.992188 515.226562,135.992188 C513.825521,135.992188 512.747396,136.391927 511.992188,137.191406 C511.236979,137.990885 510.859375,139.138021 510.859375,140.632812 C510.859375,142.080729 511.266927,143.196615 512.082031,143.980469 C512.897135,144.764323 514.041667,145.15625 515.515625,145.15625 Z M516.632812,139.476562 L514.007812,139.476562 C514.049479,138.992188 514.191406,138.636719 514.433594,138.410156 C514.675781,138.183594 514.976562,138.070312 515.335938,138.070312 C515.726562,138.070312 516.03776,138.197917 516.269531,138.453125 C516.501302,138.708333 516.622396,139.049479 516.632812,139.476562 L516.632812,139.476562 Z M525.164062,145.15625 C526.268229,145.15625 527.213542,144.895833 528,144.375 L528,144.375 L528,141.945312 C527.177083,142.466146 526.317708,142.726562 525.421875,142.726562 C524.375,142.726562 523.851562,142.018229 523.851562,140.601562 C523.851562,139.898438 523.986979,139.354167 524.257812,138.96875 C524.528646,138.583333 524.911458,138.390625 525.40625,138.390625 C525.744792,138.390625 526.070312,138.438802 526.382812,138.535156 C526.695312,138.63151 527.036458,138.760417 527.40625,138.921875 L527.40625,138.921875 L528.304688,136.664062 C527.398438,136.216146 526.432292,135.992188 525.40625,135.992188 C523.916667,135.992188 522.768229,136.395833 521.960938,137.203125 C521.153646,138.010417 520.75,139.148438 520.75,140.617188 C520.75,142.080729 521.123698,143.203125 521.871094,143.984375 C522.61849,144.765625 523.716146,145.15625 525.164062,145.15625 Z M532.828125,145.15625 C533.442708,145.15625 533.977865,145.048177 534.433594,144.832031 C534.889323,144.615885 535.244792,144.304688 535.5,143.898438 L535.5,143.898438 L535.679688,143.898438 L536.0625,145 L538.367188,145 L538.367188,136.148438 L535.3125,136.148438 L535.3125,140.023438 C535.3125,141.007812 535.200521,141.707031 534.976562,142.121094 C534.752604,142.535156 534.377604,142.742188 533.851562,142.742188 C533.476562,142.742188 533.207031,142.59375 533.042969,142.296875 C532.878906,142 532.796875,141.5625 532.796875,140.984375 L532.796875,140.984375 L532.796875,136.148438 L529.742188,136.148438 L529.742188,141.914062 C529.742188,142.945312 530.013021,143.74349 530.554688,144.308594 C531.096354,144.873698 531.854167,145.15625 532.828125,145.15625 Z M543.804688,145.15625 C544.304688,145.15625 544.740885,145.11849 545.113281,145.042969 C545.485677,144.967448 545.877604,144.841146 546.289062,144.664062 L546.289062,144.664062 L546.289062,142.4375 C545.716146,142.640625 545.223958,142.742188 544.8125,142.742188 C544.260417,142.742188 543.984375,142.455729 543.984375,141.882812 L543.984375,141.882812 L543.984375,138.4375 L546.15625,138.4375 L546.15625,136.148438 L543.984375,136.148438 L543.984375,134.375 L541.984375,134.375 L541.195312,136.234375 L539.835938,137.195312 L539.835938,138.4375 L540.90625,138.4375 L540.90625,142.085938 C540.90625,143.127604 541.132812,143.89974 541.585938,144.402344 C542.039062,144.904948 542.778646,145.15625 543.804688,145.15625 Z M552.109375,145.15625 C552.817708,145.15625 553.427083,145.109375 553.9375,145.015625 C554.447917,144.921875 554.942708,144.752604 555.421875,144.507812 L555.421875,144.507812 L555.421875,142.3125 C554.895833,142.557292 554.407552,142.730469 553.957031,142.832031 C553.50651,142.933594 553.013021,142.984375 552.476562,142.984375 C551.888021,142.984375 551.423177,142.84375 551.082031,142.5625 C550.740885,142.28125 550.559896,141.893229 550.539062,141.398438 L550.539062,141.398438 L556,141.398438 L556,140.039062 C556,138.731771 555.636719,137.730469 554.910156,137.035156 C554.183594,136.339844 553.153646,135.992188 551.820312,135.992188 C550.419271,135.992188 549.341146,136.391927 548.585938,137.191406 C547.830729,137.990885 547.453125,139.138021 547.453125,140.632812 C547.453125,142.080729 547.860677,143.196615 548.675781,143.980469 C549.490885,144.764323 550.635417,145.15625 552.109375,145.15625 Z M553.226562,139.476562 L550.601562,139.476562 C550.643229,138.992188 550.785156,138.636719 551.027344,138.410156 C551.269531,138.183594 551.570312,138.070312 551.929688,138.070312 C552.320312,138.070312 552.63151,138.197917 552.863281,138.453125 C553.095052,138.708333 553.216146,139.049479 553.226562,139.476562 L553.226562,139.476562 Z" id="Execute" fill="#FF0081" fill-rule="nonzero"></path>
                <line x1="469.5" y1="16.5" x2="469.5" y2="260.5" id="Path" stroke="#FF0081" stroke-width="5" fill="#FFFFFF" fill-rule="nonzero"></line>
                <path d="M306.858302,58.292866 C324.962606,41.9855515 352.013046,41.6881317 370.311284,56.5116383 L355.785303,57.0851905 C353.910169,57.1632125 352.457391,58.7086926 352.52903,60.5749411 C352.600758,62.3914193 354.098203,63.8071771 355.898202,63.8039452 C355.948202,63.8038554 355.973202,63.8038105 356.023202,63.8037208 L378.324674,62.9424722 C380.149808,62.8645401 381.577451,61.3937601 381.58144,59.5771472 L381.58144,59.3282961 C381.58144,59.2785259 381.58144,59.2536408 381.58144,59.2038706 L381.58144,59.1789855 L380.795969,37.2318017 C380.72433,35.3655532 379.15193,33.9250449 377.301796,34.003022 C375.426662,34.0810439 373.973884,35.6265241 374.045523,37.4927725 L374.545739,51.2532945 C365.484052,43.8787118 354.316765,39.6185381 342.367844,39.0427519 C327.569193,38.3227724 313.3351,43.3999905 302.342267,53.3239692 C287.217757,66.9632355 280.780472,87.6791365 285.544975,107.379523 C285.917197,108.921727 287.290359,109.939547 288.815358,109.936815 C289.090358,109.936815 289.340403,109.910981 289.615537,109.835832 C291.416343,109.384668 292.544615,107.566036 292.097841,105.775116 C287.929035,88.462622 293.561794,70.2615533 306.858302,58.292866 Z" id="Path" fill="url(#linearGradient-1)" fill-rule="nonzero" transform="translate(332.790720, 71.968407) rotate(25.000000) translate(-332.790720, -71.968407) "></path>
                <path d="M303.858302,195.292866 C321.962606,178.985552 349.013046,178.688132 367.311284,193.511638 L352.785303,194.085191 C350.910169,194.163212 349.457391,195.708693 349.52903,197.574941 C349.600758,199.391419 351.098203,200.807177 352.898202,200.803945 C352.948202,200.803855 352.973202,200.803811 353.023202,200.803721 L375.324674,199.942472 C377.149808,199.86454 378.577451,198.39376 378.58144,196.577147 L378.58144,196.328296 C378.58144,196.278526 378.58144,196.253641 378.58144,196.203871 L378.58144,196.178985 L377.795969,174.231802 C377.72433,172.365553 376.15193,170.925045 374.301796,171.003022 C372.426662,171.081044 370.973884,172.626524 371.045523,174.492772 L371.545739,188.253294 C362.484052,180.878712 351.316765,176.618538 339.367844,176.042752 C324.569193,175.322772 310.3351,180.39999 299.342267,190.323969 C284.217757,203.963235 277.780472,224.679136 282.544975,244.379523 C282.917197,245.921727 284.290359,246.939547 285.815358,246.936815 C286.090358,246.936815 286.340403,246.910981 286.615537,246.835832 C288.416343,246.384668 289.544615,244.566036 289.097841,242.775116 C284.929035,225.462622 290.561794,207.261553 303.858302,195.292866 Z" id="Path" fill="url(#linearGradient-1)" fill-rule="nonzero" transform="translate(329.790720, 208.968407) rotate(207.000000) translate(-329.790720, -208.968407) "></path>
                <line x1="194.5" y1="16.3165375" x2="194.5" y2="260.683463" id="Path" stroke="#FF0081" stroke-width="5" fill="#FF0081" fill-rule="nonzero"></line>
            </g>
        </g>
    </g>
</svg>