<?xml version="1.0" standalone="no"?>
<!DOCTYPE svg PUBLIC "-//W3C//DTD SVG 20010904//EN"
 "http://www.w3.org/TR/2001/REC-SVG-20010904/DTD/svg10.dtd">
<svg version="1.0" xmlns="http://www.w3.org/2000/svg"
 width="1424.000000pt" height="1424.000000pt" viewBox="0 0 1424.000000 1424.000000"
 preserveAspectRatio="xMidYMid meet">
<metadata>
Created by potrace 1.11, written by Peter Selinger 2001-2013
</metadata>
<g transform="translate(0.000000,1424.000000) scale(0.100000,-0.100000)"
fill="#000000" stroke="none">
<path d="M2600 11361 c0 -3 -21 -7 -48 -7 -49 -2 -141 -11 -182 -19 -14 -3
-42 -7 -65 -11 -22 -3 -70 -12 -107 -20 -37 -7 -81 -16 -96 -19 -16 -2 -47
-11 -69 -19 -23 -8 -44 -12 -47 -9 -3 3 -12 0 -21 -7 -8 -7 -15 -10 -15 -7 0
3 -26 -3 -57 -14 -32 -11 -66 -21 -78 -23 -105 -20 -567 -247 -631 -311 -9 -8
-19 -15 -23 -15 -4 0 -19 -9 -32 -20 -29 -23 -32 -26 -84 -65 -101 -75 -247
-221 -346 -345 -77 -96 -182 -253 -179 -266 1 -4 -2 -10 -8 -13 -9 -7 -96
-180 -98 -196 -1 -11 -10 -36 -29 -80 -7 -16 -27 -77 -43 -135 -27 -93 -36
-132 -57 -245 -14 -74 -19 -174 -19 -350 0 -175 3 -230 19 -355 7 -52 34 -182
39 -187 4 -4 848 -5 851 -1 1 2 -11 44 -27 93 -16 50 -31 108 -34 130 -3 22
-7 46 -10 53 -23 71 -22 484 2 523 2 4 6 24 10 45 11 73 66 229 118 334 28 58
54 107 57 110 3 3 30 41 59 85 71 105 244 275 356 350 49 33 91 63 92 68 2 4
7 5 12 2 5 -3 14 1 22 8 16 16 163 88 237 117 47 18 197 65 241 75 87 20 110
25 140 30 19 4 53 9 75 11 22 3 65 8 95 11 125 15 470 7 583 -12 15 -3 37 -7
50 -9 12 -2 53 -11 90 -21 37 -9 73 -18 80 -19 7 -1 18 -5 25 -9 6 -5 12 -6
12 -3 0 9 185 -60 283 -105 93 -43 279 -154 285 -170 2 -5 8 -9 13 -9 10 0 24
-11 128 -100 110 -94 165 -153 301 -319 l25 -31 85 71 c47 39 102 85 124 102
21 18 44 37 50 42 6 6 45 38 86 70 41 33 82 67 91 75 9 8 25 22 35 30 52 40
122 97 143 117 l24 22 -39 48 c-35 43 -243 253 -276 278 -7 6 -41 34 -76 63
-35 29 -66 52 -71 52 -4 0 -16 8 -27 18 -37 34 -163 113 -314 194 -61 33 -275
124 -275 117 0 -1 -11 4 -25 11 -14 8 -27 15 -30 15 -3 1 -39 12 -80 25 -41
13 -77 25 -80 25 -3 1 -12 4 -20 8 -8 3 -51 15 -95 26 -166 41 -288 65 -393
76 -31 4 -73 9 -92 12 -48 8 -640 12 -640 4z"/>
<path d="M10358 11364 c-2 -1 -33 -5 -68 -8 -36 -3 -88 -8 -115 -11 -66 -6
-246 -32 -310 -45 -27 -6 -63 -12 -80 -14 -16 -2 -59 -12 -95 -21 -36 -9 -72
-18 -80 -20 -36 -7 -81 -19 -160 -42 -47 -13 -92 -26 -100 -28 -25 -7 -193
-65 -215 -74 -11 -5 -74 -30 -140 -57 -66 -26 -150 -62 -187 -81 -37 -18 -74
-33 -82 -33 -8 0 -16 -4 -18 -8 -1 -5 -41 -28 -88 -53 -92 -47 -278 -156 -296
-174 -6 -5 -27 -19 -47 -30 -20 -11 -37 -23 -37 -27 0 -5 -5 -8 -11 -8 -6 0
-24 -10 -39 -22 -15 -13 -40 -32 -56 -43 -56 -40 -129 -99 -132 -107 -2 -4 -8
-8 -14 -8 -13 0 -208 -173 -318 -282 -135 -134 -268 -288 -377 -433 -20 -27
-41 -51 -45 -53 -4 -2 -8 -10 -8 -18 0 -8 -4 -14 -10 -14 -5 0 -10 -6 -10 -14
0 -8 -3 -16 -7 -18 -12 -5 -113 -156 -113 -168 0 -5 -4 -10 -8 -10 -4 0 -13
-12 -20 -27 -6 -16 -24 -48 -40 -73 -15 -25 -48 -83 -73 -130 -24 -47 -48 -88
-54 -92 -5 -4 -7 -8 -3 -8 4 0 -7 -28 -24 -62 -18 -35 -33 -65 -33 -68 0 -3
-13 -31 -28 -64 -15 -32 -27 -64 -27 -71 0 -6 -3 -15 -7 -19 -8 -7 -33 -68
-63 -153 l-19 -53 27 0 c15 0 223 -1 462 -1 l435 -1 12 24 c6 12 42 86 78 163
37 77 74 148 83 158 8 9 12 17 9 17 -4 0 9 25 28 55 19 30 35 56 35 59 0 4 11
22 60 96 190 285 429 546 690 755 41 33 82 65 91 70 56 36 129 86 142 99 8 8
17 12 21 9 3 -4 6 -1 6 5 0 7 5 12 11 12 6 0 30 14 54 30 24 17 48 30 54 30 6
0 11 5 11 12 0 6 3 8 7 5 3 -4 11 -3 17 2 36 30 359 182 441 207 6 2 44 15 85
29 113 40 312 95 322 89 4 -3 8 -1 8 4 0 5 6 9 13 9 19 1 90 14 110 19 10 3
30 7 45 9 15 2 42 6 60 9 17 3 46 8 62 11 212 36 724 39 1000 5 47 -6 123 -18
170 -26 47 -9 94 -17 105 -18 12 -1 26 -6 33 -10 7 -4 12 -5 12 -3 0 3 33 -4
73 -14 39 -11 83 -22 96 -25 14 -3 29 -7 33 -10 5 -3 24 -8 41 -11 18 -3 37
-8 42 -13 9 -7 49 -19 85 -26 8 -2 23 -7 35 -12 11 -6 58 -25 105 -43 96 -37
363 -168 368 -181 2 -4 8 -8 14 -8 6 0 30 -13 55 -30 24 -16 48 -30 54 -30 5
0 9 -4 9 -10 0 -5 7 -10 15 -10 8 0 15 -4 15 -10 0 -5 6 -10 13 -10 8 0 22 -9
32 -20 10 -11 24 -20 31 -20 7 0 14 -3 16 -7 2 -5 30 -28 63 -53 33 -25 67
-52 75 -60 8 -8 36 -32 61 -52 26 -21 81 -71 123 -113 42 -41 80 -75 85 -75 5
0 136 126 291 280 l281 281 -59 57 c-52 50 -94 87 -206 183 -82 69 -328 240
-430 299 -17 9 -62 35 -101 57 -95 55 -279 142 -395 188 -52 20 -104 41 -115
45 -38 16 -290 96 -330 106 -5 1 -37 10 -70 19 -33 9 -73 19 -90 21 -16 3 -43
9 -60 14 -35 10 -166 37 -222 45 -21 4 -63 10 -93 15 -65 11 -126 19 -195 26
-27 3 -75 7 -105 10 -60 6 -777 14 -782 8z"/>
<path d="M1718 7965 c-2 -3 -33 -7 -69 -9 -35 -2 -76 -9 -91 -15 -16 -6 -28
-9 -28 -6 0 2 -30 -11 -68 -30 -169 -86 -260 -236 -267 -438 -5 -158 44 -286
148 -390 49 -48 177 -129 177 -112 0 3 9 1 21 -5 11 -7 44 -14 72 -17 219 -25
388 40 498 191 39 54 84 136 74 136 -2 0 2 18 10 40 16 46 15 231 -3 293 -52
190 -219 329 -419 351 -17 2 -35 6 -41 10 -5 3 -11 3 -14 1z m61 -169 c100
-19 179 -91 217 -201 25 -70 24 -255 -1 -295 -3 -5 -8 -19 -10 -31 -6 -30 -69
-104 -111 -130 -20 -12 -60 -28 -88 -34 -54 -12 -151 -13 -162 -2 -4 4 -17 7
-29 7 -31 0 -108 52 -141 95 -48 63 -73 156 -70 255 7 191 99 316 249 336 23
4 43 7 45 9 3 3 62 -2 101 -9z"/>
<path d="M9385 7950 c-84 -22 -151 -56 -210 -106 -54 -45 -133 -151 -139 -187
-3 -12 -5 -23 -7 -24 -1 -2 -3 -7 -4 -13 -1 -5 -3 -11 -5 -12 -4 -6 -22 -128
-22 -153 1 -50 12 -135 21 -157 6 -16 9 -28 6 -28 -6 0 46 -101 69 -134 106
-149 304 -223 511 -192 108 17 226 80 285 155 14 17 30 37 36 44 18 20 50 86
69 142 20 60 27 208 13 285 -23 130 -111 256 -228 324 -108 63 -276 87 -395
56z m160 -150 c0 -1 17 -4 39 -6 75 -9 158 -70 196 -144 41 -80 54 -194 36
-300 -27 -149 -140 -248 -291 -254 -211 -9 -339 131 -336 364 0 30 3 65 6 78
3 12 7 30 9 40 25 105 108 187 216 214 41 11 125 16 125 8z"/>
<path d="M285 7945 c-150 -35 -237 -135 -242 -278 -2 -77 25 -156 68 -192 41
-35 89 -67 89 -59 0 3 6 2 13 -4 11 -9 127 -48 169 -57 35 -7 84 -36 101 -61
37 -50 23 -136 -30 -181 -22 -19 -110 -42 -135 -35 -3 1 -21 4 -39 7 -34 6
-134 58 -144 76 -10 15 -62 10 -80 -7 -8 -9 -24 -33 -35 -54 l-19 -38 36 -31
c103 -88 275 -124 410 -85 29 8 54 13 56 12 12 -12 133 116 149 157 67 175 13
318 -144 382 -35 14 -72 30 -83 36 -11 6 -22 12 -25 13 -36 8 -147 63 -160 79
-23 28 -28 80 -11 115 23 48 71 73 140 73 67 1 67 0 148 -40 36 -17 70 -30 77
-27 12 5 49 61 44 67 -2 2 3 11 9 19 10 12 9 18 -10 35 -74 69 -238 105 -352
78z"/>
<path d="M2793 7949 c-14 -5 -15 -54 -15 -470 1 -255 1 -480 1 -500 l1 -35 93
0 92 1 2 130 c1 72 2 165 2 207 1 84 8 92 64 77 15 -4 27 -5 27 -1 0 4 11 7
25 7 14 0 25 -4 25 -8 0 -4 8 -3 18 2 10 6 24 6 32 1 8 -5 18 -6 23 -3 13 8
67 10 67 2 0 -4 16 -3 35 1 22 5 35 4 35 -2 0 -7 5 -7 13 0 11 9 16 108 8 142
0 3 -84 5 -186 5 -179 0 -185 0 -186 20 -3 84 0 265 4 272 3 4 103 8 224 8
l218 -1 0 73 c0 42 -4 73 -10 74 -46 4 -599 3 -612 -2z"/>
<path d="M4027 7952 c-16 -3 -17 -44 -17 -503 0 -274 3 -500 8 -500 4 -1 44
-2 89 -3 75 -2 82 0 85 19 2 11 3 238 3 504 l0 485 -76 0 c-41 1 -83 0 -92 -2z"/>
<path d="M5117 7910 c-11 -25 -20 -51 -20 -57 0 -7 -4 -13 -9 -13 -4 0 -8 -6
-8 -12 0 -12 -85 -235 -115 -303 -7 -16 -17 -42 -20 -58 -4 -15 -11 -30 -16
-33 -5 -3 -9 -12 -9 -21 0 -8 -11 -41 -24 -72 -14 -31 -44 -105 -66 -166 -23
-60 -49 -126 -58 -145 -8 -19 -14 -35 -13 -35 1 0 -2 -12 -8 -27 l-10 -26 82
3 c45 1 89 6 99 9 13 6 70 142 94 224 4 14 -8 14 228 15 203 1 191 4 213 -53
6 -14 17 -41 25 -60 9 -19 18 -49 22 -67 12 -53 36 -66 126 -68 45 -1 83 2 86
6 3 5 0 18 -6 29 -6 12 -13 29 -15 38 -4 15 -130 338 -155 397 -5 11 -23 56
-40 100 -18 44 -35 89 -40 100 -4 11 -18 45 -30 75 -11 30 -25 64 -30 75 -4
11 -23 58 -41 105 l-32 85 -95 0 -95 0 -20 -45z m147 -235 c15 -44 31 -89 36
-100 15 -33 82 -219 85 -235 3 -13 -17 -15 -149 -14 -83 1 -154 2 -157 3 -3 0
9 43 29 94 19 50 35 97 37 102 1 6 7 24 14 40 20 48 63 179 64 193 1 23 14 -2
41 -83z"/>
<path d="M8008 7955 c-2 -2 -19 -5 -38 -8 -35 -6 -41 -7 -95 -22 -47 -13 -135
-72 -186 -125 -125 -130 -165 -349 -100 -539 55 -159 188 -276 358 -316 60
-14 200 -14 285 -1 53 9 147 45 188 73 l35 23 1 205 0 205 -167 0 -167 0 -1
-58 c0 -32 4 -63 8 -70 5 -9 33 -13 82 -13 l75 0 -1 -90 c0 -68 -4 -92 -15
-99 -46 -30 -220 -51 -295 -36 -94 19 -188 123 -211 231 -13 61 -11 190 3 240
46 157 155 234 333 236 81 0 132 -14 204 -56 54 -32 71 -26 117 41 29 42 30
47 15 63 -21 23 -148 86 -206 101 -41 11 -214 23 -222 15z"/>
<path d="M10590 7860 c-1 -117 -1 -855 0 -891 0 -25 1 -25 78 -24 l77 1 3 362
c1 236 6 361 12 357 6 -3 10 -15 10 -25 0 -10 3 -20 8 -22 4 -1 22 -32 41 -68
18 -36 55 -105 81 -155 26 -49 71 -135 99 -190 61 -118 74 -132 124 -138 47
-6 75 15 113 85 143 270 165 311 222 420 31 60 51 91 54 80 2 -9 4 -171 3
-359 0 -222 3 -344 10 -346 5 -2 42 -3 80 -3 l70 1 0 502 1 502 -81 0 c-44 -1
-88 -3 -97 -5 -10 -3 -28 -27 -41 -53 -13 -26 -38 -71 -54 -101 -17 -30 -56
-104 -88 -165 -32 -60 -74 -139 -94 -175 -20 -36 -47 -89 -61 -117 -24 -51
-40 -67 -40 -40 0 6 -6 23 -13 37 -7 14 -33 63 -57 110 -24 47 -50 93 -58 103
-8 9 -12 17 -7 17 4 0 3 6 -3 13 -5 6 -35 59 -65 117 -51 98 -107 201 -133
244 -9 15 -25 18 -102 20 l-92 1 0 -95z"/>
<path d="M12297 7945 c-3 -9 -1 -981 2 -997 0 -3 144 -5 319 -5 l317 2 1 73
c0 59 -2 72 -15 73 -9 0 -109 0 -223 0 l-208 1 0 142 0 142 177 1 177 0 -1 69
c-1 38 -2 71 -2 74 -1 3 -79 5 -173 5 l-173 0 0 128 c0 78 -4 127 -10 127 -5
0 -3 6 6 13 12 9 77 12 231 12 l215 -1 -1 76 0 75 -318 0 c-203 0 -319 -4
-321 -10z"/>
<path d="M13508 7952 c-13 -3 -16 -16 -15 -75 l2 -72 245 -1 c135 -1 247 -2
248 -3 2 0 -7 -14 -20 -30 -12 -16 -72 -100 -132 -187 -61 -88 -119 -171 -130
-185 -12 -14 -27 -35 -34 -45 -7 -10 -58 -83 -113 -162 -99 -141 -100 -143
-97 -195 l3 -52 370 -1 c204 0 375 1 381 3 7 3 11 31 11 73 0 61 -2 69 -21 72
-12 2 -128 3 -258 2 -131 0 -238 1 -238 3 0 8 44 68 52 71 4 2 8 8 8 13 0 5
15 28 33 52 17 24 38 53 45 63 21 32 160 228 169 239 10 12 91 127 113 161 27
42 75 109 81 114 17 14 29 54 29 97 l0 48 -358 0 c-197 0 -366 -1 -374 -3z"/>
<path d="M3934 6221 c-2 -2 31 -38 74 -80 169 -165 260 -307 329 -510 14 -41
27 -84 29 -94 2 -10 6 -27 9 -37 10 -31 16 -63 19 -106 2 -23 6 -45 9 -50 7
-12 1 -398 -8 -449 -6 -35 -28 -134 -39 -175 -59 -209 -196 -434 -378 -620
-58 -59 -193 -169 -254 -207 -58 -37 -130 -78 -136 -78 -3 0 -10 -4 -15 -8 -8
-9 -130 -67 -140 -67 -3 0 -19 -6 -36 -14 -70 -30 -276 -92 -337 -101 -14 -2
-50 -8 -80 -14 -30 -6 -68 -13 -85 -16 -92 -16 -465 -24 -530 -10 -16 3 -52 8
-80 10 -27 2 -72 9 -100 15 -27 6 -63 13 -80 16 -32 6 -160 41 -185 51 -8 3
-20 7 -27 9 -87 18 -447 195 -461 227 -2 4 -8 5 -13 1 -5 -3 -9 0 -9 5 0 6 -7
11 -15 11 -8 0 -15 4 -15 8 0 4 -13 15 -29 25 -81 48 -319 263 -386 349 -11
14 -37 45 -57 69 -51 62 -107 141 -114 162 -4 9 -10 17 -15 17 -5 0 -9 7 -9
16 0 10 -5 14 -15 10 -13 -5 -121 -82 -135 -96 -3 -3 -50 -39 -105 -80 -55
-41 -104 -78 -110 -83 -5 -4 -37 -28 -70 -53 -33 -25 -75 -57 -94 -72 -18 -15
-41 -31 -50 -36 -9 -5 -21 -14 -27 -20 -6 -6 -23 -20 -38 -31 -16 -11 -38 -27
-49 -36 l-21 -17 27 -39 c15 -22 35 -48 45 -59 9 -11 42 -49 73 -84 65 -75
161 -173 240 -246 95 -86 317 -254 338 -254 5 0 11 -7 15 -15 3 -8 12 -15 20
-15 8 0 21 -6 28 -13 7 -7 24 -18 38 -25 14 -6 48 -25 75 -41 50 -30 163 -86
178 -89 4 -1 27 -13 52 -27 25 -13 45 -22 45 -19 0 4 10 0 23 -8 33 -21 358
-134 413 -144 16 -3 38 -8 49 -11 11 -4 25 -8 30 -9 6 -1 33 -7 60 -14 28 -6
68 -14 90 -17 21 -2 43 -7 48 -10 4 -3 23 -7 40 -9 18 -3 63 -9 102 -16 158
-25 270 -32 515 -32 251 -1 372 8 550 40 47 9 96 17 110 19 29 4 34 5 172 39
57 13 154 41 214 61 60 20 114 38 119 39 6 2 26 10 46 19 19 9 47 19 62 22 14
4 31 13 38 21 6 8 18 14 25 14 21 0 304 156 349 192 6 5 41 31 78 58 77 56 86
64 128 103 16 15 32 27 35 27 7 0 138 135 199 205 63 72 194 256 195 273 0 6
5 12 10 12 6 0 10 5 10 11 0 6 9 23 19 38 11 15 21 34 23 42 2 8 5 16 8 19 10
10 62 119 59 122 -2 2 3 15 12 28 30 47 93 236 124 373 2 10 6 26 9 35 3 9 8
33 10 52 8 60 16 114 22 140 3 14 8 99 10 189 2 90 7 167 10 172 3 5 2 9 -3 9
-4 0 -8 39 -8 88 1 48 -2 112 -6 142 -17 129 -19 146 -24 175 -25 138 -88 335
-151 473 -19 41 -34 77 -34 82 0 5 -6 12 -12 17 -13 8 -1066 12 -1074 4z"/>
<path d="M12877 6215 c-1 -5 -3 -479 -2 -1053 l1 -1043 -56 -31 c-30 -18 -58
-36 -61 -41 -3 -5 -10 -9 -15 -9 -11 -1 -57 -21 -64 -28 -19 -19 -406 -182
-465 -195 -11 -2 -67 -18 -125 -35 -110 -32 -162 -45 -219 -55 -19 -3 -37 -8
-41 -10 -4 -2 -22 -7 -41 -10 -19 -3 -54 -11 -79 -16 -25 -6 -58 -13 -75 -15
-16 -2 -41 -6 -55 -9 -14 -3 -45 -8 -70 -11 -25 -3 -54 -8 -65 -11 -11 -2 -40
-6 -65 -9 -84 -8 -125 -13 -125 -14 0 -1 -22 -3 -50 -5 -27 -2 -79 -6 -115
-10 -89 -10 -627 -10 -720 0 -41 4 -93 9 -115 10 -22 2 -40 4 -40 5 0 1 -20 4
-45 6 -25 2 -65 9 -90 14 -25 5 -61 12 -81 14 -20 3 -42 8 -50 10 -8 3 -25 7
-39 10 -14 3 -61 14 -105 26 -44 11 -87 22 -95 24 -8 2 -22 6 -30 9 -13 5
-208 72 -235 81 -5 1 -30 11 -55 22 -25 10 -48 18 -52 16 -5 -1 -8 3 -8 8 0 6
-7 10 -15 10 -18 0 -314 149 -333 167 -7 7 -20 13 -28 13 -8 0 -14 5 -14 10 0
6 -4 10 -10 10 -9 0 -72 39 -97 60 -7 5 -15 10 -18 10 -6 0 -199 140 -237 172
-15 13 -46 39 -70 58 -68 54 -360 351 -393 400 -16 24 -40 54 -51 67 -12 13
-34 42 -50 65 -16 24 -36 51 -45 61 -9 9 -22 30 -30 45 -8 15 -20 33 -26 40
-7 7 -13 17 -13 21 0 4 -11 21 -24 36 -14 16 -23 32 -20 36 2 4 0 10 -5 13
-11 7 -79 127 -79 140 0 5 -4 12 -9 15 -8 5 -95 176 -98 191 -1 3 -9 23 -19
45 -31 68 -132 341 -141 384 -2 9 -16 57 -30 106 -14 50 -28 101 -31 115 -3
14 -7 32 -9 40 -2 8 -4 18 -4 23 -1 4 -202 7 -447 7 l-447 0 7 -37 c8 -51 14
-81 20 -101 3 -9 7 -29 10 -43 7 -44 57 -228 92 -337 2 -7 4 -16 5 -20 3 -12
76 -215 89 -247 7 -16 16 -39 21 -50 4 -11 19 -48 33 -82 35 -83 138 -293 187
-378 22 -38 42 -78 46 -87 3 -10 9 -18 13 -18 4 0 10 -8 14 -17 3 -10 19 -38
36 -63 16 -25 33 -52 37 -60 4 -8 11 -19 15 -25 5 -5 42 -56 82 -112 40 -57
83 -115 97 -130 13 -16 32 -39 41 -53 16 -25 36 -48 146 -168 125 -139 314
-319 411 -392 18 -14 40 -32 49 -41 24 -23 222 -165 312 -224 212 -138 472
-271 715 -364 61 -24 119 -46 130 -51 11 -4 34 -13 50 -18 17 -6 39 -13 50
-18 11 -4 25 -8 32 -10 7 -1 41 -11 75 -22 86 -27 243 -70 298 -81 25 -5 79
-16 120 -24 133 -27 284 -51 375 -60 17 -2 36 -7 43 -11 7 -4 12 -2 12 4 0 6
4 9 9 5 32 -19 668 -28 891 -12 186 13 391 33 445 43 11 2 40 7 65 10 25 3 56
7 70 10 48 8 85 14 115 19 17 2 40 6 51 9 12 2 39 7 60 11 70 13 78 14 169 35
50 12 99 24 110 26 11 3 30 7 42 10 28 6 255 69 315 87 26 8 49 12 52 9 4 -3
6 0 6 6 0 7 9 12 20 12 12 0 34 7 50 15 17 9 30 13 30 9 0 -4 7 -1 15 6 8 7
15 10 15 6 0 -4 13 0 30 9 16 8 32 15 35 15 8 1 30 9 170 65 179 72 333 145
515 242 41 22 91 49 110 59 19 11 37 22 40 25 3 3 20 14 38 23 l32 17 0 1283
0 1284 -167 2 c-93 1 -277 2 -410 3 -159 2 -244 -1 -246 -8z"/>
</g>
</svg>
