<?xml version="1.0" encoding="UTF-8"?>
<svg width="226px" height="276px" viewBox="0 0 226 276" version="1.1" xmlns="http://www.w3.org/2000/svg" xmlns:xlink="http://www.w3.org/1999/xlink">
    <!-- Generator: Sketch 64 (93537) - https://sketch.com -->
    <title>communicator_skillsskillssite</title>
    <desc>Created with Sketch.</desc>
    <g id="Page-1" stroke="none" stroke-width="1" fill="none" fill-rule="evenodd">
        <g id="Desktop" transform="translate(-760.000000, -1950.000000)">
            <g id="communicator_skills" transform="translate(760.000000, 1950.000000)">
                <rect id="Rectangle" fill="#3B8089" x="0" y="0" width="226" height="276"></rect>
                <text id="Communicator" font-family="OpenSans-Regular, Open Sans" font-size="20" font-weight="normal" fill="#FFFFFF">
                    <tspan x="43.2685547" y="111">Communicator</tspan>
                </text>
                <text id="A-6th-sense-to-detec" font-family="OpenSans-Light, Open Sans" font-size="16" font-weight="300" fill="#FFFFFF">
                    <tspan x="53.703125" y="144">Develops stories </tspan>
                    <tspan x="42.7148438" y="166">through design and </tspan>
                    <tspan x="40.234375" y="188">offers conversations </tspan>
                    <tspan x="39.0234375" y="210">with the applications </tspan>
                    <tspan x="78.2695312" y="232">audience.</tspan>
                </text>
                <g id="icon/communicatir" transform="translate(84.000000, 20.000000)" fill="#FFFFFF">
                    <g id="computer">
                        <polygon id="Path" fill-rule="nonzero" points="5.70967742 19.3548387 9.51612903 19.3548387 9.51612903 21.2903226 5.70967742 21.2903226"></polygon>
                        <path d="M56.1451613,15.483871 C57.7189469,15.483871 59,14.1811051 59,12.5806452 L59,2.90322581 C59,1.30276585 57.7189469,0 56.1451613,0 L42.8225806,0 C41.248795,0 39.9677419,1.30276585 39.9677419,2.90322581 L39.9677419,12.5806452 C39.9677419,14.1811051 41.248795,15.483871 42.8225806,15.483871 L45.6774194,15.483871 L45.6774194,17.4193548 L43.7741935,17.4193548 L43.7741935,19.3548387 L48.5322581,19.3548387 L48.5322581,29.0322581 L44.6049962,29.0322581 C43.8457503,28.2785723 42.9108651,27.7016129 41.8644625,27.3840726 C41.8691091,27.2862588 41.8709677,27.1917527 41.8709677,27.0967742 C41.8709677,22.827936 38.4557554,19.3548387 34.2580645,19.3548387 C31.6536747,19.3548387 29.2328235,20.7327369 27.8462938,22.9366179 C26.8695896,22.4905494 25.8134292,22.2580645 24.7419355,22.2580645 C21.5836773,22.2580645 18.7399903,24.2823841 17.6276068,27.2517641 C16.904604,27.4095893 16.2308547,27.6921623 15.6189044,28.0645161 L8.56451613,28.0645161 L8.56451613,25.1612903 L12.3709677,25.1612903 C13.9447534,25.1612903 15.2258065,23.8585245 15.2258065,22.2580645 L15.2258065,2.90322581 C15.2258065,1.30276585 13.9447534,0 12.3709677,0 L2.85483871,0 C1.28105308,0 0,1.30276585 0,2.90322581 L0,22.2580645 C0,23.8585245 1.28105308,25.1612903 2.85483871,25.1612903 L6.66129032,25.1612903 L6.66129032,30 L13.5948683,30 C13.1901541,30.5873551 12.8760475,31.2356666 12.6697408,31.9354839 L8.56451613,31.9354839 L8.56451613,42.5806452 L4.75806452,42.5806452 C3.18427889,42.5806452 1.90322581,43.883411 1.90322581,45.483871 L1.90322581,54.1935484 L0,54.1935484 L0,57.0967742 C0,58.6972342 1.28105308,60 2.85483871,60 L18.0806452,60 C19.6544308,60 20.9354839,58.6972342 20.9354839,57.0967742 L20.9354839,54.1935484 L19.0322581,54.1935484 L19.0322581,45.483871 C19.0322581,43.883411 17.751205,42.5806452 16.1774194,42.5806452 L10.4677419,42.5806452 L10.4677419,33.8709677 L12.3709677,33.8709677 C12.3709677,37.6053743 15.3600916,40.6451613 19.0322581,40.6451613 L39.9677419,40.6451613 C43.3165087,40.6451613 46.0886388,38.1157069 46.5528289,34.8387097 L50.4354839,34.8387097 L50.4354839,42.5806452 L43.7741935,42.5806452 L43.7741935,60 L59,60 L59,42.5806452 L52.3387097,42.5806452 L52.3387097,32.9032258 L46.5491116,32.9032258 C46.4501402,32.2218373 46.2447628,31.5735256 45.9571414,30.9677419 L50.4354839,30.9677419 L50.4354839,19.3548387 L55.1935484,19.3548387 L55.1935484,17.4193548 L53.2903226,17.4193548 L53.2903226,15.483871 L56.1451613,15.483871 Z M13.3225806,15.483871 L1.90322581,15.483871 L1.90322581,5.80645161 L13.3225806,5.80645161 L13.3225806,15.483871 Z M2.85483871,1.93548387 L12.3709677,1.93548387 C12.8960275,1.93548387 13.3225806,2.36926669 13.3225806,2.90322581 L13.3225806,3.87096774 L1.90322581,3.87096774 L1.90322581,2.90322581 C1.90322581,2.36926669 2.32977892,1.93548387 2.85483871,1.93548387 Z M1.90322581,22.2580645 L1.90322581,17.4193548 L13.3225806,17.4193548 L13.3225806,22.2580645 C13.3225806,22.7920236 12.8960275,23.2258065 12.3709677,23.2258065 L2.85483871,23.2258065 C2.32977892,23.2258065 1.90322581,22.7920236 1.90322581,22.2580645 Z M19.0322581,57.0967742 C19.0322581,57.6307333 18.605705,58.0645161 18.0806452,58.0645161 L2.85483871,58.0645161 C2.32977892,58.0645161 1.90322581,57.6307333 1.90322581,57.0967742 L1.90322581,56.1290323 L19.0322581,56.1290323 L19.0322581,57.0967742 Z M17.1290323,45.483871 L17.1290323,54.1935484 L3.80645161,54.1935484 L3.80645161,45.483871 C3.80645161,44.9499119 4.23300472,44.516129 4.75806452,44.516129 L16.1774194,44.516129 C16.7024791,44.516129 17.1290323,44.9499119 17.1290323,45.483871 Z M45.6774194,58.0645161 L45.6774194,52.2580645 L57.0967742,52.2580645 L57.0967742,58.0645161 L45.6774194,58.0645161 Z M57.0967742,50.3225806 L45.6774194,50.3225806 L45.6774194,44.516129 L57.0967742,44.516129 L57.0967742,50.3225806 Z M39.9677419,38.7096774 L19.0322581,38.7096774 C16.4088174,38.7096774 14.2741935,36.5388735 14.2741935,33.8709677 C14.2741935,31.4246787 16.0747307,29.3611391 18.4611974,29.0710055 L19.0856934,28.9944556 L19.2617976,28.3801663 C19.9657494,25.9149761 22.2202542,24.1935484 24.7419355,24.1935484 C25.7925198,24.1935484 26.8240533,24.4936051 27.7282715,25.0596963 L28.6366716,25.6295678 L29.0897098,24.6452873 C30.0264538,22.6063193 32.0551364,21.2903226 34.2580645,21.2903226 C37.4070296,21.2903226 39.9677419,23.8944368 39.9677419,27.0967742 C39.9677419,27.3637537 39.9440445,27.648217 39.8924679,27.9917465 L39.7488895,28.9490927 L40.6898153,29.0941596 C42.9907856,29.4513924 44.7258065,31.5050088 44.7258065,33.8709677 C44.7258065,36.5388735 42.5911826,38.7096774 39.9677419,38.7096774 L39.9677419,38.7096774 Z M42.8225806,1.93548387 L56.1451613,1.93548387 C56.6702211,1.93548387 57.0967742,2.36926669 57.0967742,2.90322581 L57.0967742,9.67741935 L41.8709677,9.67741935 L41.8709677,2.90322581 C41.8709677,2.36926669 42.2975209,1.93548387 42.8225806,1.93548387 Z M41.8709677,12.5806452 L41.8709677,11.6129032 L57.0967742,11.6129032 L57.0967742,12.5806452 C57.0967742,13.1146043 56.6702211,13.5483871 56.1451613,13.5483871 L42.8225806,13.5483871 C42.2975209,13.5483871 41.8709677,13.1146043 41.8709677,12.5806452 Z M51.3870968,17.4193548 L47.5806452,17.4193548 L47.5806452,15.483871 L51.3870968,15.483871 L51.3870968,17.4193548 Z" id="Shape" fill-rule="nonzero"></path>
                        <polygon id="Path" fill-rule="nonzero" points="47.5806452 46.4516129 49.483871 46.4516129 49.483871 48.3870968 47.5806452 48.3870968"></polygon>
                        <polygon id="Path" fill-rule="nonzero" points="53.2903226 54.1935484 55.1935484 54.1935484 55.1935484 56.1290323 53.2903226 56.1290323"></polygon>
                        <polygon id="Path" fill-rule="nonzero" points="51.3870968 46.4516129 55.1935484 46.4516129 55.1935484 48.3870968 51.3870968 48.3870968"></polygon>
                        <polygon id="Path" fill-rule="nonzero" points="47.5806452 54.1935484 51.3870968 54.1935484 51.3870968 56.1290323 47.5806452 56.1290323"></polygon>
                    </g>
                </g>
            </g>
        </g>
    </g>
</svg>