<?xml version="1.0" encoding="UTF-8"?>
<svg width="226px" height="276px" viewBox="0 0 226 276" version="1.1" xmlns="http://www.w3.org/2000/svg" xmlns:xlink="http://www.w3.org/1999/xlink">
    <!-- Generator: Sketch 64 (93537) - https://sketch.com -->
    <title>communicator_skillsskillssite</title>
    <desc>Created with Sketch.</desc>
    <g id="Page-1" stroke="none" stroke-width="1" fill="none" fill-rule="evenodd">
        <g id="Desktop" transform="translate(-760.000000, -1950.000000)">
            <g id="communicator_skills" transform="translate(760.000000, 1950.000000)">
                <rect id="Rectangle" fill="#3B8089" x="0" y="0" width="226" height="276"></rect>
                <path d="M48.0439453,111.195312 C49.4957682,111.195312 50.7164714,111.009766 51.7060547,110.638672 L51.7060547,110.638672 L51.7060547,109.183594 C50.430013,109.541667 49.2939453,109.720703 48.2978516,109.720703 C46.6767578,109.720703 45.4283854,109.211263 44.5527344,108.192383 C43.6770833,107.173503 43.2392578,105.729818 43.2392578,103.861328 C43.2392578,102.044922 43.6933594,100.614258 44.6015625,99.5693359 C45.5097656,98.5244141 46.7483724,98.0019531 48.3173828,98.0019531 C49.398112,98.0019531 50.4788411,98.2558594 51.5595703,98.7636719 L51.5595703,98.7636719 L52.2626953,97.3378906 C51.1429036,96.7910156 49.8343099,96.5175781 48.3369141,96.5175781 C46.9306641,96.5175781 45.7083333,96.8170573 44.6699219,97.4160156 C43.6315104,98.014974 42.8372396,98.8678385 42.2871094,99.9746094 C41.7369792,101.08138 41.4619141,102.370443 41.4619141,103.841797 C41.4619141,106.192057 42.0332031,108.005208 43.1757812,109.28125 C44.3183594,110.557292 45.9410807,111.195312 48.0439453,111.195312 Z M58.8544922,111.195312 C60.4039714,111.195312 61.6181641,110.705404 62.4970703,109.725586 C63.3759766,108.745768 63.8154297,107.383464 63.8154297,105.638672 C63.8154297,103.939453 63.374349,102.591797 62.4921875,101.595703 C61.610026,100.599609 60.4202474,100.101562 58.9228516,100.101562 C57.3733724,100.101562 56.1624349,100.588216 55.2900391,101.561523 C54.4176432,102.534831 53.9814453,103.89388 53.9814453,105.638672 C53.9814453,106.764974 54.1832682,107.748047 54.5869141,108.587891 C54.9905599,109.427734 55.5634766,110.072266 56.3056641,110.521484 C57.0478516,110.970703 57.8974609,111.195312 58.8544922,111.195312 Z M58.8935547,109.837891 C57.8323568,109.837891 57.0283203,109.479818 56.4814453,108.763672 C55.9345703,108.047526 55.6611328,107.005859 55.6611328,105.638672 C55.6611328,104.258464 55.9313151,103.220052 56.4716797,102.523438 C57.0120443,101.826823 57.8128255,101.478516 58.8740234,101.478516 C59.9482422,101.478516 60.7604167,101.831706 61.3105469,102.538086 C61.8606771,103.244466 62.1357422,104.277995 62.1357422,105.638672 C62.1357422,107.01237 61.8606771,108.055664 61.3105469,108.768555 C60.7604167,109.481445 59.9547526,109.837891 58.8935547,109.837891 Z M68.2783203,111 L68.2783203,105.384766 C68.2783203,103.998047 68.5143229,103.000326 68.9863281,102.391602 C69.4583333,101.782878 70.2021484,101.478516 71.2177734,101.478516 C71.992513,101.478516 72.5621745,101.691732 72.9267578,102.118164 C73.2913411,102.544596 73.4736328,103.184245 73.4736328,104.037109 L73.4736328,104.037109 L73.4736328,111 L75.0947266,111 L75.0947266,105.023438 C75.0947266,103.81901 75.335612,102.927083 75.8173828,102.347656 C76.2991536,101.768229 77.0445964,101.478516 78.0537109,101.478516 C78.8219401,101.478516 79.3883464,101.691732 79.7529297,102.118164 C80.117513,102.544596 80.2998047,103.184245 80.2998047,104.037109 L80.2998047,104.037109 L80.2998047,111 L81.9208984,111 L81.9208984,104.017578 C81.9208984,102.650391 81.6197917,101.655924 81.0175781,101.03418 C80.4153646,100.412435 79.5087891,100.101562 78.2978516,100.101562 C77.523112,100.101562 76.8330078,100.264323 76.2275391,100.589844 C75.6220703,100.915365 75.1598307,101.358073 74.8408203,101.917969 L74.8408203,101.917969 L74.7626953,101.917969 C74.2483724,100.707031 73.1546224,100.101562 71.4814453,100.101562 C70.7913411,100.101562 70.1679688,100.248047 69.6113281,100.541016 C69.0546875,100.833984 68.6233724,101.240885 68.3173828,101.761719 L68.3173828,101.761719 L68.2392578,101.761719 L67.9755859,100.296875 L66.6572266,100.296875 L66.6572266,111 L68.2783203,111 Z M86.8818359,111 L86.8818359,105.384766 C86.8818359,103.998047 87.1178385,103.000326 87.5898438,102.391602 C88.061849,101.782878 88.8056641,101.478516 89.8212891,101.478516 C90.5960286,101.478516 91.1656901,101.691732 91.5302734,102.118164 C91.8948568,102.544596 92.0771484,103.184245 92.0771484,104.037109 L92.0771484,104.037109 L92.0771484,111 L93.6982422,111 L93.6982422,105.023438 C93.6982422,103.81901 93.9391276,102.927083 94.4208984,102.347656 C94.9026693,101.768229 95.648112,101.478516 96.6572266,101.478516 C97.4254557,101.478516 97.991862,101.691732 98.3564453,102.118164 C98.7210286,102.544596 98.9033203,103.184245 98.9033203,104.037109 L98.9033203,104.037109 L98.9033203,111 L100.524414,111 L100.524414,104.017578 C100.524414,102.650391 100.223307,101.655924 99.6210938,101.03418 C99.0188802,100.412435 98.1123047,100.101562 96.9013672,100.101562 C96.1266276,100.101562 95.4365234,100.264323 94.8310547,100.589844 C94.2255859,100.915365 93.7633464,101.358073 93.4443359,101.917969 L93.4443359,101.917969 L93.3662109,101.917969 C92.851888,100.707031 91.758138,100.101562 90.0849609,100.101562 C89.3948568,100.101562 88.7714844,100.248047 88.2148438,100.541016 C87.6582031,100.833984 87.226888,101.240885 86.9208984,101.761719 L86.9208984,101.761719 L86.8427734,101.761719 L86.5791016,100.296875 L85.2607422,100.296875 L85.2607422,111 L86.8818359,111 Z M107.643555,111.195312 C108.398763,111.195312 109.070964,111.055339 109.660156,110.775391 C110.249349,110.495443 110.709961,110.091797 111.041992,109.564453 L111.041992,109.564453 L111.129883,109.564453 L111.364258,111 L112.702148,111 L112.702148,100.296875 L111.081055,100.296875 L111.081055,105.921875 C111.081055,107.308594 110.822266,108.307943 110.304688,108.919922 C109.787109,109.531901 108.968424,109.837891 107.848633,109.837891 C107.002279,109.837891 106.380534,109.623047 105.983398,109.193359 C105.586263,108.763672 105.387695,108.11263 105.387695,107.240234 L105.387695,107.240234 L105.387695,100.296875 L103.74707,100.296875 L103.74707,107.298828 C103.74707,108.659505 104.070964,109.649089 104.71875,110.267578 C105.366536,110.886068 106.341471,111.195312 107.643555,111.195312 Z M117.760742,111 L117.760742,105.384766 C117.760742,103.991536 118.021159,102.992188 118.541992,102.386719 C119.062826,101.78125 119.883138,101.478516 121.00293,101.478516 C121.849284,101.478516 122.471029,101.693359 122.868164,102.123047 C123.265299,102.552734 123.463867,103.203776 123.463867,104.076172 L123.463867,104.076172 L123.463867,111 L125.084961,111 L125.084961,104.017578 C125.084961,102.650391 124.75944,101.655924 124.108398,101.03418 C123.457357,100.412435 122.487305,100.101562 121.198242,100.101562 C120.462565,100.101562 119.795247,100.246419 119.196289,100.536133 C118.597331,100.825846 118.131836,101.234375 117.799805,101.761719 L117.799805,101.761719 L117.72168,101.761719 L117.458008,100.296875 L116.139648,100.296875 L116.139648,111 L117.760742,111 Z M129.235352,98.4804688 C129.495768,98.4804688 129.720378,98.3909505 129.90918,98.2119141 C130.097982,98.0328776 130.192383,97.7610677 130.192383,97.3964844 C130.192383,97.031901 130.097982,96.7617188 129.90918,96.5859375 C129.720378,96.4101562 129.495768,96.3222656 129.235352,96.3222656 C128.961914,96.3222656 128.734049,96.4085286 128.551758,96.5810547 C128.369466,96.7535807 128.27832,97.0253906 128.27832,97.3964844 C128.27832,97.7610677 128.369466,98.0328776 128.551758,98.2119141 C128.734049,98.3909505 128.961914,98.4804688 129.235352,98.4804688 Z M130.036133,111 L130.036133,100.296875 L128.415039,100.296875 L128.415039,111 L130.036133,111 Z M137.750977,111.195312 C138.838216,111.195312 139.739909,111.009766 140.456055,110.638672 L140.456055,110.638672 L140.456055,109.203125 C139.518555,109.58724 138.603841,109.779297 137.711914,109.779297 C136.670247,109.779297 135.884115,109.427734 135.353516,108.724609 C134.822917,108.021484 134.557617,107.01237 134.557617,105.697266 C134.557617,102.923828 135.644857,101.537109 137.819336,101.537109 C138.144857,101.537109 138.519206,101.58431 138.942383,101.678711 C139.36556,101.773112 139.756185,101.891927 140.114258,102.035156 L140.114258,102.035156 L140.612305,100.658203 C140.319336,100.508464 139.91569,100.378255 139.401367,100.267578 C138.887044,100.156901 138.372721,100.101562 137.858398,100.101562 C136.263346,100.101562 135.034505,100.589844 134.171875,101.566406 C133.309245,102.542969 132.87793,103.926432 132.87793,105.716797 C132.87793,107.461589 133.302734,108.810872 134.152344,109.764648 C135.001953,110.718424 136.201497,111.195312 137.750977,111.195312 Z M145.592773,111.195312 C146.387044,111.195312 147.049479,111.076497 147.580078,110.838867 C148.110677,110.601237 148.642904,110.147135 149.176758,109.476562 L149.176758,109.476562 L149.254883,109.476562 L149.577148,111 L150.77832,111 L150.77832,103.695312 C150.77832,102.445312 150.470703,101.537109 149.855469,100.970703 C149.240234,100.404297 148.294596,100.121094 147.018555,100.121094 C146.387044,100.121094 145.757161,100.202474 145.128906,100.365234 C144.500651,100.527995 143.922852,100.752604 143.395508,101.039062 L143.395508,101.039062 L143.893555,102.279297 C145.019857,101.732422 146.028971,101.458984 146.920898,101.458984 C147.715169,101.458984 148.292969,101.65918 148.654297,102.05957 C149.015625,102.459961 149.196289,103.080078 149.196289,103.919922 L149.196289,103.919922 L149.196289,104.583984 L147.379883,104.642578 C143.922852,104.746745 142.194336,105.879557 142.194336,108.041016 C142.194336,109.05013 142.495443,109.828125 143.097656,110.375 C143.69987,110.921875 144.531576,111.195312 145.592773,111.195312 Z M145.915039,109.857422 C145.277018,109.857422 144.780599,109.704427 144.425781,109.398438 C144.070964,109.092448 143.893555,108.646484 143.893555,108.060547 C143.893555,107.311849 144.178385,106.760091 144.748047,106.405273 C145.317708,106.050456 146.24707,105.85026 147.536133,105.804688 L147.536133,105.804688 L149.157227,105.736328 L149.157227,106.703125 C149.157227,107.699219 148.869141,108.473958 148.292969,109.027344 C147.716797,109.580729 146.924154,109.857422 145.915039,109.857422 Z M157.34082,111.195312 C157.614258,111.195312 157.921875,111.167643 158.263672,111.112305 C158.605469,111.056966 158.864258,110.986979 159.040039,110.902344 L159.040039,110.902344 L159.040039,109.662109 C158.883789,109.707682 158.672201,109.751628 158.405273,109.793945 C158.138346,109.836263 157.861654,109.857422 157.575195,109.857422 C157.041341,109.857422 156.621419,109.684896 156.31543,109.339844 C156.00944,108.994792 155.856445,108.5 155.856445,107.855469 L155.856445,107.855469 L155.856445,101.556641 L158.961914,101.556641 L158.961914,100.296875 L155.856445,100.296875 L155.856445,97.8164062 L154.918945,97.8164062 L154.235352,100.101562 L152.702148,100.775391 L152.702148,101.556641 L154.235352,101.556641 L154.235352,107.923828 C154.235352,110.104818 155.270508,111.195312 157.34082,111.195312 Z M161.999023,98.4804688 C162.25944,98.4804688 162.484049,98.3909505 162.672852,98.2119141 C162.861654,98.0328776 162.956055,97.7610677 162.956055,97.3964844 C162.956055,97.031901 162.861654,96.7617188 162.672852,96.5859375 C162.484049,96.4101562 162.25944,96.3222656 161.999023,96.3222656 C161.725586,96.3222656 161.497721,96.4085286 161.31543,96.5810547 C161.133138,96.7535807 161.041992,97.0253906 161.041992,97.3964844 C161.041992,97.7610677 161.133138,98.0328776 161.31543,98.2119141 C161.497721,98.3909505 161.725586,98.4804688 161.999023,98.4804688 Z M162.799805,111 L162.799805,100.296875 L161.178711,100.296875 L161.178711,111 L162.799805,111 Z M170.475586,111 L174.538086,100.296875 L172.799805,100.296875 C171.47168,103.942708 170.617188,106.307617 170.236328,107.391602 C169.855469,108.475586 169.629232,109.190104 169.557617,109.535156 L169.557617,109.535156 L169.479492,109.535156 C169.388346,109.092448 169.082357,108.128906 168.561523,106.644531 L168.561523,106.644531 L166.256836,100.296875 L164.518555,100.296875 L168.581055,111 L170.475586,111 Z M180.77832,111.195312 C181.500977,111.195312 182.117839,111.141602 182.628906,111.03418 C183.139974,110.926758 183.681966,110.749349 184.254883,110.501953 L184.254883,110.501953 L184.254883,109.056641 C183.128581,109.538411 181.989258,109.779297 180.836914,109.779297 C179.743164,109.779297 178.895182,109.453776 178.292969,108.802734 C177.690755,108.151693 177.373372,107.197917 177.34082,105.941406 L177.34082,105.941406 L184.713867,105.941406 L184.713867,104.916016 C184.713867,103.470703 184.323242,102.306966 183.541992,101.424805 C182.760742,100.542643 181.699544,100.101562 180.358398,100.101562 C178.926107,100.101562 177.785156,100.609375 176.935547,101.625 C176.085938,102.640625 175.661133,104.011068 175.661133,105.736328 C175.661133,107.448568 176.11849,108.786458 177.033203,109.75 C177.947917,110.713542 179.196289,111.195312 180.77832,111.195312 Z M182.975586,104.623047 L177.379883,104.623047 C177.471029,103.633464 177.772135,102.858724 178.283203,102.298828 C178.794271,101.738932 179.479492,101.458984 180.338867,101.458984 C181.185221,101.458984 181.836263,101.730794 182.291992,102.274414 C182.747721,102.818034 182.975586,103.600911 182.975586,104.623047 L182.975586,104.623047 Z" id="Communicative" fill="#FFFFFF" fill-rule="nonzero"></path>
                <path d="M58.0546875,144 C60.0026042,144 61.4791667,143.509115 62.484375,142.527344 C63.4895833,141.545573 63.9921875,140.096354 63.9921875,138.179688 C63.9921875,136.351562 63.5169271,134.960938 62.5664062,134.007812 C61.6158854,133.054688 60.2291667,132.578125 58.40625,132.578125 L58.40625,132.578125 L55.3203125,132.578125 L55.3203125,144 L58.0546875,144 Z M58.0078125,143.296875 L56.1171875,143.296875 L56.1171875,133.28125 L58.21875,133.28125 C59.828125,133.28125 61.0481771,133.69401 61.8789062,134.519531 C62.7096354,135.345052 63.125,136.575521 63.125,138.210938 C63.125,141.601562 61.4192708,143.296875 58.0078125,143.296875 L58.0078125,143.296875 Z M69.8515625,144.15625 C70.3411458,144.15625 70.7890625,144.11849 71.1953125,144.042969 C71.6015625,143.967448 72.0442708,143.825521 72.5234375,143.617188 L72.5234375,143.617188 L72.5234375,142.914062 C71.9609375,143.138021 71.4960938,143.283854 71.1289062,143.351562 C70.7617188,143.419271 70.3359375,143.453125 69.8515625,143.453125 C68.8567708,143.453125 68.0924479,143.145833 67.5585938,142.53125 C67.0247396,141.916667 66.7526042,141.026042 66.7421875,139.859375 L66.7421875,139.859375 L72.859375,139.859375 L72.859375,139.234375 C72.859375,138.036458 72.5703125,137.088542 71.9921875,136.390625 C71.4140625,135.692708 70.625,135.34375 69.625,135.34375 C68.4947917,135.34375 67.5963542,135.751302 66.9296875,136.566406 C66.2630208,137.38151 65.9296875,138.466146 65.9296875,139.820312 C65.9296875,141.190104 66.2747396,142.255208 66.9648438,143.015625 C67.6549479,143.776042 68.6171875,144.15625 69.8515625,144.15625 Z M72.0390625,139.171875 L66.7890625,139.171875 C66.8723958,138.15625 67.1614583,137.378906 67.65625,136.839844 C68.1510417,136.300781 68.8072917,136.03125 69.625,136.03125 C70.3802083,136.03125 70.9713542,136.308594 71.3984375,136.863281 C71.8255208,137.417969 72.0390625,138.1875 72.0390625,139.171875 L72.0390625,139.171875 Z M77.84375,144 L81.125,135.507812 L80.328125,135.507812 L78.1328125,141.265625 C77.9088542,141.859375 77.6901042,142.510417 77.4765625,143.21875 L77.4765625,143.21875 L77.4296875,143.21875 C77.2838542,142.666667 77.0651042,142.020833 76.7734375,141.28125 L76.7734375,141.28125 L74.578125,135.507812 L73.78125,135.507812 L77.0625,144 L77.84375,144 Z M85.9765625,144.15625 C86.4661458,144.15625 86.9140625,144.11849 87.3203125,144.042969 C87.7265625,143.967448 88.1692708,143.825521 88.6484375,143.617188 L88.6484375,143.617188 L88.6484375,142.914062 C88.0859375,143.138021 87.6210938,143.283854 87.2539062,143.351562 C86.8867188,143.419271 86.4609375,143.453125 85.9765625,143.453125 C84.9817708,143.453125 84.2174479,143.145833 83.6835938,142.53125 C83.1497396,141.916667 82.8776042,141.026042 82.8671875,139.859375 L82.8671875,139.859375 L88.984375,139.859375 L88.984375,139.234375 C88.984375,138.036458 88.6953125,137.088542 88.1171875,136.390625 C87.5390625,135.692708 86.75,135.34375 85.75,135.34375 C84.6197917,135.34375 83.7213542,135.751302 83.0546875,136.566406 C82.3880208,137.38151 82.0546875,138.466146 82.0546875,139.820312 C82.0546875,141.190104 82.3997396,142.255208 83.0898438,143.015625 C83.7799479,143.776042 84.7421875,144.15625 85.9765625,144.15625 Z M88.1640625,139.171875 L82.9140625,139.171875 C82.9973958,138.15625 83.2864583,137.378906 83.78125,136.839844 C84.2760417,136.300781 84.9322917,136.03125 85.75,136.03125 C86.5052083,136.03125 87.0963542,136.308594 87.5234375,136.863281 C87.9505208,137.417969 88.1640625,138.1875 88.1640625,139.171875 L88.1640625,139.171875 Z M92.1015625,144 L92.1015625,131.84375 L91.328125,131.84375 L91.328125,144 L92.1015625,144 Z M98.1796875,144.15625 C99.3619792,144.15625 100.289062,143.766927 100.960938,142.988281 C101.632812,142.209635 101.96875,141.127604 101.96875,139.742188 C101.96875,138.377604 101.636719,137.303385 100.972656,136.519531 C100.308594,135.735677 99.3932292,135.34375 98.2265625,135.34375 C97.0546875,135.34375 96.1328125,135.730469 95.4609375,136.503906 C94.7890625,137.277344 94.453125,138.356771 94.453125,139.742188 C94.453125,140.622396 94.6041667,141.398438 94.90625,142.070312 C95.2083333,142.742188 95.6432292,143.257812 96.2109375,143.617188 C96.7786458,143.976562 97.4348958,144.15625 98.1796875,144.15625 Z M98.2109375,143.453125 C97.2734375,143.453125 96.5481771,143.126302 96.0351562,142.472656 C95.5221354,141.81901 95.265625,140.908854 95.265625,139.742188 C95.265625,138.565104 95.5195312,137.654948 96.0273438,137.011719 C96.5351562,136.36849 97.2578125,136.046875 98.1953125,136.046875 C99.1328125,136.046875 99.8606771,136.369792 100.378906,137.015625 C100.897135,137.661458 101.15625,138.570312 101.15625,139.742188 C101.15625,140.908854 100.89974,141.81901 100.386719,142.472656 C99.8736979,143.126302 99.1484375,143.453125 98.2109375,143.453125 Z M105.09375,147.84375 L105.09375,144.609375 C105.09375,144.151042 105.083333,143.729167 105.0625,143.34375 L105.0625,143.34375 L105.039062,142.6875 L105.09375,142.6875 C105.692708,143.666667 106.645833,144.15625 107.953125,144.15625 C109.046875,144.15625 109.910156,143.772135 110.542969,143.003906 C111.175781,142.235677 111.492188,141.153646 111.492188,139.757812 C111.492188,138.320312 111.191406,137.22526 110.589844,136.472656 C109.988281,135.720052 109.114583,135.34375 107.96875,135.34375 C106.6875,135.34375 105.755208,135.802083 105.171875,136.71875 L105.171875,136.71875 L105.125,136.71875 L104.976562,135.507812 L104.320312,135.507812 L104.320312,147.84375 L105.09375,147.84375 Z M107.9375,143.46875 C106.932292,143.46875 106.207031,143.184896 105.761719,142.617188 C105.316406,142.049479 105.09375,141.101562 105.09375,139.773438 L105.09375,139.773438 L105.09375,139.523438 C105.09375,138.294271 105.325521,137.407552 105.789062,136.863281 C106.252604,136.31901 106.979167,136.046875 107.96875,136.046875 C109.770833,136.046875 110.671875,137.294271 110.671875,139.789062 C110.671875,140.950521 110.433594,141.854167 109.957031,142.5 C109.480469,143.145833 108.807292,143.46875 107.9375,143.46875 Z M115.78125,144.15625 C116.84375,144.15625 117.664062,143.951823 118.242188,143.542969 C118.820312,143.134115 119.109375,142.549479 119.109375,141.789062 C119.109375,141.408854 119.022135,141.078125 118.847656,140.796875 C118.673177,140.515625 118.411458,140.264323 118.0625,140.042969 C117.713542,139.821615 117.15625,139.572917 116.390625,139.296875 C115.473958,138.96875 114.858073,138.671875 114.542969,138.40625 C114.227865,138.140625 114.070312,137.786458 114.070312,137.34375 C114.070312,136.9375 114.273438,136.619792 114.679688,136.390625 C115.085938,136.161458 115.635417,136.046875 116.328125,136.046875 C117.041667,136.046875 117.815104,136.21875 118.648438,136.5625 L118.648438,136.5625 L118.9375,135.859375 C118.114583,135.515625 117.244792,135.34375 116.328125,135.34375 C115.369792,135.34375 114.623698,135.528646 114.089844,135.898438 C113.55599,136.268229 113.289062,136.770833 113.289062,137.40625 C113.289062,137.807292 113.376302,138.147135 113.550781,138.425781 C113.72526,138.704427 113.984375,138.954427 114.328125,139.175781 C114.671875,139.397135 115.268229,139.661458 116.117188,139.96875 C116.908854,140.25 117.477865,140.536458 117.824219,140.828125 C118.170573,141.119792 118.34375,141.479167 118.34375,141.90625 C118.34375,142.369792 118.126302,142.740885 117.691406,143.019531 C117.25651,143.298177 116.619792,143.4375 115.78125,143.4375 C114.833333,143.4375 113.932292,143.223958 113.078125,142.796875 L113.078125,142.796875 L113.078125,143.632812 C113.744792,143.981771 114.645833,144.15625 115.78125,144.15625 Z M127.390625,144.15625 C128.453125,144.15625 129.273438,143.951823 129.851562,143.542969 C130.429688,143.134115 130.71875,142.549479 130.71875,141.789062 C130.71875,141.408854 130.63151,141.078125 130.457031,140.796875 C130.282552,140.515625 130.020833,140.264323 129.671875,140.042969 C129.322917,139.821615 128.765625,139.572917 128,139.296875 C127.083333,138.96875 126.467448,138.671875 126.152344,138.40625 C125.83724,138.140625 125.679688,137.786458 125.679688,137.34375 C125.679688,136.9375 125.882812,136.619792 126.289062,136.390625 C126.695312,136.161458 127.244792,136.046875 127.9375,136.046875 C128.651042,136.046875 129.424479,136.21875 130.257812,136.5625 L130.257812,136.5625 L130.546875,135.859375 C129.723958,135.515625 128.854167,135.34375 127.9375,135.34375 C126.979167,135.34375 126.233073,135.528646 125.699219,135.898438 C125.165365,136.268229 124.898438,136.770833 124.898438,137.40625 C124.898438,137.807292 124.985677,138.147135 125.160156,138.425781 C125.334635,138.704427 125.59375,138.954427 125.9375,139.175781 C126.28125,139.397135 126.877604,139.661458 127.726562,139.96875 C128.518229,140.25 129.08724,140.536458 129.433594,140.828125 C129.779948,141.119792 129.953125,141.479167 129.953125,141.90625 C129.953125,142.369792 129.735677,142.740885 129.300781,143.019531 C128.865885,143.298177 128.229167,143.4375 127.390625,143.4375 C126.442708,143.4375 125.541667,143.223958 124.6875,142.796875 L124.6875,142.796875 L124.6875,143.632812 C125.354167,143.981771 126.255208,144.15625 127.390625,144.15625 Z M135.132812,144.15625 C135.622396,144.15625 136.054688,144.09375 136.429688,143.96875 L136.429688,143.96875 L136.429688,143.34375 C136.065104,143.427083 135.638021,143.46875 135.148438,143.46875 C134.658854,143.46875 134.299479,143.3125 134.070312,143 C133.841146,142.6875 133.726562,142.205729 133.726562,141.554688 L133.726562,141.554688 L133.726562,136.179688 L136.21875,136.179688 L136.21875,135.507812 L133.726562,135.507812 L133.726562,133.453125 L133.328125,133.453125 L132.9375,135.375 L131.679688,135.726562 L131.679688,136.179688 L132.9375,136.179688 L132.9375,141.664062 C132.9375,142.523438 133.115885,143.153646 133.472656,143.554688 C133.829427,143.955729 134.382812,144.15625 135.132812,144.15625 Z M141.5,144.15625 C142.682292,144.15625 143.609375,143.766927 144.28125,142.988281 C144.953125,142.209635 145.289062,141.127604 145.289062,139.742188 C145.289062,138.377604 144.957031,137.303385 144.292969,136.519531 C143.628906,135.735677 142.713542,135.34375 141.546875,135.34375 C140.375,135.34375 139.453125,135.730469 138.78125,136.503906 C138.109375,137.277344 137.773438,138.356771 137.773438,139.742188 C137.773438,140.622396 137.924479,141.398438 138.226562,142.070312 C138.528646,142.742188 138.963542,143.257812 139.53125,143.617188 C140.098958,143.976562 140.755208,144.15625 141.5,144.15625 Z M141.53125,143.453125 C140.59375,143.453125 139.86849,143.126302 139.355469,142.472656 C138.842448,141.81901 138.585938,140.908854 138.585938,139.742188 C138.585938,138.565104 138.839844,137.654948 139.347656,137.011719 C139.855469,136.36849 140.578125,136.046875 141.515625,136.046875 C142.453125,136.046875 143.18099,136.369792 143.699219,137.015625 C144.217448,137.661458 144.476562,138.570312 144.476562,139.742188 C144.476562,140.908854 144.220052,141.81901 143.707031,142.472656 C143.19401,143.126302 142.46875,143.453125 141.53125,143.453125 Z M148.414062,144 L148.414062,139.3125 C148.414062,138.375 148.645833,137.598958 149.109375,136.984375 C149.572917,136.369792 150.166667,136.0625 150.890625,136.0625 C151.270833,136.0625 151.638021,136.106771 151.992188,136.195312 L151.992188,136.195312 L152.140625,135.453125 C151.729167,135.380208 151.34375,135.34375 150.984375,135.34375 C150.421875,135.34375 149.942708,135.470052 149.546875,135.722656 C149.151042,135.97526 148.778646,136.414062 148.429688,137.039062 L148.429688,137.039062 L148.375,137.039062 L148.296875,135.507812 L147.640625,135.507812 L147.640625,144 L148.414062,144 Z M154.25,133.90625 C154.411458,133.90625 154.53776,133.838542 154.628906,133.703125 C154.720052,133.567708 154.765625,133.382812 154.765625,133.148438 C154.765625,132.908854 154.720052,132.723958 154.628906,132.59375 C154.53776,132.463542 154.411458,132.398438 154.25,132.398438 C153.921875,132.398438 153.757812,132.648438 153.757812,133.148438 C153.757812,133.653646 153.921875,133.90625 154.25,133.90625 Z M154.640625,144 L154.640625,135.507812 L153.867188,135.507812 L153.867188,144 L154.640625,144 Z M160.914062,144.15625 C161.403646,144.15625 161.851562,144.11849 162.257812,144.042969 C162.664062,143.967448 163.106771,143.825521 163.585938,143.617188 L163.585938,143.617188 L163.585938,142.914062 C163.023438,143.138021 162.558594,143.283854 162.191406,143.351562 C161.824219,143.419271 161.398438,143.453125 160.914062,143.453125 C159.919271,143.453125 159.154948,143.145833 158.621094,142.53125 C158.08724,141.916667 157.815104,141.026042 157.804688,139.859375 L157.804688,139.859375 L163.921875,139.859375 L163.921875,139.234375 C163.921875,138.036458 163.632812,137.088542 163.054688,136.390625 C162.476562,135.692708 161.6875,135.34375 160.6875,135.34375 C159.557292,135.34375 158.658854,135.751302 157.992188,136.566406 C157.325521,137.38151 156.992188,138.466146 156.992188,139.820312 C156.992188,141.190104 157.33724,142.255208 158.027344,143.015625 C158.717448,143.776042 159.679688,144.15625 160.914062,144.15625 Z M163.101562,139.171875 L157.851562,139.171875 C157.934896,138.15625 158.223958,137.378906 158.71875,136.839844 C159.213542,136.300781 159.869792,136.03125 160.6875,136.03125 C161.442708,136.03125 162.033854,136.308594 162.460938,136.863281 C162.888021,137.417969 163.101562,138.1875 163.101562,139.171875 L163.101562,139.171875 Z M168.203125,144.15625 C169.265625,144.15625 170.085938,143.951823 170.664062,143.542969 C171.242188,143.134115 171.53125,142.549479 171.53125,141.789062 C171.53125,141.408854 171.44401,141.078125 171.269531,140.796875 C171.095052,140.515625 170.833333,140.264323 170.484375,140.042969 C170.135417,139.821615 169.578125,139.572917 168.8125,139.296875 C167.895833,138.96875 167.279948,138.671875 166.964844,138.40625 C166.64974,138.140625 166.492188,137.786458 166.492188,137.34375 C166.492188,136.9375 166.695312,136.619792 167.101562,136.390625 C167.507812,136.161458 168.057292,136.046875 168.75,136.046875 C169.463542,136.046875 170.236979,136.21875 171.070312,136.5625 L171.070312,136.5625 L171.359375,135.859375 C170.536458,135.515625 169.666667,135.34375 168.75,135.34375 C167.791667,135.34375 167.045573,135.528646 166.511719,135.898438 C165.977865,136.268229 165.710938,136.770833 165.710938,137.40625 C165.710938,137.807292 165.798177,138.147135 165.972656,138.425781 C166.147135,138.704427 166.40625,138.954427 166.75,139.175781 C167.09375,139.397135 167.690104,139.661458 168.539062,139.96875 C169.330729,140.25 169.89974,140.536458 170.246094,140.828125 C170.592448,141.119792 170.765625,141.479167 170.765625,141.90625 C170.765625,142.369792 170.548177,142.740885 170.113281,143.019531 C169.678385,143.298177 169.041667,143.4375 168.203125,143.4375 C167.255208,143.4375 166.354167,143.223958 165.5,142.796875 L165.5,142.796875 L165.5,143.632812 C166.166667,143.981771 167.067708,144.15625 168.203125,144.15625 Z M46.3632812,166.15625 C46.8528646,166.15625 47.2851562,166.09375 47.6601562,165.96875 L47.6601562,165.96875 L47.6601562,165.34375 C47.2955729,165.427083 46.8684896,165.46875 46.3789062,165.46875 C45.8893229,165.46875 45.5299479,165.3125 45.3007812,165 C45.0716146,164.6875 44.9570312,164.205729 44.9570312,163.554688 L44.9570312,163.554688 L44.9570312,158.179688 L47.4492188,158.179688 L47.4492188,157.507812 L44.9570312,157.507812 L44.9570312,155.453125 L44.5585938,155.453125 L44.1679688,157.375 L42.9101562,157.726562 L42.9101562,158.179688 L44.1679688,158.179688 L44.1679688,163.664062 C44.1679688,164.523438 44.3463542,165.153646 44.703125,165.554688 C45.0598958,165.955729 45.6132812,166.15625 46.3632812,166.15625 Z M50.2695312,166 L50.2695312,161.3125 C50.2695312,160.161458 50.5052083,159.329427 50.9765625,158.816406 C51.4479167,158.303385 52.1914062,158.046875 53.2070312,158.046875 C53.9622396,158.046875 54.5195312,158.240885 54.8789062,158.628906 C55.2382812,159.016927 55.4179688,159.638021 55.4179688,160.492188 L55.4179688,160.492188 L55.4179688,166 L56.1835938,166 L56.1835938,160.445312 C56.1835938,158.377604 55.2200521,157.34375 53.2929688,157.34375 C52.5742188,157.34375 51.9726562,157.458333 51.4882812,157.6875 C51.0039062,157.916667 50.6028646,158.286458 50.2851562,158.796875 L50.2851562,158.796875 L50.2304688,158.796875 L50.2695312,157.710938 L50.2695312,153.84375 L49.4960938,153.84375 L49.4960938,166 L50.2695312,166 Z M59.7070312,166 L59.7070312,161.3125 C59.7070312,160.375 59.9388021,159.598958 60.4023438,158.984375 C60.8658854,158.369792 61.4596354,158.0625 62.1835938,158.0625 C62.5638021,158.0625 62.9309896,158.106771 63.2851562,158.195312 L63.2851562,158.195312 L63.4335938,157.453125 C63.0221354,157.380208 62.6367188,157.34375 62.2773438,157.34375 C61.7148438,157.34375 61.2356771,157.470052 60.8398438,157.722656 C60.4440104,157.97526 60.0716146,158.414062 59.7226562,159.039062 L59.7226562,159.039062 L59.6679688,159.039062 L59.5898438,157.507812 L58.9335938,157.507812 L58.9335938,166 L59.7070312,166 Z M68.3945312,166.15625 C69.5768229,166.15625 70.5039062,165.766927 71.1757812,164.988281 C71.8476562,164.209635 72.1835938,163.127604 72.1835938,161.742188 C72.1835938,160.377604 71.8515625,159.303385 71.1875,158.519531 C70.5234375,157.735677 69.6080729,157.34375 68.4414062,157.34375 C67.2695312,157.34375 66.3476562,157.730469 65.6757812,158.503906 C65.0039062,159.277344 64.6679688,160.356771 64.6679688,161.742188 C64.6679688,162.622396 64.8190104,163.398438 65.1210938,164.070312 C65.4231771,164.742188 65.8580729,165.257812 66.4257812,165.617188 C66.9934896,165.976562 67.6497396,166.15625 68.3945312,166.15625 Z M68.4257812,165.453125 C67.4882812,165.453125 66.7630208,165.126302 66.25,164.472656 C65.7369792,163.81901 65.4804688,162.908854 65.4804688,161.742188 C65.4804688,160.565104 65.734375,159.654948 66.2421875,159.011719 C66.75,158.36849 67.4726562,158.046875 68.4101562,158.046875 C69.3476562,158.046875 70.0755208,158.369792 70.59375,159.015625 C71.1119792,159.661458 71.3710938,160.570312 71.3710938,161.742188 C71.3710938,162.908854 71.1145833,163.81901 70.6015625,164.472656 C70.0885417,165.126302 69.3632812,165.453125 68.4257812,165.453125 Z M77.3398438,166.15625 C78.7513021,166.15625 79.7330729,165.713542 80.2851562,164.828125 L80.2851562,164.828125 L80.3320312,164.828125 L80.4726562,166 L81.1289062,166 L81.1289062,157.507812 L80.3632812,157.507812 L80.3632812,162.195312 C80.3632812,163.346354 80.125,164.177083 79.6484375,164.6875 C79.171875,165.197917 78.4283854,165.453125 77.4179688,165.453125 C76.6627604,165.453125 76.1054688,165.259115 75.7460938,164.871094 C75.3867188,164.483073 75.2070312,163.861979 75.2070312,163.007812 L75.2070312,163.007812 L75.2070312,157.507812 L74.4414062,157.507812 L74.4414062,163.054688 C74.4414062,165.122396 75.4075521,166.15625 77.3398438,166.15625 Z M86.2617188,169.84375 C87.6054688,169.84375 88.640625,169.60026 89.3671875,169.113281 C90.09375,168.626302 90.4570312,167.934896 90.4570312,167.039062 C90.4570312,166.309896 90.2122396,165.759115 89.7226562,165.386719 C89.2330729,165.014323 88.5273438,164.828125 87.6054688,164.828125 L87.6054688,164.828125 L86.1210938,164.828125 C85.6367188,164.828125 85.2916667,164.765625 85.0859375,164.640625 C84.8802083,164.515625 84.7773438,164.317708 84.7773438,164.046875 C84.7773438,163.802083 84.8580729,163.570312 85.0195312,163.351562 C85.1809896,163.132812 85.4153646,162.942708 85.7226562,162.78125 C85.8789062,162.8125 86.1497396,162.828125 86.5351562,162.828125 C87.4518229,162.828125 88.1822917,162.574219 88.7265625,162.066406 C89.2708333,161.558594 89.5429688,160.895833 89.5429688,160.078125 C89.5429688,159.380208 89.3085938,158.739583 88.8398438,158.15625 L88.8398438,158.15625 L90.5976562,158.046875 L90.5976562,157.507812 L87.8789062,157.507812 C87.5716146,157.398438 87.1393229,157.34375 86.5820312,157.34375 C85.6653646,157.34375 84.9375,157.60026 84.3984375,158.113281 C83.859375,158.626302 83.5898438,159.307292 83.5898438,160.15625 C83.5898438,160.71875 83.7278646,161.217448 84.0039062,161.652344 C84.2799479,162.08724 84.6653646,162.40625 85.1601562,162.609375 C84.4361979,163.041667 84.0742188,163.541667 84.0742188,164.109375 C84.0742188,164.369792 84.1510417,164.60026 84.3046875,164.800781 C84.4583333,165.001302 84.6627604,165.15625 84.9179688,165.265625 C84.2981771,165.40625 83.8072917,165.669271 83.4453125,166.054688 C83.0833333,166.440104 82.9023438,166.924479 82.9023438,167.507812 C82.9023438,168.242188 83.1953125,168.815104 83.78125,169.226562 C84.3671875,169.638021 85.1940104,169.84375 86.2617188,169.84375 Z M86.5664062,162.226562 C85.8997396,162.226562 85.3671875,162.045573 84.96875,161.683594 C84.5703125,161.321615 84.3710938,160.8125 84.3710938,160.15625 C84.3710938,159.463542 84.5651042,158.923177 84.953125,158.535156 C85.3411458,158.147135 85.8736979,157.953125 86.5507812,157.953125 C87.2486979,157.953125 87.7916667,158.134115 88.1796875,158.496094 C88.5677083,158.858073 88.7617188,159.401042 88.7617188,160.125 C88.7617188,160.807292 88.5729167,161.328125 88.1953125,161.6875 C87.8177083,162.046875 87.2747396,162.226562 86.5664062,162.226562 Z M86.3242188,169.1875 C84.5898438,169.1875 83.7226562,168.604167 83.7226562,167.4375 C83.7226562,166.213542 84.5013021,165.601562 86.0585938,165.601562 L86.0585938,165.601562 L87.4492188,165.601562 C88.2304688,165.601562 88.7955729,165.716146 89.1445312,165.945312 C89.4934896,166.174479 89.6679688,166.544271 89.6679688,167.054688 C89.6679688,168.476562 88.5533854,169.1875 86.3242188,169.1875 Z M93.1132812,166 L93.1132812,161.3125 C93.1132812,160.161458 93.3489583,159.329427 93.8203125,158.816406 C94.2916667,158.303385 95.0351562,158.046875 96.0507812,158.046875 C96.8059896,158.046875 97.3632812,158.240885 97.7226562,158.628906 C98.0820312,159.016927 98.2617188,159.638021 98.2617188,160.492188 L98.2617188,160.492188 L98.2617188,166 L99.0273438,166 L99.0273438,160.445312 C99.0273438,158.377604 98.0638021,157.34375 96.1367188,157.34375 C95.4179688,157.34375 94.8164062,157.458333 94.3320312,157.6875 C93.8476562,157.916667 93.4466146,158.286458 93.1289062,158.796875 L93.1289062,158.796875 L93.0742188,158.796875 L93.1132812,157.710938 L93.1132812,153.84375 L92.3398438,153.84375 L92.3398438,166 L93.1132812,166 Z M109.058594,166.15625 C110.266927,166.15625 111.19401,165.671875 111.839844,164.703125 L111.839844,164.703125 L111.902344,164.703125 L112.097656,166 L112.605469,166 L112.605469,153.84375 L111.839844,153.84375 L111.839844,156.898438 C111.839844,157.528646 111.855469,158.171875 111.886719,158.828125 L111.886719,158.828125 L111.839844,158.828125 C111.485677,158.286458 111.084635,157.903646 110.636719,157.679688 C110.188802,157.455729 109.657552,157.34375 109.042969,157.34375 C107.871094,157.34375 106.977865,157.731771 106.363281,158.507812 C105.748698,159.283854 105.441406,160.40625 105.441406,161.875 C105.441406,163.270833 105.751302,164.333333 106.371094,165.0625 C106.990885,165.791667 107.886719,166.15625 109.058594,166.15625 Z M109.058594,165.46875 C107.188802,165.46875 106.253906,164.265625 106.253906,161.859375 C106.253906,160.619792 106.486979,159.674479 106.953125,159.023438 C107.419271,158.372396 108.115885,158.046875 109.042969,158.046875 C110.027344,158.046875 110.739583,158.334635 111.179688,158.910156 C111.619792,159.485677 111.839844,160.429688 111.839844,161.742188 L111.839844,161.742188 L111.839844,161.875 C111.839844,163.15625 111.615885,164.075521 111.167969,164.632812 C110.720052,165.190104 110.016927,165.46875 109.058594,165.46875 Z M118.886719,166.15625 C119.376302,166.15625 119.824219,166.11849 120.230469,166.042969 C120.636719,165.967448 121.079427,165.825521 121.558594,165.617188 L121.558594,165.617188 L121.558594,164.914062 C120.996094,165.138021 120.53125,165.283854 120.164062,165.351562 C119.796875,165.419271 119.371094,165.453125 118.886719,165.453125 C117.891927,165.453125 117.127604,165.145833 116.59375,164.53125 C116.059896,163.916667 115.78776,163.026042 115.777344,161.859375 L115.777344,161.859375 L121.894531,161.859375 L121.894531,161.234375 C121.894531,160.036458 121.605469,159.088542 121.027344,158.390625 C120.449219,157.692708 119.660156,157.34375 118.660156,157.34375 C117.529948,157.34375 116.63151,157.751302 115.964844,158.566406 C115.298177,159.38151 114.964844,160.466146 114.964844,161.820312 C114.964844,163.190104 115.309896,164.255208 116,165.015625 C116.690104,165.776042 117.652344,166.15625 118.886719,166.15625 Z M121.074219,161.171875 L115.824219,161.171875 C115.907552,160.15625 116.196615,159.378906 116.691406,158.839844 C117.186198,158.300781 117.842448,158.03125 118.660156,158.03125 C119.415365,158.03125 120.00651,158.308594 120.433594,158.863281 C120.860677,159.417969 121.074219,160.1875 121.074219,161.171875 L121.074219,161.171875 Z M126.175781,166.15625 C127.238281,166.15625 128.058594,165.951823 128.636719,165.542969 C129.214844,165.134115 129.503906,164.549479 129.503906,163.789062 C129.503906,163.408854 129.416667,163.078125 129.242188,162.796875 C129.067708,162.515625 128.80599,162.264323 128.457031,162.042969 C128.108073,161.821615 127.550781,161.572917 126.785156,161.296875 C125.86849,160.96875 125.252604,160.671875 124.9375,160.40625 C124.622396,160.140625 124.464844,159.786458 124.464844,159.34375 C124.464844,158.9375 124.667969,158.619792 125.074219,158.390625 C125.480469,158.161458 126.029948,158.046875 126.722656,158.046875 C127.436198,158.046875 128.209635,158.21875 129.042969,158.5625 L129.042969,158.5625 L129.332031,157.859375 C128.509115,157.515625 127.639323,157.34375 126.722656,157.34375 C125.764323,157.34375 125.018229,157.528646 124.484375,157.898438 C123.950521,158.268229 123.683594,158.770833 123.683594,159.40625 C123.683594,159.807292 123.770833,160.147135 123.945312,160.425781 C124.119792,160.704427 124.378906,160.954427 124.722656,161.175781 C125.066406,161.397135 125.66276,161.661458 126.511719,161.96875 C127.303385,162.25 127.872396,162.536458 128.21875,162.828125 C128.565104,163.119792 128.738281,163.479167 128.738281,163.90625 C128.738281,164.369792 128.520833,164.740885 128.085938,165.019531 C127.651042,165.298177 127.014323,165.4375 126.175781,165.4375 C125.227865,165.4375 124.326823,165.223958 123.472656,164.796875 L123.472656,164.796875 L123.472656,165.632812 C124.139323,165.981771 125.040365,166.15625 126.175781,166.15625 Z M132.074219,155.90625 C132.235677,155.90625 132.361979,155.838542 132.453125,155.703125 C132.544271,155.567708 132.589844,155.382812 132.589844,155.148438 C132.589844,154.908854 132.544271,154.723958 132.453125,154.59375 C132.361979,154.463542 132.235677,154.398438 132.074219,154.398438 C131.746094,154.398438 131.582031,154.648438 131.582031,155.148438 C131.582031,155.653646 131.746094,155.90625 132.074219,155.90625 Z M132.464844,166 L132.464844,157.507812 L131.691406,157.507812 L131.691406,166 L132.464844,166 Z M137.597656,169.84375 C138.941406,169.84375 139.976562,169.60026 140.703125,169.113281 C141.429688,168.626302 141.792969,167.934896 141.792969,167.039062 C141.792969,166.309896 141.548177,165.759115 141.058594,165.386719 C140.56901,165.014323 139.863281,164.828125 138.941406,164.828125 L138.941406,164.828125 L137.457031,164.828125 C136.972656,164.828125 136.627604,164.765625 136.421875,164.640625 C136.216146,164.515625 136.113281,164.317708 136.113281,164.046875 C136.113281,163.802083 136.19401,163.570312 136.355469,163.351562 C136.516927,163.132812 136.751302,162.942708 137.058594,162.78125 C137.214844,162.8125 137.485677,162.828125 137.871094,162.828125 C138.78776,162.828125 139.518229,162.574219 140.0625,162.066406 C140.606771,161.558594 140.878906,160.895833 140.878906,160.078125 C140.878906,159.380208 140.644531,158.739583 140.175781,158.15625 L140.175781,158.15625 L141.933594,158.046875 L141.933594,157.507812 L139.214844,157.507812 C138.907552,157.398438 138.47526,157.34375 137.917969,157.34375 C137.001302,157.34375 136.273438,157.60026 135.734375,158.113281 C135.195312,158.626302 134.925781,159.307292 134.925781,160.15625 C134.925781,160.71875 135.063802,161.217448 135.339844,161.652344 C135.615885,162.08724 136.001302,162.40625 136.496094,162.609375 C135.772135,163.041667 135.410156,163.541667 135.410156,164.109375 C135.410156,164.369792 135.486979,164.60026 135.640625,164.800781 C135.794271,165.001302 135.998698,165.15625 136.253906,165.265625 C135.634115,165.40625 135.143229,165.669271 134.78125,166.054688 C134.419271,166.440104 134.238281,166.924479 134.238281,167.507812 C134.238281,168.242188 134.53125,168.815104 135.117188,169.226562 C135.703125,169.638021 136.529948,169.84375 137.597656,169.84375 Z M137.902344,162.226562 C137.235677,162.226562 136.703125,162.045573 136.304688,161.683594 C135.90625,161.321615 135.707031,160.8125 135.707031,160.15625 C135.707031,159.463542 135.901042,158.923177 136.289062,158.535156 C136.677083,158.147135 137.209635,157.953125 137.886719,157.953125 C138.584635,157.953125 139.127604,158.134115 139.515625,158.496094 C139.903646,158.858073 140.097656,159.401042 140.097656,160.125 C140.097656,160.807292 139.908854,161.328125 139.53125,161.6875 C139.153646,162.046875 138.610677,162.226562 137.902344,162.226562 Z M137.660156,169.1875 C135.925781,169.1875 135.058594,168.604167 135.058594,167.4375 C135.058594,166.213542 135.83724,165.601562 137.394531,165.601562 L137.394531,165.601562 L138.785156,165.601562 C139.566406,165.601562 140.13151,165.716146 140.480469,165.945312 C140.829427,166.174479 141.003906,166.544271 141.003906,167.054688 C141.003906,168.476562 139.889323,169.1875 137.660156,169.1875 Z M144.449219,166 L144.449219,161.3125 C144.449219,160.161458 144.684896,159.329427 145.15625,158.816406 C145.627604,158.303385 146.371094,158.046875 147.386719,158.046875 C148.141927,158.046875 148.699219,158.240885 149.058594,158.628906 C149.417969,159.016927 149.597656,159.638021 149.597656,160.492188 L149.597656,160.492188 L149.597656,166 L150.363281,166 L150.363281,160.445312 C150.363281,158.377604 149.39974,157.34375 147.472656,157.34375 C146.061198,157.34375 145.079427,157.786458 144.527344,158.671875 L144.527344,158.671875 L144.480469,158.671875 L144.332031,157.507812 L143.675781,157.507812 L143.675781,166 L144.449219,166 Z M159.253906,166.15625 C159.86849,166.15625 160.401042,166.042969 160.851562,165.816406 C161.302083,165.589844 161.740885,165.203125 162.167969,164.65625 L162.167969,164.65625 L162.230469,164.65625 L162.425781,166 L162.996094,166 L162.996094,160.351562 C162.996094,159.325521 162.765625,158.570312 162.304688,158.085938 C161.84375,157.601562 161.147135,157.359375 160.214844,157.359375 C159.303385,157.359375 158.38151,157.578125 157.449219,158.015625 L157.449219,158.015625 L157.738281,158.6875 C158.582031,158.25 159.397135,158.03125 160.183594,158.03125 C160.91276,158.03125 161.441406,158.236979 161.769531,158.648438 C162.097656,159.059896 162.261719,159.669271 162.261719,160.476562 L162.261719,160.476562 L162.261719,161.039062 L160.644531,161.085938 C159.33724,161.111979 158.338542,161.354167 157.648438,161.8125 C156.958333,162.270833 156.613281,162.914062 156.613281,163.742188 C156.613281,164.497396 156.845052,165.088542 157.308594,165.515625 C157.772135,165.942708 158.420573,166.15625 159.253906,166.15625 Z M159.300781,165.453125 C158.707031,165.453125 158.247396,165.30599 157.921875,165.011719 C157.596354,164.717448 157.433594,164.304688 157.433594,163.773438 C157.433594,163.106771 157.6875,162.615885 158.195312,162.300781 C158.703125,161.985677 159.553385,161.799479 160.746094,161.742188 L160.746094,161.742188 L162.230469,161.679688 L162.230469,162.515625 C162.230469,163.4375 161.96875,164.157552 161.445312,164.675781 C160.921875,165.19401 160.207031,165.453125 159.300781,165.453125 Z M166.519531,166 L166.519531,161.3125 C166.519531,160.161458 166.755208,159.329427 167.226562,158.816406 C167.697917,158.303385 168.441406,158.046875 169.457031,158.046875 C170.21224,158.046875 170.769531,158.240885 171.128906,158.628906 C171.488281,159.016927 171.667969,159.638021 171.667969,160.492188 L171.667969,160.492188 L171.667969,166 L172.433594,166 L172.433594,160.445312 C172.433594,158.377604 171.470052,157.34375 169.542969,157.34375 C168.13151,157.34375 167.14974,157.786458 166.597656,158.671875 L166.597656,158.671875 L166.550781,158.671875 L166.402344,157.507812 L165.746094,157.507812 L165.746094,166 L166.519531,166 Z M178.308594,166.15625 C179.516927,166.15625 180.44401,165.671875 181.089844,164.703125 L181.089844,164.703125 L181.152344,164.703125 L181.347656,166 L181.855469,166 L181.855469,153.84375 L181.089844,153.84375 L181.089844,156.898438 C181.089844,157.528646 181.105469,158.171875 181.136719,158.828125 L181.136719,158.828125 L181.089844,158.828125 C180.735677,158.286458 180.334635,157.903646 179.886719,157.679688 C179.438802,157.455729 178.907552,157.34375 178.292969,157.34375 C177.121094,157.34375 176.227865,157.731771 175.613281,158.507812 C174.998698,159.283854 174.691406,160.40625 174.691406,161.875 C174.691406,163.270833 175.001302,164.333333 175.621094,165.0625 C176.240885,165.791667 177.136719,166.15625 178.308594,166.15625 Z M178.308594,165.46875 C176.438802,165.46875 175.503906,164.265625 175.503906,161.859375 C175.503906,160.619792 175.736979,159.674479 176.203125,159.023438 C176.669271,158.372396 177.365885,158.046875 178.292969,158.046875 C179.277344,158.046875 179.989583,158.334635 180.429688,158.910156 C180.869792,159.485677 181.089844,160.429688 181.089844,161.742188 L181.089844,161.742188 L181.089844,161.875 C181.089844,163.15625 180.865885,164.075521 180.417969,164.632812 C179.970052,165.190104 179.266927,165.46875 178.308594,165.46875 Z M44.890625,188.15625 C46.0729167,188.15625 47,187.766927 47.671875,186.988281 C48.34375,186.209635 48.6796875,185.127604 48.6796875,183.742188 C48.6796875,182.377604 48.3476562,181.303385 47.6835938,180.519531 C47.0195312,179.735677 46.1041667,179.34375 44.9375,179.34375 C43.765625,179.34375 42.84375,179.730469 42.171875,180.503906 C41.5,181.277344 41.1640625,182.356771 41.1640625,183.742188 C41.1640625,184.622396 41.3151042,185.398438 41.6171875,186.070312 C41.9192708,186.742188 42.3541667,187.257812 42.921875,187.617188 C43.4895833,187.976562 44.1458333,188.15625 44.890625,188.15625 Z M44.921875,187.453125 C43.984375,187.453125 43.2591146,187.126302 42.7460938,186.472656 C42.2330729,185.81901 41.9765625,184.908854 41.9765625,183.742188 C41.9765625,182.565104 42.2304688,181.654948 42.7382812,181.011719 C43.2460938,180.36849 43.96875,180.046875 44.90625,180.046875 C45.84375,180.046875 46.5716146,180.369792 47.0898438,181.015625 C47.6080729,181.661458 47.8671875,182.570312 47.8671875,183.742188 C47.8671875,184.908854 47.6106771,185.81901 47.0976562,186.472656 C46.5846354,187.126302 45.859375,187.453125 44.921875,187.453125 Z M52.1875,188 L52.1875,180.179688 L54.1875,180.179688 L54.1875,179.507812 L52.1875,179.507812 L52.1875,178.71875 C52.1875,177.916667 52.3138021,177.33724 52.5664062,176.980469 C52.8190104,176.623698 53.2473958,176.445312 53.8515625,176.445312 C54.2630208,176.445312 54.6770833,176.510417 55.09375,176.640625 L55.09375,176.640625 L55.2734375,175.96875 C54.8046875,175.828125 54.3359375,175.757812 53.8671875,175.757812 C52.9973958,175.757812 52.3710938,176.001302 51.9882812,176.488281 C51.6054688,176.97526 51.4140625,177.739583 51.4140625,178.78125 L51.4140625,178.78125 L51.4140625,179.4375 L49.8359375,179.726562 L49.8359375,180.179688 L51.4140625,180.179688 L51.4140625,188 L52.1875,188 Z M56.984375,188 L56.984375,180.179688 L58.984375,180.179688 L58.984375,179.507812 L56.984375,179.507812 L56.984375,178.71875 C56.984375,177.916667 57.1106771,177.33724 57.3632812,176.980469 C57.6158854,176.623698 58.0442708,176.445312 58.6484375,176.445312 C59.0598958,176.445312 59.4739583,176.510417 59.890625,176.640625 L59.890625,176.640625 L60.0703125,175.96875 C59.6015625,175.828125 59.1328125,175.757812 58.6640625,175.757812 C57.7942708,175.757812 57.1679688,176.001302 56.7851562,176.488281 C56.4023438,176.97526 56.2109375,177.739583 56.2109375,178.78125 L56.2109375,178.78125 L56.2109375,179.4375 L54.6328125,179.726562 L54.6328125,180.179688 L56.2109375,180.179688 L56.2109375,188 L56.984375,188 Z M64.0625,188.15625 C64.5520833,188.15625 65,188.11849 65.40625,188.042969 C65.8125,187.967448 66.2552083,187.825521 66.734375,187.617188 L66.734375,187.617188 L66.734375,186.914062 C66.171875,187.138021 65.7070312,187.283854 65.3398438,187.351562 C64.9726562,187.419271 64.546875,187.453125 64.0625,187.453125 C63.0677083,187.453125 62.3033854,187.145833 61.7695312,186.53125 C61.2356771,185.916667 60.9635417,185.026042 60.953125,183.859375 L60.953125,183.859375 L67.0703125,183.859375 L67.0703125,183.234375 C67.0703125,182.036458 66.78125,181.088542 66.203125,180.390625 C65.625,179.692708 64.8359375,179.34375 63.8359375,179.34375 C62.7057292,179.34375 61.8072917,179.751302 61.140625,180.566406 C60.4739583,181.38151 60.140625,182.466146 60.140625,183.820312 C60.140625,185.190104 60.4856771,186.255208 61.1757812,187.015625 C61.8658854,187.776042 62.828125,188.15625 64.0625,188.15625 Z M66.25,183.171875 L61,183.171875 C61.0833333,182.15625 61.3723958,181.378906 61.8671875,180.839844 C62.3619792,180.300781 63.0182292,180.03125 63.8359375,180.03125 C64.5911458,180.03125 65.1822917,180.308594 65.609375,180.863281 C66.0364583,181.417969 66.25,182.1875 66.25,183.171875 L66.25,183.171875 Z M70.1875,188 L70.1875,183.3125 C70.1875,182.375 70.4192708,181.598958 70.8828125,180.984375 C71.3463542,180.369792 71.9401042,180.0625 72.6640625,180.0625 C73.0442708,180.0625 73.4114583,180.106771 73.765625,180.195312 L73.765625,180.195312 L73.9140625,179.453125 C73.5026042,179.380208 73.1171875,179.34375 72.7578125,179.34375 C72.1953125,179.34375 71.7161458,179.470052 71.3203125,179.722656 C70.9244792,179.97526 70.5520833,180.414062 70.203125,181.039062 L70.203125,181.039062 L70.1484375,181.039062 L70.0703125,179.507812 L69.4140625,179.507812 L69.4140625,188 L70.1875,188 Z M77.578125,188.15625 C78.640625,188.15625 79.4609375,187.951823 80.0390625,187.542969 C80.6171875,187.134115 80.90625,186.549479 80.90625,185.789062 C80.90625,185.408854 80.8190104,185.078125 80.6445312,184.796875 C80.4700521,184.515625 80.2083333,184.264323 79.859375,184.042969 C79.5104167,183.821615 78.953125,183.572917 78.1875,183.296875 C77.2708333,182.96875 76.6549479,182.671875 76.3398438,182.40625 C76.0247396,182.140625 75.8671875,181.786458 75.8671875,181.34375 C75.8671875,180.9375 76.0703125,180.619792 76.4765625,180.390625 C76.8828125,180.161458 77.4322917,180.046875 78.125,180.046875 C78.8385417,180.046875 79.6119792,180.21875 80.4453125,180.5625 L80.4453125,180.5625 L80.734375,179.859375 C79.9114583,179.515625 79.0416667,179.34375 78.125,179.34375 C77.1666667,179.34375 76.4205729,179.528646 75.8867188,179.898438 C75.3528646,180.268229 75.0859375,180.770833 75.0859375,181.40625 C75.0859375,181.807292 75.1731771,182.147135 75.3476562,182.425781 C75.5221354,182.704427 75.78125,182.954427 76.125,183.175781 C76.46875,183.397135 77.0651042,183.661458 77.9140625,183.96875 C78.7057292,184.25 79.2747396,184.536458 79.6210938,184.828125 C79.9674479,185.119792 80.140625,185.479167 80.140625,185.90625 C80.140625,186.369792 79.9231771,186.740885 79.4882812,187.019531 C79.0533854,187.298177 78.4166667,187.4375 77.578125,187.4375 C76.6302083,187.4375 75.7291667,187.223958 74.875,186.796875 L74.875,186.796875 L74.875,187.632812 C75.5416667,187.981771 76.4427083,188.15625 77.578125,188.15625 Z M90.640625,188.15625 C91.5208333,188.15625 92.2317708,188.023438 92.7734375,187.757812 L92.7734375,187.757812 L92.7734375,187.039062 C92.1119792,187.315104 91.3958333,187.453125 90.625,187.453125 C89.6614583,187.453125 88.9114583,187.128906 88.375,186.480469 C87.8385417,185.832031 87.5703125,184.934896 87.5703125,183.789062 C87.5703125,182.580729 87.8385417,181.654948 88.375,181.011719 C88.9114583,180.36849 89.7005208,180.046875 90.7421875,180.046875 C91.2838542,180.046875 91.921875,180.169271 92.65625,180.414062 L92.65625,180.414062 L92.8671875,179.726562 C92.1953125,179.471354 91.4921875,179.34375 90.7578125,179.34375 C89.5182292,179.34375 88.5416667,179.735677 87.828125,180.519531 C87.1145833,181.303385 86.7578125,182.398438 86.7578125,183.804688 C86.7578125,185.174479 87.1015625,186.242188 87.7890625,187.007812 C88.4765625,187.773438 89.4270833,188.15625 90.640625,188.15625 Z M98.0859375,188.15625 C99.2682292,188.15625 100.195312,187.766927 100.867188,186.988281 C101.539062,186.209635 101.875,185.127604 101.875,183.742188 C101.875,182.377604 101.542969,181.303385 100.878906,180.519531 C100.214844,179.735677 99.2994792,179.34375 98.1328125,179.34375 C96.9609375,179.34375 96.0390625,179.730469 95.3671875,180.503906 C94.6953125,181.277344 94.359375,182.356771 94.359375,183.742188 C94.359375,184.622396 94.5104167,185.398438 94.8125,186.070312 C95.1145833,186.742188 95.5494792,187.257812 96.1171875,187.617188 C96.6848958,187.976562 97.3411458,188.15625 98.0859375,188.15625 Z M98.1171875,187.453125 C97.1796875,187.453125 96.4544271,187.126302 95.9414062,186.472656 C95.4283854,185.81901 95.171875,184.908854 95.171875,183.742188 C95.171875,182.565104 95.4257812,181.654948 95.9335938,181.011719 C96.4414062,180.36849 97.1640625,180.046875 98.1015625,180.046875 C99.0390625,180.046875 99.7669271,180.369792 100.285156,181.015625 C100.803385,181.661458 101.0625,182.570312 101.0625,183.742188 C101.0625,184.908854 100.80599,185.81901 100.292969,186.472656 C99.7799479,187.126302 99.0546875,187.453125 98.1171875,187.453125 Z M105,188 L105,183.3125 C105,182.161458 105.235677,181.329427 105.707031,180.816406 C106.178385,180.303385 106.921875,180.046875 107.9375,180.046875 C108.692708,180.046875 109.25,180.240885 109.609375,180.628906 C109.96875,181.016927 110.148438,181.638021 110.148438,182.492188 L110.148438,182.492188 L110.148438,188 L110.914062,188 L110.914062,182.445312 C110.914062,180.377604 109.950521,179.34375 108.023438,179.34375 C106.611979,179.34375 105.630208,179.786458 105.078125,180.671875 L105.078125,180.671875 L105.03125,180.671875 L104.882812,179.507812 L104.226562,179.507812 L104.226562,188 L105,188 Z M116.304688,188 L119.585938,179.507812 L118.789062,179.507812 L116.59375,185.265625 C116.369792,185.859375 116.151042,186.510417 115.9375,187.21875 L115.9375,187.21875 L115.890625,187.21875 C115.744792,186.666667 115.526042,186.020833 115.234375,185.28125 L115.234375,185.28125 L113.039062,179.507812 L112.242188,179.507812 L115.523438,188 L116.304688,188 Z M124.4375,188.15625 C124.927083,188.15625 125.375,188.11849 125.78125,188.042969 C126.1875,187.967448 126.630208,187.825521 127.109375,187.617188 L127.109375,187.617188 L127.109375,186.914062 C126.546875,187.138021 126.082031,187.283854 125.714844,187.351562 C125.347656,187.419271 124.921875,187.453125 124.4375,187.453125 C123.442708,187.453125 122.678385,187.145833 122.144531,186.53125 C121.610677,185.916667 121.338542,185.026042 121.328125,183.859375 L121.328125,183.859375 L127.445312,183.859375 L127.445312,183.234375 C127.445312,182.036458 127.15625,181.088542 126.578125,180.390625 C126,179.692708 125.210938,179.34375 124.210938,179.34375 C123.080729,179.34375 122.182292,179.751302 121.515625,180.566406 C120.848958,181.38151 120.515625,182.466146 120.515625,183.820312 C120.515625,185.190104 120.860677,186.255208 121.550781,187.015625 C122.240885,187.776042 123.203125,188.15625 124.4375,188.15625 Z M126.625,183.171875 L121.375,183.171875 C121.458333,182.15625 121.747396,181.378906 122.242188,180.839844 C122.736979,180.300781 123.393229,180.03125 124.210938,180.03125 C124.966146,180.03125 125.557292,180.308594 125.984375,180.863281 C126.411458,181.417969 126.625,182.1875 126.625,183.171875 L126.625,183.171875 Z M130.5625,188 L130.5625,183.3125 C130.5625,182.375 130.794271,181.598958 131.257812,180.984375 C131.721354,180.369792 132.315104,180.0625 133.039062,180.0625 C133.419271,180.0625 133.786458,180.106771 134.140625,180.195312 L134.140625,180.195312 L134.289062,179.453125 C133.877604,179.380208 133.492188,179.34375 133.132812,179.34375 C132.570312,179.34375 132.091146,179.470052 131.695312,179.722656 C131.299479,179.97526 130.927083,180.414062 130.578125,181.039062 L130.578125,181.039062 L130.523438,181.039062 L130.445312,179.507812 L129.789062,179.507812 L129.789062,188 L130.5625,188 Z M137.953125,188.15625 C139.015625,188.15625 139.835938,187.951823 140.414062,187.542969 C140.992188,187.134115 141.28125,186.549479 141.28125,185.789062 C141.28125,185.408854 141.19401,185.078125 141.019531,184.796875 C140.845052,184.515625 140.583333,184.264323 140.234375,184.042969 C139.885417,183.821615 139.328125,183.572917 138.5625,183.296875 C137.645833,182.96875 137.029948,182.671875 136.714844,182.40625 C136.39974,182.140625 136.242188,181.786458 136.242188,181.34375 C136.242188,180.9375 136.445312,180.619792 136.851562,180.390625 C137.257812,180.161458 137.807292,180.046875 138.5,180.046875 C139.213542,180.046875 139.986979,180.21875 140.820312,180.5625 L140.820312,180.5625 L141.109375,179.859375 C140.286458,179.515625 139.416667,179.34375 138.5,179.34375 C137.541667,179.34375 136.795573,179.528646 136.261719,179.898438 C135.727865,180.268229 135.460938,180.770833 135.460938,181.40625 C135.460938,181.807292 135.548177,182.147135 135.722656,182.425781 C135.897135,182.704427 136.15625,182.954427 136.5,183.175781 C136.84375,183.397135 137.440104,183.661458 138.289062,183.96875 C139.080729,184.25 139.64974,184.536458 139.996094,184.828125 C140.342448,185.119792 140.515625,185.479167 140.515625,185.90625 C140.515625,186.369792 140.298177,186.740885 139.863281,187.019531 C139.428385,187.298177 138.791667,187.4375 137.953125,187.4375 C137.005208,187.4375 136.104167,187.223958 135.25,186.796875 L135.25,186.796875 L135.25,187.632812 C135.916667,187.981771 136.817708,188.15625 137.953125,188.15625 Z M145.453125,188.15625 C146.067708,188.15625 146.60026,188.042969 147.050781,187.816406 C147.501302,187.589844 147.940104,187.203125 148.367188,186.65625 L148.367188,186.65625 L148.429688,186.65625 L148.625,188 L149.195312,188 L149.195312,182.351562 C149.195312,181.325521 148.964844,180.570312 148.503906,180.085938 C148.042969,179.601562 147.346354,179.359375 146.414062,179.359375 C145.502604,179.359375 144.580729,179.578125 143.648438,180.015625 L143.648438,180.015625 L143.9375,180.6875 C144.78125,180.25 145.596354,180.03125 146.382812,180.03125 C147.111979,180.03125 147.640625,180.236979 147.96875,180.648438 C148.296875,181.059896 148.460938,181.669271 148.460938,182.476562 L148.460938,182.476562 L148.460938,183.039062 L146.84375,183.085938 C145.536458,183.111979 144.53776,183.354167 143.847656,183.8125 C143.157552,184.270833 142.8125,184.914062 142.8125,185.742188 C142.8125,186.497396 143.044271,187.088542 143.507812,187.515625 C143.971354,187.942708 144.619792,188.15625 145.453125,188.15625 Z M145.5,187.453125 C144.90625,187.453125 144.446615,187.30599 144.121094,187.011719 C143.795573,186.717448 143.632812,186.304688 143.632812,185.773438 C143.632812,185.106771 143.886719,184.615885 144.394531,184.300781 C144.902344,183.985677 145.752604,183.799479 146.945312,183.742188 L146.945312,183.742188 L148.429688,183.679688 L148.429688,184.515625 C148.429688,185.4375 148.167969,186.157552 147.644531,186.675781 C147.121094,187.19401 146.40625,187.453125 145.5,187.453125 Z M154.171875,188.15625 C154.661458,188.15625 155.09375,188.09375 155.46875,187.96875 L155.46875,187.96875 L155.46875,187.34375 C155.104167,187.427083 154.677083,187.46875 154.1875,187.46875 C153.697917,187.46875 153.338542,187.3125 153.109375,187 C152.880208,186.6875 152.765625,186.205729 152.765625,185.554688 L152.765625,185.554688 L152.765625,180.179688 L155.257812,180.179688 L155.257812,179.507812 L152.765625,179.507812 L152.765625,177.453125 L152.367188,177.453125 L151.976562,179.375 L150.71875,179.726562 L150.71875,180.179688 L151.976562,180.179688 L151.976562,185.664062 C151.976562,186.523438 152.154948,187.153646 152.511719,187.554688 C152.86849,187.955729 153.421875,188.15625 154.171875,188.15625 Z M157.6875,177.90625 C157.848958,177.90625 157.97526,177.838542 158.066406,177.703125 C158.157552,177.567708 158.203125,177.382812 158.203125,177.148438 C158.203125,176.908854 158.157552,176.723958 158.066406,176.59375 C157.97526,176.463542 157.848958,176.398438 157.6875,176.398438 C157.359375,176.398438 157.195312,176.648438 157.195312,177.148438 C157.195312,177.653646 157.359375,177.90625 157.6875,177.90625 Z M158.078125,188 L158.078125,179.507812 L157.304688,179.507812 L157.304688,188 L158.078125,188 Z M164.15625,188.15625 C165.338542,188.15625 166.265625,187.766927 166.9375,186.988281 C167.609375,186.209635 167.945312,185.127604 167.945312,183.742188 C167.945312,182.377604 167.613281,181.303385 166.949219,180.519531 C166.285156,179.735677 165.369792,179.34375 164.203125,179.34375 C163.03125,179.34375 162.109375,179.730469 161.4375,180.503906 C160.765625,181.277344 160.429688,182.356771 160.429688,183.742188 C160.429688,184.622396 160.580729,185.398438 160.882812,186.070312 C161.184896,186.742188 161.619792,187.257812 162.1875,187.617188 C162.755208,187.976562 163.411458,188.15625 164.15625,188.15625 Z M164.1875,187.453125 C163.25,187.453125 162.52474,187.126302 162.011719,186.472656 C161.498698,185.81901 161.242188,184.908854 161.242188,183.742188 C161.242188,182.565104 161.496094,181.654948 162.003906,181.011719 C162.511719,180.36849 163.234375,180.046875 164.171875,180.046875 C165.109375,180.046875 165.83724,180.369792 166.355469,181.015625 C166.873698,181.661458 167.132812,182.570312 167.132812,183.742188 C167.132812,184.908854 166.876302,185.81901 166.363281,186.472656 C165.85026,187.126302 165.125,187.453125 164.1875,187.453125 Z M171.070312,188 L171.070312,183.3125 C171.070312,182.161458 171.30599,181.329427 171.777344,180.816406 C172.248698,180.303385 172.992188,180.046875 174.007812,180.046875 C174.763021,180.046875 175.320312,180.240885 175.679688,180.628906 C176.039062,181.016927 176.21875,181.638021 176.21875,182.492188 L176.21875,182.492188 L176.21875,188 L176.984375,188 L176.984375,182.445312 C176.984375,180.377604 176.020833,179.34375 174.09375,179.34375 C172.682292,179.34375 171.700521,179.786458 171.148438,180.671875 L171.148438,180.671875 L171.101562,180.671875 L170.953125,179.507812 L170.296875,179.507812 L170.296875,188 L171.070312,188 Z M181.671875,188.15625 C182.734375,188.15625 183.554688,187.951823 184.132812,187.542969 C184.710938,187.134115 185,186.549479 185,185.789062 C185,185.408854 184.91276,185.078125 184.738281,184.796875 C184.563802,184.515625 184.302083,184.264323 183.953125,184.042969 C183.604167,183.821615 183.046875,183.572917 182.28125,183.296875 C181.364583,182.96875 180.748698,182.671875 180.433594,182.40625 C180.11849,182.140625 179.960938,181.786458 179.960938,181.34375 C179.960938,180.9375 180.164062,180.619792 180.570312,180.390625 C180.976562,180.161458 181.526042,180.046875 182.21875,180.046875 C182.932292,180.046875 183.705729,180.21875 184.539062,180.5625 L184.539062,180.5625 L184.828125,179.859375 C184.005208,179.515625 183.135417,179.34375 182.21875,179.34375 C181.260417,179.34375 180.514323,179.528646 179.980469,179.898438 C179.446615,180.268229 179.179688,180.770833 179.179688,181.40625 C179.179688,181.807292 179.266927,182.147135 179.441406,182.425781 C179.615885,182.704427 179.875,182.954427 180.21875,183.175781 C180.5625,183.397135 181.158854,183.661458 182.007812,183.96875 C182.799479,184.25 183.36849,184.536458 183.714844,184.828125 C184.061198,185.119792 184.234375,185.479167 184.234375,185.90625 C184.234375,186.369792 184.016927,186.740885 183.582031,187.019531 C183.147135,187.298177 182.510417,187.4375 181.671875,187.4375 C180.723958,187.4375 179.822917,187.223958 178.96875,186.796875 L178.96875,186.796875 L178.96875,187.632812 C179.635417,187.981771 180.536458,188.15625 181.671875,188.15625 Z M42.4609375,210 L44.3515625,204.335938 L44.703125,203.203125 L44.8671875,202.625 L44.9140625,202.625 C45.1015625,203.369792 45.2552083,203.934896 45.375,204.320312 L45.375,204.320312 L47.234375,210 L48.046875,210 L50.3515625,201.507812 L49.5703125,201.507812 L48.2734375,206.382812 C47.8984375,207.856771 47.6901042,208.763021 47.6484375,209.101562 L47.6484375,209.101562 L47.6015625,209.101562 C47.5182292,208.705729 47.2890625,207.895833 46.9140625,206.671875 L46.9140625,206.671875 L45.25,201.507812 L44.546875,201.507812 L42.796875,206.6875 C42.65625,207.088542 42.4322917,207.898438 42.125,209.117188 L42.125,209.117188 L42.078125,209.117188 C41.9791667,208.544271 41.7708333,207.648438 41.453125,206.429688 L41.453125,206.429688 L40.09375,201.507812 L39.265625,201.507812 L41.6953125,210 L42.4609375,210 Z M52.3984375,199.90625 C52.5598958,199.90625 52.6861979,199.838542 52.7773438,199.703125 C52.8684896,199.567708 52.9140625,199.382812 52.9140625,199.148438 C52.9140625,198.908854 52.8684896,198.723958 52.7773438,198.59375 C52.6861979,198.463542 52.5598958,198.398438 52.3984375,198.398438 C52.0703125,198.398438 51.90625,198.648438 51.90625,199.148438 C51.90625,199.653646 52.0703125,199.90625 52.3984375,199.90625 Z M52.7890625,210 L52.7890625,201.507812 L52.015625,201.507812 L52.015625,210 L52.7890625,210 Z M57.859375,210.15625 C58.3489583,210.15625 58.78125,210.09375 59.15625,209.96875 L59.15625,209.96875 L59.15625,209.34375 C58.7916667,209.427083 58.3645833,209.46875 57.875,209.46875 C57.3854167,209.46875 57.0260417,209.3125 56.796875,209 C56.5677083,208.6875 56.453125,208.205729 56.453125,207.554688 L56.453125,207.554688 L56.453125,202.179688 L58.9453125,202.179688 L58.9453125,201.507812 L56.453125,201.507812 L56.453125,199.453125 L56.0546875,199.453125 L55.6640625,201.375 L54.40625,201.726562 L54.40625,202.179688 L55.6640625,202.179688 L55.6640625,207.664062 C55.6640625,208.523438 55.8424479,209.153646 56.1992188,209.554688 C56.5559896,209.955729 57.109375,210.15625 57.859375,210.15625 Z M61.765625,210 L61.765625,205.3125 C61.765625,204.161458 62.0013021,203.329427 62.4726562,202.816406 C62.9440104,202.303385 63.6875,202.046875 64.703125,202.046875 C65.4583333,202.046875 66.015625,202.240885 66.375,202.628906 C66.734375,203.016927 66.9140625,203.638021 66.9140625,204.492188 L66.9140625,204.492188 L66.9140625,210 L67.6796875,210 L67.6796875,204.445312 C67.6796875,202.377604 66.7161458,201.34375 64.7890625,201.34375 C64.0703125,201.34375 63.46875,201.458333 62.984375,201.6875 C62.5,201.916667 62.0989583,202.286458 61.78125,202.796875 L61.78125,202.796875 L61.7265625,202.796875 L61.765625,201.710938 L61.765625,197.84375 L60.9921875,197.84375 L60.9921875,210 L61.765625,210 Z M76.8125,210.15625 C77.3020833,210.15625 77.734375,210.09375 78.109375,209.96875 L78.109375,209.96875 L78.109375,209.34375 C77.7447917,209.427083 77.3177083,209.46875 76.828125,209.46875 C76.3385417,209.46875 75.9791667,209.3125 75.75,209 C75.5208333,208.6875 75.40625,208.205729 75.40625,207.554688 L75.40625,207.554688 L75.40625,202.179688 L77.8984375,202.179688 L77.8984375,201.507812 L75.40625,201.507812 L75.40625,199.453125 L75.0078125,199.453125 L74.6171875,201.375 L73.359375,201.726562 L73.359375,202.179688 L74.6171875,202.179688 L74.6171875,207.664062 C74.6171875,208.523438 74.7955729,209.153646 75.1523438,209.554688 C75.5091146,209.955729 76.0625,210.15625 76.8125,210.15625 Z M80.71875,210 L80.71875,205.3125 C80.71875,204.161458 80.9544271,203.329427 81.4257812,202.816406 C81.8971354,202.303385 82.640625,202.046875 83.65625,202.046875 C84.4114583,202.046875 84.96875,202.240885 85.328125,202.628906 C85.6875,203.016927 85.8671875,203.638021 85.8671875,204.492188 L85.8671875,204.492188 L85.8671875,210 L86.6328125,210 L86.6328125,204.445312 C86.6328125,202.377604 85.6692708,201.34375 83.7421875,201.34375 C83.0234375,201.34375 82.421875,201.458333 81.9375,201.6875 C81.453125,201.916667 81.0520833,202.286458 80.734375,202.796875 L80.734375,202.796875 L80.6796875,202.796875 L80.71875,201.710938 L80.71875,197.84375 L79.9453125,197.84375 L79.9453125,210 L80.71875,210 Z M92.8125,210.15625 C93.3020833,210.15625 93.75,210.11849 94.15625,210.042969 C94.5625,209.967448 95.0052083,209.825521 95.484375,209.617188 L95.484375,209.617188 L95.484375,208.914062 C94.921875,209.138021 94.4570312,209.283854 94.0898438,209.351562 C93.7226562,209.419271 93.296875,209.453125 92.8125,209.453125 C91.8177083,209.453125 91.0533854,209.145833 90.5195312,208.53125 C89.9856771,207.916667 89.7135417,207.026042 89.703125,205.859375 L89.703125,205.859375 L95.8203125,205.859375 L95.8203125,205.234375 C95.8203125,204.036458 95.53125,203.088542 94.953125,202.390625 C94.375,201.692708 93.5859375,201.34375 92.5859375,201.34375 C91.4557292,201.34375 90.5572917,201.751302 89.890625,202.566406 C89.2239583,203.38151 88.890625,204.466146 88.890625,205.820312 C88.890625,207.190104 89.2356771,208.255208 89.9257812,209.015625 C90.6158854,209.776042 91.578125,210.15625 92.8125,210.15625 Z M95,205.171875 L89.75,205.171875 C89.8333333,204.15625 90.1223958,203.378906 90.6171875,202.839844 C91.1119792,202.300781 91.7682292,202.03125 92.5859375,202.03125 C93.3411458,202.03125 93.9322917,202.308594 94.359375,202.863281 C94.7864583,203.417969 95,204.1875 95,205.171875 L95,205.171875 Z M104.304688,210.15625 C104.919271,210.15625 105.451823,210.042969 105.902344,209.816406 C106.352865,209.589844 106.791667,209.203125 107.21875,208.65625 L107.21875,208.65625 L107.28125,208.65625 L107.476562,210 L108.046875,210 L108.046875,204.351562 C108.046875,203.325521 107.816406,202.570312 107.355469,202.085938 C106.894531,201.601562 106.197917,201.359375 105.265625,201.359375 C104.354167,201.359375 103.432292,201.578125 102.5,202.015625 L102.5,202.015625 L102.789062,202.6875 C103.632812,202.25 104.447917,202.03125 105.234375,202.03125 C105.963542,202.03125 106.492188,202.236979 106.820312,202.648438 C107.148438,203.059896 107.3125,203.669271 107.3125,204.476562 L107.3125,204.476562 L107.3125,205.039062 L105.695312,205.085938 C104.388021,205.111979 103.389323,205.354167 102.699219,205.8125 C102.009115,206.270833 101.664062,206.914062 101.664062,207.742188 C101.664062,208.497396 101.895833,209.088542 102.359375,209.515625 C102.822917,209.942708 103.471354,210.15625 104.304688,210.15625 Z M104.351562,209.453125 C103.757812,209.453125 103.298177,209.30599 102.972656,209.011719 C102.647135,208.717448 102.484375,208.304688 102.484375,207.773438 C102.484375,207.106771 102.738281,206.615885 103.246094,206.300781 C103.753906,205.985677 104.604167,205.799479 105.796875,205.742188 L105.796875,205.742188 L107.28125,205.679688 L107.28125,206.515625 C107.28125,207.4375 107.019531,208.157552 106.496094,208.675781 C105.972656,209.19401 105.257812,209.453125 104.351562,209.453125 Z M111.570312,213.84375 L111.570312,210.609375 C111.570312,210.151042 111.559896,209.729167 111.539062,209.34375 L111.539062,209.34375 L111.515625,208.6875 L111.570312,208.6875 C112.169271,209.666667 113.122396,210.15625 114.429688,210.15625 C115.523438,210.15625 116.386719,209.772135 117.019531,209.003906 C117.652344,208.235677 117.96875,207.153646 117.96875,205.757812 C117.96875,204.320312 117.667969,203.22526 117.066406,202.472656 C116.464844,201.720052 115.591146,201.34375 114.445312,201.34375 C113.164062,201.34375 112.231771,201.802083 111.648438,202.71875 L111.648438,202.71875 L111.601562,202.71875 L111.453125,201.507812 L110.796875,201.507812 L110.796875,213.84375 L111.570312,213.84375 Z M114.414062,209.46875 C113.408854,209.46875 112.683594,209.184896 112.238281,208.617188 C111.792969,208.049479 111.570312,207.101562 111.570312,205.773438 L111.570312,205.773438 L111.570312,205.523438 C111.570312,204.294271 111.802083,203.407552 112.265625,202.863281 C112.729167,202.31901 113.455729,202.046875 114.445312,202.046875 C116.247396,202.046875 117.148438,203.294271 117.148438,205.789062 C117.148438,206.950521 116.910156,207.854167 116.433594,208.5 C115.957031,209.145833 115.283854,209.46875 114.414062,209.46875 Z M121.09375,213.84375 L121.09375,210.609375 C121.09375,210.151042 121.083333,209.729167 121.0625,209.34375 L121.0625,209.34375 L121.039062,208.6875 L121.09375,208.6875 C121.692708,209.666667 122.645833,210.15625 123.953125,210.15625 C125.046875,210.15625 125.910156,209.772135 126.542969,209.003906 C127.175781,208.235677 127.492188,207.153646 127.492188,205.757812 C127.492188,204.320312 127.191406,203.22526 126.589844,202.472656 C125.988281,201.720052 125.114583,201.34375 123.96875,201.34375 C122.6875,201.34375 121.755208,201.802083 121.171875,202.71875 L121.171875,202.71875 L121.125,202.71875 L120.976562,201.507812 L120.320312,201.507812 L120.320312,213.84375 L121.09375,213.84375 Z M123.9375,209.46875 C122.932292,209.46875 122.207031,209.184896 121.761719,208.617188 C121.316406,208.049479 121.09375,207.101562 121.09375,205.773438 L121.09375,205.773438 L121.09375,205.523438 C121.09375,204.294271 121.325521,203.407552 121.789062,202.863281 C122.252604,202.31901 122.979167,202.046875 123.96875,202.046875 C125.770833,202.046875 126.671875,203.294271 126.671875,205.789062 C126.671875,206.950521 126.433594,207.854167 125.957031,208.5 C125.480469,209.145833 124.807292,209.46875 123.9375,209.46875 Z M130.617188,210 L130.617188,197.84375 L129.84375,197.84375 L129.84375,210 L130.617188,210 Z M133.84375,199.90625 C134.005208,199.90625 134.13151,199.838542 134.222656,199.703125 C134.313802,199.567708 134.359375,199.382812 134.359375,199.148438 C134.359375,198.908854 134.313802,198.723958 134.222656,198.59375 C134.13151,198.463542 134.005208,198.398438 133.84375,198.398438 C133.515625,198.398438 133.351562,198.648438 133.351562,199.148438 C133.351562,199.653646 133.515625,199.90625 133.84375,199.90625 Z M134.234375,210 L134.234375,201.507812 L133.460938,201.507812 L133.460938,210 L134.234375,210 Z M140.46875,210.15625 C141.348958,210.15625 142.059896,210.023438 142.601562,209.757812 L142.601562,209.757812 L142.601562,209.039062 C141.940104,209.315104 141.223958,209.453125 140.453125,209.453125 C139.489583,209.453125 138.739583,209.128906 138.203125,208.480469 C137.666667,207.832031 137.398438,206.934896 137.398438,205.789062 C137.398438,204.580729 137.666667,203.654948 138.203125,203.011719 C138.739583,202.36849 139.528646,202.046875 140.570312,202.046875 C141.111979,202.046875 141.75,202.169271 142.484375,202.414062 L142.484375,202.414062 L142.695312,201.726562 C142.023438,201.471354 141.320312,201.34375 140.585938,201.34375 C139.346354,201.34375 138.369792,201.735677 137.65625,202.519531 C136.942708,203.303385 136.585938,204.398438 136.585938,205.804688 C136.585938,207.174479 136.929688,208.242188 137.617188,209.007812 C138.304688,209.773438 139.255208,210.15625 140.46875,210.15625 Z M146.664062,210.15625 C147.278646,210.15625 147.811198,210.042969 148.261719,209.816406 C148.71224,209.589844 149.151042,209.203125 149.578125,208.65625 L149.578125,208.65625 L149.640625,208.65625 L149.835938,210 L150.40625,210 L150.40625,204.351562 C150.40625,203.325521 150.175781,202.570312 149.714844,202.085938 C149.253906,201.601562 148.557292,201.359375 147.625,201.359375 C146.713542,201.359375 145.791667,201.578125 144.859375,202.015625 L144.859375,202.015625 L145.148438,202.6875 C145.992188,202.25 146.807292,202.03125 147.59375,202.03125 C148.322917,202.03125 148.851562,202.236979 149.179688,202.648438 C149.507812,203.059896 149.671875,203.669271 149.671875,204.476562 L149.671875,204.476562 L149.671875,205.039062 L148.054688,205.085938 C146.747396,205.111979 145.748698,205.354167 145.058594,205.8125 C144.36849,206.270833 144.023438,206.914062 144.023438,207.742188 C144.023438,208.497396 144.255208,209.088542 144.71875,209.515625 C145.182292,209.942708 145.830729,210.15625 146.664062,210.15625 Z M146.710938,209.453125 C146.117188,209.453125 145.657552,209.30599 145.332031,209.011719 C145.00651,208.717448 144.84375,208.304688 144.84375,207.773438 C144.84375,207.106771 145.097656,206.615885 145.605469,206.300781 C146.113281,205.985677 146.963542,205.799479 148.15625,205.742188 L148.15625,205.742188 L149.640625,205.679688 L149.640625,206.515625 C149.640625,207.4375 149.378906,208.157552 148.855469,208.675781 C148.332031,209.19401 147.617188,209.453125 146.710938,209.453125 Z M155.382812,210.15625 C155.872396,210.15625 156.304688,210.09375 156.679688,209.96875 L156.679688,209.96875 L156.679688,209.34375 C156.315104,209.427083 155.888021,209.46875 155.398438,209.46875 C154.908854,209.46875 154.549479,209.3125 154.320312,209 C154.091146,208.6875 153.976562,208.205729 153.976562,207.554688 L153.976562,207.554688 L153.976562,202.179688 L156.46875,202.179688 L156.46875,201.507812 L153.976562,201.507812 L153.976562,199.453125 L153.578125,199.453125 L153.1875,201.375 L151.929688,201.726562 L151.929688,202.179688 L153.1875,202.179688 L153.1875,207.664062 C153.1875,208.523438 153.365885,209.153646 153.722656,209.554688 C154.079427,209.955729 154.632812,210.15625 155.382812,210.15625 Z M158.898438,199.90625 C159.059896,199.90625 159.186198,199.838542 159.277344,199.703125 C159.36849,199.567708 159.414062,199.382812 159.414062,199.148438 C159.414062,198.908854 159.36849,198.723958 159.277344,198.59375 C159.186198,198.463542 159.059896,198.398438 158.898438,198.398438 C158.570312,198.398438 158.40625,198.648438 158.40625,199.148438 C158.40625,199.653646 158.570312,199.90625 158.898438,199.90625 Z M159.289062,210 L159.289062,201.507812 L158.515625,201.507812 L158.515625,210 L159.289062,210 Z M165.367188,210.15625 C166.549479,210.15625 167.476562,209.766927 168.148438,208.988281 C168.820312,208.209635 169.15625,207.127604 169.15625,205.742188 C169.15625,204.377604 168.824219,203.303385 168.160156,202.519531 C167.496094,201.735677 166.580729,201.34375 165.414062,201.34375 C164.242188,201.34375 163.320312,201.730469 162.648438,202.503906 C161.976562,203.277344 161.640625,204.356771 161.640625,205.742188 C161.640625,206.622396 161.791667,207.398438 162.09375,208.070312 C162.395833,208.742188 162.830729,209.257812 163.398438,209.617188 C163.966146,209.976562 164.622396,210.15625 165.367188,210.15625 Z M165.398438,209.453125 C164.460938,209.453125 163.735677,209.126302 163.222656,208.472656 C162.709635,207.81901 162.453125,206.908854 162.453125,205.742188 C162.453125,204.565104 162.707031,203.654948 163.214844,203.011719 C163.722656,202.36849 164.445312,202.046875 165.382812,202.046875 C166.320312,202.046875 167.048177,202.369792 167.566406,203.015625 C168.084635,203.661458 168.34375,204.570312 168.34375,205.742188 C168.34375,206.908854 168.08724,207.81901 167.574219,208.472656 C167.061198,209.126302 166.335938,209.453125 165.398438,209.453125 Z M172.28125,210 L172.28125,205.3125 C172.28125,204.161458 172.516927,203.329427 172.988281,202.816406 C173.459635,202.303385 174.203125,202.046875 175.21875,202.046875 C175.973958,202.046875 176.53125,202.240885 176.890625,202.628906 C177.25,203.016927 177.429688,203.638021 177.429688,204.492188 L177.429688,204.492188 L177.429688,210 L178.195312,210 L178.195312,204.445312 C178.195312,202.377604 177.231771,201.34375 175.304688,201.34375 C173.893229,201.34375 172.911458,201.786458 172.359375,202.671875 L172.359375,202.671875 L172.3125,202.671875 L172.164062,201.507812 L171.507812,201.507812 L171.507812,210 L172.28125,210 Z M182.882812,210.15625 C183.945312,210.15625 184.765625,209.951823 185.34375,209.542969 C185.921875,209.134115 186.210938,208.549479 186.210938,207.789062 C186.210938,207.408854 186.123698,207.078125 185.949219,206.796875 C185.77474,206.515625 185.513021,206.264323 185.164062,206.042969 C184.815104,205.821615 184.257812,205.572917 183.492188,205.296875 C182.575521,204.96875 181.959635,204.671875 181.644531,204.40625 C181.329427,204.140625 181.171875,203.786458 181.171875,203.34375 C181.171875,202.9375 181.375,202.619792 181.78125,202.390625 C182.1875,202.161458 182.736979,202.046875 183.429688,202.046875 C184.143229,202.046875 184.916667,202.21875 185.75,202.5625 L185.75,202.5625 L186.039062,201.859375 C185.216146,201.515625 184.346354,201.34375 183.429688,201.34375 C182.471354,201.34375 181.72526,201.528646 181.191406,201.898438 C180.657552,202.268229 180.390625,202.770833 180.390625,203.40625 C180.390625,203.807292 180.477865,204.147135 180.652344,204.425781 C180.826823,204.704427 181.085938,204.954427 181.429688,205.175781 C181.773438,205.397135 182.369792,205.661458 183.21875,205.96875 C184.010417,206.25 184.579427,206.536458 184.925781,206.828125 C185.272135,207.119792 185.445312,207.479167 185.445312,207.90625 C185.445312,208.369792 185.227865,208.740885 184.792969,209.019531 C184.358073,209.298177 183.721354,209.4375 182.882812,209.4375 C181.934896,209.4375 181.033854,209.223958 180.179688,208.796875 L180.179688,208.796875 L180.179688,209.632812 C180.846354,209.981771 181.747396,210.15625 182.882812,210.15625 Z M81.6757812,232.15625 C82.2903646,232.15625 82.8229167,232.042969 83.2734375,231.816406 C83.7239583,231.589844 84.1627604,231.203125 84.5898438,230.65625 L84.5898438,230.65625 L84.6523438,230.65625 L84.8476562,232 L85.4179688,232 L85.4179688,226.351562 C85.4179688,225.325521 85.1875,224.570312 84.7265625,224.085938 C84.265625,223.601562 83.5690104,223.359375 82.6367188,223.359375 C81.7252604,223.359375 80.8033854,223.578125 79.8710938,224.015625 L79.8710938,224.015625 L80.1601562,224.6875 C81.0039062,224.25 81.8190104,224.03125 82.6054688,224.03125 C83.3346354,224.03125 83.8632812,224.236979 84.1914062,224.648438 C84.5195312,225.059896 84.6835938,225.669271 84.6835938,226.476562 L84.6835938,226.476562 L84.6835938,227.039062 L83.0664062,227.085938 C81.7591146,227.111979 80.7604167,227.354167 80.0703125,227.8125 C79.3802083,228.270833 79.0351562,228.914062 79.0351562,229.742188 C79.0351562,230.497396 79.2669271,231.088542 79.7304688,231.515625 C80.1940104,231.942708 80.8424479,232.15625 81.6757812,232.15625 Z M81.7226562,231.453125 C81.1289062,231.453125 80.6692708,231.30599 80.34375,231.011719 C80.0182292,230.717448 79.8554688,230.304688 79.8554688,229.773438 C79.8554688,229.106771 80.109375,228.615885 80.6171875,228.300781 C81.125,227.985677 81.9752604,227.799479 83.1679688,227.742188 L83.1679688,227.742188 L84.6523438,227.679688 L84.6523438,228.515625 C84.6523438,229.4375 84.390625,230.157552 83.8671875,230.675781 C83.34375,231.19401 82.6289062,231.453125 81.7226562,231.453125 Z M90.9726562,232.15625 C92.3841146,232.15625 93.3658854,231.713542 93.9179688,230.828125 L93.9179688,230.828125 L93.9648438,230.828125 L94.1054688,232 L94.7617188,232 L94.7617188,223.507812 L93.9960938,223.507812 L93.9960938,228.195312 C93.9960938,229.346354 93.7578125,230.177083 93.28125,230.6875 C92.8046875,231.197917 92.0611979,231.453125 91.0507812,231.453125 C90.2955729,231.453125 89.7382812,231.259115 89.3789062,230.871094 C89.0195312,230.483073 88.8398438,229.861979 88.8398438,229.007812 L88.8398438,229.007812 L88.8398438,223.507812 L88.0742188,223.507812 L88.0742188,229.054688 C88.0742188,231.122396 89.0403646,232.15625 90.9726562,232.15625 Z M100.730469,232.15625 C101.938802,232.15625 102.865885,231.671875 103.511719,230.703125 L103.511719,230.703125 L103.574219,230.703125 L103.769531,232 L104.277344,232 L104.277344,219.84375 L103.511719,219.84375 L103.511719,222.898438 C103.511719,223.528646 103.527344,224.171875 103.558594,224.828125 L103.558594,224.828125 L103.511719,224.828125 C103.157552,224.286458 102.75651,223.903646 102.308594,223.679688 C101.860677,223.455729 101.329427,223.34375 100.714844,223.34375 C99.5429688,223.34375 98.6497396,223.731771 98.0351562,224.507812 C97.4205729,225.283854 97.1132812,226.40625 97.1132812,227.875 C97.1132812,229.270833 97.4231771,230.333333 98.0429688,231.0625 C98.6627604,231.791667 99.5585938,232.15625 100.730469,232.15625 Z M100.730469,231.46875 C98.8606771,231.46875 97.9257812,230.265625 97.9257812,227.859375 C97.9257812,226.619792 98.1588542,225.674479 98.625,225.023438 C99.0911458,224.372396 99.7877604,224.046875 100.714844,224.046875 C101.699219,224.046875 102.411458,224.334635 102.851562,224.910156 C103.291667,225.485677 103.511719,226.429688 103.511719,227.742188 L103.511719,227.742188 L103.511719,227.875 C103.511719,229.15625 103.28776,230.075521 102.839844,230.632812 C102.391927,231.190104 101.688802,231.46875 100.730469,231.46875 Z M107.511719,221.90625 C107.673177,221.90625 107.799479,221.838542 107.890625,221.703125 C107.981771,221.567708 108.027344,221.382812 108.027344,221.148438 C108.027344,220.908854 107.981771,220.723958 107.890625,220.59375 C107.799479,220.463542 107.673177,220.398438 107.511719,220.398438 C107.183594,220.398438 107.019531,220.648438 107.019531,221.148438 C107.019531,221.653646 107.183594,221.90625 107.511719,221.90625 Z M107.902344,232 L107.902344,223.507812 L107.128906,223.507812 L107.128906,232 L107.902344,232 Z M114.175781,232.15625 C114.665365,232.15625 115.113281,232.11849 115.519531,232.042969 C115.925781,231.967448 116.36849,231.825521 116.847656,231.617188 L116.847656,231.617188 L116.847656,230.914062 C116.285156,231.138021 115.820312,231.283854 115.453125,231.351562 C115.085938,231.419271 114.660156,231.453125 114.175781,231.453125 C113.18099,231.453125 112.416667,231.145833 111.882812,230.53125 C111.348958,229.916667 111.076823,229.026042 111.066406,227.859375 L111.066406,227.859375 L117.183594,227.859375 L117.183594,227.234375 C117.183594,226.036458 116.894531,225.088542 116.316406,224.390625 C115.738281,223.692708 114.949219,223.34375 113.949219,223.34375 C112.81901,223.34375 111.920573,223.751302 111.253906,224.566406 C110.58724,225.38151 110.253906,226.466146 110.253906,227.820312 C110.253906,229.190104 110.598958,230.255208 111.289062,231.015625 C111.979167,231.776042 112.941406,232.15625 114.175781,232.15625 Z M116.363281,227.171875 L111.113281,227.171875 C111.196615,226.15625 111.485677,225.378906 111.980469,224.839844 C112.47526,224.300781 113.13151,224.03125 113.949219,224.03125 C114.704427,224.03125 115.295573,224.308594 115.722656,224.863281 C116.14974,225.417969 116.363281,226.1875 116.363281,227.171875 L116.363281,227.171875 Z M120.300781,232 L120.300781,227.3125 C120.300781,226.161458 120.536458,225.329427 121.007812,224.816406 C121.479167,224.303385 122.222656,224.046875 123.238281,224.046875 C123.99349,224.046875 124.550781,224.240885 124.910156,224.628906 C125.269531,225.016927 125.449219,225.638021 125.449219,226.492188 L125.449219,226.492188 L125.449219,232 L126.214844,232 L126.214844,226.445312 C126.214844,224.377604 125.251302,223.34375 123.324219,223.34375 C121.91276,223.34375 120.93099,223.786458 120.378906,224.671875 L120.378906,224.671875 L120.332031,224.671875 L120.183594,223.507812 L119.527344,223.507812 L119.527344,232 L120.300781,232 Z M132.355469,232.15625 C133.235677,232.15625 133.946615,232.023438 134.488281,231.757812 L134.488281,231.757812 L134.488281,231.039062 C133.826823,231.315104 133.110677,231.453125 132.339844,231.453125 C131.376302,231.453125 130.626302,231.128906 130.089844,230.480469 C129.553385,229.832031 129.285156,228.934896 129.285156,227.789062 C129.285156,226.580729 129.553385,225.654948 130.089844,225.011719 C130.626302,224.36849 131.415365,224.046875 132.457031,224.046875 C132.998698,224.046875 133.636719,224.169271 134.371094,224.414062 L134.371094,224.414062 L134.582031,223.726562 C133.910156,223.471354 133.207031,223.34375 132.472656,223.34375 C131.233073,223.34375 130.25651,223.735677 129.542969,224.519531 C128.829427,225.303385 128.472656,226.398438 128.472656,227.804688 C128.472656,229.174479 128.816406,230.242188 129.503906,231.007812 C130.191406,231.773438 131.141927,232.15625 132.355469,232.15625 Z M139.996094,232.15625 C140.485677,232.15625 140.933594,232.11849 141.339844,232.042969 C141.746094,231.967448 142.188802,231.825521 142.667969,231.617188 L142.667969,231.617188 L142.667969,230.914062 C142.105469,231.138021 141.640625,231.283854 141.273438,231.351562 C140.90625,231.419271 140.480469,231.453125 139.996094,231.453125 C139.001302,231.453125 138.236979,231.145833 137.703125,230.53125 C137.169271,229.916667 136.897135,229.026042 136.886719,227.859375 L136.886719,227.859375 L143.003906,227.859375 L143.003906,227.234375 C143.003906,226.036458 142.714844,225.088542 142.136719,224.390625 C141.558594,223.692708 140.769531,223.34375 139.769531,223.34375 C138.639323,223.34375 137.740885,223.751302 137.074219,224.566406 C136.407552,225.38151 136.074219,226.466146 136.074219,227.820312 C136.074219,229.190104 136.419271,230.255208 137.109375,231.015625 C137.799479,231.776042 138.761719,232.15625 139.996094,232.15625 Z M142.183594,227.171875 L136.933594,227.171875 C137.016927,226.15625 137.30599,225.378906 137.800781,224.839844 C138.295573,224.300781 138.951823,224.03125 139.769531,224.03125 C140.52474,224.03125 141.115885,224.308594 141.542969,224.863281 C141.970052,225.417969 142.183594,226.1875 142.183594,227.171875 L142.183594,227.171875 Z M145.816406,232.15625 C146.24349,232.15625 146.457031,231.901042 146.457031,231.390625 C146.457031,230.880208 146.24349,230.625 145.816406,230.625 C145.39974,230.625 145.191406,230.880208 145.191406,231.390625 C145.191406,231.901042 145.39974,232.15625 145.816406,232.15625 Z" id="Developsstoriesthroughdesignandofersconversationswiththeapplicationsaudience." fill="#FFFFFF" fill-rule="nonzero"></path>
                <g id="icon/communicatir" transform="translate(84.000000, 20.000000)" fill="#FFFFFF">
                    <g id="computer">
                        <polygon id="Path" fill-rule="nonzero" points="5.70967742 19.3548387 9.51612903 19.3548387 9.51612903 21.2903226 5.70967742 21.2903226"></polygon>
                        <path d="M56.1451613,15.483871 C57.7189469,15.483871 59,14.1811051 59,12.5806452 L59,2.90322581 C59,1.30276585 57.7189469,0 56.1451613,0 L42.8225806,0 C41.248795,0 39.9677419,1.30276585 39.9677419,2.90322581 L39.9677419,12.5806452 C39.9677419,14.1811051 41.248795,15.483871 42.8225806,15.483871 L45.6774194,15.483871 L45.6774194,17.4193548 L43.7741935,17.4193548 L43.7741935,19.3548387 L48.5322581,19.3548387 L48.5322581,29.0322581 L44.6049962,29.0322581 C43.8457503,28.2785723 42.9108651,27.7016129 41.8644625,27.3840726 C41.8691091,27.2862588 41.8709677,27.1917527 41.8709677,27.0967742 C41.8709677,22.827936 38.4557554,19.3548387 34.2580645,19.3548387 C31.6536747,19.3548387 29.2328235,20.7327369 27.8462938,22.9366179 C26.8695896,22.4905494 25.8134292,22.2580645 24.7419355,22.2580645 C21.5836773,22.2580645 18.7399903,24.2823841 17.6276068,27.2517641 C16.904604,27.4095893 16.2308547,27.6921623 15.6189044,28.0645161 L8.56451613,28.0645161 L8.56451613,25.1612903 L12.3709677,25.1612903 C13.9447534,25.1612903 15.2258065,23.8585245 15.2258065,22.2580645 L15.2258065,2.90322581 C15.2258065,1.30276585 13.9447534,0 12.3709677,0 L2.85483871,0 C1.28105308,0 0,1.30276585 0,2.90322581 L0,22.2580645 C0,23.8585245 1.28105308,25.1612903 2.85483871,25.1612903 L6.66129032,25.1612903 L6.66129032,30 L13.5948683,30 C13.1901541,30.5873551 12.8760475,31.2356666 12.6697408,31.9354839 L8.56451613,31.9354839 L8.56451613,42.5806452 L4.75806452,42.5806452 C3.18427889,42.5806452 1.90322581,43.883411 1.90322581,45.483871 L1.90322581,54.1935484 L0,54.1935484 L0,57.0967742 C0,58.6972342 1.28105308,60 2.85483871,60 L18.0806452,60 C19.6544308,60 20.9354839,58.6972342 20.9354839,57.0967742 L20.9354839,54.1935484 L19.0322581,54.1935484 L19.0322581,45.483871 C19.0322581,43.883411 17.751205,42.5806452 16.1774194,42.5806452 L10.4677419,42.5806452 L10.4677419,33.8709677 L12.3709677,33.8709677 C12.3709677,37.6053743 15.3600916,40.6451613 19.0322581,40.6451613 L39.9677419,40.6451613 C43.3165087,40.6451613 46.0886388,38.1157069 46.5528289,34.8387097 L50.4354839,34.8387097 L50.4354839,42.5806452 L43.7741935,42.5806452 L43.7741935,60 L59,60 L59,42.5806452 L52.3387097,42.5806452 L52.3387097,32.9032258 L46.5491116,32.9032258 C46.4501402,32.2218373 46.2447628,31.5735256 45.9571414,30.9677419 L50.4354839,30.9677419 L50.4354839,19.3548387 L55.1935484,19.3548387 L55.1935484,17.4193548 L53.2903226,17.4193548 L53.2903226,15.483871 L56.1451613,15.483871 Z M13.3225806,15.483871 L1.90322581,15.483871 L1.90322581,5.80645161 L13.3225806,5.80645161 L13.3225806,15.483871 Z M2.85483871,1.93548387 L12.3709677,1.93548387 C12.8960275,1.93548387 13.3225806,2.36926669 13.3225806,2.90322581 L13.3225806,3.87096774 L1.90322581,3.87096774 L1.90322581,2.90322581 C1.90322581,2.36926669 2.32977892,1.93548387 2.85483871,1.93548387 Z M1.90322581,22.2580645 L1.90322581,17.4193548 L13.3225806,17.4193548 L13.3225806,22.2580645 C13.3225806,22.7920236 12.8960275,23.2258065 12.3709677,23.2258065 L2.85483871,23.2258065 C2.32977892,23.2258065 1.90322581,22.7920236 1.90322581,22.2580645 Z M19.0322581,57.0967742 C19.0322581,57.6307333 18.605705,58.0645161 18.0806452,58.0645161 L2.85483871,58.0645161 C2.32977892,58.0645161 1.90322581,57.6307333 1.90322581,57.0967742 L1.90322581,56.1290323 L19.0322581,56.1290323 L19.0322581,57.0967742 Z M17.1290323,45.483871 L17.1290323,54.1935484 L3.80645161,54.1935484 L3.80645161,45.483871 C3.80645161,44.9499119 4.23300472,44.516129 4.75806452,44.516129 L16.1774194,44.516129 C16.7024791,44.516129 17.1290323,44.9499119 17.1290323,45.483871 Z M45.6774194,58.0645161 L45.6774194,52.2580645 L57.0967742,52.2580645 L57.0967742,58.0645161 L45.6774194,58.0645161 Z M57.0967742,50.3225806 L45.6774194,50.3225806 L45.6774194,44.516129 L57.0967742,44.516129 L57.0967742,50.3225806 Z M39.9677419,38.7096774 L19.0322581,38.7096774 C16.4088174,38.7096774 14.2741935,36.5388735 14.2741935,33.8709677 C14.2741935,31.4246787 16.0747307,29.3611391 18.4611974,29.0710055 L19.0856934,28.9944556 L19.2617976,28.3801663 C19.9657494,25.9149761 22.2202542,24.1935484 24.7419355,24.1935484 C25.7925198,24.1935484 26.8240533,24.4936051 27.7282715,25.0596963 L28.6366716,25.6295678 L29.0897098,24.6452873 C30.0264538,22.6063193 32.0551364,21.2903226 34.2580645,21.2903226 C37.4070296,21.2903226 39.9677419,23.8944368 39.9677419,27.0967742 C39.9677419,27.3637537 39.9440445,27.648217 39.8924679,27.9917465 L39.7488895,28.9490927 L40.6898153,29.0941596 C42.9907856,29.4513924 44.7258065,31.5050088 44.7258065,33.8709677 C44.7258065,36.5388735 42.5911826,38.7096774 39.9677419,38.7096774 L39.9677419,38.7096774 Z M42.8225806,1.93548387 L56.1451613,1.93548387 C56.6702211,1.93548387 57.0967742,2.36926669 57.0967742,2.90322581 L57.0967742,9.67741935 L41.8709677,9.67741935 L41.8709677,2.90322581 C41.8709677,2.36926669 42.2975209,1.93548387 42.8225806,1.93548387 Z M41.8709677,12.5806452 L41.8709677,11.6129032 L57.0967742,11.6129032 L57.0967742,12.5806452 C57.0967742,13.1146043 56.6702211,13.5483871 56.1451613,13.5483871 L42.8225806,13.5483871 C42.2975209,13.5483871 41.8709677,13.1146043 41.8709677,12.5806452 Z M51.3870968,17.4193548 L47.5806452,17.4193548 L47.5806452,15.483871 L51.3870968,15.483871 L51.3870968,17.4193548 Z" id="Shape" fill-rule="nonzero"></path>
                        <polygon id="Path" fill-rule="nonzero" points="47.5806452 46.4516129 49.483871 46.4516129 49.483871 48.3870968 47.5806452 48.3870968"></polygon>
                        <polygon id="Path" fill-rule="nonzero" points="53.2903226 54.1935484 55.1935484 54.1935484 55.1935484 56.1290323 53.2903226 56.1290323"></polygon>
                        <polygon id="Path" fill-rule="nonzero" points="51.3870968 46.4516129 55.1935484 46.4516129 55.1935484 48.3870968 51.3870968 48.3870968"></polygon>
                        <polygon id="Path" fill-rule="nonzero" points="47.5806452 54.1935484 51.3870968 54.1935484 51.3870968 56.1290323 47.5806452 56.1290323"></polygon>
                    </g>
                </g>
            </g>
        </g>
    </g>
</svg>