<?xml version="1.0" encoding="UTF-8"?>
<svg width="226px" height="276px" viewBox="0 0 226 276" version="1.1" xmlns="http://www.w3.org/2000/svg" xmlns:xlink="http://www.w3.org/1999/xlink">
    <!-- Generator: Sketch 64 (93537) - https://sketch.com -->
    <title>listener_skillsskillssite</title>
    <desc>Created with Sketch.</desc>
    <g id="Page-1" stroke="none" stroke-width="1" fill="none" fill-rule="evenodd">
        <g id="Desktop" transform="translate(-518.000000, -1950.000000)">
            <g id="listener_skills" transform="translate(518.000000, 1950.000000)">
                <rect id="Rectangle" fill="#3B8089" x="0" y="0" width="226" height="276"></rect>
                <text id="Detective" font-family="OpenSans-Regular, Open Sans" font-size="20" font-weight="normal" fill="#FFFFFF">
                    <tspan x="75.5390625" y="111">Listener</tspan>
                </text>
                <text id="A-6th-sense-to-detec" font-family="OpenSans-Light, Open Sans" font-size="16" font-weight="300" fill="#FFFFFF">
                    <tspan x="27.7890625" y="144">Two ears that work with </tspan>
                    <tspan x="57.4765625" y="166">the intention to </tspan>
                    <tspan x="29.3632812" y="188">understand every bit of </tspan>
                    <tspan x="69.1757812" y="210">information.</tspan>
                </text>
                <g id="icon/Listener" transform="translate(84.000000, 20.000000)" fill="#FFFFFF">
                    <g id="listening">
                        <path d="M16.1774194,30 C16.1774194,30.5344317 15.751331,30.9677419 15.2258065,30.9677419 C14.7002819,30.9677419 14.2741935,30.5344317 14.2741935,30 C14.2741935,29.4655683 14.7002819,29.0322581 15.2258065,29.0322581 C15.751331,29.0322581 16.1774194,29.4655683 16.1774194,30 Z" id="Path" fill-rule="nonzero"></path>
                        <path d="M25.6935484,30 C25.6935484,30.5344317 25.26746,30.9677419 24.7419355,30.9677419 C24.2164109,30.9677419 23.7903226,30.5344317 23.7903226,30 C23.7903226,29.4655683 24.2164109,29.0322581 24.7419355,29.0322581 C25.26746,29.0322581 25.6935484,29.4655683 25.6935484,30 Z" id="Path" fill-rule="nonzero"></path>
                        <path d="M19.983871,38.7096774 C18.9342159,38.7096774 18.0806452,37.8416394 18.0806452,36.7741935 L16.1774194,36.7741935 C16.1774194,38.9090852 17.8845608,40.6451613 19.983871,40.6451613 C22.0831811,40.6451613 23.7903226,38.9090852 23.7903226,36.7741935 L21.8870968,36.7741935 C21.8870968,37.8416394 21.0335261,38.7096774 19.983871,38.7096774 Z" id="Path" fill-rule="nonzero"></path>
                        <polygon id="Path" fill-rule="nonzero" points="39.9677419 3.87096774 41.8709677 3.87096774 41.8709677 5.80645161 39.9677419 5.80645161"></polygon>
                        <polygon id="Path" fill-rule="nonzero" points="43.7741935 3.87096774 55.1935484 3.87096774 55.1935484 5.80645161 43.7741935 5.80645161"></polygon>
                        <polygon id="Path" fill-rule="nonzero" points="43.7741935 7.74193548 55.1935484 7.74193548 55.1935484 9.67741935 43.7741935 9.67741935"></polygon>
                        <polygon id="Path" fill-rule="nonzero" points="39.9677419 7.74193548 41.8709677 7.74193548 41.8709677 9.67741935 39.9677419 9.67741935"></polygon>
                        <polygon id="Path" fill-rule="nonzero" points="39.9677419 11.6129032 41.8709677 11.6129032 41.8709677 13.5483871 39.9677419 13.5483871"></polygon>
                        <polygon id="Path" fill-rule="nonzero" points="43.7741935 11.6129032 55.1935484 11.6129032 55.1935484 13.5483871 43.7741935 13.5483871"></polygon>
                        <path d="M56.1451613,17.4193548 C57.7189469,17.4193548 59,16.116589 59,14.516129 L59,2.90322581 C59,1.30276585 57.7189469,0 56.1451613,0 L39.016129,0 C37.4423434,0 36.1612903,1.30276585 36.1612903,2.90322581 L36.1612903,14.516129 C36.1612903,16.116589 37.4423434,17.4193548 39.016129,17.4193548 L43.7741935,17.4193548 L43.7741935,21.811996 L52.3387097,17.9410282 L52.3387097,25.1612903 C52.3387097,26.7617503 53.6197628,28.0645161 55.1935484,28.0645161 L56.1451613,28.0645161 C56.6702211,28.0645161 57.0967742,28.499244 57.0967742,29.0322581 L57.0967742,34.8387097 C57.0967742,35.3726688 56.6702211,35.8064516 56.1451613,35.8064516 L53.2903226,35.8064516 L53.2903226,33.8709677 L51.3870968,33.8709677 L51.3870968,37.7419355 L56.1451613,37.7419355 C57.7189469,37.7419355 59,36.4391696 59,34.8387097 L59,29.0322581 C59,27.4317981 57.7189469,26.1290323 56.1451613,26.1290323 L55.1935484,26.1290323 C54.6684886,26.1290323 54.2419355,25.6943044 54.2419355,25.1612903 L54.2419355,17.4193548 L56.1451613,17.4193548 Z M39.016129,15.483871 C38.4910692,15.483871 38.0645161,15.0491431 38.0645161,14.516129 L38.0645161,2.90322581 C38.0645161,2.37021169 38.4910692,1.93548387 39.016129,1.93548387 L56.1451613,1.93548387 C56.6702211,1.93548387 57.0967742,2.37021169 57.0967742,2.90322581 L57.0967742,14.516129 C57.0967742,15.0491431 56.6702211,15.483871 56.1451613,15.483871 L53.0886625,15.483871 L45.6774194,18.8331653 L45.6774194,15.483871 L39.016129,15.483871 Z" id="Shape" fill-rule="nonzero"></path>
                        <path d="M38.0645161,38.7096774 L38.0645161,40.6451613 C38.0645161,41.1791204 37.637963,41.6129032 37.1129032,41.6129032 L35.2096774,41.6129032 C34.6846176,41.6129032 34.2580645,41.1791204 34.2580645,40.6451613 L34.2580645,35.2838332 C35.422954,34.2201676 36.1612903,32.6825542 36.1612903,30.9677419 L36.1612903,23.2258065 C36.1612903,14.1541708 28.9043127,6.77419355 19.983871,6.77419355 C11.0634293,6.77419355 3.80645161,14.1541708 3.80645161,23.2258065 L3.80645161,30.9677419 C3.80645161,34.1700794 6.3671639,36.7741935 9.51612903,36.7741935 L9.69780906,36.7741935 C10.295355,40.0653667 12.3844427,42.8263609 15.2258065,44.3091607 L15.2258065,45.6969821 L5.04661508,48.2855027 C2.07561274,49.0391885 0,51.7411164 0,54.8565083 L0,60 L39.9677419,60 L39.9677419,54.8565083 C39.9677419,51.7411164 37.8921292,49.0391885 34.9211269,48.2855027 L24.7419355,45.6969821 L24.7419355,44.3091607 C27.5832992,42.8263609 29.6723869,40.0663118 30.2699329,36.7741935 L30.4516129,36.7741935 C31.1197865,36.7741935 31.758222,36.6503906 32.3548387,36.4353894 L32.3548387,40.6451613 C32.3548387,42.2456212 33.6358918,43.5483871 35.2096774,43.5483871 L37.1129032,43.5483871 C38.6866889,43.5483871 39.9677419,42.2456212 39.9677419,40.6451613 L39.9677419,38.7096774 C39.9677419,38.1757183 40.394295,37.7419355 40.9193548,37.7419355 L43.7741935,37.7419355 L43.7741935,39.6774194 L45.6774194,39.6774194 L45.6774194,35.8064516 L40.9193548,35.8064516 C39.3455692,35.8064516 38.0645161,37.1092175 38.0645161,38.7096774 Z M19.983871,8.70967742 C27.8546576,8.70967742 34.2580645,15.2216167 34.2580645,23.2258065 L34.2580645,26.6516506 C33.7079133,26.1493511 33.0648311,25.7552608 32.3548387,25.5000945 L32.3548387,23.2258065 C32.3548387,16.2890625 26.8050025,10.6451613 19.983871,10.6451613 C13.1627394,10.6451613 7.61290323,16.2890625 7.61290323,23.2258065 L7.61290323,25.5000945 C6.90291079,25.7566784 6.25982863,26.1502961 5.70967742,26.6516506 L5.70967742,23.2258065 C5.70967742,15.2216167 12.1130843,8.70967742 19.983871,8.70967742 Z M5.70967742,30.9677419 C5.70967742,28.8328502 7.41681887,27.0967742 9.51612903,27.0967742 L9.55144279,27.0967742 C9.53703847,27.2914567 9.51612903,27.4847215 9.51612903,27.6822392 L9.51612903,34.8387097 C7.41681887,34.8387097 5.70967742,33.1026336 5.70967742,30.9677419 Z M9.95383385,25.1612903 L9.51612903,25.1612903 L9.51612903,23.2258065 C9.51612903,17.3565083 14.2123945,12.5806452 19.983871,12.5806452 C25.7553474,12.5806452 30.4516129,17.3565083 30.4516129,23.2258065 L30.4516129,25.1612903 L24.1736627,25.1612903 C20.4596774,25.1612903 16.8167843,23.8618321 13.9173387,21.5024886 L13.3741574,21.0602003 L12.7951975,21.452873 C11.4574565,22.3596585 10.4793583,23.6680948 9.95383385,25.1612903 Z M15.8851516,47.522839 L18.6382308,50.3225806 L15.5979949,53.4134009 L13.6366872,48.0950731 L15.8851516,47.522839 Z M1.90322581,54.8565083 C1.90322581,52.631836 3.3859391,50.7020225 5.50708795,50.1619204 L11.7771389,48.5671308 L14.853618,56.9082346 L19.0322581,52.6587702 L19.0322581,58.0645161 L9.51612903,58.0645161 L9.51612903,54.1935484 L7.61290323,54.1935484 L7.61290323,58.0645161 L1.90322581,58.0645161 L1.90322581,54.8565083 Z M38.0645161,54.8565083 L38.0645161,58.0645161 L32.3548387,58.0645161 L32.3548387,54.1935484 L30.4516129,54.1935484 L30.4516129,58.0645161 L20.9354839,58.0645161 L20.9354839,52.6587702 L25.1141239,56.9082346 L28.190603,48.5671308 L34.460654,50.1619204 C36.5818028,50.7020225 38.0645161,52.631836 38.0645161,54.8565083 Z M26.3310547,48.0950731 L24.3697471,53.4134009 L21.3295111,50.3225806 L24.0825904,47.522839 L26.3310547,48.0950731 Z M22.8387097,46.0509073 L19.983871,48.9541331 L17.1290323,46.0509073 L17.1290323,45.0718246 C18.0378969,45.3340789 18.9932271,45.483871 19.983871,45.483871 C20.9745149,45.483871 21.929845,45.3340789 22.8387097,45.0718246 L22.8387097,46.0509073 Z M28.5483871,34.8387097 C28.5483871,39.6415071 24.7066217,43.5483871 19.983871,43.5483871 C15.2611202,43.5483871 11.4193548,39.6415071 11.4193548,34.8387097 L11.4193548,27.6822392 C11.4193548,26.0496472 12.1186602,24.5205393 13.3179342,23.4734123 C16.4515657,25.8152722 20.2779974,27.0967742 24.1736627,27.0967742 L28.5483871,27.0967742 L28.5483871,34.8387097 Z M30.4516129,27.0967742 C32.5509231,27.0967742 34.2580645,28.8328502 34.2580645,30.9677419 C34.2580645,33.1026336 32.5509231,34.8387097 30.4516129,34.8387097 L30.4516129,27.0967742 Z" id="Shape" fill-rule="nonzero"></path>
                        <polygon id="Path" fill-rule="nonzero" points="47.5806452 33.8709677 49.483871 33.8709677 49.483871 39.6774194 47.5806452 39.6774194"></polygon>
                    </g>
                </g>
            </g>
        </g>
    </g>
</svg>