<?xml version="1.0" encoding="UTF-8"?>
<svg width="226px" height="276px" viewBox="0 0 226 276" version="1.1" xmlns="http://www.w3.org/2000/svg" xmlns:xlink="http://www.w3.org/1999/xlink">
    <!-- Generator: Sketch 64 (93537) - https://sketch.com -->
    <title>skillssitelistener_skills</title>
    <desc>Created with Sketch.</desc>
    <g id="Page-1" stroke="none" stroke-width="1" fill="none" fill-rule="evenodd">
        <g id="Desktop" transform="translate(-518.000000, -1950.000000)">
            <g id="listener_skills" transform="translate(518.000000, 1950.000000)">
                <rect id="Rectangle" fill="#2D3C6B" x="0" y="0" width="226" height="276"></rect>
                <path d="M85.4609375,111 L85.4609375,109.496094 L79.1621094,109.496094 L79.1621094,96.7226562 L77.5019531,96.7226562 L77.5019531,111 L85.4609375,111 Z M88.4589844,98.4804688 C88.719401,98.4804688 88.9440104,98.3909505 89.1328125,98.2119141 C89.3216146,98.0328776 89.4160156,97.7610677 89.4160156,97.3964844 C89.4160156,97.031901 89.3216146,96.7617188 89.1328125,96.5859375 C88.9440104,96.4101562 88.719401,96.3222656 88.4589844,96.3222656 C88.1855469,96.3222656 87.9576823,96.4085286 87.7753906,96.5810547 C87.593099,96.7535807 87.5019531,97.0253906 87.5019531,97.3964844 C87.5019531,97.7610677 87.593099,98.0328776 87.7753906,98.2119141 C87.9576823,98.3909505 88.1855469,98.4804688 88.4589844,98.4804688 Z M89.2597656,111 L89.2597656,100.296875 L87.6386719,100.296875 L87.6386719,111 L89.2597656,111 Z M95.3632812,111.195312 C96.7044271,111.195312 97.7460938,110.92513 98.4882812,110.384766 C99.2304688,109.844401 99.6015625,109.076172 99.6015625,108.080078 C99.6015625,107.370443 99.3785807,106.78125 98.9326172,106.3125 C98.4866536,105.84375 97.6289062,105.378255 96.359375,104.916016 C95.4348958,104.570964 94.8098958,104.307292 94.484375,104.125 C94.1588542,103.942708 93.9228516,103.750651 93.7763672,103.548828 C93.6298828,103.347005 93.5566406,103.102865 93.5566406,102.816406 C93.5566406,102.393229 93.7519531,102.061198 94.1425781,101.820312 C94.5332031,101.579427 95.1126302,101.458984 95.8808594,101.458984 C96.7532552,101.458984 97.7265625,101.680339 98.8007812,102.123047 L98.8007812,102.123047 L99.3769531,100.804688 C98.2766927,100.335938 97.1503906,100.101562 95.9980469,100.101562 C94.7610677,100.101562 93.7877604,100.353841 93.078125,100.858398 C92.3684896,101.362956 92.0136719,102.051432 92.0136719,102.923828 C92.0136719,103.412109 92.1162109,103.832031 92.3212891,104.183594 C92.5263672,104.535156 92.8388672,104.849284 93.2587891,105.125977 C93.6787109,105.402669 94.3867188,105.726562 95.3828125,106.097656 C96.4309896,106.501302 97.1357422,106.851237 97.4970703,107.147461 C97.8583984,107.443685 98.0390625,107.80013 98.0390625,108.216797 C98.0390625,108.770182 97.8111979,109.181966 97.3554688,109.452148 C96.8997396,109.722331 96.2486979,109.857422 95.4023438,109.857422 C94.8554688,109.857422 94.2874349,109.782552 93.6982422,109.632812 C93.1090495,109.483073 92.5572917,109.277995 92.0429688,109.017578 L92.0429688,109.017578 L92.0429688,110.521484 C92.8372396,110.970703 93.9440104,111.195312 95.3632812,111.195312 Z M105.460938,111.195312 C105.734375,111.195312 106.041992,111.167643 106.383789,111.112305 C106.725586,111.056966 106.984375,110.986979 107.160156,110.902344 L107.160156,110.902344 L107.160156,109.662109 C107.003906,109.707682 106.792318,109.751628 106.525391,109.793945 C106.258464,109.836263 105.981771,109.857422 105.695312,109.857422 C105.161458,109.857422 104.741536,109.684896 104.435547,109.339844 C104.129557,108.994792 103.976562,108.5 103.976562,107.855469 L103.976562,107.855469 L103.976562,101.556641 L107.082031,101.556641 L107.082031,100.296875 L103.976562,100.296875 L103.976562,97.8164062 L103.039062,97.8164062 L102.355469,100.101562 L100.822266,100.775391 L100.822266,101.556641 L102.355469,101.556641 L102.355469,107.923828 C102.355469,110.104818 103.390625,111.195312 105.460938,111.195312 Z M113.820312,111.195312 C114.542969,111.195312 115.159831,111.141602 115.670898,111.03418 C116.181966,110.926758 116.723958,110.749349 117.296875,110.501953 L117.296875,110.501953 L117.296875,109.056641 C116.170573,109.538411 115.03125,109.779297 113.878906,109.779297 C112.785156,109.779297 111.937174,109.453776 111.334961,108.802734 C110.732747,108.151693 110.415365,107.197917 110.382812,105.941406 L110.382812,105.941406 L117.755859,105.941406 L117.755859,104.916016 C117.755859,103.470703 117.365234,102.306966 116.583984,101.424805 C115.802734,100.542643 114.741536,100.101562 113.400391,100.101562 C111.968099,100.101562 110.827148,100.609375 109.977539,101.625 C109.12793,102.640625 108.703125,104.011068 108.703125,105.736328 C108.703125,107.448568 109.160482,108.786458 110.075195,109.75 C110.989909,110.713542 112.238281,111.195312 113.820312,111.195312 Z M116.017578,104.623047 L110.421875,104.623047 C110.513021,103.633464 110.814128,102.858724 111.325195,102.298828 C111.836263,101.738932 112.521484,101.458984 113.380859,101.458984 C114.227214,101.458984 114.878255,101.730794 115.333984,102.274414 C115.789714,102.818034 116.017578,103.600911 116.017578,104.623047 L116.017578,104.623047 Z M122.140625,111 L122.140625,105.384766 C122.140625,103.991536 122.401042,102.992188 122.921875,102.386719 C123.442708,101.78125 124.263021,101.478516 125.382812,101.478516 C126.229167,101.478516 126.850911,101.693359 127.248047,102.123047 C127.645182,102.552734 127.84375,103.203776 127.84375,104.076172 L127.84375,104.076172 L127.84375,111 L129.464844,111 L129.464844,104.017578 C129.464844,102.650391 129.139323,101.655924 128.488281,101.03418 C127.83724,100.412435 126.867188,100.101562 125.578125,100.101562 C124.842448,100.101562 124.17513,100.246419 123.576172,100.536133 C122.977214,100.825846 122.511719,101.234375 122.179688,101.761719 L122.179688,101.761719 L122.101562,101.761719 L121.837891,100.296875 L120.519531,100.296875 L120.519531,111 L122.140625,111 Z M137.316406,111.195312 C138.039062,111.195312 138.655924,111.141602 139.166992,111.03418 C139.67806,110.926758 140.220052,110.749349 140.792969,110.501953 L140.792969,110.501953 L140.792969,109.056641 C139.666667,109.538411 138.527344,109.779297 137.375,109.779297 C136.28125,109.779297 135.433268,109.453776 134.831055,108.802734 C134.228841,108.151693 133.911458,107.197917 133.878906,105.941406 L133.878906,105.941406 L141.251953,105.941406 L141.251953,104.916016 C141.251953,103.470703 140.861328,102.306966 140.080078,101.424805 C139.298828,100.542643 138.23763,100.101562 136.896484,100.101562 C135.464193,100.101562 134.323242,100.609375 133.473633,101.625 C132.624023,102.640625 132.199219,104.011068 132.199219,105.736328 C132.199219,107.448568 132.656576,108.786458 133.571289,109.75 C134.486003,110.713542 135.734375,111.195312 137.316406,111.195312 Z M139.513672,104.623047 L133.917969,104.623047 C134.009115,103.633464 134.310221,102.858724 134.821289,102.298828 C135.332357,101.738932 136.017578,101.458984 136.876953,101.458984 C137.723307,101.458984 138.374349,101.730794 138.830078,102.274414 C139.285807,102.818034 139.513672,103.600911 139.513672,104.623047 L139.513672,104.623047 Z M145.636719,111 L145.636719,105.257812 C145.636719,104.209635 145.944336,103.333984 146.55957,102.630859 C147.174805,101.927734 147.915365,101.576172 148.78125,101.576172 C149.119792,101.576172 149.510417,101.625 149.953125,101.722656 L149.953125,101.722656 L150.177734,100.21875 C149.80013,100.140625 149.373698,100.101562 148.898438,100.101562 C148.227865,100.101562 147.61263,100.290365 147.052734,100.667969 C146.492839,101.045573 146.014323,101.582682 145.617188,102.279297 L145.617188,102.279297 L145.539062,102.279297 L145.353516,100.296875 L144.015625,100.296875 L144.015625,111 L145.636719,111 Z" id="Listener" fill="#FFFFFF" fill-rule="nonzero"></path>
                <path d="M32.3828125,144 L32.3828125,133.328125 L36.09375,133.328125 L36.09375,132.578125 L27.8671875,132.578125 L27.8671875,133.328125 L31.578125,133.328125 L31.578125,144 L32.3828125,144 Z M39.609375,144 L41.5,138.335938 L41.8515625,137.203125 L42.015625,136.625 L42.0625,136.625 C42.25,137.369792 42.4036458,137.934896 42.5234375,138.320312 L42.5234375,138.320312 L44.3828125,144 L45.1953125,144 L47.5,135.507812 L46.71875,135.507812 L45.421875,140.382812 C45.046875,141.856771 44.8385417,142.763021 44.796875,143.101562 L44.796875,143.101562 L44.75,143.101562 C44.6666667,142.705729 44.4375,141.895833 44.0625,140.671875 L44.0625,140.671875 L42.3984375,135.507812 L41.6953125,135.507812 L39.9453125,140.6875 C39.8046875,141.088542 39.5807292,141.898438 39.2734375,143.117188 L39.2734375,143.117188 L39.2265625,143.117188 C39.1276042,142.544271 38.9192708,141.648438 38.6015625,140.429688 L38.6015625,140.429688 L37.2421875,135.507812 L36.4140625,135.507812 L38.84375,144 L39.609375,144 Z M52.3984375,144.15625 C53.5807292,144.15625 54.5078125,143.766927 55.1796875,142.988281 C55.8515625,142.209635 56.1875,141.127604 56.1875,139.742188 C56.1875,138.377604 55.8554688,137.303385 55.1914062,136.519531 C54.5273438,135.735677 53.6119792,135.34375 52.4453125,135.34375 C51.2734375,135.34375 50.3515625,135.730469 49.6796875,136.503906 C49.0078125,137.277344 48.671875,138.356771 48.671875,139.742188 C48.671875,140.622396 48.8229167,141.398438 49.125,142.070312 C49.4270833,142.742188 49.8619792,143.257812 50.4296875,143.617188 C50.9973958,143.976562 51.6536458,144.15625 52.3984375,144.15625 Z M52.4296875,143.453125 C51.4921875,143.453125 50.7669271,143.126302 50.2539062,142.472656 C49.7408854,141.81901 49.484375,140.908854 49.484375,139.742188 C49.484375,138.565104 49.7382812,137.654948 50.2460938,137.011719 C50.7539062,136.36849 51.4765625,136.046875 52.4140625,136.046875 C53.3515625,136.046875 54.0794271,136.369792 54.5976562,137.015625 C55.1158854,137.661458 55.375,138.570312 55.375,139.742188 C55.375,140.908854 55.1184896,141.81901 54.6054688,142.472656 C54.0924479,143.126302 53.3671875,143.453125 52.4296875,143.453125 Z M66.125,144.15625 C66.6145833,144.15625 67.0625,144.11849 67.46875,144.042969 C67.875,143.967448 68.3177083,143.825521 68.796875,143.617188 L68.796875,143.617188 L68.796875,142.914062 C68.234375,143.138021 67.7695312,143.283854 67.4023438,143.351562 C67.0351562,143.419271 66.609375,143.453125 66.125,143.453125 C65.1302083,143.453125 64.3658854,143.145833 63.8320312,142.53125 C63.2981771,141.916667 63.0260417,141.026042 63.015625,139.859375 L63.015625,139.859375 L69.1328125,139.859375 L69.1328125,139.234375 C69.1328125,138.036458 68.84375,137.088542 68.265625,136.390625 C67.6875,135.692708 66.8984375,135.34375 65.8984375,135.34375 C64.7682292,135.34375 63.8697917,135.751302 63.203125,136.566406 C62.5364583,137.38151 62.203125,138.466146 62.203125,139.820312 C62.203125,141.190104 62.5481771,142.255208 63.2382812,143.015625 C63.9283854,143.776042 64.890625,144.15625 66.125,144.15625 Z M68.3125,139.171875 L63.0625,139.171875 C63.1458333,138.15625 63.4348958,137.378906 63.9296875,136.839844 C64.4244792,136.300781 65.0807292,136.03125 65.8984375,136.03125 C66.6536458,136.03125 67.2447917,136.308594 67.671875,136.863281 C68.0989583,137.417969 68.3125,138.1875 68.3125,139.171875 L68.3125,139.171875 Z M73.4609375,144.15625 C74.0755208,144.15625 74.6080729,144.042969 75.0585938,143.816406 C75.5091146,143.589844 75.9479167,143.203125 76.375,142.65625 L76.375,142.65625 L76.4375,142.65625 L76.6328125,144 L77.203125,144 L77.203125,138.351562 C77.203125,137.325521 76.9726562,136.570312 76.5117188,136.085938 C76.0507812,135.601562 75.3541667,135.359375 74.421875,135.359375 C73.5104167,135.359375 72.5885417,135.578125 71.65625,136.015625 L71.65625,136.015625 L71.9453125,136.6875 C72.7890625,136.25 73.6041667,136.03125 74.390625,136.03125 C75.1197917,136.03125 75.6484375,136.236979 75.9765625,136.648438 C76.3046875,137.059896 76.46875,137.669271 76.46875,138.476562 L76.46875,138.476562 L76.46875,139.039062 L74.8515625,139.085938 C73.5442708,139.111979 72.5455729,139.354167 71.8554688,139.8125 C71.1653646,140.270833 70.8203125,140.914062 70.8203125,141.742188 C70.8203125,142.497396 71.0520833,143.088542 71.515625,143.515625 C71.9791667,143.942708 72.6276042,144.15625 73.4609375,144.15625 Z M73.5078125,143.453125 C72.9140625,143.453125 72.4544271,143.30599 72.1289062,143.011719 C71.8033854,142.717448 71.640625,142.304688 71.640625,141.773438 C71.640625,141.106771 71.8945312,140.615885 72.4023438,140.300781 C72.9101562,139.985677 73.7604167,139.799479 74.953125,139.742188 L74.953125,139.742188 L76.4375,139.679688 L76.4375,140.515625 C76.4375,141.4375 76.1757812,142.157552 75.6523438,142.675781 C75.1289062,143.19401 74.4140625,143.453125 73.5078125,143.453125 Z M80.7265625,144 L80.7265625,139.3125 C80.7265625,138.375 80.9583333,137.598958 81.421875,136.984375 C81.8854167,136.369792 82.4791667,136.0625 83.203125,136.0625 C83.5833333,136.0625 83.9505208,136.106771 84.3046875,136.195312 L84.3046875,136.195312 L84.453125,135.453125 C84.0416667,135.380208 83.65625,135.34375 83.296875,135.34375 C82.734375,135.34375 82.2552083,135.470052 81.859375,135.722656 C81.4635417,135.97526 81.0911458,136.414062 80.7421875,137.039062 L80.7421875,137.039062 L80.6875,137.039062 L80.609375,135.507812 L79.953125,135.507812 L79.953125,144 L80.7265625,144 Z M88.1171875,144.15625 C89.1796875,144.15625 90,143.951823 90.578125,143.542969 C91.15625,143.134115 91.4453125,142.549479 91.4453125,141.789062 C91.4453125,141.408854 91.3580729,141.078125 91.1835938,140.796875 C91.0091146,140.515625 90.7473958,140.264323 90.3984375,140.042969 C90.0494792,139.821615 89.4921875,139.572917 88.7265625,139.296875 C87.8098958,138.96875 87.1940104,138.671875 86.8789062,138.40625 C86.5638021,138.140625 86.40625,137.786458 86.40625,137.34375 C86.40625,136.9375 86.609375,136.619792 87.015625,136.390625 C87.421875,136.161458 87.9713542,136.046875 88.6640625,136.046875 C89.3776042,136.046875 90.1510417,136.21875 90.984375,136.5625 L90.984375,136.5625 L91.2734375,135.859375 C90.4505208,135.515625 89.5807292,135.34375 88.6640625,135.34375 C87.7057292,135.34375 86.9596354,135.528646 86.4257812,135.898438 C85.8919271,136.268229 85.625,136.770833 85.625,137.40625 C85.625,137.807292 85.7122396,138.147135 85.8867188,138.425781 C86.0611979,138.704427 86.3203125,138.954427 86.6640625,139.175781 C87.0078125,139.397135 87.6041667,139.661458 88.453125,139.96875 C89.2447917,140.25 89.8138021,140.536458 90.1601562,140.828125 C90.5065104,141.119792 90.6796875,141.479167 90.6796875,141.90625 C90.6796875,142.369792 90.4622396,142.740885 90.0273438,143.019531 C89.5924479,143.298177 88.9557292,143.4375 88.1171875,143.4375 C87.1692708,143.4375 86.2682292,143.223958 85.4140625,142.796875 L85.4140625,142.796875 L85.4140625,143.632812 C86.0807292,143.981771 86.9817708,144.15625 88.1171875,144.15625 Z M100.015625,144.15625 C100.505208,144.15625 100.9375,144.09375 101.3125,143.96875 L101.3125,143.96875 L101.3125,143.34375 C100.947917,143.427083 100.520833,143.46875 100.03125,143.46875 C99.5416667,143.46875 99.1822917,143.3125 98.953125,143 C98.7239583,142.6875 98.609375,142.205729 98.609375,141.554688 L98.609375,141.554688 L98.609375,136.179688 L101.101562,136.179688 L101.101562,135.507812 L98.609375,135.507812 L98.609375,133.453125 L98.2109375,133.453125 L97.8203125,135.375 L96.5625,135.726562 L96.5625,136.179688 L97.8203125,136.179688 L97.8203125,141.664062 C97.8203125,142.523438 97.9986979,143.153646 98.3554688,143.554688 C98.7122396,143.955729 99.265625,144.15625 100.015625,144.15625 Z M103.921875,144 L103.921875,139.3125 C103.921875,138.161458 104.157552,137.329427 104.628906,136.816406 C105.10026,136.303385 105.84375,136.046875 106.859375,136.046875 C107.614583,136.046875 108.171875,136.240885 108.53125,136.628906 C108.890625,137.016927 109.070312,137.638021 109.070312,138.492188 L109.070312,138.492188 L109.070312,144 L109.835938,144 L109.835938,138.445312 C109.835938,136.377604 108.872396,135.34375 106.945312,135.34375 C106.226562,135.34375 105.625,135.458333 105.140625,135.6875 C104.65625,135.916667 104.255208,136.286458 103.9375,136.796875 L103.9375,136.796875 L103.882812,136.796875 L103.921875,135.710938 L103.921875,131.84375 L103.148438,131.84375 L103.148438,144 L103.921875,144 Z M114.570312,144.15625 C115.184896,144.15625 115.717448,144.042969 116.167969,143.816406 C116.61849,143.589844 117.057292,143.203125 117.484375,142.65625 L117.484375,142.65625 L117.546875,142.65625 L117.742188,144 L118.3125,144 L118.3125,138.351562 C118.3125,137.325521 118.082031,136.570312 117.621094,136.085938 C117.160156,135.601562 116.463542,135.359375 115.53125,135.359375 C114.619792,135.359375 113.697917,135.578125 112.765625,136.015625 L112.765625,136.015625 L113.054688,136.6875 C113.898438,136.25 114.713542,136.03125 115.5,136.03125 C116.229167,136.03125 116.757812,136.236979 117.085938,136.648438 C117.414062,137.059896 117.578125,137.669271 117.578125,138.476562 L117.578125,138.476562 L117.578125,139.039062 L115.960938,139.085938 C114.653646,139.111979 113.654948,139.354167 112.964844,139.8125 C112.27474,140.270833 111.929688,140.914062 111.929688,141.742188 C111.929688,142.497396 112.161458,143.088542 112.625,143.515625 C113.088542,143.942708 113.736979,144.15625 114.570312,144.15625 Z M114.617188,143.453125 C114.023438,143.453125 113.563802,143.30599 113.238281,143.011719 C112.91276,142.717448 112.75,142.304688 112.75,141.773438 C112.75,141.106771 113.003906,140.615885 113.511719,140.300781 C114.019531,139.985677 114.869792,139.799479 116.0625,139.742188 L116.0625,139.742188 L117.546875,139.679688 L117.546875,140.515625 C117.546875,141.4375 117.285156,142.157552 116.761719,142.675781 C116.238281,143.19401 115.523438,143.453125 114.617188,143.453125 Z M123.289062,144.15625 C123.778646,144.15625 124.210938,144.09375 124.585938,143.96875 L124.585938,143.96875 L124.585938,143.34375 C124.221354,143.427083 123.794271,143.46875 123.304688,143.46875 C122.815104,143.46875 122.455729,143.3125 122.226562,143 C121.997396,142.6875 121.882812,142.205729 121.882812,141.554688 L121.882812,141.554688 L121.882812,136.179688 L124.375,136.179688 L124.375,135.507812 L121.882812,135.507812 L121.882812,133.453125 L121.484375,133.453125 L121.09375,135.375 L119.835938,135.726562 L119.835938,136.179688 L121.09375,136.179688 L121.09375,141.664062 C121.09375,142.523438 121.272135,143.153646 121.628906,143.554688 C121.985677,143.955729 122.539062,144.15625 123.289062,144.15625 Z M132.59375,144 L134.484375,138.335938 L134.835938,137.203125 L135,136.625 L135.046875,136.625 C135.234375,137.369792 135.388021,137.934896 135.507812,138.320312 L135.507812,138.320312 L137.367188,144 L138.179688,144 L140.484375,135.507812 L139.703125,135.507812 L138.40625,140.382812 C138.03125,141.856771 137.822917,142.763021 137.78125,143.101562 L137.78125,143.101562 L137.734375,143.101562 C137.651042,142.705729 137.421875,141.895833 137.046875,140.671875 L137.046875,140.671875 L135.382812,135.507812 L134.679688,135.507812 L132.929688,140.6875 C132.789062,141.088542 132.565104,141.898438 132.257812,143.117188 L132.257812,143.117188 L132.210938,143.117188 C132.111979,142.544271 131.903646,141.648438 131.585938,140.429688 L131.585938,140.429688 L130.226562,135.507812 L129.398438,135.507812 L131.828125,144 L132.59375,144 Z M145.382812,144.15625 C146.565104,144.15625 147.492188,143.766927 148.164062,142.988281 C148.835938,142.209635 149.171875,141.127604 149.171875,139.742188 C149.171875,138.377604 148.839844,137.303385 148.175781,136.519531 C147.511719,135.735677 146.596354,135.34375 145.429688,135.34375 C144.257812,135.34375 143.335938,135.730469 142.664062,136.503906 C141.992188,137.277344 141.65625,138.356771 141.65625,139.742188 C141.65625,140.622396 141.807292,141.398438 142.109375,142.070312 C142.411458,142.742188 142.846354,143.257812 143.414062,143.617188 C143.981771,143.976562 144.638021,144.15625 145.382812,144.15625 Z M145.414062,143.453125 C144.476562,143.453125 143.751302,143.126302 143.238281,142.472656 C142.72526,141.81901 142.46875,140.908854 142.46875,139.742188 C142.46875,138.565104 142.722656,137.654948 143.230469,137.011719 C143.738281,136.36849 144.460938,136.046875 145.398438,136.046875 C146.335938,136.046875 147.063802,136.369792 147.582031,137.015625 C148.10026,137.661458 148.359375,138.570312 148.359375,139.742188 C148.359375,140.908854 148.102865,141.81901 147.589844,142.472656 C147.076823,143.126302 146.351562,143.453125 145.414062,143.453125 Z M152.296875,144 L152.296875,139.3125 C152.296875,138.375 152.528646,137.598958 152.992188,136.984375 C153.455729,136.369792 154.049479,136.0625 154.773438,136.0625 C155.153646,136.0625 155.520833,136.106771 155.875,136.195312 L155.875,136.195312 L156.023438,135.453125 C155.611979,135.380208 155.226562,135.34375 154.867188,135.34375 C154.304688,135.34375 153.825521,135.470052 153.429688,135.722656 C153.033854,135.97526 152.661458,136.414062 152.3125,137.039062 L152.3125,137.039062 L152.257812,137.039062 L152.179688,135.507812 L151.523438,135.507812 L151.523438,144 L152.296875,144 Z M158.523438,144 L158.523438,140.976562 L159.914062,139.710938 L163.140625,144 L164.070312,144 L160.4375,139.132812 L163.78125,135.507812 L162.84375,135.507812 L158.507812,140.273438 L158.46875,140.273438 L158.523438,137.9375 L158.523438,131.84375 L157.75,131.84375 L157.75,144 L158.523438,144 Z M171.664062,144 L173.554688,138.335938 L173.90625,137.203125 L174.070312,136.625 L174.117188,136.625 C174.304688,137.369792 174.458333,137.934896 174.578125,138.320312 L174.578125,138.320312 L176.4375,144 L177.25,144 L179.554688,135.507812 L178.773438,135.507812 L177.476562,140.382812 C177.101562,141.856771 176.893229,142.763021 176.851562,143.101562 L176.851562,143.101562 L176.804688,143.101562 C176.721354,142.705729 176.492188,141.895833 176.117188,140.671875 L176.117188,140.671875 L174.453125,135.507812 L173.75,135.507812 L172,140.6875 C171.859375,141.088542 171.635417,141.898438 171.328125,143.117188 L171.328125,143.117188 L171.28125,143.117188 C171.182292,142.544271 170.973958,141.648438 170.65625,140.429688 L170.65625,140.429688 L169.296875,135.507812 L168.46875,135.507812 L170.898438,144 L171.664062,144 Z M181.601562,133.90625 C181.763021,133.90625 181.889323,133.838542 181.980469,133.703125 C182.071615,133.567708 182.117188,133.382812 182.117188,133.148438 C182.117188,132.908854 182.071615,132.723958 181.980469,132.59375 C181.889323,132.463542 181.763021,132.398438 181.601562,132.398438 C181.273438,132.398438 181.109375,132.648438 181.109375,133.148438 C181.109375,133.653646 181.273438,133.90625 181.601562,133.90625 Z M181.992188,144 L181.992188,135.507812 L181.21875,135.507812 L181.21875,144 L181.992188,144 Z M187.0625,144.15625 C187.552083,144.15625 187.984375,144.09375 188.359375,143.96875 L188.359375,143.96875 L188.359375,143.34375 C187.994792,143.427083 187.567708,143.46875 187.078125,143.46875 C186.588542,143.46875 186.229167,143.3125 186,143 C185.770833,142.6875 185.65625,142.205729 185.65625,141.554688 L185.65625,141.554688 L185.65625,136.179688 L188.148438,136.179688 L188.148438,135.507812 L185.65625,135.507812 L185.65625,133.453125 L185.257812,133.453125 L184.867188,135.375 L183.609375,135.726562 L183.609375,136.179688 L184.867188,136.179688 L184.867188,141.664062 C184.867188,142.523438 185.045573,143.153646 185.402344,143.554688 C185.759115,143.955729 186.3125,144.15625 187.0625,144.15625 Z M190.96875,144 L190.96875,139.3125 C190.96875,138.161458 191.204427,137.329427 191.675781,136.816406 C192.147135,136.303385 192.890625,136.046875 193.90625,136.046875 C194.661458,136.046875 195.21875,136.240885 195.578125,136.628906 C195.9375,137.016927 196.117188,137.638021 196.117188,138.492188 L196.117188,138.492188 L196.117188,144 L196.882812,144 L196.882812,138.445312 C196.882812,136.377604 195.919271,135.34375 193.992188,135.34375 C193.273438,135.34375 192.671875,135.458333 192.1875,135.6875 C191.703125,135.916667 191.302083,136.286458 190.984375,136.796875 L190.984375,136.796875 L190.929688,136.796875 L190.96875,135.710938 L190.96875,131.84375 L190.195312,131.84375 L190.195312,144 L190.96875,144 Z M61.125,166.15625 C61.6145833,166.15625 62.046875,166.09375 62.421875,165.96875 L62.421875,165.96875 L62.421875,165.34375 C62.0572917,165.427083 61.6302083,165.46875 61.140625,165.46875 C60.6510417,165.46875 60.2916667,165.3125 60.0625,165 C59.8333333,164.6875 59.71875,164.205729 59.71875,163.554688 L59.71875,163.554688 L59.71875,158.179688 L62.2109375,158.179688 L62.2109375,157.507812 L59.71875,157.507812 L59.71875,155.453125 L59.3203125,155.453125 L58.9296875,157.375 L57.671875,157.726562 L57.671875,158.179688 L58.9296875,158.179688 L58.9296875,163.664062 C58.9296875,164.523438 59.1080729,165.153646 59.4648438,165.554688 C59.8216146,165.955729 60.375,166.15625 61.125,166.15625 Z M65.03125,166 L65.03125,161.3125 C65.03125,160.161458 65.2669271,159.329427 65.7382812,158.816406 C66.2096354,158.303385 66.953125,158.046875 67.96875,158.046875 C68.7239583,158.046875 69.28125,158.240885 69.640625,158.628906 C70,159.016927 70.1796875,159.638021 70.1796875,160.492188 L70.1796875,160.492188 L70.1796875,166 L70.9453125,166 L70.9453125,160.445312 C70.9453125,158.377604 69.9817708,157.34375 68.0546875,157.34375 C67.3359375,157.34375 66.734375,157.458333 66.25,157.6875 C65.765625,157.916667 65.3645833,158.286458 65.046875,158.796875 L65.046875,158.796875 L64.9921875,158.796875 L65.03125,157.710938 L65.03125,153.84375 L64.2578125,153.84375 L64.2578125,166 L65.03125,166 Z M77.125,166.15625 C77.6145833,166.15625 78.0625,166.11849 78.46875,166.042969 C78.875,165.967448 79.3177083,165.825521 79.796875,165.617188 L79.796875,165.617188 L79.796875,164.914062 C79.234375,165.138021 78.7695312,165.283854 78.4023438,165.351562 C78.0351562,165.419271 77.609375,165.453125 77.125,165.453125 C76.1302083,165.453125 75.3658854,165.145833 74.8320312,164.53125 C74.2981771,163.916667 74.0260417,163.026042 74.015625,161.859375 L74.015625,161.859375 L80.1328125,161.859375 L80.1328125,161.234375 C80.1328125,160.036458 79.84375,159.088542 79.265625,158.390625 C78.6875,157.692708 77.8984375,157.34375 76.8984375,157.34375 C75.7682292,157.34375 74.8697917,157.751302 74.203125,158.566406 C73.5364583,159.38151 73.203125,160.466146 73.203125,161.820312 C73.203125,163.190104 73.5481771,164.255208 74.2382812,165.015625 C74.9283854,165.776042 75.890625,166.15625 77.125,166.15625 Z M79.3125,161.171875 L74.0625,161.171875 C74.1458333,160.15625 74.4348958,159.378906 74.9296875,158.839844 C75.4244792,158.300781 76.0807292,158.03125 76.8984375,158.03125 C77.6536458,158.03125 78.2447917,158.308594 78.671875,158.863281 C79.0989583,159.417969 79.3125,160.1875 79.3125,161.171875 L79.3125,161.171875 Z M87.015625,155.90625 C87.1770833,155.90625 87.3033854,155.838542 87.3945312,155.703125 C87.4856771,155.567708 87.53125,155.382812 87.53125,155.148438 C87.53125,154.908854 87.4856771,154.723958 87.3945312,154.59375 C87.3033854,154.463542 87.1770833,154.398438 87.015625,154.398438 C86.6875,154.398438 86.5234375,154.648438 86.5234375,155.148438 C86.5234375,155.653646 86.6875,155.90625 87.015625,155.90625 Z M87.40625,166 L87.40625,157.507812 L86.6328125,157.507812 L86.6328125,166 L87.40625,166 Z M91.0234375,166 L91.0234375,161.3125 C91.0234375,160.161458 91.2591146,159.329427 91.7304688,158.816406 C92.2018229,158.303385 92.9453125,158.046875 93.9609375,158.046875 C94.7161458,158.046875 95.2734375,158.240885 95.6328125,158.628906 C95.9921875,159.016927 96.171875,159.638021 96.171875,160.492188 L96.171875,160.492188 L96.171875,166 L96.9375,166 L96.9375,160.445312 C96.9375,158.377604 95.9739583,157.34375 94.046875,157.34375 C92.6354167,157.34375 91.6536458,157.786458 91.1015625,158.671875 L91.1015625,158.671875 L91.0546875,158.671875 L90.90625,157.507812 L90.25,157.507812 L90.25,166 L91.0234375,166 Z M101.914062,166.15625 C102.403646,166.15625 102.835938,166.09375 103.210938,165.96875 L103.210938,165.96875 L103.210938,165.34375 C102.846354,165.427083 102.419271,165.46875 101.929688,165.46875 C101.440104,165.46875 101.080729,165.3125 100.851562,165 C100.622396,164.6875 100.507812,164.205729 100.507812,163.554688 L100.507812,163.554688 L100.507812,158.179688 L103,158.179688 L103,157.507812 L100.507812,157.507812 L100.507812,155.453125 L100.109375,155.453125 L99.71875,157.375 L98.4609375,157.726562 L98.4609375,158.179688 L99.71875,158.179688 L99.71875,163.664062 C99.71875,164.523438 99.8971354,165.153646 100.253906,165.554688 C100.610677,165.955729 101.164062,166.15625 101.914062,166.15625 Z M108.476562,166.15625 C108.966146,166.15625 109.414062,166.11849 109.820312,166.042969 C110.226562,165.967448 110.669271,165.825521 111.148438,165.617188 L111.148438,165.617188 L111.148438,164.914062 C110.585938,165.138021 110.121094,165.283854 109.753906,165.351562 C109.386719,165.419271 108.960938,165.453125 108.476562,165.453125 C107.481771,165.453125 106.717448,165.145833 106.183594,164.53125 C105.64974,163.916667 105.377604,163.026042 105.367188,161.859375 L105.367188,161.859375 L111.484375,161.859375 L111.484375,161.234375 C111.484375,160.036458 111.195312,159.088542 110.617188,158.390625 C110.039062,157.692708 109.25,157.34375 108.25,157.34375 C107.119792,157.34375 106.221354,157.751302 105.554688,158.566406 C104.888021,159.38151 104.554688,160.466146 104.554688,161.820312 C104.554688,163.190104 104.89974,164.255208 105.589844,165.015625 C106.279948,165.776042 107.242188,166.15625 108.476562,166.15625 Z M110.664062,161.171875 L105.414062,161.171875 C105.497396,160.15625 105.786458,159.378906 106.28125,158.839844 C106.776042,158.300781 107.432292,158.03125 108.25,158.03125 C109.005208,158.03125 109.596354,158.308594 110.023438,158.863281 C110.450521,159.417969 110.664062,160.1875 110.664062,161.171875 L110.664062,161.171875 Z M114.601562,166 L114.601562,161.3125 C114.601562,160.161458 114.83724,159.329427 115.308594,158.816406 C115.779948,158.303385 116.523438,158.046875 117.539062,158.046875 C118.294271,158.046875 118.851562,158.240885 119.210938,158.628906 C119.570312,159.016927 119.75,159.638021 119.75,160.492188 L119.75,160.492188 L119.75,166 L120.515625,166 L120.515625,160.445312 C120.515625,158.377604 119.552083,157.34375 117.625,157.34375 C116.213542,157.34375 115.231771,157.786458 114.679688,158.671875 L114.679688,158.671875 L114.632812,158.671875 L114.484375,157.507812 L113.828125,157.507812 L113.828125,166 L114.601562,166 Z M125.492188,166.15625 C125.981771,166.15625 126.414062,166.09375 126.789062,165.96875 L126.789062,165.96875 L126.789062,165.34375 C126.424479,165.427083 125.997396,165.46875 125.507812,165.46875 C125.018229,165.46875 124.658854,165.3125 124.429688,165 C124.200521,164.6875 124.085938,164.205729 124.085938,163.554688 L124.085938,163.554688 L124.085938,158.179688 L126.578125,158.179688 L126.578125,157.507812 L124.085938,157.507812 L124.085938,155.453125 L123.6875,155.453125 L123.296875,157.375 L122.039062,157.726562 L122.039062,158.179688 L123.296875,158.179688 L123.296875,163.664062 C123.296875,164.523438 123.47526,165.153646 123.832031,165.554688 C124.188802,165.955729 124.742188,166.15625 125.492188,166.15625 Z M129.007812,155.90625 C129.169271,155.90625 129.295573,155.838542 129.386719,155.703125 C129.477865,155.567708 129.523438,155.382812 129.523438,155.148438 C129.523438,154.908854 129.477865,154.723958 129.386719,154.59375 C129.295573,154.463542 129.169271,154.398438 129.007812,154.398438 C128.679688,154.398438 128.515625,154.648438 128.515625,155.148438 C128.515625,155.653646 128.679688,155.90625 129.007812,155.90625 Z M129.398438,166 L129.398438,157.507812 L128.625,157.507812 L128.625,166 L129.398438,166 Z M135.476562,166.15625 C136.658854,166.15625 137.585938,165.766927 138.257812,164.988281 C138.929688,164.209635 139.265625,163.127604 139.265625,161.742188 C139.265625,160.377604 138.933594,159.303385 138.269531,158.519531 C137.605469,157.735677 136.690104,157.34375 135.523438,157.34375 C134.351562,157.34375 133.429688,157.730469 132.757812,158.503906 C132.085938,159.277344 131.75,160.356771 131.75,161.742188 C131.75,162.622396 131.901042,163.398438 132.203125,164.070312 C132.505208,164.742188 132.940104,165.257812 133.507812,165.617188 C134.075521,165.976562 134.731771,166.15625 135.476562,166.15625 Z M135.507812,165.453125 C134.570312,165.453125 133.845052,165.126302 133.332031,164.472656 C132.81901,163.81901 132.5625,162.908854 132.5625,161.742188 C132.5625,160.565104 132.816406,159.654948 133.324219,159.011719 C133.832031,158.36849 134.554688,158.046875 135.492188,158.046875 C136.429688,158.046875 137.157552,158.369792 137.675781,159.015625 C138.19401,159.661458 138.453125,160.570312 138.453125,161.742188 C138.453125,162.908854 138.196615,163.81901 137.683594,164.472656 C137.170573,165.126302 136.445312,165.453125 135.507812,165.453125 Z M142.390625,166 L142.390625,161.3125 C142.390625,160.161458 142.626302,159.329427 143.097656,158.816406 C143.56901,158.303385 144.3125,158.046875 145.328125,158.046875 C146.083333,158.046875 146.640625,158.240885 147,158.628906 C147.359375,159.016927 147.539062,159.638021 147.539062,160.492188 L147.539062,160.492188 L147.539062,166 L148.304688,166 L148.304688,160.445312 C148.304688,158.377604 147.341146,157.34375 145.414062,157.34375 C144.002604,157.34375 143.020833,157.786458 142.46875,158.671875 L142.46875,158.671875 L142.421875,158.671875 L142.273438,157.507812 L141.617188,157.507812 L141.617188,166 L142.390625,166 Z M157.4375,166.15625 C157.927083,166.15625 158.359375,166.09375 158.734375,165.96875 L158.734375,165.96875 L158.734375,165.34375 C158.369792,165.427083 157.942708,165.46875 157.453125,165.46875 C156.963542,165.46875 156.604167,165.3125 156.375,165 C156.145833,164.6875 156.03125,164.205729 156.03125,163.554688 L156.03125,163.554688 L156.03125,158.179688 L158.523438,158.179688 L158.523438,157.507812 L156.03125,157.507812 L156.03125,155.453125 L155.632812,155.453125 L155.242188,157.375 L153.984375,157.726562 L153.984375,158.179688 L155.242188,158.179688 L155.242188,163.664062 C155.242188,164.523438 155.420573,165.153646 155.777344,165.554688 C156.134115,165.955729 156.6875,166.15625 157.4375,166.15625 Z M163.804688,166.15625 C164.986979,166.15625 165.914062,165.766927 166.585938,164.988281 C167.257812,164.209635 167.59375,163.127604 167.59375,161.742188 C167.59375,160.377604 167.261719,159.303385 166.597656,158.519531 C165.933594,157.735677 165.018229,157.34375 163.851562,157.34375 C162.679688,157.34375 161.757812,157.730469 161.085938,158.503906 C160.414062,159.277344 160.078125,160.356771 160.078125,161.742188 C160.078125,162.622396 160.229167,163.398438 160.53125,164.070312 C160.833333,164.742188 161.268229,165.257812 161.835938,165.617188 C162.403646,165.976562 163.059896,166.15625 163.804688,166.15625 Z M163.835938,165.453125 C162.898438,165.453125 162.173177,165.126302 161.660156,164.472656 C161.147135,163.81901 160.890625,162.908854 160.890625,161.742188 C160.890625,160.565104 161.144531,159.654948 161.652344,159.011719 C162.160156,158.36849 162.882812,158.046875 163.820312,158.046875 C164.757812,158.046875 165.485677,158.369792 166.003906,159.015625 C166.522135,159.661458 166.78125,160.570312 166.78125,161.742188 C166.78125,162.908854 166.52474,163.81901 166.011719,164.472656 C165.498698,165.126302 164.773438,165.453125 163.835938,165.453125 Z M33.5898438,188.15625 C35.0013021,188.15625 35.9830729,187.713542 36.5351562,186.828125 L36.5351562,186.828125 L36.5820312,186.828125 L36.7226562,188 L37.3789062,188 L37.3789062,179.507812 L36.6132812,179.507812 L36.6132812,184.195312 C36.6132812,185.346354 36.375,186.177083 35.8984375,186.6875 C35.421875,187.197917 34.6783854,187.453125 33.6679688,187.453125 C32.9127604,187.453125 32.3554688,187.259115 31.9960938,186.871094 C31.6367188,186.483073 31.4570312,185.861979 31.4570312,185.007812 L31.4570312,185.007812 L31.4570312,179.507812 L30.6914062,179.507812 L30.6914062,185.054688 C30.6914062,187.122396 31.6575521,188.15625 33.5898438,188.15625 Z M40.9960938,188 L40.9960938,183.3125 C40.9960938,182.161458 41.2317708,181.329427 41.703125,180.816406 C42.1744792,180.303385 42.9179688,180.046875 43.9335938,180.046875 C44.6888021,180.046875 45.2460938,180.240885 45.6054688,180.628906 C45.9648438,181.016927 46.1445312,181.638021 46.1445312,182.492188 L46.1445312,182.492188 L46.1445312,188 L46.9101562,188 L46.9101562,182.445312 C46.9101562,180.377604 45.9466146,179.34375 44.0195312,179.34375 C42.6080729,179.34375 41.6263021,179.786458 41.0742188,180.671875 L41.0742188,180.671875 L41.0273438,180.671875 L40.8789062,179.507812 L40.2226562,179.507812 L40.2226562,188 L40.9960938,188 Z M52.7851562,188.15625 C53.9934896,188.15625 54.9205729,187.671875 55.5664062,186.703125 L55.5664062,186.703125 L55.6289062,186.703125 L55.8242188,188 L56.3320312,188 L56.3320312,175.84375 L55.5664062,175.84375 L55.5664062,178.898438 C55.5664062,179.528646 55.5820312,180.171875 55.6132812,180.828125 L55.6132812,180.828125 L55.5664062,180.828125 C55.2122396,180.286458 54.8111979,179.903646 54.3632812,179.679688 C53.9153646,179.455729 53.3841146,179.34375 52.7695312,179.34375 C51.5976562,179.34375 50.7044271,179.731771 50.0898438,180.507812 C49.4752604,181.283854 49.1679688,182.40625 49.1679688,183.875 C49.1679688,185.270833 49.4778646,186.333333 50.0976562,187.0625 C50.7174479,187.791667 51.6132812,188.15625 52.7851562,188.15625 Z M52.7851562,187.46875 C50.9153646,187.46875 49.9804688,186.265625 49.9804688,183.859375 C49.9804688,182.619792 50.2135417,181.674479 50.6796875,181.023438 C51.1458333,180.372396 51.8424479,180.046875 52.7695312,180.046875 C53.7539062,180.046875 54.4661458,180.334635 54.90625,180.910156 C55.3463542,181.485677 55.5664062,182.429688 55.5664062,183.742188 L55.5664062,183.742188 L55.5664062,183.875 C55.5664062,185.15625 55.3424479,186.075521 54.8945312,186.632812 C54.4466146,187.190104 53.7434896,187.46875 52.7851562,187.46875 Z M62.6132812,188.15625 C63.1028646,188.15625 63.5507812,188.11849 63.9570312,188.042969 C64.3632812,187.967448 64.8059896,187.825521 65.2851562,187.617188 L65.2851562,187.617188 L65.2851562,186.914062 C64.7226562,187.138021 64.2578125,187.283854 63.890625,187.351562 C63.5234375,187.419271 63.0976562,187.453125 62.6132812,187.453125 C61.6184896,187.453125 60.8541667,187.145833 60.3203125,186.53125 C59.7864583,185.916667 59.5143229,185.026042 59.5039062,183.859375 L59.5039062,183.859375 L65.6210938,183.859375 L65.6210938,183.234375 C65.6210938,182.036458 65.3320312,181.088542 64.7539062,180.390625 C64.1757812,179.692708 63.3867188,179.34375 62.3867188,179.34375 C61.2565104,179.34375 60.3580729,179.751302 59.6914062,180.566406 C59.0247396,181.38151 58.6914062,182.466146 58.6914062,183.820312 C58.6914062,185.190104 59.0364583,186.255208 59.7265625,187.015625 C60.4166667,187.776042 61.3789062,188.15625 62.6132812,188.15625 Z M64.8007812,183.171875 L59.5507812,183.171875 C59.6341146,182.15625 59.9231771,181.378906 60.4179688,180.839844 C60.9127604,180.300781 61.5690104,180.03125 62.3867188,180.03125 C63.1419271,180.03125 63.7330729,180.308594 64.1601562,180.863281 C64.5872396,181.417969 64.8007812,182.1875 64.8007812,183.171875 L64.8007812,183.171875 Z M68.7382812,188 L68.7382812,183.3125 C68.7382812,182.375 68.9700521,181.598958 69.4335938,180.984375 C69.8971354,180.369792 70.4908854,180.0625 71.2148438,180.0625 C71.5950521,180.0625 71.9622396,180.106771 72.3164062,180.195312 L72.3164062,180.195312 L72.4648438,179.453125 C72.0533854,179.380208 71.6679688,179.34375 71.3085938,179.34375 C70.7460938,179.34375 70.2669271,179.470052 69.8710938,179.722656 C69.4752604,179.97526 69.1028646,180.414062 68.7539062,181.039062 L68.7539062,181.039062 L68.6992188,181.039062 L68.6210938,179.507812 L67.9648438,179.507812 L67.9648438,188 L68.7382812,188 Z M76.1289062,188.15625 C77.1914062,188.15625 78.0117188,187.951823 78.5898438,187.542969 C79.1679688,187.134115 79.4570312,186.549479 79.4570312,185.789062 C79.4570312,185.408854 79.3697917,185.078125 79.1953125,184.796875 C79.0208333,184.515625 78.7591146,184.264323 78.4101562,184.042969 C78.0611979,183.821615 77.5039062,183.572917 76.7382812,183.296875 C75.8216146,182.96875 75.2057292,182.671875 74.890625,182.40625 C74.5755208,182.140625 74.4179688,181.786458 74.4179688,181.34375 C74.4179688,180.9375 74.6210938,180.619792 75.0273438,180.390625 C75.4335938,180.161458 75.9830729,180.046875 76.6757812,180.046875 C77.3893229,180.046875 78.1627604,180.21875 78.9960938,180.5625 L78.9960938,180.5625 L79.2851562,179.859375 C78.4622396,179.515625 77.5924479,179.34375 76.6757812,179.34375 C75.7174479,179.34375 74.9713542,179.528646 74.4375,179.898438 C73.9036458,180.268229 73.6367188,180.770833 73.6367188,181.40625 C73.6367188,181.807292 73.7239583,182.147135 73.8984375,182.425781 C74.0729167,182.704427 74.3320312,182.954427 74.6757812,183.175781 C75.0195312,183.397135 75.6158854,183.661458 76.4648438,183.96875 C77.2565104,184.25 77.8255208,184.536458 78.171875,184.828125 C78.5182292,185.119792 78.6914062,185.479167 78.6914062,185.90625 C78.6914062,186.369792 78.4739583,186.740885 78.0390625,187.019531 C77.6041667,187.298177 76.9674479,187.4375 76.1289062,187.4375 C75.1809896,187.4375 74.2799479,187.223958 73.4257812,186.796875 L73.4257812,186.796875 L73.4257812,187.632812 C74.0924479,187.981771 74.9934896,188.15625 76.1289062,188.15625 Z M83.8710938,188.15625 C84.3606771,188.15625 84.7929688,188.09375 85.1679688,187.96875 L85.1679688,187.96875 L85.1679688,187.34375 C84.8033854,187.427083 84.3763021,187.46875 83.8867188,187.46875 C83.3971354,187.46875 83.0377604,187.3125 82.8085938,187 C82.5794271,186.6875 82.4648438,186.205729 82.4648438,185.554688 L82.4648438,185.554688 L82.4648438,180.179688 L84.9570312,180.179688 L84.9570312,179.507812 L82.4648438,179.507812 L82.4648438,177.453125 L82.0664062,177.453125 L81.6757812,179.375 L80.4179688,179.726562 L80.4179688,180.179688 L81.6757812,180.179688 L81.6757812,185.664062 C81.6757812,186.523438 81.8541667,187.153646 82.2109375,187.554688 C82.5677083,187.955729 83.1210938,188.15625 83.8710938,188.15625 Z M88.9882812,188.15625 C89.6028646,188.15625 90.1354167,188.042969 90.5859375,187.816406 C91.0364583,187.589844 91.4752604,187.203125 91.9023438,186.65625 L91.9023438,186.65625 L91.9648438,186.65625 L92.1601562,188 L92.7304688,188 L92.7304688,182.351562 C92.7304688,181.325521 92.5,180.570312 92.0390625,180.085938 C91.578125,179.601562 90.8815104,179.359375 89.9492188,179.359375 C89.0377604,179.359375 88.1158854,179.578125 87.1835938,180.015625 L87.1835938,180.015625 L87.4726562,180.6875 C88.3164062,180.25 89.1315104,180.03125 89.9179688,180.03125 C90.6471354,180.03125 91.1757812,180.236979 91.5039062,180.648438 C91.8320312,181.059896 91.9960938,181.669271 91.9960938,182.476562 L91.9960938,182.476562 L91.9960938,183.039062 L90.3789062,183.085938 C89.0716146,183.111979 88.0729167,183.354167 87.3828125,183.8125 C86.6927083,184.270833 86.3476562,184.914062 86.3476562,185.742188 C86.3476562,186.497396 86.5794271,187.088542 87.0429688,187.515625 C87.5065104,187.942708 88.1549479,188.15625 88.9882812,188.15625 Z M89.0351562,187.453125 C88.4414062,187.453125 87.9817708,187.30599 87.65625,187.011719 C87.3307292,186.717448 87.1679688,186.304688 87.1679688,185.773438 C87.1679688,185.106771 87.421875,184.615885 87.9296875,184.300781 C88.4375,183.985677 89.2877604,183.799479 90.4804688,183.742188 L90.4804688,183.742188 L91.9648438,183.679688 L91.9648438,184.515625 C91.9648438,185.4375 91.703125,186.157552 91.1796875,186.675781 C90.65625,187.19401 89.9414062,187.453125 89.0351562,187.453125 Z M96.2539062,188 L96.2539062,183.3125 C96.2539062,182.161458 96.4895833,181.329427 96.9609375,180.816406 C97.4322917,180.303385 98.1757812,180.046875 99.1914062,180.046875 C99.9466146,180.046875 100.503906,180.240885 100.863281,180.628906 C101.222656,181.016927 101.402344,181.638021 101.402344,182.492188 L101.402344,182.492188 L101.402344,188 L102.167969,188 L102.167969,182.445312 C102.167969,180.377604 101.204427,179.34375 99.2773438,179.34375 C97.8658854,179.34375 96.8841146,179.786458 96.3320312,180.671875 L96.3320312,180.671875 L96.2851562,180.671875 L96.1367188,179.507812 L95.4804688,179.507812 L95.4804688,188 L96.2539062,188 Z M108.042969,188.15625 C109.251302,188.15625 110.178385,187.671875 110.824219,186.703125 L110.824219,186.703125 L110.886719,186.703125 L111.082031,188 L111.589844,188 L111.589844,175.84375 L110.824219,175.84375 L110.824219,178.898438 C110.824219,179.528646 110.839844,180.171875 110.871094,180.828125 L110.871094,180.828125 L110.824219,180.828125 C110.470052,180.286458 110.06901,179.903646 109.621094,179.679688 C109.173177,179.455729 108.641927,179.34375 108.027344,179.34375 C106.855469,179.34375 105.96224,179.731771 105.347656,180.507812 C104.733073,181.283854 104.425781,182.40625 104.425781,183.875 C104.425781,185.270833 104.735677,186.333333 105.355469,187.0625 C105.97526,187.791667 106.871094,188.15625 108.042969,188.15625 Z M108.042969,187.46875 C106.173177,187.46875 105.238281,186.265625 105.238281,183.859375 C105.238281,182.619792 105.471354,181.674479 105.9375,181.023438 C106.403646,180.372396 107.10026,180.046875 108.027344,180.046875 C109.011719,180.046875 109.723958,180.334635 110.164062,180.910156 C110.604167,181.485677 110.824219,182.429688 110.824219,183.742188 L110.824219,183.742188 L110.824219,183.875 C110.824219,185.15625 110.60026,186.075521 110.152344,186.632812 C109.704427,187.190104 109.001302,187.46875 108.042969,187.46875 Z M122.027344,188.15625 C122.516927,188.15625 122.964844,188.11849 123.371094,188.042969 C123.777344,187.967448 124.220052,187.825521 124.699219,187.617188 L124.699219,187.617188 L124.699219,186.914062 C124.136719,187.138021 123.671875,187.283854 123.304688,187.351562 C122.9375,187.419271 122.511719,187.453125 122.027344,187.453125 C121.032552,187.453125 120.268229,187.145833 119.734375,186.53125 C119.200521,185.916667 118.928385,185.026042 118.917969,183.859375 L118.917969,183.859375 L125.035156,183.859375 L125.035156,183.234375 C125.035156,182.036458 124.746094,181.088542 124.167969,180.390625 C123.589844,179.692708 122.800781,179.34375 121.800781,179.34375 C120.670573,179.34375 119.772135,179.751302 119.105469,180.566406 C118.438802,181.38151 118.105469,182.466146 118.105469,183.820312 C118.105469,185.190104 118.450521,186.255208 119.140625,187.015625 C119.830729,187.776042 120.792969,188.15625 122.027344,188.15625 Z M124.214844,183.171875 L118.964844,183.171875 C119.048177,182.15625 119.33724,181.378906 119.832031,180.839844 C120.326823,180.300781 120.983073,180.03125 121.800781,180.03125 C122.55599,180.03125 123.147135,180.308594 123.574219,180.863281 C124.001302,181.417969 124.214844,182.1875 124.214844,183.171875 L124.214844,183.171875 Z M130.019531,188 L133.300781,179.507812 L132.503906,179.507812 L130.308594,185.265625 C130.084635,185.859375 129.865885,186.510417 129.652344,187.21875 L129.652344,187.21875 L129.605469,187.21875 C129.459635,186.666667 129.240885,186.020833 128.949219,185.28125 L128.949219,185.28125 L126.753906,179.507812 L125.957031,179.507812 L129.238281,188 L130.019531,188 Z M138.152344,188.15625 C138.641927,188.15625 139.089844,188.11849 139.496094,188.042969 C139.902344,187.967448 140.345052,187.825521 140.824219,187.617188 L140.824219,187.617188 L140.824219,186.914062 C140.261719,187.138021 139.796875,187.283854 139.429688,187.351562 C139.0625,187.419271 138.636719,187.453125 138.152344,187.453125 C137.157552,187.453125 136.393229,187.145833 135.859375,186.53125 C135.325521,185.916667 135.053385,185.026042 135.042969,183.859375 L135.042969,183.859375 L141.160156,183.859375 L141.160156,183.234375 C141.160156,182.036458 140.871094,181.088542 140.292969,180.390625 C139.714844,179.692708 138.925781,179.34375 137.925781,179.34375 C136.795573,179.34375 135.897135,179.751302 135.230469,180.566406 C134.563802,181.38151 134.230469,182.466146 134.230469,183.820312 C134.230469,185.190104 134.575521,186.255208 135.265625,187.015625 C135.955729,187.776042 136.917969,188.15625 138.152344,188.15625 Z M140.339844,183.171875 L135.089844,183.171875 C135.173177,182.15625 135.46224,181.378906 135.957031,180.839844 C136.451823,180.300781 137.108073,180.03125 137.925781,180.03125 C138.68099,180.03125 139.272135,180.308594 139.699219,180.863281 C140.126302,181.417969 140.339844,182.1875 140.339844,183.171875 L140.339844,183.171875 Z M144.277344,188 L144.277344,183.3125 C144.277344,182.375 144.509115,181.598958 144.972656,180.984375 C145.436198,180.369792 146.029948,180.0625 146.753906,180.0625 C147.134115,180.0625 147.501302,180.106771 147.855469,180.195312 L147.855469,180.195312 L148.003906,179.453125 C147.592448,179.380208 147.207031,179.34375 146.847656,179.34375 C146.285156,179.34375 145.80599,179.470052 145.410156,179.722656 C145.014323,179.97526 144.641927,180.414062 144.292969,181.039062 L144.292969,181.039062 L144.238281,181.039062 L144.160156,179.507812 L143.503906,179.507812 L143.503906,188 L144.277344,188 Z M149.332031,191.84375 C149.727865,191.84375 150.065104,191.773438 150.34375,191.632812 C150.622396,191.492188 150.865885,191.28125 151.074219,191 C151.282552,190.71875 151.540365,190.177083 151.847656,189.375 L151.847656,189.375 L155.652344,179.507812 L154.855469,179.507812 L153.058594,184.226562 C152.563802,185.559896 152.207031,186.5625 151.988281,187.234375 L151.988281,187.234375 L151.941406,187.234375 C151.795573,186.723958 151.449219,185.736979 150.902344,184.273438 L150.902344,184.273438 L149.105469,179.507812 L148.308594,179.507812 L151.558594,188 C151.496094,188.171875 151.356771,188.542969 151.140625,189.113281 C150.924479,189.683594 150.734375,190.10026 150.570312,190.363281 C150.40625,190.626302 150.222656,190.820312 150.019531,190.945312 C149.816406,191.070312 149.582031,191.132812 149.316406,191.132812 C148.967448,191.132812 148.641927,191.091146 148.339844,191.007812 L148.339844,191.007812 L148.339844,191.679688 C148.704427,191.789062 149.035156,191.84375 149.332031,191.84375 Z M164.785156,188.15625 C165.93099,188.15625 166.820312,187.773438 167.453125,187.007812 C168.085938,186.242188 168.402344,185.153646 168.402344,183.742188 C168.402344,182.304688 168.101562,181.21224 167.5,180.464844 C166.898438,179.717448 166.003906,179.34375 164.816406,179.34375 C164.175781,179.34375 163.627604,179.463542 163.171875,179.703125 C162.716146,179.942708 162.326823,180.317708 162.003906,180.828125 L162.003906,180.828125 L161.949219,180.828125 L161.972656,180.164062 C161.99349,179.778646 162.003906,179.356771 162.003906,178.898438 L162.003906,178.898438 L162.003906,175.84375 L161.230469,175.84375 L161.230469,188 L161.714844,188 L161.933594,186.71875 L162.003906,186.71875 C162.285156,187.177083 162.667969,187.53125 163.152344,187.78125 C163.636719,188.03125 164.18099,188.15625 164.785156,188.15625 Z M164.785156,187.46875 C163.832031,187.46875 163.130208,187.190104 162.679688,186.632812 C162.229167,186.075521 162.003906,185.15625 162.003906,183.875 L162.003906,183.875 L162.003906,183.742188 C162.003906,182.424479 162.220052,181.479167 162.652344,180.90625 C163.084635,180.333333 163.800781,180.046875 164.800781,180.046875 C166.654948,180.046875 167.582031,181.273438 167.582031,183.726562 C167.582031,184.924479 167.347656,185.847656 166.878906,186.496094 C166.410156,187.144531 165.71224,187.46875 164.785156,187.46875 Z M171.136719,177.90625 C171.298177,177.90625 171.424479,177.838542 171.515625,177.703125 C171.606771,177.567708 171.652344,177.382812 171.652344,177.148438 C171.652344,176.908854 171.606771,176.723958 171.515625,176.59375 C171.424479,176.463542 171.298177,176.398438 171.136719,176.398438 C170.808594,176.398438 170.644531,176.648438 170.644531,177.148438 C170.644531,177.653646 170.808594,177.90625 171.136719,177.90625 Z M171.527344,188 L171.527344,179.507812 L170.753906,179.507812 L170.753906,188 L171.527344,188 Z M176.597656,188.15625 C177.08724,188.15625 177.519531,188.09375 177.894531,187.96875 L177.894531,187.96875 L177.894531,187.34375 C177.529948,187.427083 177.102865,187.46875 176.613281,187.46875 C176.123698,187.46875 175.764323,187.3125 175.535156,187 C175.30599,186.6875 175.191406,186.205729 175.191406,185.554688 L175.191406,185.554688 L175.191406,180.179688 L177.683594,180.179688 L177.683594,179.507812 L175.191406,179.507812 L175.191406,177.453125 L174.792969,177.453125 L174.402344,179.375 L173.144531,179.726562 L173.144531,180.179688 L174.402344,180.179688 L174.402344,185.664062 C174.402344,186.523438 174.580729,187.153646 174.9375,187.554688 C175.294271,187.955729 175.847656,188.15625 176.597656,188.15625 Z M187.121094,188.15625 C188.303385,188.15625 189.230469,187.766927 189.902344,186.988281 C190.574219,186.209635 190.910156,185.127604 190.910156,183.742188 C190.910156,182.377604 190.578125,181.303385 189.914062,180.519531 C189.25,179.735677 188.334635,179.34375 187.167969,179.34375 C185.996094,179.34375 185.074219,179.730469 184.402344,180.503906 C183.730469,181.277344 183.394531,182.356771 183.394531,183.742188 C183.394531,184.622396 183.545573,185.398438 183.847656,186.070312 C184.14974,186.742188 184.584635,187.257812 185.152344,187.617188 C185.720052,187.976562 186.376302,188.15625 187.121094,188.15625 Z M187.152344,187.453125 C186.214844,187.453125 185.489583,187.126302 184.976562,186.472656 C184.463542,185.81901 184.207031,184.908854 184.207031,183.742188 C184.207031,182.565104 184.460938,181.654948 184.96875,181.011719 C185.476562,180.36849 186.199219,180.046875 187.136719,180.046875 C188.074219,180.046875 188.802083,180.369792 189.320312,181.015625 C189.838542,181.661458 190.097656,182.570312 190.097656,183.742188 C190.097656,184.908854 189.841146,185.81901 189.328125,186.472656 C188.815104,187.126302 188.089844,187.453125 187.152344,187.453125 Z M194.417969,188 L194.417969,180.179688 L196.417969,180.179688 L196.417969,179.507812 L194.417969,179.507812 L194.417969,178.71875 C194.417969,177.916667 194.544271,177.33724 194.796875,176.980469 C195.049479,176.623698 195.477865,176.445312 196.082031,176.445312 C196.49349,176.445312 196.907552,176.510417 197.324219,176.640625 L197.324219,176.640625 L197.503906,175.96875 C197.035156,175.828125 196.566406,175.757812 196.097656,175.757812 C195.227865,175.757812 194.601562,176.001302 194.21875,176.488281 C193.835938,176.97526 193.644531,177.739583 193.644531,178.78125 L193.644531,178.78125 L193.644531,179.4375 L192.066406,179.726562 L192.066406,180.179688 L193.644531,180.179688 L193.644531,188 L194.417969,188 Z M70.9804688,199.90625 C71.1419271,199.90625 71.2682292,199.838542 71.359375,199.703125 C71.4505208,199.567708 71.4960938,199.382812 71.4960938,199.148438 C71.4960938,198.908854 71.4505208,198.723958 71.359375,198.59375 C71.2682292,198.463542 71.1419271,198.398438 70.9804688,198.398438 C70.6523438,198.398438 70.4882812,198.648438 70.4882812,199.148438 C70.4882812,199.653646 70.6523438,199.90625 70.9804688,199.90625 Z M71.3710938,210 L71.3710938,201.507812 L70.5976562,201.507812 L70.5976562,210 L71.3710938,210 Z M74.9882812,210 L74.9882812,205.3125 C74.9882812,204.161458 75.2239583,203.329427 75.6953125,202.816406 C76.1666667,202.303385 76.9101562,202.046875 77.9257812,202.046875 C78.6809896,202.046875 79.2382812,202.240885 79.5976562,202.628906 C79.9570312,203.016927 80.1367188,203.638021 80.1367188,204.492188 L80.1367188,204.492188 L80.1367188,210 L80.9023438,210 L80.9023438,204.445312 C80.9023438,202.377604 79.9388021,201.34375 78.0117188,201.34375 C76.6002604,201.34375 75.6184896,201.786458 75.0664062,202.671875 L75.0664062,202.671875 L75.0195312,202.671875 L74.8710938,201.507812 L74.2148438,201.507812 L74.2148438,210 L74.9882812,210 Z M84.8085938,210 L84.8085938,202.179688 L86.8085938,202.179688 L86.8085938,201.507812 L84.8085938,201.507812 L84.8085938,200.71875 C84.8085938,199.916667 84.9348958,199.33724 85.1875,198.980469 C85.4401042,198.623698 85.8684896,198.445312 86.4726562,198.445312 C86.8841146,198.445312 87.2981771,198.510417 87.7148438,198.640625 L87.7148438,198.640625 L87.8945312,197.96875 C87.4257812,197.828125 86.9570312,197.757812 86.4882812,197.757812 C85.6184896,197.757812 84.9921875,198.001302 84.609375,198.488281 C84.2265625,198.97526 84.0351562,199.739583 84.0351562,200.78125 L84.0351562,200.78125 L84.0351562,201.4375 L82.4570312,201.726562 L82.4570312,202.179688 L84.0351562,202.179688 L84.0351562,210 L84.8085938,210 Z M91.6835938,210.15625 C92.8658854,210.15625 93.7929688,209.766927 94.4648438,208.988281 C95.1367188,208.209635 95.4726562,207.127604 95.4726562,205.742188 C95.4726562,204.377604 95.140625,203.303385 94.4765625,202.519531 C93.8125,201.735677 92.8971354,201.34375 91.7304688,201.34375 C90.5585938,201.34375 89.6367188,201.730469 88.9648438,202.503906 C88.2929688,203.277344 87.9570312,204.356771 87.9570312,205.742188 C87.9570312,206.622396 88.1080729,207.398438 88.4101562,208.070312 C88.7122396,208.742188 89.1471354,209.257812 89.7148438,209.617188 C90.2825521,209.976562 90.9388021,210.15625 91.6835938,210.15625 Z M91.7148438,209.453125 C90.7773438,209.453125 90.0520833,209.126302 89.5390625,208.472656 C89.0260417,207.81901 88.7695312,206.908854 88.7695312,205.742188 C88.7695312,204.565104 89.0234375,203.654948 89.53125,203.011719 C90.0390625,202.36849 90.7617188,202.046875 91.6992188,202.046875 C92.6367188,202.046875 93.3645833,202.369792 93.8828125,203.015625 C94.4010417,203.661458 94.6601562,204.570312 94.6601562,205.742188 C94.6601562,206.908854 94.4036458,207.81901 93.890625,208.472656 C93.3776042,209.126302 92.6523438,209.453125 91.7148438,209.453125 Z M98.5976562,210 L98.5976562,205.3125 C98.5976562,204.375 98.8294271,203.598958 99.2929688,202.984375 C99.7565104,202.369792 100.35026,202.0625 101.074219,202.0625 C101.454427,202.0625 101.821615,202.106771 102.175781,202.195312 L102.175781,202.195312 L102.324219,201.453125 C101.91276,201.380208 101.527344,201.34375 101.167969,201.34375 C100.605469,201.34375 100.126302,201.470052 99.7304688,201.722656 C99.3346354,201.97526 98.9622396,202.414062 98.6132812,203.039062 L98.6132812,203.039062 L98.5585938,203.039062 L98.4804688,201.507812 L97.8242188,201.507812 L97.8242188,210 L98.5976562,210 Z M104.824219,210 L104.824219,205.3125 C104.824219,204.171875 105.027344,203.342448 105.433594,202.824219 C105.839844,202.30599 106.488281,202.046875 107.378906,202.046875 C108.691406,202.046875 109.347656,202.763021 109.347656,204.195312 L109.347656,204.195312 L109.347656,210 L110.136719,210 L110.136719,205.023438 C110.136719,203.997396 110.345052,203.244792 110.761719,202.765625 C111.178385,202.286458 111.821615,202.046875 112.691406,202.046875 C113.358073,202.046875 113.852865,202.236979 114.175781,202.617188 C114.498698,202.997396 114.660156,203.601562 114.660156,204.429688 L114.660156,204.429688 L114.660156,210 L115.425781,210 L115.425781,204.445312 C115.425781,203.367188 115.19401,202.580729 114.730469,202.085938 C114.266927,201.591146 113.571615,201.34375 112.644531,201.34375 C112.050781,201.34375 111.520833,201.473958 111.054688,201.734375 C110.588542,201.994792 110.217448,202.367188 109.941406,202.851562 L109.941406,202.851562 L109.910156,202.851562 C109.529948,201.846354 108.670573,201.34375 107.332031,201.34375 C106.811198,201.34375 106.334635,201.459635 105.902344,201.691406 C105.470052,201.923177 105.136719,202.25 104.902344,202.671875 L104.902344,202.671875 L104.855469,202.671875 L104.691406,201.507812 L104.050781,201.507812 L104.050781,210 L104.824219,210 Z M120.160156,210.15625 C120.77474,210.15625 121.307292,210.042969 121.757812,209.816406 C122.208333,209.589844 122.647135,209.203125 123.074219,208.65625 L123.074219,208.65625 L123.136719,208.65625 L123.332031,210 L123.902344,210 L123.902344,204.351562 C123.902344,203.325521 123.671875,202.570312 123.210938,202.085938 C122.75,201.601562 122.053385,201.359375 121.121094,201.359375 C120.209635,201.359375 119.28776,201.578125 118.355469,202.015625 L118.355469,202.015625 L118.644531,202.6875 C119.488281,202.25 120.303385,202.03125 121.089844,202.03125 C121.81901,202.03125 122.347656,202.236979 122.675781,202.648438 C123.003906,203.059896 123.167969,203.669271 123.167969,204.476562 L123.167969,204.476562 L123.167969,205.039062 L121.550781,205.085938 C120.24349,205.111979 119.244792,205.354167 118.554688,205.8125 C117.864583,206.270833 117.519531,206.914062 117.519531,207.742188 C117.519531,208.497396 117.751302,209.088542 118.214844,209.515625 C118.678385,209.942708 119.326823,210.15625 120.160156,210.15625 Z M120.207031,209.453125 C119.613281,209.453125 119.153646,209.30599 118.828125,209.011719 C118.502604,208.717448 118.339844,208.304688 118.339844,207.773438 C118.339844,207.106771 118.59375,206.615885 119.101562,206.300781 C119.609375,205.985677 120.459635,205.799479 121.652344,205.742188 L121.652344,205.742188 L123.136719,205.679688 L123.136719,206.515625 C123.136719,207.4375 122.875,208.157552 122.351562,208.675781 C121.828125,209.19401 121.113281,209.453125 120.207031,209.453125 Z M128.878906,210.15625 C129.36849,210.15625 129.800781,210.09375 130.175781,209.96875 L130.175781,209.96875 L130.175781,209.34375 C129.811198,209.427083 129.384115,209.46875 128.894531,209.46875 C128.404948,209.46875 128.045573,209.3125 127.816406,209 C127.58724,208.6875 127.472656,208.205729 127.472656,207.554688 L127.472656,207.554688 L127.472656,202.179688 L129.964844,202.179688 L129.964844,201.507812 L127.472656,201.507812 L127.472656,199.453125 L127.074219,199.453125 L126.683594,201.375 L125.425781,201.726562 L125.425781,202.179688 L126.683594,202.179688 L126.683594,207.664062 C126.683594,208.523438 126.861979,209.153646 127.21875,209.554688 C127.575521,209.955729 128.128906,210.15625 128.878906,210.15625 Z M132.394531,199.90625 C132.55599,199.90625 132.682292,199.838542 132.773438,199.703125 C132.864583,199.567708 132.910156,199.382812 132.910156,199.148438 C132.910156,198.908854 132.864583,198.723958 132.773438,198.59375 C132.682292,198.463542 132.55599,198.398438 132.394531,198.398438 C132.066406,198.398438 131.902344,198.648438 131.902344,199.148438 C131.902344,199.653646 132.066406,199.90625 132.394531,199.90625 Z M132.785156,210 L132.785156,201.507812 L132.011719,201.507812 L132.011719,210 L132.785156,210 Z M138.863281,210.15625 C140.045573,210.15625 140.972656,209.766927 141.644531,208.988281 C142.316406,208.209635 142.652344,207.127604 142.652344,205.742188 C142.652344,204.377604 142.320312,203.303385 141.65625,202.519531 C140.992188,201.735677 140.076823,201.34375 138.910156,201.34375 C137.738281,201.34375 136.816406,201.730469 136.144531,202.503906 C135.472656,203.277344 135.136719,204.356771 135.136719,205.742188 C135.136719,206.622396 135.28776,207.398438 135.589844,208.070312 C135.891927,208.742188 136.326823,209.257812 136.894531,209.617188 C137.46224,209.976562 138.11849,210.15625 138.863281,210.15625 Z M138.894531,209.453125 C137.957031,209.453125 137.231771,209.126302 136.71875,208.472656 C136.205729,207.81901 135.949219,206.908854 135.949219,205.742188 C135.949219,204.565104 136.203125,203.654948 136.710938,203.011719 C137.21875,202.36849 137.941406,202.046875 138.878906,202.046875 C139.816406,202.046875 140.544271,202.369792 141.0625,203.015625 C141.580729,203.661458 141.839844,204.570312 141.839844,205.742188 C141.839844,206.908854 141.583333,207.81901 141.070312,208.472656 C140.557292,209.126302 139.832031,209.453125 138.894531,209.453125 Z M145.777344,210 L145.777344,205.3125 C145.777344,204.161458 146.013021,203.329427 146.484375,202.816406 C146.955729,202.303385 147.699219,202.046875 148.714844,202.046875 C149.470052,202.046875 150.027344,202.240885 150.386719,202.628906 C150.746094,203.016927 150.925781,203.638021 150.925781,204.492188 L150.925781,204.492188 L150.925781,210 L151.691406,210 L151.691406,204.445312 C151.691406,202.377604 150.727865,201.34375 148.800781,201.34375 C147.389323,201.34375 146.407552,201.786458 145.855469,202.671875 L145.855469,202.671875 L145.808594,202.671875 L145.660156,201.507812 L145.003906,201.507812 L145.003906,210 L145.777344,210 Z M154.910156,210.15625 C155.33724,210.15625 155.550781,209.901042 155.550781,209.390625 C155.550781,208.880208 155.33724,208.625 154.910156,208.625 C154.49349,208.625 154.285156,208.880208 154.285156,209.390625 C154.285156,209.901042 154.49349,210.15625 154.910156,210.15625 Z" id="Twoearsthatworkwiththeintentiontounderstandeverybitofinformation." fill="#FFFFFF" fill-rule="nonzero"></path>
                <g id="icon/Listener" transform="translate(84.000000, 20.000000)" fill="#FFFFFF">
                    <g id="listening">
                        <path d="M16.1774194,30 C16.1774194,30.5344317 15.751331,30.9677419 15.2258065,30.9677419 C14.7002819,30.9677419 14.2741935,30.5344317 14.2741935,30 C14.2741935,29.4655683 14.7002819,29.0322581 15.2258065,29.0322581 C15.751331,29.0322581 16.1774194,29.4655683 16.1774194,30 Z" id="Path" fill-rule="nonzero"></path>
                        <path d="M25.6935484,30 C25.6935484,30.5344317 25.26746,30.9677419 24.7419355,30.9677419 C24.2164109,30.9677419 23.7903226,30.5344317 23.7903226,30 C23.7903226,29.4655683 24.2164109,29.0322581 24.7419355,29.0322581 C25.26746,29.0322581 25.6935484,29.4655683 25.6935484,30 Z" id="Path" fill-rule="nonzero"></path>
                        <path d="M19.983871,38.7096774 C18.9342159,38.7096774 18.0806452,37.8416394 18.0806452,36.7741935 L16.1774194,36.7741935 C16.1774194,38.9090852 17.8845608,40.6451613 19.983871,40.6451613 C22.0831811,40.6451613 23.7903226,38.9090852 23.7903226,36.7741935 L21.8870968,36.7741935 C21.8870968,37.8416394 21.0335261,38.7096774 19.983871,38.7096774 Z" id="Path" fill-rule="nonzero"></path>
                        <polygon id="Path" fill-rule="nonzero" points="39.9677419 3.87096774 41.8709677 3.87096774 41.8709677 5.80645161 39.9677419 5.80645161"></polygon>
                        <polygon id="Path" fill-rule="nonzero" points="43.7741935 3.87096774 55.1935484 3.87096774 55.1935484 5.80645161 43.7741935 5.80645161"></polygon>
                        <polygon id="Path" fill-rule="nonzero" points="43.7741935 7.74193548 55.1935484 7.74193548 55.1935484 9.67741935 43.7741935 9.67741935"></polygon>
                        <polygon id="Path" fill-rule="nonzero" points="39.9677419 7.74193548 41.8709677 7.74193548 41.8709677 9.67741935 39.9677419 9.67741935"></polygon>
                        <polygon id="Path" fill-rule="nonzero" points="39.9677419 11.6129032 41.8709677 11.6129032 41.8709677 13.5483871 39.9677419 13.5483871"></polygon>
                        <polygon id="Path" fill-rule="nonzero" points="43.7741935 11.6129032 55.1935484 11.6129032 55.1935484 13.5483871 43.7741935 13.5483871"></polygon>
                        <path d="M56.1451613,17.4193548 C57.7189469,17.4193548 59,16.116589 59,14.516129 L59,2.90322581 C59,1.30276585 57.7189469,0 56.1451613,0 L39.016129,0 C37.4423434,0 36.1612903,1.30276585 36.1612903,2.90322581 L36.1612903,14.516129 C36.1612903,16.116589 37.4423434,17.4193548 39.016129,17.4193548 L43.7741935,17.4193548 L43.7741935,21.811996 L52.3387097,17.9410282 L52.3387097,25.1612903 C52.3387097,26.7617503 53.6197628,28.0645161 55.1935484,28.0645161 L56.1451613,28.0645161 C56.6702211,28.0645161 57.0967742,28.499244 57.0967742,29.0322581 L57.0967742,34.8387097 C57.0967742,35.3726688 56.6702211,35.8064516 56.1451613,35.8064516 L53.2903226,35.8064516 L53.2903226,33.8709677 L51.3870968,33.8709677 L51.3870968,37.7419355 L56.1451613,37.7419355 C57.7189469,37.7419355 59,36.4391696 59,34.8387097 L59,29.0322581 C59,27.4317981 57.7189469,26.1290323 56.1451613,26.1290323 L55.1935484,26.1290323 C54.6684886,26.1290323 54.2419355,25.6943044 54.2419355,25.1612903 L54.2419355,17.4193548 L56.1451613,17.4193548 Z M39.016129,15.483871 C38.4910692,15.483871 38.0645161,15.0491431 38.0645161,14.516129 L38.0645161,2.90322581 C38.0645161,2.37021169 38.4910692,1.93548387 39.016129,1.93548387 L56.1451613,1.93548387 C56.6702211,1.93548387 57.0967742,2.37021169 57.0967742,2.90322581 L57.0967742,14.516129 C57.0967742,15.0491431 56.6702211,15.483871 56.1451613,15.483871 L53.0886625,15.483871 L45.6774194,18.8331653 L45.6774194,15.483871 L39.016129,15.483871 Z" id="Shape" fill-rule="nonzero"></path>
                        <path d="M38.0645161,38.7096774 L38.0645161,40.6451613 C38.0645161,41.1791204 37.637963,41.6129032 37.1129032,41.6129032 L35.2096774,41.6129032 C34.6846176,41.6129032 34.2580645,41.1791204 34.2580645,40.6451613 L34.2580645,35.2838332 C35.422954,34.2201676 36.1612903,32.6825542 36.1612903,30.9677419 L36.1612903,23.2258065 C36.1612903,14.1541708 28.9043127,6.77419355 19.983871,6.77419355 C11.0634293,6.77419355 3.80645161,14.1541708 3.80645161,23.2258065 L3.80645161,30.9677419 C3.80645161,34.1700794 6.3671639,36.7741935 9.51612903,36.7741935 L9.69780906,36.7741935 C10.295355,40.0653667 12.3844427,42.8263609 15.2258065,44.3091607 L15.2258065,45.6969821 L5.04661508,48.2855027 C2.07561274,49.0391885 0,51.7411164 0,54.8565083 L0,60 L39.9677419,60 L39.9677419,54.8565083 C39.9677419,51.7411164 37.8921292,49.0391885 34.9211269,48.2855027 L24.7419355,45.6969821 L24.7419355,44.3091607 C27.5832992,42.8263609 29.6723869,40.0663118 30.2699329,36.7741935 L30.4516129,36.7741935 C31.1197865,36.7741935 31.758222,36.6503906 32.3548387,36.4353894 L32.3548387,40.6451613 C32.3548387,42.2456212 33.6358918,43.5483871 35.2096774,43.5483871 L37.1129032,43.5483871 C38.6866889,43.5483871 39.9677419,42.2456212 39.9677419,40.6451613 L39.9677419,38.7096774 C39.9677419,38.1757183 40.394295,37.7419355 40.9193548,37.7419355 L43.7741935,37.7419355 L43.7741935,39.6774194 L45.6774194,39.6774194 L45.6774194,35.8064516 L40.9193548,35.8064516 C39.3455692,35.8064516 38.0645161,37.1092175 38.0645161,38.7096774 Z M19.983871,8.70967742 C27.8546576,8.70967742 34.2580645,15.2216167 34.2580645,23.2258065 L34.2580645,26.6516506 C33.7079133,26.1493511 33.0648311,25.7552608 32.3548387,25.5000945 L32.3548387,23.2258065 C32.3548387,16.2890625 26.8050025,10.6451613 19.983871,10.6451613 C13.1627394,10.6451613 7.61290323,16.2890625 7.61290323,23.2258065 L7.61290323,25.5000945 C6.90291079,25.7566784 6.25982863,26.1502961 5.70967742,26.6516506 L5.70967742,23.2258065 C5.70967742,15.2216167 12.1130843,8.70967742 19.983871,8.70967742 Z M5.70967742,30.9677419 C5.70967742,28.8328502 7.41681887,27.0967742 9.51612903,27.0967742 L9.55144279,27.0967742 C9.53703847,27.2914567 9.51612903,27.4847215 9.51612903,27.6822392 L9.51612903,34.8387097 C7.41681887,34.8387097 5.70967742,33.1026336 5.70967742,30.9677419 Z M9.95383385,25.1612903 L9.51612903,25.1612903 L9.51612903,23.2258065 C9.51612903,17.3565083 14.2123945,12.5806452 19.983871,12.5806452 C25.7553474,12.5806452 30.4516129,17.3565083 30.4516129,23.2258065 L30.4516129,25.1612903 L24.1736627,25.1612903 C20.4596774,25.1612903 16.8167843,23.8618321 13.9173387,21.5024886 L13.3741574,21.0602003 L12.7951975,21.452873 C11.4574565,22.3596585 10.4793583,23.6680948 9.95383385,25.1612903 Z M15.8851516,47.522839 L18.6382308,50.3225806 L15.5979949,53.4134009 L13.6366872,48.0950731 L15.8851516,47.522839 Z M1.90322581,54.8565083 C1.90322581,52.631836 3.3859391,50.7020225 5.50708795,50.1619204 L11.7771389,48.5671308 L14.853618,56.9082346 L19.0322581,52.6587702 L19.0322581,58.0645161 L9.51612903,58.0645161 L9.51612903,54.1935484 L7.61290323,54.1935484 L7.61290323,58.0645161 L1.90322581,58.0645161 L1.90322581,54.8565083 Z M38.0645161,54.8565083 L38.0645161,58.0645161 L32.3548387,58.0645161 L32.3548387,54.1935484 L30.4516129,54.1935484 L30.4516129,58.0645161 L20.9354839,58.0645161 L20.9354839,52.6587702 L25.1141239,56.9082346 L28.190603,48.5671308 L34.460654,50.1619204 C36.5818028,50.7020225 38.0645161,52.631836 38.0645161,54.8565083 Z M26.3310547,48.0950731 L24.3697471,53.4134009 L21.3295111,50.3225806 L24.0825904,47.522839 L26.3310547,48.0950731 Z M22.8387097,46.0509073 L19.983871,48.9541331 L17.1290323,46.0509073 L17.1290323,45.0718246 C18.0378969,45.3340789 18.9932271,45.483871 19.983871,45.483871 C20.9745149,45.483871 21.929845,45.3340789 22.8387097,45.0718246 L22.8387097,46.0509073 Z M28.5483871,34.8387097 C28.5483871,39.6415071 24.7066217,43.5483871 19.983871,43.5483871 C15.2611202,43.5483871 11.4193548,39.6415071 11.4193548,34.8387097 L11.4193548,27.6822392 C11.4193548,26.0496472 12.1186602,24.5205393 13.3179342,23.4734123 C16.4515657,25.8152722 20.2779974,27.0967742 24.1736627,27.0967742 L28.5483871,27.0967742 L28.5483871,34.8387097 Z M30.4516129,27.0967742 C32.5509231,27.0967742 34.2580645,28.8328502 34.2580645,30.9677419 C34.2580645,33.1026336 32.5509231,34.8387097 30.4516129,34.8387097 L30.4516129,27.0967742 Z" id="Shape" fill-rule="nonzero"></path>
                        <polygon id="Path" fill-rule="nonzero" points="47.5806452 33.8709677 49.483871 33.8709677 49.483871 39.6774194 47.5806452 39.6774194"></polygon>
                    </g>
                </g>
            </g>
        </g>
    </g>
</svg>