<?xml version="1.0" encoding="UTF-8"?>
<svg width="800px" height="272px" viewBox="0 0 800 272" version="1.1" xmlns="http://www.w3.org/2000/svg" xmlns:xlink="http://www.w3.org/1999/xlink">
    <!-- Generator: Sketch 64 (93537) - https://sketch.com -->
    <title>Artboard</title>
    <desc>Created with Sketch.</desc>
    <g id="Artboard" stroke="none" stroke-width="1" fill="none" fill-rule="evenodd">
        <g id="Card/skills" fill="#FFFFFF">
            <text id="Detective" font-family="OpenSans-Regular, Open Sans" font-size="20" font-weight="normal">
                <tspan x="57.0185547" y="110">Detective</tspan>
            </text>
            <text id="A-6th-sense-to-detec" font-family="OpenSans-Light, Open Sans" font-size="16" font-weight="300">
                <tspan x="23.8984375" y="143">A 6th sense to detect </tspan>
                <tspan x="59.0117188" y="165">the flaws of </tspan>
                <tspan x="18.6640625" y="187">applications. Authentic </tspan>
                <tspan x="30.0664062" y="209">researcher with the </tspan>
                <tspan x="27.1835938" y="231">right tools to get the </tspan>
                <tspan x="22.5117188" y="253">work done effectively. </tspan>
            </text>
            <g id="icon/detective" transform="translate(71.000000, 20.000000)" fill-rule="evenodd" stroke-width="1">
                <g id="magnifying-glass">
                    <path d="M58.277551,55.7387755 L44.0934694,41.3142857 C47.6093878,36.955102 49.7285714,31.3714286 49.7285714,25.2857143 C49.7285714,11.3265306 38.5908163,0 24.8642857,0 C11.1257143,0 0,11.3265306 0,25.2857143 C0,39.244898 11.1257143,50.5714286 24.8642857,50.5714286 C30.8485714,50.5714286 36.3271429,48.4285714 40.6136735,44.8530612 L54.7977551,59.2653061 C55.7610204,60.244898 57.3142857,60.244898 58.277551,59.2653061 C59.2408163,58.2979592 59.2408163,56.7061224 58.277551,55.7387755 Z M24.8642857,45.5387755 C13.8710204,45.5387755 4.93673469,36.4530612 4.93673469,25.2857143 C4.93673469,14.1183673 13.8710204,5.02040816 24.8642857,5.02040816 C35.8455102,5.02040816 44.7918367,14.1183673 44.7918367,25.2857143 C44.7918367,36.4530612 35.8455102,45.5387755 24.8642857,45.5387755 Z" id="Shape" fill-rule="nonzero"></path>
                </g>
            </g>
        </g>
        <g id="Card/skills" transform="translate(200.000000, 0.000000)" fill="#FFFFFF">
            <text id="Detective" font-family="OpenSans-Regular, Open Sans" font-size="20" font-weight="normal">
                <tspan x="56.3886719" y="110">Strategist</tspan>
            </text>
            <text id="A-6th-sense-to-detec" font-family="OpenSans-Light, Open Sans" font-size="16" font-weight="300">
                <tspan x="23.8085938" y="143">A mind with an ability </tspan>
                <tspan x="29.2304688" y="165">of thinking about all </tspan>
                <tspan x="15.2226562" y="187">parts of the UX journey. </tspan>
                <tspan x="29.0273438" y="209">From the initial idea </tspan>
                <tspan x="31.703125" y="231">until the launching.</tspan>
            </text>
            <g id="icon/strategy" transform="translate(71.000000, 20.000000)" fill-rule="evenodd" stroke-width="1">
                <g id="paper">
                    <path d="M44.25,4 L35.4,4 L35.4,1 C35.4,0.44775 34.9597125,0 34.4166667,0 L10.8166667,0 C10.2736208,0 9.83333333,0.44775 9.83333333,1 L9.83333333,4 L0.983333333,4 C0.4402875,4 0,4.44775 0,5 L0,59 C0,59.55225 0.4402875,60 0.983333333,60 L44.25,60 C44.7930458,60 45.2333333,59.55225 45.2333333,59 L45.2333333,5 C45.2333333,4.44775 44.7930458,4 44.25,4 Z M11.8,2 L33.4333333,2 L33.4333333,4 L11.8,4 L11.8,2 Z M11.8,6 L33.4333333,6 L33.4333333,10 L25.3985167,10 C24.8563313,8.437625 23.1712667,7.618 21.6349313,8.169375 C20.7935667,8.471375 20.1317833,9.144375 19.8348167,10 L11.8,10 L11.8,6 Z M43.2666667,58 L1.96666667,58 L1.96666667,6 L9.83333333,6 L9.83333333,11 C9.83333333,11.55225 10.2736208,12 10.8166667,12 L20.65,12 C21.1930458,12 21.6333333,11.55225 21.6333333,11 C21.6333333,10.44775 22.0736208,10 22.6166667,10 C23.1597125,10 23.6,10.44775 23.6,11 C23.6,11.55225 24.0402875,12 24.5833333,12 L34.4166667,12 C34.9597125,12 35.4,11.55225 35.4,11 L35.4,6 L43.2666667,6 L43.2666667,58 Z" id="Shape" fill-rule="nonzero"></path>
                    <path d="M9.83333333,14 C7.66102708,14 5.9,15.790875 5.9,18 C5.9,20.209125 7.66102708,22 9.83333333,22 C12.0056396,22 13.7666667,20.209125 13.7666667,18 C13.7666667,15.790875 12.0056396,14 9.83333333,14 Z M9.83333333,20 C8.74711875,20 7.86666667,19.104625 7.86666667,18 C7.86666667,16.895375 8.74711875,16 9.83333333,16 C10.9195479,16 11.8,16.895375 11.8,18 C11.8,19.104625 10.9195479,20 9.83333333,20 Z" id="Shape" fill-rule="nonzero"></path>
                    <path d="M9.83333333,24 C7.66102708,24 5.9,25.790875 5.9,28 C5.9,30.209125 7.66102708,32 9.83333333,32 C12.0056396,32 13.7666667,30.209125 13.7666667,28 C13.7666667,25.790875 12.0056396,24 9.83333333,24 Z M9.83333333,30 C8.74711875,30 7.86666667,29.104625 7.86666667,28 C7.86666667,26.895375 8.74711875,26 9.83333333,26 C10.9195479,26 11.8,26.895375 11.8,28 C11.8,29.104625 10.9195479,30 9.83333333,30 Z" id="Shape" fill-rule="nonzero"></path>
                    <path d="M38.35,15 L24.5833333,15 C24.0402875,15 23.6,15.44775 23.6,16 C23.6,16.55225 24.0402875,17 24.5833333,17 L38.35,17 C38.8930458,17 39.3333333,16.55225 39.3333333,16 C39.3333333,15.44775 38.8930458,15 38.35,15 Z" id="Path" fill-rule="nonzero"></path>
                    <path d="M20.65,15 L16.7166667,15 C16.1736208,15 15.7333333,15.44775 15.7333333,16 C15.7333333,16.55225 16.1736208,17 16.7166667,17 L20.65,17 C21.1930458,17 21.6333333,16.55225 21.6333333,16 C21.6333333,15.44775 21.1930458,15 20.65,15 Z" id="Path" fill-rule="nonzero"></path>
                    <path d="M38.35,19 L30.4833333,19 C29.9402875,19 29.5,19.44775 29.5,20 C29.5,20.55225 29.9402875,21 30.4833333,21 L38.35,21 C38.8930458,21 39.3333333,20.55225 39.3333333,20 C39.3333333,19.44775 38.8930458,19 38.35,19 Z" id="Path" fill-rule="nonzero"></path>
                    <path d="M26.55,19 L16.7166667,19 C16.1736208,19 15.7333333,19.44775 15.7333333,20 C15.7333333,20.55225 16.1736208,21 16.7166667,21 L26.55,21 C27.0930458,21 27.5333333,20.55225 27.5333333,20 C27.5333333,19.44775 27.0930458,19 26.55,19 Z" id="Path" fill-rule="nonzero"></path>
                    <path d="M38.35,25 L34.4166667,25 C33.8736208,25 33.4333333,25.44775 33.4333333,26 C33.4333333,26.55225 33.8736208,27 34.4166667,27 L38.35,27 C38.8930458,27 39.3333333,26.55225 39.3333333,26 C39.3333333,25.44775 38.8930458,25 38.35,25 Z" id="Path" fill-rule="nonzero"></path>
                    <path d="M30.4833333,25 L16.7166667,25 C16.1736208,25 15.7333333,25.44775 15.7333333,26 C15.7333333,26.55225 16.1736208,27 16.7166667,27 L30.4833333,27 C31.0263792,27 31.4666667,26.55225 31.4666667,26 C31.4666667,25.44775 31.0263792,25 30.4833333,25 Z" id="Path" fill-rule="nonzero"></path>
                    <path d="M38.35,29 L27.5333333,29 C26.9902875,29 26.55,29.44775 26.55,30 C26.55,30.55225 26.9902875,31 27.5333333,31 L38.35,31 C38.8930458,31 39.3333333,30.55225 39.3333333,30 C39.3333333,29.44775 38.8930458,29 38.35,29 Z" id="Path" fill-rule="nonzero"></path>
                    <path d="M23.6,29 L16.7166667,29 C16.1736208,29 15.7333333,29.44775 15.7333333,30 C15.7333333,30.55225 16.1736208,31 16.7166667,31 L23.6,31 C24.1430458,31 24.5833333,30.55225 24.5833333,30 C24.5833333,29.44775 24.1430458,29 23.6,29 Z" id="Path" fill-rule="nonzero"></path>
                    <path d="M55.0666667,4.1 L55.0666667,4 C55.0666667,1.790875 53.3056396,0 51.1333333,0 C48.9610271,0 47.2,1.790875 47.2,4 L47.2,52 C47.2,52.013 47.2068833,52.024 47.2068833,52.036 C47.2110625,52.14125 47.2315896,52.24525 47.26785,52.344 C47.2767,52.366 47.2816167,52.389 47.2904667,52.41 C47.2993167,52.431 47.29735,52.435 47.30325,52.447 L50.15,58.236 L50.15,59 C50.15,59.55225 50.5902875,60 51.1333333,60 C51.6763792,60 52.1166667,59.55225 52.1166667,59 L52.1166667,58.236 L54.9683333,52.447 C54.9742333,52.435 54.9752167,52.422 54.9811167,52.41 C54.9870167,52.398 54.9948833,52.366 55.0037333,52.344 C55.0399938,52.24525 55.0605208,52.14125 55.0647,52.036 C55.0647,52.023 55.0715833,52.013 55.0715833,52 L55.0715833,6.184 C56.2440854,6.607875 57.0289083,7.7345 57.0333333,9 L57.0333333,18 C57.0333333,18.55225 57.4736208,19 58.0166667,19 C58.5597125,19 59,18.55225 59,18 L59,9 C58.99705,6.624875 57.3542688,4.578375 55.0666667,4.1 Z M51.1333333,55.764 L49.7743667,53 L52.4923,53 L51.1333333,55.764 Z M53.1,51 L49.1666667,51 L49.1666667,23 L53.1,23 L53.1,51 Z M53.1,21 L49.1666667,21 L49.1666667,6 L53.1,6 L53.1,21 Z M49.1666667,4 C49.1666667,2.895375 50.0471188,2 51.1333333,2 C52.2195479,2 53.1,2.895375 53.1,4 L49.1666667,4 Z" id="Shape" fill-rule="nonzero"></path>
                    <path d="M29.5,39 L29.5,37 L26.55,37 C26.2891708,37 26.0391583,37.1055 25.8547833,37.293 L25.0995833,38.061 C21.3335396,33.345125 14.5212521,32.627 9.88409792,36.456875 C5.24694375,40.28675 4.54066458,47.2145 8.30670833,51.930375 C12.0727521,56.64625 18.8850396,57.364375 23.5221938,53.5345 C23.6149958,53.457875 23.7064458,53.37975 23.7966667,53.300125 C24.2633813,52.882 24.6937125,52.423625 25.0828667,51.930125 L25.8488833,52.709125 C26.0349792,52.897375 26.28745,53.00225 26.55,53.000125 L29.5,53.000125 L29.5,51.000125 L26.9571,51.000125 L26.2068167,50.237125 C27.9710396,46.972875 27.9758333,43.018875 26.2196,39.750125 L26.9571,39.000125 L29.5,39.000125 L29.5,39 Z M24.75345,48.759 L23.3118833,47.293 L21.92145,48.707 L23.6983333,50.513 C23.5311667,50.731 23.3571167,50.944 23.1702833,51.147 L18.1071,46 L25.5116,46 C25.4058917,46.955 25.1498563,47.886625 24.75345,48.759 Z M15.7333333,44 C15.1902875,44.000125 14.7501229,44.447875 14.7502458,45.00025 C14.7502458,45.265375 14.8538646,45.5195 15.0381167,45.707 L21.66775,52.45 C17.6207188,55.237125 12.1182313,54.160125 9.37755833,50.0445 C6.63688542,45.928875 7.69593542,40.333125 11.7429667,37.546 C15.6067292,34.885125 20.8384313,35.73225 23.6983333,39.482 L21.9175167,41.293 L23.30795,42.707 L24.7455833,41.246 C25.1453083,42.116 25.4040479,43.046 25.5116,44 L15.7333333,44 Z" id="Shape" fill-rule="nonzero"></path>
                    <path d="M35.4,34 C33.2276938,34 31.4666667,35.790875 31.4666667,38 C31.4666667,40.209125 33.2276938,42 35.4,42 C37.5723063,42 39.3333333,40.209125 39.3333333,38 C39.3333333,35.790875 37.5723063,34 35.4,34 Z M35.4,40 C34.3137854,40 33.4333333,39.104625 33.4333333,38 C33.4333333,36.895375 34.3137854,36 35.4,36 C36.4862146,36 37.3666667,36.895375 37.3666667,38 C37.3666667,39.104625 36.4862146,40 35.4,40 Z" id="Shape" fill-rule="nonzero"></path>
                    <path d="M35.4,48 C33.2276938,48 31.4666667,49.790875 31.4666667,52 C31.4666667,54.209125 33.2276938,56 35.4,56 C37.5723063,56 39.3333333,54.209125 39.3333333,52 C39.3333333,49.790875 37.5723063,48 35.4,48 Z M35.4,54 C34.3137854,54 33.4333333,53.104625 33.4333333,52 C33.4333333,50.895375 34.3137854,50 35.4,50 C36.4862146,50 37.3666667,50.895375 37.3666667,52 C37.3666667,53.104625 36.4862146,54 35.4,54 Z" id="Shape" fill-rule="nonzero"></path>
                </g>
            </g>
        </g>
        <g id="Card/skills" transform="translate(400.000000, 0.000000)" fill="#FFFFFF">
            <text id="Detective" font-family="OpenSans-Regular, Open Sans" font-size="20" font-weight="normal">
                <tspan x="63.0390625" y="110">Listener</tspan>
            </text>
            <text id="A-6th-sense-to-detec" font-family="OpenSans-Light, Open Sans" font-size="16" font-weight="300">
                <tspan x="31.859375" y="143">Two ears that work </tspan>
                <tspan x="27.40625" y="165">with the intention to </tspan>
                <tspan x="16.3632812" y="187">understand every bit of </tspan>
                <tspan x="56.1757812" y="209">information.</tspan>
            </text>
            <g id="icon/Listener" transform="translate(71.000000, 20.000000)" fill-rule="evenodd" stroke-width="1">
                <g id="listening">
                    <path d="M16.1774194,30 C16.1774194,30.5344317 15.751331,30.9677419 15.2258065,30.9677419 C14.7002819,30.9677419 14.2741935,30.5344317 14.2741935,30 C14.2741935,29.4655683 14.7002819,29.0322581 15.2258065,29.0322581 C15.751331,29.0322581 16.1774194,29.4655683 16.1774194,30 Z" id="Path" fill-rule="nonzero"></path>
                    <path d="M25.6935484,30 C25.6935484,30.5344317 25.26746,30.9677419 24.7419355,30.9677419 C24.2164109,30.9677419 23.7903226,30.5344317 23.7903226,30 C23.7903226,29.4655683 24.2164109,29.0322581 24.7419355,29.0322581 C25.26746,29.0322581 25.6935484,29.4655683 25.6935484,30 Z" id="Path" fill-rule="nonzero"></path>
                    <path d="M19.983871,38.7096774 C18.9342159,38.7096774 18.0806452,37.8416394 18.0806452,36.7741935 L16.1774194,36.7741935 C16.1774194,38.9090852 17.8845608,40.6451613 19.983871,40.6451613 C22.0831811,40.6451613 23.7903226,38.9090852 23.7903226,36.7741935 L21.8870968,36.7741935 C21.8870968,37.8416394 21.0335261,38.7096774 19.983871,38.7096774 Z" id="Path" fill-rule="nonzero"></path>
                    <polygon id="Path" fill-rule="nonzero" points="39.9677419 3.87096774 41.8709677 3.87096774 41.8709677 5.80645161 39.9677419 5.80645161"></polygon>
                    <polygon id="Path" fill-rule="nonzero" points="43.7741935 3.87096774 55.1935484 3.87096774 55.1935484 5.80645161 43.7741935 5.80645161"></polygon>
                    <polygon id="Path" fill-rule="nonzero" points="43.7741935 7.74193548 55.1935484 7.74193548 55.1935484 9.67741935 43.7741935 9.67741935"></polygon>
                    <polygon id="Path" fill-rule="nonzero" points="39.9677419 7.74193548 41.8709677 7.74193548 41.8709677 9.67741935 39.9677419 9.67741935"></polygon>
                    <polygon id="Path" fill-rule="nonzero" points="39.9677419 11.6129032 41.8709677 11.6129032 41.8709677 13.5483871 39.9677419 13.5483871"></polygon>
                    <polygon id="Path" fill-rule="nonzero" points="43.7741935 11.6129032 55.1935484 11.6129032 55.1935484 13.5483871 43.7741935 13.5483871"></polygon>
                    <path d="M56.1451613,17.4193548 C57.7189469,17.4193548 59,16.116589 59,14.516129 L59,2.90322581 C59,1.30276585 57.7189469,0 56.1451613,0 L39.016129,0 C37.4423434,0 36.1612903,1.30276585 36.1612903,2.90322581 L36.1612903,14.516129 C36.1612903,16.116589 37.4423434,17.4193548 39.016129,17.4193548 L43.7741935,17.4193548 L43.7741935,21.811996 L52.3387097,17.9410282 L52.3387097,25.1612903 C52.3387097,26.7617503 53.6197628,28.0645161 55.1935484,28.0645161 L56.1451613,28.0645161 C56.6702211,28.0645161 57.0967742,28.499244 57.0967742,29.0322581 L57.0967742,34.8387097 C57.0967742,35.3726688 56.6702211,35.8064516 56.1451613,35.8064516 L53.2903226,35.8064516 L53.2903226,33.8709677 L51.3870968,33.8709677 L51.3870968,37.7419355 L56.1451613,37.7419355 C57.7189469,37.7419355 59,36.4391696 59,34.8387097 L59,29.0322581 C59,27.4317981 57.7189469,26.1290323 56.1451613,26.1290323 L55.1935484,26.1290323 C54.6684886,26.1290323 54.2419355,25.6943044 54.2419355,25.1612903 L54.2419355,17.4193548 L56.1451613,17.4193548 Z M39.016129,15.483871 C38.4910692,15.483871 38.0645161,15.0491431 38.0645161,14.516129 L38.0645161,2.90322581 C38.0645161,2.37021169 38.4910692,1.93548387 39.016129,1.93548387 L56.1451613,1.93548387 C56.6702211,1.93548387 57.0967742,2.37021169 57.0967742,2.90322581 L57.0967742,14.516129 C57.0967742,15.0491431 56.6702211,15.483871 56.1451613,15.483871 L53.0886625,15.483871 L45.6774194,18.8331653 L45.6774194,15.483871 L39.016129,15.483871 Z" id="Shape" fill-rule="nonzero"></path>
                    <path d="M38.0645161,38.7096774 L38.0645161,40.6451613 C38.0645161,41.1791204 37.637963,41.6129032 37.1129032,41.6129032 L35.2096774,41.6129032 C34.6846176,41.6129032 34.2580645,41.1791204 34.2580645,40.6451613 L34.2580645,35.2838332 C35.422954,34.2201676 36.1612903,32.6825542 36.1612903,30.9677419 L36.1612903,23.2258065 C36.1612903,14.1541708 28.9043127,6.77419355 19.983871,6.77419355 C11.0634293,6.77419355 3.80645161,14.1541708 3.80645161,23.2258065 L3.80645161,30.9677419 C3.80645161,34.1700794 6.3671639,36.7741935 9.51612903,36.7741935 L9.69780906,36.7741935 C10.295355,40.0653667 12.3844427,42.8263609 15.2258065,44.3091607 L15.2258065,45.6969821 L5.04661508,48.2855027 C2.07561274,49.0391885 0,51.7411164 0,54.8565083 L0,60 L39.9677419,60 L39.9677419,54.8565083 C39.9677419,51.7411164 37.8921292,49.0391885 34.9211269,48.2855027 L24.7419355,45.6969821 L24.7419355,44.3091607 C27.5832992,42.8263609 29.6723869,40.0663118 30.2699329,36.7741935 L30.4516129,36.7741935 C31.1197865,36.7741935 31.758222,36.6503906 32.3548387,36.4353894 L32.3548387,40.6451613 C32.3548387,42.2456212 33.6358918,43.5483871 35.2096774,43.5483871 L37.1129032,43.5483871 C38.6866889,43.5483871 39.9677419,42.2456212 39.9677419,40.6451613 L39.9677419,38.7096774 C39.9677419,38.1757183 40.394295,37.7419355 40.9193548,37.7419355 L43.7741935,37.7419355 L43.7741935,39.6774194 L45.6774194,39.6774194 L45.6774194,35.8064516 L40.9193548,35.8064516 C39.3455692,35.8064516 38.0645161,37.1092175 38.0645161,38.7096774 Z M19.983871,8.70967742 C27.8546576,8.70967742 34.2580645,15.2216167 34.2580645,23.2258065 L34.2580645,26.6516506 C33.7079133,26.1493511 33.0648311,25.7552608 32.3548387,25.5000945 L32.3548387,23.2258065 C32.3548387,16.2890625 26.8050025,10.6451613 19.983871,10.6451613 C13.1627394,10.6451613 7.61290323,16.2890625 7.61290323,23.2258065 L7.61290323,25.5000945 C6.90291079,25.7566784 6.25982863,26.1502961 5.70967742,26.6516506 L5.70967742,23.2258065 C5.70967742,15.2216167 12.1130843,8.70967742 19.983871,8.70967742 Z M5.70967742,30.9677419 C5.70967742,28.8328502 7.41681887,27.0967742 9.51612903,27.0967742 L9.55144279,27.0967742 C9.53703847,27.2914567 9.51612903,27.4847215 9.51612903,27.6822392 L9.51612903,34.8387097 C7.41681887,34.8387097 5.70967742,33.1026336 5.70967742,30.9677419 Z M9.95383385,25.1612903 L9.51612903,25.1612903 L9.51612903,23.2258065 C9.51612903,17.3565083 14.2123945,12.5806452 19.983871,12.5806452 C25.7553474,12.5806452 30.4516129,17.3565083 30.4516129,23.2258065 L30.4516129,25.1612903 L24.1736627,25.1612903 C20.4596774,25.1612903 16.8167843,23.8618321 13.9173387,21.5024886 L13.3741574,21.0602003 L12.7951975,21.452873 C11.4574565,22.3596585 10.4793583,23.6680948 9.95383385,25.1612903 Z M15.8851516,47.522839 L18.6382308,50.3225806 L15.5979949,53.4134009 L13.6366872,48.0950731 L15.8851516,47.522839 Z M1.90322581,54.8565083 C1.90322581,52.631836 3.3859391,50.7020225 5.50708795,50.1619204 L11.7771389,48.5671308 L14.853618,56.9082346 L19.0322581,52.6587702 L19.0322581,58.0645161 L9.51612903,58.0645161 L9.51612903,54.1935484 L7.61290323,54.1935484 L7.61290323,58.0645161 L1.90322581,58.0645161 L1.90322581,54.8565083 Z M38.0645161,54.8565083 L38.0645161,58.0645161 L32.3548387,58.0645161 L32.3548387,54.1935484 L30.4516129,54.1935484 L30.4516129,58.0645161 L20.9354839,58.0645161 L20.9354839,52.6587702 L25.1141239,56.9082346 L28.190603,48.5671308 L34.460654,50.1619204 C36.5818028,50.7020225 38.0645161,52.631836 38.0645161,54.8565083 Z M26.3310547,48.0950731 L24.3697471,53.4134009 L21.3295111,50.3225806 L24.0825904,47.522839 L26.3310547,48.0950731 Z M22.8387097,46.0509073 L19.983871,48.9541331 L17.1290323,46.0509073 L17.1290323,45.0718246 C18.0378969,45.3340789 18.9932271,45.483871 19.983871,45.483871 C20.9745149,45.483871 21.929845,45.3340789 22.8387097,45.0718246 L22.8387097,46.0509073 Z M28.5483871,34.8387097 C28.5483871,39.6415071 24.7066217,43.5483871 19.983871,43.5483871 C15.2611202,43.5483871 11.4193548,39.6415071 11.4193548,34.8387097 L11.4193548,27.6822392 C11.4193548,26.0496472 12.1186602,24.5205393 13.3179342,23.4734123 C16.4515657,25.8152722 20.2779974,27.0967742 24.1736627,27.0967742 L28.5483871,27.0967742 L28.5483871,34.8387097 Z M30.4516129,27.0967742 C32.5509231,27.0967742 34.2580645,28.8328502 34.2580645,30.9677419 C34.2580645,33.1026336 32.5509231,34.8387097 30.4516129,34.8387097 L30.4516129,27.0967742 Z" id="Shape" fill-rule="nonzero"></path>
                    <polygon id="Path" fill-rule="nonzero" points="47.5806452 33.8709677 49.483871 33.8709677 49.483871 39.6774194 47.5806452 39.6774194"></polygon>
                </g>
            </g>
        </g>
        <g id="Card/skills_right-line" transform="translate(600.000000, 0.000000)" fill="#FFFFFF">
            <text id="Detective" font-family="OpenSans-Regular, Open Sans" font-size="20" font-weight="normal">
                <tspan x="30.2685547" y="110">Communicator</tspan>
            </text>
            <text id="A-6th-sense-to-detec" font-family="OpenSans-Light, Open Sans" font-size="16" font-weight="300">
                <tspan x="40.703125" y="143">Develops stories </tspan>
                <tspan x="29.7148438" y="165">through design and </tspan>
                <tspan x="27.234375" y="187">offers conversations </tspan>
                <tspan x="26.0234375" y="209">with the applications </tspan>
                <tspan x="65.2695312" y="231">audience.</tspan>
            </text>
            <g id="icon/communicatir" transform="translate(71.000000, 20.000000)" fill-rule="evenodd" stroke-width="1">
                <g id="computer">
                    <polygon id="Path" fill-rule="nonzero" points="5.70803718 19.3548387 9.5133953 19.3548387 9.5133953 21.2903226 5.70803718 21.2903226"></polygon>
                    <path d="M56.1290323,15.483871 C57.7023658,15.483871 58.9830508,14.1811051 58.9830508,12.5806452 L58.9830508,2.90322581 C58.9830508,1.30276585 57.7023658,0 56.1290323,0 L42.8102788,0 C41.2369453,0 39.9562603,1.30276585 39.9562603,2.90322581 L39.9562603,12.5806452 C39.9562603,14.1811051 41.2369453,15.483871 42.8102788,15.483871 L45.6642974,15.483871 L45.6642974,17.4193548 L43.7616184,17.4193548 L43.7616184,19.3548387 L48.518316,19.3548387 L48.518316,29.0322581 L44.5921824,29.0322581 C43.8331546,28.2785723 42.8985379,27.7016129 41.852436,27.3840726 C41.8570812,27.2862588 41.8589393,27.1917527 41.8589393,27.0967742 C41.8589393,22.827936 38.444708,19.3548387 34.2482231,19.3548387 C31.6445815,19.3548387 29.2244257,20.7327369 27.8382942,22.9366179 C26.8618706,22.4905494 25.8060137,22.2580645 24.7348278,22.2580645 C21.5774768,22.2580645 18.7346068,24.2823841 17.6225428,27.2517641 C16.8997477,27.4095893 16.226192,27.6921623 15.6144175,28.0645161 L8.56205577,28.0645161 L8.56205577,25.1612903 L12.3674139,25.1612903 C13.9407474,25.1612903 15.2214325,23.8585245 15.2214325,22.2580645 L15.2214325,2.90322581 C15.2214325,1.30276585 13.9407474,0 12.3674139,0 L2.85401859,0 C1.28068507,0 0,1.30276585 0,2.90322581 L0,22.2580645 C0,23.8585245 1.28068507,25.1612903 2.85401859,25.1612903 L6.65937671,25.1612903 L6.65937671,30 L13.5909628,30 C13.1863649,30.5873551 12.8723485,31.2356666 12.6661011,31.9354839 L8.56205577,31.9354839 L8.56205577,42.5806452 L4.75669765,42.5806452 C3.18336413,42.5806452 1.90267906,43.883411 1.90267906,45.483871 L1.90267906,54.1935484 L0,54.1935484 L0,57.0967742 C0,58.6972342 1.28068507,60 2.85401859,60 L18.0754511,60 C19.6487846,60 20.9294697,58.6972342 20.9294697,57.0967742 L20.9294697,54.1935484 L19.0267906,54.1935484 L19.0267906,45.483871 C19.0267906,43.883411 17.7461055,42.5806452 16.172772,42.5806452 L10.4647348,42.5806452 L10.4647348,33.8709677 L12.3674139,33.8709677 C12.3674139,37.6053743 15.3556791,40.6451613 19.0267906,40.6451613 L39.9562603,40.6451613 C43.304065,40.6451613 46.0753987,38.1157069 46.5394555,34.8387097 L50.4209951,34.8387097 L50.4209951,42.5806452 L43.7616184,42.5806452 L43.7616184,60 L58.9830508,60 L58.9830508,42.5806452 L52.3236741,42.5806452 L52.3236741,32.9032258 L46.5357393,32.9032258 C46.4367963,32.2218373 46.2314779,31.5735256 45.9439392,30.9677419 L50.4209951,30.9677419 L50.4209951,19.3548387 L55.1776927,19.3548387 L55.1776927,17.4193548 L53.2750137,17.4193548 L53.2750137,15.483871 L56.1290323,15.483871 Z M13.3187534,15.483871 L1.90267906,15.483871 L1.90267906,5.80645161 L13.3187534,5.80645161 L13.3187534,15.483871 Z M2.85401859,1.93548387 L12.3674139,1.93548387 C12.8923228,1.93548387 13.3187534,2.36926669 13.3187534,2.90322581 L13.3187534,3.87096774 L1.90267906,3.87096774 L1.90267906,2.90322581 C1.90267906,2.36926669 2.32910963,1.93548387 2.85401859,1.93548387 Z M1.90267906,22.2580645 L1.90267906,17.4193548 L13.3187534,17.4193548 L13.3187534,22.2580645 C13.3187534,22.7920236 12.8923228,23.2258065 12.3674139,23.2258065 L2.85401859,23.2258065 C2.32910963,23.2258065 1.90267906,22.7920236 1.90267906,22.2580645 Z M19.0267906,57.0967742 C19.0267906,57.6307333 18.60036,58.0645161 18.0754511,58.0645161 L2.85401859,58.0645161 C2.32910963,58.0645161 1.90267906,57.6307333 1.90267906,57.0967742 L1.90267906,56.1290323 L19.0267906,56.1290323 L19.0267906,57.0967742 Z M17.1241115,45.483871 L17.1241115,54.1935484 L3.80535812,54.1935484 L3.80535812,45.483871 C3.80535812,44.9499119 4.23178869,44.516129 4.75669765,44.516129 L16.172772,44.516129 C16.697681,44.516129 17.1241115,44.9499119 17.1241115,45.483871 Z M45.6642974,58.0645161 L45.6642974,52.2580645 L57.0803718,52.2580645 L57.0803718,58.0645161 L45.6642974,58.0645161 Z M57.0803718,50.3225806 L45.6642974,50.3225806 L45.6642974,44.516129 L57.0803718,44.516129 L57.0803718,50.3225806 Z M39.9562603,38.7096774 L19.0267906,38.7096774 C16.4041035,38.7096774 14.2700929,36.5388735 14.2700929,33.8709677 C14.2700929,31.4246787 16.0701128,29.3611391 18.455894,29.0710055 L19.0802106,28.9944556 L19.2562642,28.3801663 C19.9600138,25.9149761 22.2138709,24.1935484 24.7348278,24.1935484 C25.7851103,24.1935484 26.8163475,24.4936051 27.7203059,25.0596963 L28.628445,25.6295678 L29.0813531,24.6452873 C30.017828,22.6063193 32.0459278,21.2903226 34.2482231,21.2903226 C37.3962836,21.2903226 39.9562603,23.8944368 39.9562603,27.0967742 C39.9562603,27.3637537 39.9325696,27.648217 39.8810079,27.9917465 L39.7374707,28.9490927 L40.6781262,29.0941596 C42.9784355,29.4513924 44.7129579,31.5050088 44.7129579,33.8709677 C44.7129579,36.5388735 42.5789473,38.7096774 39.9562603,38.7096774 L39.9562603,38.7096774 Z M42.8102788,1.93548387 L56.1290323,1.93548387 C56.6539412,1.93548387 57.0803718,2.36926669 57.0803718,2.90322581 L57.0803718,9.67741935 L41.8589393,9.67741935 L41.8589393,2.90322581 C41.8589393,2.36926669 42.2853699,1.93548387 42.8102788,1.93548387 Z M41.8589393,12.5806452 L41.8589393,11.6129032 L57.0803718,11.6129032 L57.0803718,12.5806452 C57.0803718,13.1146043 56.6539412,13.5483871 56.1290323,13.5483871 L42.8102788,13.5483871 C42.2853699,13.5483871 41.8589393,13.1146043 41.8589393,12.5806452 Z M51.3723346,17.4193548 L47.5669765,17.4193548 L47.5669765,15.483871 L51.3723346,15.483871 L51.3723346,17.4193548 Z" id="Shape" fill-rule="nonzero"></path>
                    <polygon id="Path" fill-rule="nonzero" points="47.5669765 46.4516129 49.4696555 46.4516129 49.4696555 48.3870968 47.5669765 48.3870968"></polygon>
                    <polygon id="Path" fill-rule="nonzero" points="53.2750137 54.1935484 55.1776927 54.1935484 55.1776927 56.1290323 53.2750137 56.1290323"></polygon>
                    <polygon id="Path" fill-rule="nonzero" points="51.3723346 46.4516129 55.1776927 46.4516129 55.1776927 48.3870968 51.3723346 48.3870968"></polygon>
                    <polygon id="Path" fill-rule="nonzero" points="47.5669765 54.1935484 51.3723346 54.1935484 51.3723346 56.1290323 47.5669765 56.1290323"></polygon>
                </g>
            </g>
        </g>
    </g>
</svg>