<?xml version="1.0" encoding="UTF-8"?>
<svg width="172px" height="216px" viewBox="0 0 172 216" version="1.1" xmlns="http://www.w3.org/2000/svg" xmlns:xlink="http://www.w3.org/1999/xlink">
    <!-- Generator: Sketch 64 (93537) - https://sketch.com -->
    <title>Strategustskillssite</title>
    <desc>Created with Sketch.</desc>
    <g id="Page-1" stroke="none" stroke-width="1" fill="none" fill-rule="evenodd">
        <g id="Artboard" transform="translate(-305.000000, -20.000000)" fill="#FFFFFF">
            <g id="Card/skills" transform="translate(278.000000, 0.000000)">
                <text id="Detective" font-family="OpenSans-Regular, Open Sans" font-size="20" font-weight="normal">
                    <tspan x="68.8886719" y="111">Strategist</tspan>
                </text>
                <text id="A-6th-sense-to-detec" font-family="OpenSans-Light, Open Sans" font-size="16" font-weight="300">
                    <tspan x="27.6445312" y="144">A mind with an ability of </tspan>
                    <tspan x="30.796875" y="166">thinking about all parts </tspan>
                    <tspan x="27.8632812" y="188">of the UX journey. From </tspan>
                    <tspan x="31.3046875" y="210">the initial idea until the </tspan>
                    <tspan x="76.3828125" y="232">launching.</tspan>
                </text>
                <g id="icon/strategy" transform="translate(84.000000, 20.000000)" fill-rule="evenodd" stroke-width="1">
                    <g id="paper">
                        <path d="M44.25,4 L35.4,4 L35.4,1 C35.4,0.44775 34.9597125,0 34.4166667,0 L10.8166667,0 C10.2736208,0 9.83333333,0.44775 9.83333333,1 L9.83333333,4 L0.983333333,4 C0.4402875,4 0,4.44775 0,5 L0,59 C0,59.55225 0.4402875,60 0.983333333,60 L44.25,60 C44.7930458,60 45.2333333,59.55225 45.2333333,59 L45.2333333,5 C45.2333333,4.44775 44.7930458,4 44.25,4 Z M11.8,2 L33.4333333,2 L33.4333333,4 L11.8,4 L11.8,2 Z M11.8,6 L33.4333333,6 L33.4333333,10 L25.3985167,10 C24.8563313,8.437625 23.1712667,7.618 21.6349313,8.169375 C20.7935667,8.471375 20.1317833,9.144375 19.8348167,10 L11.8,10 L11.8,6 Z M43.2666667,58 L1.96666667,58 L1.96666667,6 L9.83333333,6 L9.83333333,11 C9.83333333,11.55225 10.2736208,12 10.8166667,12 L20.65,12 C21.1930458,12 21.6333333,11.55225 21.6333333,11 C21.6333333,10.44775 22.0736208,10 22.6166667,10 C23.1597125,10 23.6,10.44775 23.6,11 C23.6,11.55225 24.0402875,12 24.5833333,12 L34.4166667,12 C34.9597125,12 35.4,11.55225 35.4,11 L35.4,6 L43.2666667,6 L43.2666667,58 Z" id="Shape" fill-rule="nonzero"></path>
                        <path d="M9.83333333,14 C7.66102708,14 5.9,15.790875 5.9,18 C5.9,20.209125 7.66102708,22 9.83333333,22 C12.0056396,22 13.7666667,20.209125 13.7666667,18 C13.7666667,15.790875 12.0056396,14 9.83333333,14 Z M9.83333333,20 C8.74711875,20 7.86666667,19.104625 7.86666667,18 C7.86666667,16.895375 8.74711875,16 9.83333333,16 C10.9195479,16 11.8,16.895375 11.8,18 C11.8,19.104625 10.9195479,20 9.83333333,20 Z" id="Shape" fill-rule="nonzero"></path>
                        <path d="M9.83333333,24 C7.66102708,24 5.9,25.790875 5.9,28 C5.9,30.209125 7.66102708,32 9.83333333,32 C12.0056396,32 13.7666667,30.209125 13.7666667,28 C13.7666667,25.790875 12.0056396,24 9.83333333,24 Z M9.83333333,30 C8.74711875,30 7.86666667,29.104625 7.86666667,28 C7.86666667,26.895375 8.74711875,26 9.83333333,26 C10.9195479,26 11.8,26.895375 11.8,28 C11.8,29.104625 10.9195479,30 9.83333333,30 Z" id="Shape" fill-rule="nonzero"></path>
                        <path d="M38.35,15 L24.5833333,15 C24.0402875,15 23.6,15.44775 23.6,16 C23.6,16.55225 24.0402875,17 24.5833333,17 L38.35,17 C38.8930458,17 39.3333333,16.55225 39.3333333,16 C39.3333333,15.44775 38.8930458,15 38.35,15 Z" id="Path" fill-rule="nonzero"></path>
                        <path d="M20.65,15 L16.7166667,15 C16.1736208,15 15.7333333,15.44775 15.7333333,16 C15.7333333,16.55225 16.1736208,17 16.7166667,17 L20.65,17 C21.1930458,17 21.6333333,16.55225 21.6333333,16 C21.6333333,15.44775 21.1930458,15 20.65,15 Z" id="Path" fill-rule="nonzero"></path>
                        <path d="M38.35,19 L30.4833333,19 C29.9402875,19 29.5,19.44775 29.5,20 C29.5,20.55225 29.9402875,21 30.4833333,21 L38.35,21 C38.8930458,21 39.3333333,20.55225 39.3333333,20 C39.3333333,19.44775 38.8930458,19 38.35,19 Z" id="Path" fill-rule="nonzero"></path>
                        <path d="M26.55,19 L16.7166667,19 C16.1736208,19 15.7333333,19.44775 15.7333333,20 C15.7333333,20.55225 16.1736208,21 16.7166667,21 L26.55,21 C27.0930458,21 27.5333333,20.55225 27.5333333,20 C27.5333333,19.44775 27.0930458,19 26.55,19 Z" id="Path" fill-rule="nonzero"></path>
                        <path d="M38.35,25 L34.4166667,25 C33.8736208,25 33.4333333,25.44775 33.4333333,26 C33.4333333,26.55225 33.8736208,27 34.4166667,27 L38.35,27 C38.8930458,27 39.3333333,26.55225 39.3333333,26 C39.3333333,25.44775 38.8930458,25 38.35,25 Z" id="Path" fill-rule="nonzero"></path>
                        <path d="M30.4833333,25 L16.7166667,25 C16.1736208,25 15.7333333,25.44775 15.7333333,26 C15.7333333,26.55225 16.1736208,27 16.7166667,27 L30.4833333,27 C31.0263792,27 31.4666667,26.55225 31.4666667,26 C31.4666667,25.44775 31.0263792,25 30.4833333,25 Z" id="Path" fill-rule="nonzero"></path>
                        <path d="M38.35,29 L27.5333333,29 C26.9902875,29 26.55,29.44775 26.55,30 C26.55,30.55225 26.9902875,31 27.5333333,31 L38.35,31 C38.8930458,31 39.3333333,30.55225 39.3333333,30 C39.3333333,29.44775 38.8930458,29 38.35,29 Z" id="Path" fill-rule="nonzero"></path>
                        <path d="M23.6,29 L16.7166667,29 C16.1736208,29 15.7333333,29.44775 15.7333333,30 C15.7333333,30.55225 16.1736208,31 16.7166667,31 L23.6,31 C24.1430458,31 24.5833333,30.55225 24.5833333,30 C24.5833333,29.44775 24.1430458,29 23.6,29 Z" id="Path" fill-rule="nonzero"></path>
                        <path d="M55.0666667,4.1 L55.0666667,4 C55.0666667,1.790875 53.3056396,0 51.1333333,0 C48.9610271,0 47.2,1.790875 47.2,4 L47.2,52 C47.2,52.013 47.2068833,52.024 47.2068833,52.036 C47.2110625,52.14125 47.2315896,52.24525 47.26785,52.344 C47.2767,52.366 47.2816167,52.389 47.2904667,52.41 C47.2993167,52.431 47.29735,52.435 47.30325,52.447 L50.15,58.236 L50.15,59 C50.15,59.55225 50.5902875,60 51.1333333,60 C51.6763792,60 52.1166667,59.55225 52.1166667,59 L52.1166667,58.236 L54.9683333,52.447 C54.9742333,52.435 54.9752167,52.422 54.9811167,52.41 C54.9870167,52.398 54.9948833,52.366 55.0037333,52.344 C55.0399938,52.24525 55.0605208,52.14125 55.0647,52.036 C55.0647,52.023 55.0715833,52.013 55.0715833,52 L55.0715833,6.184 C56.2440854,6.607875 57.0289083,7.7345 57.0333333,9 L57.0333333,18 C57.0333333,18.55225 57.4736208,19 58.0166667,19 C58.5597125,19 59,18.55225 59,18 L59,9 C58.99705,6.624875 57.3542688,4.578375 55.0666667,4.1 Z M51.1333333,55.764 L49.7743667,53 L52.4923,53 L51.1333333,55.764 Z M53.1,51 L49.1666667,51 L49.1666667,23 L53.1,23 L53.1,51 Z M53.1,21 L49.1666667,21 L49.1666667,6 L53.1,6 L53.1,21 Z M49.1666667,4 C49.1666667,2.895375 50.0471188,2 51.1333333,2 C52.2195479,2 53.1,2.895375 53.1,4 L49.1666667,4 Z" id="Shape" fill-rule="nonzero"></path>
                        <path d="M29.5,39 L29.5,37 L26.55,37 C26.2891708,37 26.0391583,37.1055 25.8547833,37.293 L25.0995833,38.061 C21.3335396,33.345125 14.5212521,32.627 9.88409792,36.456875 C5.24694375,40.28675 4.54066458,47.2145 8.30670833,51.930375 C12.0727521,56.64625 18.8850396,57.364375 23.5221938,53.5345 C23.6149958,53.457875 23.7064458,53.37975 23.7966667,53.300125 C24.2633813,52.882 24.6937125,52.423625 25.0828667,51.930125 L25.8488833,52.709125 C26.0349792,52.897375 26.28745,53.00225 26.55,53.000125 L29.5,53.000125 L29.5,51.000125 L26.9571,51.000125 L26.2068167,50.237125 C27.9710396,46.972875 27.9758333,43.018875 26.2196,39.750125 L26.9571,39.000125 L29.5,39.000125 L29.5,39 Z M24.75345,48.759 L23.3118833,47.293 L21.92145,48.707 L23.6983333,50.513 C23.5311667,50.731 23.3571167,50.944 23.1702833,51.147 L18.1071,46 L25.5116,46 C25.4058917,46.955 25.1498563,47.886625 24.75345,48.759 Z M15.7333333,44 C15.1902875,44.000125 14.7501229,44.447875 14.7502458,45.00025 C14.7502458,45.265375 14.8538646,45.5195 15.0381167,45.707 L21.66775,52.45 C17.6207188,55.237125 12.1182313,54.160125 9.37755833,50.0445 C6.63688542,45.928875 7.69593542,40.333125 11.7429667,37.546 C15.6067292,34.885125 20.8384313,35.73225 23.6983333,39.482 L21.9175167,41.293 L23.30795,42.707 L24.7455833,41.246 C25.1453083,42.116 25.4040479,43.046 25.5116,44 L15.7333333,44 Z" id="Shape" fill-rule="nonzero"></path>
                        <path d="M35.4,34 C33.2276938,34 31.4666667,35.790875 31.4666667,38 C31.4666667,40.209125 33.2276938,42 35.4,42 C37.5723063,42 39.3333333,40.209125 39.3333333,38 C39.3333333,35.790875 37.5723063,34 35.4,34 Z M35.4,40 C34.3137854,40 33.4333333,39.104625 33.4333333,38 C33.4333333,36.895375 34.3137854,36 35.4,36 C36.4862146,36 37.3666667,36.895375 37.3666667,38 C37.3666667,39.104625 36.4862146,40 35.4,40 Z" id="Shape" fill-rule="nonzero"></path>
                        <path d="M35.4,48 C33.2276938,48 31.4666667,49.790875 31.4666667,52 C31.4666667,54.209125 33.2276938,56 35.4,56 C37.5723063,56 39.3333333,54.209125 39.3333333,52 C39.3333333,49.790875 37.5723063,48 35.4,48 Z M35.4,54 C34.3137854,54 33.4333333,53.104625 33.4333333,52 C33.4333333,50.895375 34.3137854,50 35.4,50 C36.4862146,50 37.3666667,50.895375 37.3666667,52 C37.3666667,53.104625 36.4862146,54 35.4,54 Z" id="Shape" fill-rule="nonzero"></path>
                    </g>
                </g>
            </g>
        </g>
    </g>
</svg>