<?xml version="1.0" encoding="UTF-8"?>
<svg width="226px" height="276px" viewBox="0 0 226 276" version="1.1" xmlns="http://www.w3.org/2000/svg" xmlns:xlink="http://www.w3.org/1999/xlink">
    <!-- Generator: Sketch 64 (93537) - https://sketch.com -->
    <title>skillssitestrategics_skills</title>
    <desc>Created with Sketch.</desc>
    <g id="Page-1" stroke="none" stroke-width="1" fill="none" fill-rule="evenodd">
        <g id="Desktop" transform="translate(-278.000000, -1950.000000)">
            <g id="strategics_skills" transform="translate(278.000000, 1950.000000)">
                <rect id="Rectangle" fill="#3B8089" x="0" y="0" width="226" height="276"></rect>
                <path d="M73.8300781,111.195312 C75.3925781,111.195312 76.6295573,110.84375 77.5410156,110.140625 C78.452474,109.4375 78.9082031,108.457682 78.9082031,107.201172 C78.9082031,106.224609 78.6266276,105.430339 78.0634766,104.818359 C77.5003255,104.20638 76.4700521,103.633464 74.9726562,103.099609 C74.0807292,102.780599 73.4182943,102.489258 72.9853516,102.225586 C72.5524089,101.961914 72.2447917,101.672201 72.0625,101.356445 C71.8802083,101.04069 71.7890625,100.635417 71.7890625,100.140625 C71.7890625,99.4700521 72.0364583,98.9459635 72.53125,98.5683594 C73.0260417,98.1907552 73.7128906,98.0019531 74.5917969,98.0019531 C75.7050781,98.0019531 76.8509115,98.249349 78.0292969,98.7441406 L78.0292969,98.7441406 L78.546875,97.2988281 C77.3554688,96.7779948 76.0501302,96.5175781 74.6308594,96.5175781 C73.2701823,96.5175781 72.1764323,96.843099 71.3496094,97.4941406 C70.5227865,98.1451823 70.109375,99.0208333 70.109375,100.121094 C70.109375,101.169271 70.3942057,102.01888 70.9638672,102.669922 C71.5335286,103.320964 72.4824219,103.884115 73.8105469,104.359375 C74.7610677,104.697917 75.4690755,105.000651 75.9345703,105.267578 C76.4000651,105.534505 76.7320964,105.825846 76.9306641,106.141602 C77.1292318,106.457357 77.2285156,106.86263 77.2285156,107.357422 C77.2285156,108.10612 76.9485677,108.69043 76.3886719,109.110352 C75.828776,109.530273 74.9954427,109.740234 73.8886719,109.740234 C73.2115885,109.740234 72.5279948,109.66862 71.8378906,109.525391 C71.1477865,109.382161 70.5097656,109.186849 69.9238281,108.939453 L69.9238281,108.939453 L69.9238281,110.541016 C70.8352865,110.977214 72.1373698,111.195312 73.8300781,111.195312 Z M84.8066406,111.195312 C85.0800781,111.195312 85.3876953,111.167643 85.7294922,111.112305 C86.0712891,111.056966 86.3300781,110.986979 86.5058594,110.902344 L86.5058594,110.902344 L86.5058594,109.662109 C86.3496094,109.707682 86.1380208,109.751628 85.8710938,109.793945 C85.6041667,109.836263 85.327474,109.857422 85.0410156,109.857422 C84.5071615,109.857422 84.0872396,109.684896 83.78125,109.339844 C83.4752604,108.994792 83.3222656,108.5 83.3222656,107.855469 L83.3222656,107.855469 L83.3222656,101.556641 L86.4277344,101.556641 L86.4277344,100.296875 L83.3222656,100.296875 L83.3222656,97.8164062 L82.3847656,97.8164062 L81.7011719,100.101562 L80.1679688,100.775391 L80.1679688,101.556641 L81.7011719,101.556641 L81.7011719,107.923828 C81.7011719,110.104818 82.7363281,111.195312 84.8066406,111.195312 Z M90.265625,111 L90.265625,105.257812 C90.265625,104.209635 90.5732422,103.333984 91.1884766,102.630859 C91.8037109,101.927734 92.5442708,101.576172 93.4101562,101.576172 C93.7486979,101.576172 94.1393229,101.625 94.5820312,101.722656 L94.5820312,101.722656 L94.8066406,100.21875 C94.4290365,100.140625 94.0026042,100.101562 93.5273438,100.101562 C92.8567708,100.101562 92.2415365,100.290365 91.6816406,100.667969 C91.1217448,101.045573 90.6432292,101.582682 90.2460938,102.279297 L90.2460938,102.279297 L90.1679688,102.279297 L89.9824219,100.296875 L88.6445312,100.296875 L88.6445312,111 L90.265625,111 Z M99.40625,111.195312 C100.200521,111.195312 100.862956,111.076497 101.393555,110.838867 C101.924154,110.601237 102.45638,110.147135 102.990234,109.476562 L102.990234,109.476562 L103.068359,109.476562 L103.390625,111 L104.591797,111 L104.591797,103.695312 C104.591797,102.445312 104.28418,101.537109 103.668945,100.970703 C103.053711,100.404297 102.108073,100.121094 100.832031,100.121094 C100.200521,100.121094 99.570638,100.202474 98.9423828,100.365234 C98.3141276,100.527995 97.7363281,100.752604 97.2089844,101.039062 L97.2089844,101.039062 L97.7070312,102.279297 C98.8333333,101.732422 99.8424479,101.458984 100.734375,101.458984 C101.528646,101.458984 102.106445,101.65918 102.467773,102.05957 C102.829102,102.459961 103.009766,103.080078 103.009766,103.919922 L103.009766,103.919922 L103.009766,104.583984 L101.193359,104.642578 C97.7363281,104.746745 96.0078125,105.879557 96.0078125,108.041016 C96.0078125,109.05013 96.3089193,109.828125 96.9111328,110.375 C97.5133464,110.921875 98.3450521,111.195312 99.40625,111.195312 Z M99.7285156,109.857422 C99.0904948,109.857422 98.5940755,109.704427 98.2392578,109.398438 C97.8844401,109.092448 97.7070312,108.646484 97.7070312,108.060547 C97.7070312,107.311849 97.991862,106.760091 98.5615234,106.405273 C99.1311849,106.050456 100.060547,105.85026 101.349609,105.804688 L101.349609,105.804688 L102.970703,105.736328 L102.970703,106.703125 C102.970703,107.699219 102.682617,108.473958 102.106445,109.027344 C101.530273,109.580729 100.73763,109.857422 99.7285156,109.857422 Z M111.154297,111.195312 C111.427734,111.195312 111.735352,111.167643 112.077148,111.112305 C112.418945,111.056966 112.677734,110.986979 112.853516,110.902344 L112.853516,110.902344 L112.853516,109.662109 C112.697266,109.707682 112.485677,109.751628 112.21875,109.793945 C111.951823,109.836263 111.67513,109.857422 111.388672,109.857422 C110.854818,109.857422 110.434896,109.684896 110.128906,109.339844 C109.822917,108.994792 109.669922,108.5 109.669922,107.855469 L109.669922,107.855469 L109.669922,101.556641 L112.775391,101.556641 L112.775391,100.296875 L109.669922,100.296875 L109.669922,97.8164062 L108.732422,97.8164062 L108.048828,100.101562 L106.515625,100.775391 L106.515625,101.556641 L108.048828,101.556641 L108.048828,107.923828 C108.048828,110.104818 109.083984,111.195312 111.154297,111.195312 Z M119.513672,111.195312 C120.236328,111.195312 120.85319,111.141602 121.364258,111.03418 C121.875326,110.926758 122.417318,110.749349 122.990234,110.501953 L122.990234,110.501953 L122.990234,109.056641 C121.863932,109.538411 120.724609,109.779297 119.572266,109.779297 C118.478516,109.779297 117.630534,109.453776 117.02832,108.802734 C116.426107,108.151693 116.108724,107.197917 116.076172,105.941406 L116.076172,105.941406 L123.449219,105.941406 L123.449219,104.916016 C123.449219,103.470703 123.058594,102.306966 122.277344,101.424805 C121.496094,100.542643 120.434896,100.101562 119.09375,100.101562 C117.661458,100.101562 116.520508,100.609375 115.670898,101.625 C114.821289,102.640625 114.396484,104.011068 114.396484,105.736328 C114.396484,107.448568 114.853841,108.786458 115.768555,109.75 C116.683268,110.713542 117.931641,111.195312 119.513672,111.195312 Z M121.710938,104.623047 L116.115234,104.623047 C116.20638,103.633464 116.507487,102.858724 117.018555,102.298828 C117.529622,101.738932 118.214844,101.458984 119.074219,101.458984 C119.920573,101.458984 120.571615,101.730794 121.027344,102.274414 C121.483073,102.818034 121.710938,103.600911 121.710938,104.623047 L121.710938,104.623047 Z M129.25,115.804688 C131.072917,115.804688 132.459635,115.493815 133.410156,114.87207 C134.360677,114.250326 134.835938,113.347005 134.835938,112.162109 C134.835938,111.23112 134.525065,110.521484 133.90332,110.033203 C133.281576,109.544922 132.391276,109.300781 131.232422,109.300781 L131.232422,109.300781 L129.337891,109.300781 C128.751953,109.300781 128.338542,109.230794 128.097656,109.09082 C127.856771,108.950846 127.736328,108.734375 127.736328,108.441406 C127.736328,107.888021 128.08138,107.429036 128.771484,107.064453 C129.051432,107.116536 129.350911,107.142578 129.669922,107.142578 C130.919922,107.142578 131.902995,106.830078 132.619141,106.205078 C133.335286,105.580078 133.693359,104.74349 133.693359,103.695312 C133.693359,103.233073 133.621745,102.818034 133.478516,102.450195 C133.335286,102.082357 133.172526,101.784505 132.990234,101.556641 L132.990234,101.556641 L134.972656,101.322266 L134.972656,100.296875 L131.271484,100.296875 C130.822266,100.166667 130.317708,100.101562 129.757812,100.101562 C128.46875,100.101562 127.472656,100.418945 126.769531,101.053711 C126.066406,101.688477 125.714844,102.591797 125.714844,103.763672 C125.714844,104.466797 125.888997,105.091797 126.237305,105.638672 C126.585612,106.185547 127.036458,106.572917 127.589844,106.800781 C127.140625,107.074219 126.811849,107.357422 126.603516,107.650391 C126.395182,107.943359 126.291016,108.285156 126.291016,108.675781 C126.291016,109.020833 126.383789,109.323568 126.569336,109.583984 C126.754883,109.844401 126.984375,110.036458 127.257812,110.160156 C126.502604,110.329427 125.916667,110.651693 125.5,111.126953 C125.083333,111.602214 124.875,112.165365 124.875,112.816406 C124.875,113.766927 125.254232,114.502604 126.012695,115.023438 C126.771159,115.544271 127.85026,115.804688 129.25,115.804688 Z M129.71875,106 C128.963542,106 128.374349,105.807943 127.951172,105.423828 C127.527995,105.039714 127.316406,104.473307 127.316406,103.724609 C127.316406,102.917318 127.521484,102.308594 127.931641,101.898438 C128.341797,101.488281 128.927734,101.283203 129.689453,101.283203 C131.291016,101.283203 132.091797,102.08724 132.091797,103.695312 C132.091797,105.231771 131.300781,106 129.71875,106 Z M129.269531,114.564453 C128.358073,114.564453 127.658203,114.414714 127.169922,114.115234 C126.681641,113.815755 126.4375,113.376302 126.4375,112.796875 C126.4375,112.139323 126.642578,111.634766 127.052734,111.283203 C127.462891,110.931641 128.035807,110.755859 128.771484,110.755859 L128.771484,110.755859 L130.714844,110.755859 C131.704427,110.755859 132.378255,110.868164 132.736328,111.092773 C133.094401,111.317383 133.273438,111.719401 133.273438,112.298828 C133.273438,112.995443 132.946289,113.547201 132.291992,113.954102 C131.637695,114.361003 130.630208,114.564453 129.269531,114.564453 Z M137.990234,98.4804688 C138.250651,98.4804688 138.47526,98.3909505 138.664062,98.2119141 C138.852865,98.0328776 138.947266,97.7610677 138.947266,97.3964844 C138.947266,97.031901 138.852865,96.7617188 138.664062,96.5859375 C138.47526,96.4101562 138.250651,96.3222656 137.990234,96.3222656 C137.716797,96.3222656 137.488932,96.4085286 137.306641,96.5810547 C137.124349,96.7535807 137.033203,97.0253906 137.033203,97.3964844 C137.033203,97.7610677 137.124349,98.0328776 137.306641,98.2119141 C137.488932,98.3909505 137.716797,98.4804688 137.990234,98.4804688 Z M138.791016,111 L138.791016,100.296875 L137.169922,100.296875 L137.169922,111 L138.791016,111 Z M144.894531,111.195312 C146.235677,111.195312 147.277344,110.92513 148.019531,110.384766 C148.761719,109.844401 149.132812,109.076172 149.132812,108.080078 C149.132812,107.370443 148.909831,106.78125 148.463867,106.3125 C148.017904,105.84375 147.160156,105.378255 145.890625,104.916016 C144.966146,104.570964 144.341146,104.307292 144.015625,104.125 C143.690104,103.942708 143.454102,103.750651 143.307617,103.548828 C143.161133,103.347005 143.087891,103.102865 143.087891,102.816406 C143.087891,102.393229 143.283203,102.061198 143.673828,101.820312 C144.064453,101.579427 144.64388,101.458984 145.412109,101.458984 C146.284505,101.458984 147.257812,101.680339 148.332031,102.123047 L148.332031,102.123047 L148.908203,100.804688 C147.807943,100.335938 146.681641,100.101562 145.529297,100.101562 C144.292318,100.101562 143.31901,100.353841 142.609375,100.858398 C141.89974,101.362956 141.544922,102.051432 141.544922,102.923828 C141.544922,103.412109 141.647461,103.832031 141.852539,104.183594 C142.057617,104.535156 142.370117,104.849284 142.790039,105.125977 C143.209961,105.402669 143.917969,105.726562 144.914062,106.097656 C145.96224,106.501302 146.666992,106.851237 147.02832,107.147461 C147.389648,107.443685 147.570312,107.80013 147.570312,108.216797 C147.570312,108.770182 147.342448,109.181966 146.886719,109.452148 C146.43099,109.722331 145.779948,109.857422 144.933594,109.857422 C144.386719,109.857422 143.818685,109.782552 143.229492,109.632812 C142.640299,109.483073 142.088542,109.277995 141.574219,109.017578 L141.574219,109.017578 L141.574219,110.521484 C142.36849,110.970703 143.47526,111.195312 144.894531,111.195312 Z M154.992188,111.195312 C155.265625,111.195312 155.573242,111.167643 155.915039,111.112305 C156.256836,111.056966 156.515625,110.986979 156.691406,110.902344 L156.691406,110.902344 L156.691406,109.662109 C156.535156,109.707682 156.323568,109.751628 156.056641,109.793945 C155.789714,109.836263 155.513021,109.857422 155.226562,109.857422 C154.692708,109.857422 154.272786,109.684896 153.966797,109.339844 C153.660807,108.994792 153.507812,108.5 153.507812,107.855469 L153.507812,107.855469 L153.507812,101.556641 L156.613281,101.556641 L156.613281,100.296875 L153.507812,100.296875 L153.507812,97.8164062 L152.570312,97.8164062 L151.886719,100.101562 L150.353516,100.775391 L150.353516,101.556641 L151.886719,101.556641 L151.886719,107.923828 C151.886719,110.104818 152.921875,111.195312 154.992188,111.195312 Z" id="Strategist" fill="#FFFFFF" fill-rule="nonzero"></path>
                <path d="M28.5273438,144 L30.1210938,139.96875 L34.7617188,139.96875 L36.3476562,144 L37.2460938,144 L32.7460938,132.53125 L32.2382812,132.53125 L27.6445312,144 L28.5273438,144 Z M34.4960938,139.25 L30.4101562,139.25 L32.0117188,135.148438 C32.1783854,134.742188 32.3320312,134.289062 32.4726562,133.789062 C32.6549479,134.361979 32.8111979,134.809896 32.9414062,135.132812 L32.9414062,135.132812 L34.4960938,139.25 Z M43.5976562,144 L43.5976562,139.3125 C43.5976562,138.171875 43.8007812,137.342448 44.2070312,136.824219 C44.6132812,136.30599 45.2617188,136.046875 46.1523438,136.046875 C47.4648438,136.046875 48.1210938,136.763021 48.1210938,138.195312 L48.1210938,138.195312 L48.1210938,144 L48.9101562,144 L48.9101562,139.023438 C48.9101562,137.997396 49.1184896,137.244792 49.5351562,136.765625 C49.9518229,136.286458 50.5950521,136.046875 51.4648438,136.046875 C52.1315104,136.046875 52.6263021,136.236979 52.9492188,136.617188 C53.2721354,136.997396 53.4335938,137.601562 53.4335938,138.429688 L53.4335938,138.429688 L53.4335938,144 L54.1992188,144 L54.1992188,138.445312 C54.1992188,137.367188 53.9674479,136.580729 53.5039062,136.085938 C53.0403646,135.591146 52.3450521,135.34375 51.4179688,135.34375 C50.8242188,135.34375 50.2942708,135.473958 49.828125,135.734375 C49.3619792,135.994792 48.9908854,136.367188 48.7148438,136.851562 L48.7148438,136.851562 L48.6835938,136.851562 C48.3033854,135.846354 47.4440104,135.34375 46.1054688,135.34375 C45.5846354,135.34375 45.1080729,135.459635 44.6757812,135.691406 C44.2434896,135.923177 43.9101562,136.25 43.6757812,136.671875 L43.6757812,136.671875 L43.6289062,136.671875 L43.4648438,135.507812 L42.8242188,135.507812 L42.8242188,144 L43.5976562,144 Z M57.3320312,133.90625 C57.4934896,133.90625 57.6197917,133.838542 57.7109375,133.703125 C57.8020833,133.567708 57.8476562,133.382812 57.8476562,133.148438 C57.8476562,132.908854 57.8020833,132.723958 57.7109375,132.59375 C57.6197917,132.463542 57.4934896,132.398438 57.3320312,132.398438 C57.0039062,132.398438 56.8398438,132.648438 56.8398438,133.148438 C56.8398438,133.653646 57.0039062,133.90625 57.3320312,133.90625 Z M57.7226562,144 L57.7226562,135.507812 L56.9492188,135.507812 L56.9492188,144 L57.7226562,144 Z M61.3398438,144 L61.3398438,139.3125 C61.3398438,138.161458 61.5755208,137.329427 62.046875,136.816406 C62.5182292,136.303385 63.2617188,136.046875 64.2773438,136.046875 C65.0325521,136.046875 65.5898438,136.240885 65.9492188,136.628906 C66.3085938,137.016927 66.4882812,137.638021 66.4882812,138.492188 L66.4882812,138.492188 L66.4882812,144 L67.2539062,144 L67.2539062,138.445312 C67.2539062,136.377604 66.2903646,135.34375 64.3632812,135.34375 C62.9518229,135.34375 61.9700521,135.786458 61.4179688,136.671875 L61.4179688,136.671875 L61.3710938,136.671875 L61.2226562,135.507812 L60.5664062,135.507812 L60.5664062,144 L61.3398438,144 Z M73.1289062,144.15625 C74.3372396,144.15625 75.2643229,143.671875 75.9101562,142.703125 L75.9101562,142.703125 L75.9726562,142.703125 L76.1679688,144 L76.6757812,144 L76.6757812,131.84375 L75.9101562,131.84375 L75.9101562,134.898438 C75.9101562,135.528646 75.9257812,136.171875 75.9570312,136.828125 L75.9570312,136.828125 L75.9101562,136.828125 C75.5559896,136.286458 75.1549479,135.903646 74.7070312,135.679688 C74.2591146,135.455729 73.7278646,135.34375 73.1132812,135.34375 C71.9414062,135.34375 71.0481771,135.731771 70.4335938,136.507812 C69.8190104,137.283854 69.5117188,138.40625 69.5117188,139.875 C69.5117188,141.270833 69.8216146,142.333333 70.4414062,143.0625 C71.0611979,143.791667 71.9570312,144.15625 73.1289062,144.15625 Z M73.1289062,143.46875 C71.2591146,143.46875 70.3242188,142.265625 70.3242188,139.859375 C70.3242188,138.619792 70.5572917,137.674479 71.0234375,137.023438 C71.4895833,136.372396 72.1861979,136.046875 73.1132812,136.046875 C74.0976562,136.046875 74.8098958,136.334635 75.25,136.910156 C75.6901042,137.485677 75.9101562,138.429688 75.9101562,139.742188 L75.9101562,139.742188 L75.9101562,139.875 C75.9101562,141.15625 75.6861979,142.075521 75.2382812,142.632812 C74.7903646,143.190104 74.0872396,143.46875 73.1289062,143.46875 Z M85.6992188,144 L87.5898438,138.335938 L87.9414062,137.203125 L88.1054688,136.625 L88.1523438,136.625 C88.3398438,137.369792 88.4934896,137.934896 88.6132812,138.320312 L88.6132812,138.320312 L90.4726562,144 L91.2851562,144 L93.5898438,135.507812 L92.8085938,135.507812 L91.5117188,140.382812 C91.1367188,141.856771 90.9283854,142.763021 90.8867188,143.101562 L90.8867188,143.101562 L90.8398438,143.101562 C90.7565104,142.705729 90.5273438,141.895833 90.1523438,140.671875 L90.1523438,140.671875 L88.4882812,135.507812 L87.7851562,135.507812 L86.0351562,140.6875 C85.8945312,141.088542 85.6705729,141.898438 85.3632812,143.117188 L85.3632812,143.117188 L85.3164062,143.117188 C85.2174479,142.544271 85.0091146,141.648438 84.6914062,140.429688 L84.6914062,140.429688 L83.3320312,135.507812 L82.5039062,135.507812 L84.9335938,144 L85.6992188,144 Z M95.6367188,133.90625 C95.7981771,133.90625 95.9244792,133.838542 96.015625,133.703125 C96.1067708,133.567708 96.1523438,133.382812 96.1523438,133.148438 C96.1523438,132.908854 96.1067708,132.723958 96.015625,132.59375 C95.9244792,132.463542 95.7981771,132.398438 95.6367188,132.398438 C95.3085938,132.398438 95.1445312,132.648438 95.1445312,133.148438 C95.1445312,133.653646 95.3085938,133.90625 95.6367188,133.90625 Z M96.0273438,144 L96.0273438,135.507812 L95.2539062,135.507812 L95.2539062,144 L96.0273438,144 Z M101.097656,144.15625 C101.58724,144.15625 102.019531,144.09375 102.394531,143.96875 L102.394531,143.96875 L102.394531,143.34375 C102.029948,143.427083 101.602865,143.46875 101.113281,143.46875 C100.623698,143.46875 100.264323,143.3125 100.035156,143 C99.8059896,142.6875 99.6914062,142.205729 99.6914062,141.554688 L99.6914062,141.554688 L99.6914062,136.179688 L102.183594,136.179688 L102.183594,135.507812 L99.6914062,135.507812 L99.6914062,133.453125 L99.2929688,133.453125 L98.9023438,135.375 L97.6445312,135.726562 L97.6445312,136.179688 L98.9023438,136.179688 L98.9023438,141.664062 C98.9023438,142.523438 99.0807292,143.153646 99.4375,143.554688 C99.7942708,143.955729 100.347656,144.15625 101.097656,144.15625 Z M105.003906,144 L105.003906,139.3125 C105.003906,138.161458 105.239583,137.329427 105.710938,136.816406 C106.182292,136.303385 106.925781,136.046875 107.941406,136.046875 C108.696615,136.046875 109.253906,136.240885 109.613281,136.628906 C109.972656,137.016927 110.152344,137.638021 110.152344,138.492188 L110.152344,138.492188 L110.152344,144 L110.917969,144 L110.917969,138.445312 C110.917969,136.377604 109.954427,135.34375 108.027344,135.34375 C107.308594,135.34375 106.707031,135.458333 106.222656,135.6875 C105.738281,135.916667 105.33724,136.286458 105.019531,136.796875 L105.019531,136.796875 L104.964844,136.796875 L105.003906,135.710938 L105.003906,131.84375 L104.230469,131.84375 L104.230469,144 L105.003906,144 Z M119.808594,144.15625 C120.423177,144.15625 120.955729,144.042969 121.40625,143.816406 C121.856771,143.589844 122.295573,143.203125 122.722656,142.65625 L122.722656,142.65625 L122.785156,142.65625 L122.980469,144 L123.550781,144 L123.550781,138.351562 C123.550781,137.325521 123.320312,136.570312 122.859375,136.085938 C122.398438,135.601562 121.701823,135.359375 120.769531,135.359375 C119.858073,135.359375 118.936198,135.578125 118.003906,136.015625 L118.003906,136.015625 L118.292969,136.6875 C119.136719,136.25 119.951823,136.03125 120.738281,136.03125 C121.467448,136.03125 121.996094,136.236979 122.324219,136.648438 C122.652344,137.059896 122.816406,137.669271 122.816406,138.476562 L122.816406,138.476562 L122.816406,139.039062 L121.199219,139.085938 C119.891927,139.111979 118.893229,139.354167 118.203125,139.8125 C117.513021,140.270833 117.167969,140.914062 117.167969,141.742188 C117.167969,142.497396 117.39974,143.088542 117.863281,143.515625 C118.326823,143.942708 118.97526,144.15625 119.808594,144.15625 Z M119.855469,143.453125 C119.261719,143.453125 118.802083,143.30599 118.476562,143.011719 C118.151042,142.717448 117.988281,142.304688 117.988281,141.773438 C117.988281,141.106771 118.242188,140.615885 118.75,140.300781 C119.257812,139.985677 120.108073,139.799479 121.300781,139.742188 L121.300781,139.742188 L122.785156,139.679688 L122.785156,140.515625 C122.785156,141.4375 122.523438,142.157552 122,142.675781 C121.476562,143.19401 120.761719,143.453125 119.855469,143.453125 Z M127.074219,144 L127.074219,139.3125 C127.074219,138.161458 127.309896,137.329427 127.78125,136.816406 C128.252604,136.303385 128.996094,136.046875 130.011719,136.046875 C130.766927,136.046875 131.324219,136.240885 131.683594,136.628906 C132.042969,137.016927 132.222656,137.638021 132.222656,138.492188 L132.222656,138.492188 L132.222656,144 L132.988281,144 L132.988281,138.445312 C132.988281,136.377604 132.02474,135.34375 130.097656,135.34375 C128.686198,135.34375 127.704427,135.786458 127.152344,136.671875 L127.152344,136.671875 L127.105469,136.671875 L126.957031,135.507812 L126.300781,135.507812 L126.300781,144 L127.074219,144 Z M141.878906,144.15625 C142.49349,144.15625 143.026042,144.042969 143.476562,143.816406 C143.927083,143.589844 144.365885,143.203125 144.792969,142.65625 L144.792969,142.65625 L144.855469,142.65625 L145.050781,144 L145.621094,144 L145.621094,138.351562 C145.621094,137.325521 145.390625,136.570312 144.929688,136.085938 C144.46875,135.601562 143.772135,135.359375 142.839844,135.359375 C141.928385,135.359375 141.00651,135.578125 140.074219,136.015625 L140.074219,136.015625 L140.363281,136.6875 C141.207031,136.25 142.022135,136.03125 142.808594,136.03125 C143.53776,136.03125 144.066406,136.236979 144.394531,136.648438 C144.722656,137.059896 144.886719,137.669271 144.886719,138.476562 L144.886719,138.476562 L144.886719,139.039062 L143.269531,139.085938 C141.96224,139.111979 140.963542,139.354167 140.273438,139.8125 C139.583333,140.270833 139.238281,140.914062 139.238281,141.742188 C139.238281,142.497396 139.470052,143.088542 139.933594,143.515625 C140.397135,143.942708 141.045573,144.15625 141.878906,144.15625 Z M141.925781,143.453125 C141.332031,143.453125 140.872396,143.30599 140.546875,143.011719 C140.221354,142.717448 140.058594,142.304688 140.058594,141.773438 C140.058594,141.106771 140.3125,140.615885 140.820312,140.300781 C141.328125,139.985677 142.178385,139.799479 143.371094,139.742188 L143.371094,139.742188 L144.855469,139.679688 L144.855469,140.515625 C144.855469,141.4375 144.59375,142.157552 144.070312,142.675781 C143.546875,143.19401 142.832031,143.453125 141.925781,143.453125 Z M151.925781,144.15625 C153.071615,144.15625 153.960938,143.773438 154.59375,143.007812 C155.226562,142.242188 155.542969,141.153646 155.542969,139.742188 C155.542969,138.304688 155.242188,137.21224 154.640625,136.464844 C154.039062,135.717448 153.144531,135.34375 151.957031,135.34375 C151.316406,135.34375 150.768229,135.463542 150.3125,135.703125 C149.856771,135.942708 149.467448,136.317708 149.144531,136.828125 L149.144531,136.828125 L149.089844,136.828125 L149.113281,136.164062 C149.134115,135.778646 149.144531,135.356771 149.144531,134.898438 L149.144531,134.898438 L149.144531,131.84375 L148.371094,131.84375 L148.371094,144 L148.855469,144 L149.074219,142.71875 L149.144531,142.71875 C149.425781,143.177083 149.808594,143.53125 150.292969,143.78125 C150.777344,144.03125 151.321615,144.15625 151.925781,144.15625 Z M151.925781,143.46875 C150.972656,143.46875 150.270833,143.190104 149.820312,142.632812 C149.369792,142.075521 149.144531,141.15625 149.144531,139.875 L149.144531,139.875 L149.144531,139.742188 C149.144531,138.424479 149.360677,137.479167 149.792969,136.90625 C150.22526,136.333333 150.941406,136.046875 151.941406,136.046875 C153.795573,136.046875 154.722656,137.273438 154.722656,139.726562 C154.722656,140.924479 154.488281,141.847656 154.019531,142.496094 C153.550781,143.144531 152.852865,143.46875 151.925781,143.46875 Z M158.277344,133.90625 C158.438802,133.90625 158.565104,133.838542 158.65625,133.703125 C158.747396,133.567708 158.792969,133.382812 158.792969,133.148438 C158.792969,132.908854 158.747396,132.723958 158.65625,132.59375 C158.565104,132.463542 158.438802,132.398438 158.277344,132.398438 C157.949219,132.398438 157.785156,132.648438 157.785156,133.148438 C157.785156,133.653646 157.949219,133.90625 158.277344,133.90625 Z M158.667969,144 L158.667969,135.507812 L157.894531,135.507812 L157.894531,144 L158.667969,144 Z M162.285156,144 L162.285156,131.84375 L161.511719,131.84375 L161.511719,144 L162.285156,144 Z M165.511719,133.90625 C165.673177,133.90625 165.799479,133.838542 165.890625,133.703125 C165.981771,133.567708 166.027344,133.382812 166.027344,133.148438 C166.027344,132.908854 165.981771,132.723958 165.890625,132.59375 C165.799479,132.463542 165.673177,132.398438 165.511719,132.398438 C165.183594,132.398438 165.019531,132.648438 165.019531,133.148438 C165.019531,133.653646 165.183594,133.90625 165.511719,133.90625 Z M165.902344,144 L165.902344,135.507812 L165.128906,135.507812 L165.128906,144 L165.902344,144 Z M170.972656,144.15625 C171.46224,144.15625 171.894531,144.09375 172.269531,143.96875 L172.269531,143.96875 L172.269531,143.34375 C171.904948,143.427083 171.477865,143.46875 170.988281,143.46875 C170.498698,143.46875 170.139323,143.3125 169.910156,143 C169.68099,142.6875 169.566406,142.205729 169.566406,141.554688 L169.566406,141.554688 L169.566406,136.179688 L172.058594,136.179688 L172.058594,135.507812 L169.566406,135.507812 L169.566406,133.453125 L169.167969,133.453125 L168.777344,135.375 L167.519531,135.726562 L167.519531,136.179688 L168.777344,136.179688 L168.777344,141.664062 C168.777344,142.523438 168.955729,143.153646 169.3125,143.554688 C169.669271,143.955729 170.222656,144.15625 170.972656,144.15625 Z M173.707031,147.84375 C174.102865,147.84375 174.440104,147.773438 174.71875,147.632812 C174.997396,147.492188 175.240885,147.28125 175.449219,147 C175.657552,146.71875 175.915365,146.177083 176.222656,145.375 L176.222656,145.375 L180.027344,135.507812 L179.230469,135.507812 L177.433594,140.226562 C176.938802,141.559896 176.582031,142.5625 176.363281,143.234375 L176.363281,143.234375 L176.316406,143.234375 C176.170573,142.723958 175.824219,141.736979 175.277344,140.273438 L175.277344,140.273438 L173.480469,135.507812 L172.683594,135.507812 L175.933594,144 C175.871094,144.171875 175.731771,144.542969 175.515625,145.113281 C175.299479,145.683594 175.109375,146.10026 174.945312,146.363281 C174.78125,146.626302 174.597656,146.820312 174.394531,146.945312 C174.191406,147.070312 173.957031,147.132812 173.691406,147.132812 C173.342448,147.132812 173.016927,147.091146 172.714844,147.007812 L172.714844,147.007812 L172.714844,147.679688 C173.079427,147.789062 173.410156,147.84375 173.707031,147.84375 Z M188.839844,144.15625 C190.022135,144.15625 190.949219,143.766927 191.621094,142.988281 C192.292969,142.209635 192.628906,141.127604 192.628906,139.742188 C192.628906,138.377604 192.296875,137.303385 191.632812,136.519531 C190.96875,135.735677 190.053385,135.34375 188.886719,135.34375 C187.714844,135.34375 186.792969,135.730469 186.121094,136.503906 C185.449219,137.277344 185.113281,138.356771 185.113281,139.742188 C185.113281,140.622396 185.264323,141.398438 185.566406,142.070312 C185.86849,142.742188 186.303385,143.257812 186.871094,143.617188 C187.438802,143.976562 188.095052,144.15625 188.839844,144.15625 Z M188.871094,143.453125 C187.933594,143.453125 187.208333,143.126302 186.695312,142.472656 C186.182292,141.81901 185.925781,140.908854 185.925781,139.742188 C185.925781,138.565104 186.179688,137.654948 186.6875,137.011719 C187.195312,136.36849 187.917969,136.046875 188.855469,136.046875 C189.792969,136.046875 190.520833,136.369792 191.039062,137.015625 C191.557292,137.661458 191.816406,138.570312 191.816406,139.742188 C191.816406,140.908854 191.559896,141.81901 191.046875,142.472656 C190.533854,143.126302 189.808594,143.453125 188.871094,143.453125 Z M196.136719,144 L196.136719,136.179688 L198.136719,136.179688 L198.136719,135.507812 L196.136719,135.507812 L196.136719,134.71875 C196.136719,133.916667 196.263021,133.33724 196.515625,132.980469 C196.768229,132.623698 197.196615,132.445312 197.800781,132.445312 C198.21224,132.445312 198.626302,132.510417 199.042969,132.640625 L199.042969,132.640625 L199.222656,131.96875 C198.753906,131.828125 198.285156,131.757812 197.816406,131.757812 C196.946615,131.757812 196.320312,132.001302 195.9375,132.488281 C195.554688,132.97526 195.363281,133.739583 195.363281,134.78125 L195.363281,134.78125 L195.363281,135.4375 L193.785156,135.726562 L193.785156,136.179688 L195.363281,136.179688 L195.363281,144 L196.136719,144 Z M34.4453125,166.15625 C34.9348958,166.15625 35.3671875,166.09375 35.7421875,165.96875 L35.7421875,165.96875 L35.7421875,165.34375 C35.3776042,165.427083 34.9505208,165.46875 34.4609375,165.46875 C33.9713542,165.46875 33.6119792,165.3125 33.3828125,165 C33.1536458,164.6875 33.0390625,164.205729 33.0390625,163.554688 L33.0390625,163.554688 L33.0390625,158.179688 L35.53125,158.179688 L35.53125,157.507812 L33.0390625,157.507812 L33.0390625,155.453125 L32.640625,155.453125 L32.25,157.375 L30.9921875,157.726562 L30.9921875,158.179688 L32.25,158.179688 L32.25,163.664062 C32.25,164.523438 32.4283854,165.153646 32.7851562,165.554688 C33.1419271,165.955729 33.6953125,166.15625 34.4453125,166.15625 Z M38.3515625,166 L38.3515625,161.3125 C38.3515625,160.161458 38.5872396,159.329427 39.0585938,158.816406 C39.5299479,158.303385 40.2734375,158.046875 41.2890625,158.046875 C42.0442708,158.046875 42.6015625,158.240885 42.9609375,158.628906 C43.3203125,159.016927 43.5,159.638021 43.5,160.492188 L43.5,160.492188 L43.5,166 L44.265625,166 L44.265625,160.445312 C44.265625,158.377604 43.3020833,157.34375 41.375,157.34375 C40.65625,157.34375 40.0546875,157.458333 39.5703125,157.6875 C39.0859375,157.916667 38.6848958,158.286458 38.3671875,158.796875 L38.3671875,158.796875 L38.3125,158.796875 L38.3515625,157.710938 L38.3515625,153.84375 L37.578125,153.84375 L37.578125,166 L38.3515625,166 Z M47.3984375,155.90625 C47.5598958,155.90625 47.6861979,155.838542 47.7773438,155.703125 C47.8684896,155.567708 47.9140625,155.382812 47.9140625,155.148438 C47.9140625,154.908854 47.8684896,154.723958 47.7773438,154.59375 C47.6861979,154.463542 47.5598958,154.398438 47.3984375,154.398438 C47.0703125,154.398438 46.90625,154.648438 46.90625,155.148438 C46.90625,155.653646 47.0703125,155.90625 47.3984375,155.90625 Z M47.7890625,166 L47.7890625,157.507812 L47.015625,157.507812 L47.015625,166 L47.7890625,166 Z M51.40625,166 L51.40625,161.3125 C51.40625,160.161458 51.6419271,159.329427 52.1132812,158.816406 C52.5846354,158.303385 53.328125,158.046875 54.34375,158.046875 C55.0989583,158.046875 55.65625,158.240885 56.015625,158.628906 C56.375,159.016927 56.5546875,159.638021 56.5546875,160.492188 L56.5546875,160.492188 L56.5546875,166 L57.3203125,166 L57.3203125,160.445312 C57.3203125,158.377604 56.3567708,157.34375 54.4296875,157.34375 C53.0182292,157.34375 52.0364583,157.786458 51.484375,158.671875 L51.484375,158.671875 L51.4375,158.671875 L51.2890625,157.507812 L50.6328125,157.507812 L50.6328125,166 L51.40625,166 Z M60.84375,166 L60.84375,162.976562 L62.234375,161.710938 L65.4609375,166 L66.390625,166 L62.7578125,161.132812 L66.1015625,157.507812 L65.1640625,157.507812 L60.828125,162.273438 L60.7890625,162.273438 L60.84375,159.9375 L60.84375,153.84375 L60.0703125,153.84375 L60.0703125,166 L60.84375,166 Z M68.1953125,155.90625 C68.3567708,155.90625 68.4830729,155.838542 68.5742188,155.703125 C68.6653646,155.567708 68.7109375,155.382812 68.7109375,155.148438 C68.7109375,154.908854 68.6653646,154.723958 68.5742188,154.59375 C68.4830729,154.463542 68.3567708,154.398438 68.1953125,154.398438 C67.8671875,154.398438 67.703125,154.648438 67.703125,155.148438 C67.703125,155.653646 67.8671875,155.90625 68.1953125,155.90625 Z M68.5859375,166 L68.5859375,157.507812 L67.8125,157.507812 L67.8125,166 L68.5859375,166 Z M72.203125,166 L72.203125,161.3125 C72.203125,160.161458 72.4388021,159.329427 72.9101562,158.816406 C73.3815104,158.303385 74.125,158.046875 75.140625,158.046875 C75.8958333,158.046875 76.453125,158.240885 76.8125,158.628906 C77.171875,159.016927 77.3515625,159.638021 77.3515625,160.492188 L77.3515625,160.492188 L77.3515625,166 L78.1171875,166 L78.1171875,160.445312 C78.1171875,158.377604 77.1536458,157.34375 75.2265625,157.34375 C73.8151042,157.34375 72.8333333,157.786458 72.28125,158.671875 L72.28125,158.671875 L72.234375,158.671875 L72.0859375,157.507812 L71.4296875,157.507812 L71.4296875,166 L72.203125,166 Z M83.15625,169.84375 C84.5,169.84375 85.5351562,169.60026 86.2617188,169.113281 C86.9882812,168.626302 87.3515625,167.934896 87.3515625,167.039062 C87.3515625,166.309896 87.1067708,165.759115 86.6171875,165.386719 C86.1276042,165.014323 85.421875,164.828125 84.5,164.828125 L84.5,164.828125 L83.015625,164.828125 C82.53125,164.828125 82.1861979,164.765625 81.9804688,164.640625 C81.7747396,164.515625 81.671875,164.317708 81.671875,164.046875 C81.671875,163.802083 81.7526042,163.570312 81.9140625,163.351562 C82.0755208,163.132812 82.3098958,162.942708 82.6171875,162.78125 C82.7734375,162.8125 83.0442708,162.828125 83.4296875,162.828125 C84.3463542,162.828125 85.0768229,162.574219 85.6210938,162.066406 C86.1653646,161.558594 86.4375,160.895833 86.4375,160.078125 C86.4375,159.380208 86.203125,158.739583 85.734375,158.15625 L85.734375,158.15625 L87.4921875,158.046875 L87.4921875,157.507812 L84.7734375,157.507812 C84.4661458,157.398438 84.0338542,157.34375 83.4765625,157.34375 C82.5598958,157.34375 81.8320312,157.60026 81.2929688,158.113281 C80.7539062,158.626302 80.484375,159.307292 80.484375,160.15625 C80.484375,160.71875 80.6223958,161.217448 80.8984375,161.652344 C81.1744792,162.08724 81.5598958,162.40625 82.0546875,162.609375 C81.3307292,163.041667 80.96875,163.541667 80.96875,164.109375 C80.96875,164.369792 81.0455729,164.60026 81.1992188,164.800781 C81.3528646,165.001302 81.5572917,165.15625 81.8125,165.265625 C81.1927083,165.40625 80.7018229,165.669271 80.3398438,166.054688 C79.9778646,166.440104 79.796875,166.924479 79.796875,167.507812 C79.796875,168.242188 80.0898438,168.815104 80.6757812,169.226562 C81.2617188,169.638021 82.0885417,169.84375 83.15625,169.84375 Z M83.4609375,162.226562 C82.7942708,162.226562 82.2617188,162.045573 81.8632812,161.683594 C81.4648438,161.321615 81.265625,160.8125 81.265625,160.15625 C81.265625,159.463542 81.4596354,158.923177 81.8476562,158.535156 C82.2356771,158.147135 82.7682292,157.953125 83.4453125,157.953125 C84.1432292,157.953125 84.6861979,158.134115 85.0742188,158.496094 C85.4622396,158.858073 85.65625,159.401042 85.65625,160.125 C85.65625,160.807292 85.4674479,161.328125 85.0898438,161.6875 C84.7122396,162.046875 84.1692708,162.226562 83.4609375,162.226562 Z M83.21875,169.1875 C81.484375,169.1875 80.6171875,168.604167 80.6171875,167.4375 C80.6171875,166.213542 81.3958333,165.601562 82.953125,165.601562 L82.953125,165.601562 L84.34375,165.601562 C85.125,165.601562 85.6901042,165.716146 86.0390625,165.945312 C86.3880208,166.174479 86.5625,166.544271 86.5625,167.054688 C86.5625,168.476562 85.4479167,169.1875 83.21875,169.1875 Z M95.375,166.15625 C95.9895833,166.15625 96.5221354,166.042969 96.9726562,165.816406 C97.4231771,165.589844 97.8619792,165.203125 98.2890625,164.65625 L98.2890625,164.65625 L98.3515625,164.65625 L98.546875,166 L99.1171875,166 L99.1171875,160.351562 C99.1171875,159.325521 98.8867188,158.570312 98.4257812,158.085938 C97.9648438,157.601562 97.2682292,157.359375 96.3359375,157.359375 C95.4244792,157.359375 94.5026042,157.578125 93.5703125,158.015625 L93.5703125,158.015625 L93.859375,158.6875 C94.703125,158.25 95.5182292,158.03125 96.3046875,158.03125 C97.0338542,158.03125 97.5625,158.236979 97.890625,158.648438 C98.21875,159.059896 98.3828125,159.669271 98.3828125,160.476562 L98.3828125,160.476562 L98.3828125,161.039062 L96.765625,161.085938 C95.4583333,161.111979 94.4596354,161.354167 93.7695312,161.8125 C93.0794271,162.270833 92.734375,162.914062 92.734375,163.742188 C92.734375,164.497396 92.9661458,165.088542 93.4296875,165.515625 C93.8932292,165.942708 94.5416667,166.15625 95.375,166.15625 Z M95.421875,165.453125 C94.828125,165.453125 94.3684896,165.30599 94.0429688,165.011719 C93.7174479,164.717448 93.5546875,164.304688 93.5546875,163.773438 C93.5546875,163.106771 93.8085938,162.615885 94.3164062,162.300781 C94.8242188,161.985677 95.6744792,161.799479 96.8671875,161.742188 L96.8671875,161.742188 L98.3515625,161.679688 L98.3515625,162.515625 C98.3515625,163.4375 98.0898438,164.157552 97.5664062,164.675781 C97.0429688,165.19401 96.328125,165.453125 95.421875,165.453125 Z M105.421875,166.15625 C106.567708,166.15625 107.457031,165.773438 108.089844,165.007812 C108.722656,164.242188 109.039062,163.153646 109.039062,161.742188 C109.039062,160.304688 108.738281,159.21224 108.136719,158.464844 C107.535156,157.717448 106.640625,157.34375 105.453125,157.34375 C104.8125,157.34375 104.264323,157.463542 103.808594,157.703125 C103.352865,157.942708 102.963542,158.317708 102.640625,158.828125 L102.640625,158.828125 L102.585938,158.828125 L102.609375,158.164062 C102.630208,157.778646 102.640625,157.356771 102.640625,156.898438 L102.640625,156.898438 L102.640625,153.84375 L101.867188,153.84375 L101.867188,166 L102.351562,166 L102.570312,164.71875 L102.640625,164.71875 C102.921875,165.177083 103.304688,165.53125 103.789062,165.78125 C104.273438,166.03125 104.817708,166.15625 105.421875,166.15625 Z M105.421875,165.46875 C104.46875,165.46875 103.766927,165.190104 103.316406,164.632812 C102.865885,164.075521 102.640625,163.15625 102.640625,161.875 L102.640625,161.875 L102.640625,161.742188 C102.640625,160.424479 102.856771,159.479167 103.289062,158.90625 C103.721354,158.333333 104.4375,158.046875 105.4375,158.046875 C107.291667,158.046875 108.21875,159.273438 108.21875,161.726562 C108.21875,162.924479 107.984375,163.847656 107.515625,164.496094 C107.046875,165.144531 106.348958,165.46875 105.421875,165.46875 Z M114.625,166.15625 C115.807292,166.15625 116.734375,165.766927 117.40625,164.988281 C118.078125,164.209635 118.414062,163.127604 118.414062,161.742188 C118.414062,160.377604 118.082031,159.303385 117.417969,158.519531 C116.753906,157.735677 115.838542,157.34375 114.671875,157.34375 C113.5,157.34375 112.578125,157.730469 111.90625,158.503906 C111.234375,159.277344 110.898438,160.356771 110.898438,161.742188 C110.898438,162.622396 111.049479,163.398438 111.351562,164.070312 C111.653646,164.742188 112.088542,165.257812 112.65625,165.617188 C113.223958,165.976562 113.880208,166.15625 114.625,166.15625 Z M114.65625,165.453125 C113.71875,165.453125 112.99349,165.126302 112.480469,164.472656 C111.967448,163.81901 111.710938,162.908854 111.710938,161.742188 C111.710938,160.565104 111.964844,159.654948 112.472656,159.011719 C112.980469,158.36849 113.703125,158.046875 114.640625,158.046875 C115.578125,158.046875 116.30599,158.369792 116.824219,159.015625 C117.342448,159.661458 117.601562,160.570312 117.601562,161.742188 C117.601562,162.908854 117.345052,163.81901 116.832031,164.472656 C116.31901,165.126302 115.59375,165.453125 114.65625,165.453125 Z M123.570312,166.15625 C124.981771,166.15625 125.963542,165.713542 126.515625,164.828125 L126.515625,164.828125 L126.5625,164.828125 L126.703125,166 L127.359375,166 L127.359375,157.507812 L126.59375,157.507812 L126.59375,162.195312 C126.59375,163.346354 126.355469,164.177083 125.878906,164.6875 C125.402344,165.197917 124.658854,165.453125 123.648438,165.453125 C122.893229,165.453125 122.335938,165.259115 121.976562,164.871094 C121.617188,164.483073 121.4375,163.861979 121.4375,163.007812 L121.4375,163.007812 L121.4375,157.507812 L120.671875,157.507812 L120.671875,163.054688 C120.671875,165.122396 121.638021,166.15625 123.570312,166.15625 Z M132.429688,166.15625 C132.919271,166.15625 133.351562,166.09375 133.726562,165.96875 L133.726562,165.96875 L133.726562,165.34375 C133.361979,165.427083 132.934896,165.46875 132.445312,165.46875 C131.955729,165.46875 131.596354,165.3125 131.367188,165 C131.138021,164.6875 131.023438,164.205729 131.023438,163.554688 L131.023438,163.554688 L131.023438,158.179688 L133.515625,158.179688 L133.515625,157.507812 L131.023438,157.507812 L131.023438,155.453125 L130.625,155.453125 L130.234375,157.375 L128.976562,157.726562 L128.976562,158.179688 L130.234375,158.179688 L130.234375,163.664062 C130.234375,164.523438 130.41276,165.153646 130.769531,165.554688 C131.126302,165.955729 131.679688,166.15625 132.429688,166.15625 Z M141.703125,166.15625 C142.317708,166.15625 142.85026,166.042969 143.300781,165.816406 C143.751302,165.589844 144.190104,165.203125 144.617188,164.65625 L144.617188,164.65625 L144.679688,164.65625 L144.875,166 L145.445312,166 L145.445312,160.351562 C145.445312,159.325521 145.214844,158.570312 144.753906,158.085938 C144.292969,157.601562 143.596354,157.359375 142.664062,157.359375 C141.752604,157.359375 140.830729,157.578125 139.898438,158.015625 L139.898438,158.015625 L140.1875,158.6875 C141.03125,158.25 141.846354,158.03125 142.632812,158.03125 C143.361979,158.03125 143.890625,158.236979 144.21875,158.648438 C144.546875,159.059896 144.710938,159.669271 144.710938,160.476562 L144.710938,160.476562 L144.710938,161.039062 L143.09375,161.085938 C141.786458,161.111979 140.78776,161.354167 140.097656,161.8125 C139.407552,162.270833 139.0625,162.914062 139.0625,163.742188 C139.0625,164.497396 139.294271,165.088542 139.757812,165.515625 C140.221354,165.942708 140.869792,166.15625 141.703125,166.15625 Z M141.75,165.453125 C141.15625,165.453125 140.696615,165.30599 140.371094,165.011719 C140.045573,164.717448 139.882812,164.304688 139.882812,163.773438 C139.882812,163.106771 140.136719,162.615885 140.644531,162.300781 C141.152344,161.985677 142.002604,161.799479 143.195312,161.742188 L143.195312,161.742188 L144.679688,161.679688 L144.679688,162.515625 C144.679688,163.4375 144.417969,164.157552 143.894531,164.675781 C143.371094,165.19401 142.65625,165.453125 141.75,165.453125 Z M148.96875,166 L148.96875,153.84375 L148.195312,153.84375 L148.195312,166 L148.96875,166 Z M152.585938,166 L152.585938,153.84375 L151.8125,153.84375 L151.8125,166 L152.585938,166 Z M160.359375,169.84375 L160.359375,166.609375 C160.359375,166.151042 160.348958,165.729167 160.328125,165.34375 L160.328125,165.34375 L160.304688,164.6875 L160.359375,164.6875 C160.958333,165.666667 161.911458,166.15625 163.21875,166.15625 C164.3125,166.15625 165.175781,165.772135 165.808594,165.003906 C166.441406,164.235677 166.757812,163.153646 166.757812,161.757812 C166.757812,160.320312 166.457031,159.22526 165.855469,158.472656 C165.253906,157.720052 164.380208,157.34375 163.234375,157.34375 C161.953125,157.34375 161.020833,157.802083 160.4375,158.71875 L160.4375,158.71875 L160.390625,158.71875 L160.242188,157.507812 L159.585938,157.507812 L159.585938,169.84375 L160.359375,169.84375 Z M163.203125,165.46875 C162.197917,165.46875 161.472656,165.184896 161.027344,164.617188 C160.582031,164.049479 160.359375,163.101562 160.359375,161.773438 L160.359375,161.773438 L160.359375,161.523438 C160.359375,160.294271 160.591146,159.407552 161.054688,158.863281 C161.518229,158.31901 162.244792,158.046875 163.234375,158.046875 C165.036458,158.046875 165.9375,159.294271 165.9375,161.789062 C165.9375,162.950521 165.699219,163.854167 165.222656,164.5 C164.746094,165.145833 164.072917,165.46875 163.203125,165.46875 Z M171.09375,166.15625 C171.708333,166.15625 172.240885,166.042969 172.691406,165.816406 C173.141927,165.589844 173.580729,165.203125 174.007812,164.65625 L174.007812,164.65625 L174.070312,164.65625 L174.265625,166 L174.835938,166 L174.835938,160.351562 C174.835938,159.325521 174.605469,158.570312 174.144531,158.085938 C173.683594,157.601562 172.986979,157.359375 172.054688,157.359375 C171.143229,157.359375 170.221354,157.578125 169.289062,158.015625 L169.289062,158.015625 L169.578125,158.6875 C170.421875,158.25 171.236979,158.03125 172.023438,158.03125 C172.752604,158.03125 173.28125,158.236979 173.609375,158.648438 C173.9375,159.059896 174.101562,159.669271 174.101562,160.476562 L174.101562,160.476562 L174.101562,161.039062 L172.484375,161.085938 C171.177083,161.111979 170.178385,161.354167 169.488281,161.8125 C168.798177,162.270833 168.453125,162.914062 168.453125,163.742188 C168.453125,164.497396 168.684896,165.088542 169.148438,165.515625 C169.611979,165.942708 170.260417,166.15625 171.09375,166.15625 Z M171.140625,165.453125 C170.546875,165.453125 170.08724,165.30599 169.761719,165.011719 C169.436198,164.717448 169.273438,164.304688 169.273438,163.773438 C169.273438,163.106771 169.527344,162.615885 170.035156,162.300781 C170.542969,161.985677 171.393229,161.799479 172.585938,161.742188 L172.585938,161.742188 L174.070312,161.679688 L174.070312,162.515625 C174.070312,163.4375 173.808594,164.157552 173.285156,164.675781 C172.761719,165.19401 172.046875,165.453125 171.140625,165.453125 Z M178.359375,166 L178.359375,161.3125 C178.359375,160.375 178.591146,159.598958 179.054688,158.984375 C179.518229,158.369792 180.111979,158.0625 180.835938,158.0625 C181.216146,158.0625 181.583333,158.106771 181.9375,158.195312 L181.9375,158.195312 L182.085938,157.453125 C181.674479,157.380208 181.289062,157.34375 180.929688,157.34375 C180.367188,157.34375 179.888021,157.470052 179.492188,157.722656 C179.096354,157.97526 178.723958,158.414062 178.375,159.039062 L178.375,159.039062 L178.320312,159.039062 L178.242188,157.507812 L177.585938,157.507812 L177.585938,166 L178.359375,166 Z M186.039062,166.15625 C186.528646,166.15625 186.960938,166.09375 187.335938,165.96875 L187.335938,165.96875 L187.335938,165.34375 C186.971354,165.427083 186.544271,165.46875 186.054688,165.46875 C185.565104,165.46875 185.205729,165.3125 184.976562,165 C184.747396,164.6875 184.632812,164.205729 184.632812,163.554688 L184.632812,163.554688 L184.632812,158.179688 L187.125,158.179688 L187.125,157.507812 L184.632812,157.507812 L184.632812,155.453125 L184.234375,155.453125 L183.84375,157.375 L182.585938,157.726562 L182.585938,158.179688 L183.84375,158.179688 L183.84375,163.664062 C183.84375,164.523438 184.022135,165.153646 184.378906,165.554688 C184.735677,165.955729 185.289062,166.15625 186.039062,166.15625 Z M191.109375,166.15625 C192.171875,166.15625 192.992188,165.951823 193.570312,165.542969 C194.148438,165.134115 194.4375,164.549479 194.4375,163.789062 C194.4375,163.408854 194.35026,163.078125 194.175781,162.796875 C194.001302,162.515625 193.739583,162.264323 193.390625,162.042969 C193.041667,161.821615 192.484375,161.572917 191.71875,161.296875 C190.802083,160.96875 190.186198,160.671875 189.871094,160.40625 C189.55599,160.140625 189.398438,159.786458 189.398438,159.34375 C189.398438,158.9375 189.601562,158.619792 190.007812,158.390625 C190.414062,158.161458 190.963542,158.046875 191.65625,158.046875 C192.369792,158.046875 193.143229,158.21875 193.976562,158.5625 L193.976562,158.5625 L194.265625,157.859375 C193.442708,157.515625 192.572917,157.34375 191.65625,157.34375 C190.697917,157.34375 189.951823,157.528646 189.417969,157.898438 C188.884115,158.268229 188.617188,158.770833 188.617188,159.40625 C188.617188,159.807292 188.704427,160.147135 188.878906,160.425781 C189.053385,160.704427 189.3125,160.954427 189.65625,161.175781 C190,161.397135 190.596354,161.661458 191.445312,161.96875 C192.236979,162.25 192.80599,162.536458 193.152344,162.828125 C193.498698,163.119792 193.671875,163.479167 193.671875,163.90625 C193.671875,164.369792 193.454427,164.740885 193.019531,165.019531 C192.584635,165.298177 191.947917,165.4375 191.109375,165.4375 C190.161458,165.4375 189.260417,165.223958 188.40625,164.796875 L188.40625,164.796875 L188.40625,165.632812 C189.072917,165.981771 189.973958,166.15625 191.109375,166.15625 Z M32.5195312,188.15625 C33.7018229,188.15625 34.6289062,187.766927 35.3007812,186.988281 C35.9726562,186.209635 36.3085938,185.127604 36.3085938,183.742188 C36.3085938,182.377604 35.9765625,181.303385 35.3125,180.519531 C34.6484375,179.735677 33.7330729,179.34375 32.5664062,179.34375 C31.3945312,179.34375 30.4726562,179.730469 29.8007812,180.503906 C29.1289062,181.277344 28.7929688,182.356771 28.7929688,183.742188 C28.7929688,184.622396 28.9440104,185.398438 29.2460938,186.070312 C29.5481771,186.742188 29.9830729,187.257812 30.5507812,187.617188 C31.1184896,187.976562 31.7747396,188.15625 32.5195312,188.15625 Z M32.5507812,187.453125 C31.6132812,187.453125 30.8880208,187.126302 30.375,186.472656 C29.8619792,185.81901 29.6054688,184.908854 29.6054688,183.742188 C29.6054688,182.565104 29.859375,181.654948 30.3671875,181.011719 C30.875,180.36849 31.5976562,180.046875 32.5351562,180.046875 C33.4726562,180.046875 34.2005208,180.369792 34.71875,181.015625 C35.2369792,181.661458 35.4960938,182.570312 35.4960938,183.742188 C35.4960938,184.908854 35.2395833,185.81901 34.7265625,186.472656 C34.2135417,187.126302 33.4882812,187.453125 32.5507812,187.453125 Z M39.8164062,188 L39.8164062,180.179688 L41.8164062,180.179688 L41.8164062,179.507812 L39.8164062,179.507812 L39.8164062,178.71875 C39.8164062,177.916667 39.9427083,177.33724 40.1953125,176.980469 C40.4479167,176.623698 40.8763021,176.445312 41.4804688,176.445312 C41.8919271,176.445312 42.3059896,176.510417 42.7226562,176.640625 L42.7226562,176.640625 L42.9023438,175.96875 C42.4335938,175.828125 41.9648438,175.757812 41.4960938,175.757812 C40.6263021,175.757812 40,176.001302 39.6171875,176.488281 C39.234375,176.97526 39.0429688,177.739583 39.0429688,178.78125 L39.0429688,178.78125 L39.0429688,179.4375 L37.4648438,179.726562 L37.4648438,180.179688 L39.0429688,180.179688 L39.0429688,188 L39.8164062,188 Z M49.8398438,188.15625 C50.3294271,188.15625 50.7617188,188.09375 51.1367188,187.96875 L51.1367188,187.96875 L51.1367188,187.34375 C50.7721354,187.427083 50.3450521,187.46875 49.8554688,187.46875 C49.3658854,187.46875 49.0065104,187.3125 48.7773438,187 C48.5481771,186.6875 48.4335938,186.205729 48.4335938,185.554688 L48.4335938,185.554688 L48.4335938,180.179688 L50.9257812,180.179688 L50.9257812,179.507812 L48.4335938,179.507812 L48.4335938,177.453125 L48.0351562,177.453125 L47.6445312,179.375 L46.3867188,179.726562 L46.3867188,180.179688 L47.6445312,180.179688 L47.6445312,185.664062 C47.6445312,186.523438 47.8229167,187.153646 48.1796875,187.554688 C48.5364583,187.955729 49.0898438,188.15625 49.8398438,188.15625 Z M53.7460938,188 L53.7460938,183.3125 C53.7460938,182.161458 53.9817708,181.329427 54.453125,180.816406 C54.9244792,180.303385 55.6679688,180.046875 56.6835938,180.046875 C57.4388021,180.046875 57.9960938,180.240885 58.3554688,180.628906 C58.7148438,181.016927 58.8945312,181.638021 58.8945312,182.492188 L58.8945312,182.492188 L58.8945312,188 L59.6601562,188 L59.6601562,182.445312 C59.6601562,180.377604 58.6966146,179.34375 56.7695312,179.34375 C56.0507812,179.34375 55.4492188,179.458333 54.9648438,179.6875 C54.4804688,179.916667 54.0794271,180.286458 53.7617188,180.796875 L53.7617188,180.796875 L53.7070312,180.796875 L53.7460938,179.710938 L53.7460938,175.84375 L52.9726562,175.84375 L52.9726562,188 L53.7460938,188 Z M65.8398438,188.15625 C66.3294271,188.15625 66.7773438,188.11849 67.1835938,188.042969 C67.5898438,187.967448 68.0325521,187.825521 68.5117188,187.617188 L68.5117188,187.617188 L68.5117188,186.914062 C67.9492188,187.138021 67.484375,187.283854 67.1171875,187.351562 C66.75,187.419271 66.3242188,187.453125 65.8398438,187.453125 C64.8450521,187.453125 64.0807292,187.145833 63.546875,186.53125 C63.0130208,185.916667 62.7408854,185.026042 62.7304688,183.859375 L62.7304688,183.859375 L68.8476562,183.859375 L68.8476562,183.234375 C68.8476562,182.036458 68.5585938,181.088542 67.9804688,180.390625 C67.4023438,179.692708 66.6132812,179.34375 65.6132812,179.34375 C64.4830729,179.34375 63.5846354,179.751302 62.9179688,180.566406 C62.2513021,181.38151 61.9179688,182.466146 61.9179688,183.820312 C61.9179688,185.190104 62.2630208,186.255208 62.953125,187.015625 C63.6432292,187.776042 64.6054688,188.15625 65.8398438,188.15625 Z M68.0273438,183.171875 L62.7773438,183.171875 C62.8606771,182.15625 63.1497396,181.378906 63.6445312,180.839844 C64.1393229,180.300781 64.7955729,180.03125 65.6132812,180.03125 C66.3684896,180.03125 66.9596354,180.308594 67.3867188,180.863281 C67.8138021,181.417969 68.0273438,182.1875 68.0273438,183.171875 L68.0273438,183.171875 Z M79.6210938,188.15625 C80.9804688,188.15625 82.0403646,187.786458 82.8007812,187.046875 C83.5611979,186.307292 83.9414062,185.28125 83.9414062,183.96875 L83.9414062,183.96875 L83.9414062,176.578125 L83.1445312,176.578125 L83.1445312,184.046875 C83.1445312,185.114583 82.8450521,185.949219 82.2460938,186.550781 C81.6471354,187.152344 80.8033854,187.453125 79.7148438,187.453125 C78.6002604,187.453125 77.7382812,187.147135 77.1289062,186.535156 C76.5195312,185.923177 76.2148438,185.067708 76.2148438,183.96875 L76.2148438,183.96875 L76.2148438,176.578125 L75.4101562,176.578125 L75.4101562,183.9375 C75.4101562,185.265625 75.78125,186.300781 76.5234375,187.042969 C77.265625,187.785156 78.2981771,188.15625 79.6210938,188.15625 Z M86.3164062,188 L89.7539062,182.671875 L93.1289062,188 L94.0429688,188 L90.2148438,182.03125 L93.7539062,176.578125 L92.9023438,176.578125 L89.7695312,181.46875 L86.6835938,176.578125 L85.7851562,176.578125 L89.2773438,182.046875 L85.4335938,188 L86.3164062,188 Z M100.003906,177.90625 C100.165365,177.90625 100.291667,177.838542 100.382812,177.703125 C100.473958,177.567708 100.519531,177.382812 100.519531,177.148438 C100.519531,176.908854 100.473958,176.723958 100.382812,176.59375 C100.291667,176.463542 100.165365,176.398438 100.003906,176.398438 C99.6757812,176.398438 99.5117188,176.648438 99.5117188,177.148438 C99.5117188,177.653646 99.6757812,177.90625 100.003906,177.90625 Z M98.4882812,191.84375 C99.0976562,191.84375 99.5677083,191.653646 99.8984375,191.273438 C100.229167,190.893229 100.394531,190.351562 100.394531,189.648438 L100.394531,189.648438 L100.394531,179.507812 L99.6210938,179.507812 L99.6210938,189.757812 C99.6210938,190.674479 99.2278646,191.132812 98.4414062,191.132812 C98.1289062,191.132812 97.7929688,191.080729 97.4335938,190.976562 L97.4335938,190.976562 L97.4335938,191.648438 C97.7200521,191.778646 98.0716146,191.84375 98.4882812,191.84375 Z M106.472656,188.15625 C107.654948,188.15625 108.582031,187.766927 109.253906,186.988281 C109.925781,186.209635 110.261719,185.127604 110.261719,183.742188 C110.261719,182.377604 109.929688,181.303385 109.265625,180.519531 C108.601562,179.735677 107.686198,179.34375 106.519531,179.34375 C105.347656,179.34375 104.425781,179.730469 103.753906,180.503906 C103.082031,181.277344 102.746094,182.356771 102.746094,183.742188 C102.746094,184.622396 102.897135,185.398438 103.199219,186.070312 C103.501302,186.742188 103.936198,187.257812 104.503906,187.617188 C105.071615,187.976562 105.727865,188.15625 106.472656,188.15625 Z M106.503906,187.453125 C105.566406,187.453125 104.841146,187.126302 104.328125,186.472656 C103.815104,185.81901 103.558594,184.908854 103.558594,183.742188 C103.558594,182.565104 103.8125,181.654948 104.320312,181.011719 C104.828125,180.36849 105.550781,180.046875 106.488281,180.046875 C107.425781,180.046875 108.153646,180.369792 108.671875,181.015625 C109.190104,181.661458 109.449219,182.570312 109.449219,183.742188 C109.449219,184.908854 109.192708,185.81901 108.679688,186.472656 C108.166667,187.126302 107.441406,187.453125 106.503906,187.453125 Z M115.417969,188.15625 C116.829427,188.15625 117.811198,187.713542 118.363281,186.828125 L118.363281,186.828125 L118.410156,186.828125 L118.550781,188 L119.207031,188 L119.207031,179.507812 L118.441406,179.507812 L118.441406,184.195312 C118.441406,185.346354 118.203125,186.177083 117.726562,186.6875 C117.25,187.197917 116.50651,187.453125 115.496094,187.453125 C114.740885,187.453125 114.183594,187.259115 113.824219,186.871094 C113.464844,186.483073 113.285156,185.861979 113.285156,185.007812 L113.285156,185.007812 L113.285156,179.507812 L112.519531,179.507812 L112.519531,185.054688 C112.519531,187.122396 113.485677,188.15625 115.417969,188.15625 Z M122.824219,188 L122.824219,183.3125 C122.824219,182.375 123.05599,181.598958 123.519531,180.984375 C123.983073,180.369792 124.576823,180.0625 125.300781,180.0625 C125.68099,180.0625 126.048177,180.106771 126.402344,180.195312 L126.402344,180.195312 L126.550781,179.453125 C126.139323,179.380208 125.753906,179.34375 125.394531,179.34375 C124.832031,179.34375 124.352865,179.470052 123.957031,179.722656 C123.561198,179.97526 123.188802,180.414062 122.839844,181.039062 L122.839844,181.039062 L122.785156,181.039062 L122.707031,179.507812 L122.050781,179.507812 L122.050781,188 L122.824219,188 Z M129.050781,188 L129.050781,183.3125 C129.050781,182.161458 129.286458,181.329427 129.757812,180.816406 C130.229167,180.303385 130.972656,180.046875 131.988281,180.046875 C132.74349,180.046875 133.300781,180.240885 133.660156,180.628906 C134.019531,181.016927 134.199219,181.638021 134.199219,182.492188 L134.199219,182.492188 L134.199219,188 L134.964844,188 L134.964844,182.445312 C134.964844,180.377604 134.001302,179.34375 132.074219,179.34375 C130.66276,179.34375 129.68099,179.786458 129.128906,180.671875 L129.128906,180.671875 L129.082031,180.671875 L128.933594,179.507812 L128.277344,179.507812 L128.277344,188 L129.050781,188 Z M141.144531,188.15625 C141.634115,188.15625 142.082031,188.11849 142.488281,188.042969 C142.894531,187.967448 143.33724,187.825521 143.816406,187.617188 L143.816406,187.617188 L143.816406,186.914062 C143.253906,187.138021 142.789062,187.283854 142.421875,187.351562 C142.054688,187.419271 141.628906,187.453125 141.144531,187.453125 C140.14974,187.453125 139.385417,187.145833 138.851562,186.53125 C138.317708,185.916667 138.045573,185.026042 138.035156,183.859375 L138.035156,183.859375 L144.152344,183.859375 L144.152344,183.234375 C144.152344,182.036458 143.863281,181.088542 143.285156,180.390625 C142.707031,179.692708 141.917969,179.34375 140.917969,179.34375 C139.78776,179.34375 138.889323,179.751302 138.222656,180.566406 C137.55599,181.38151 137.222656,182.466146 137.222656,183.820312 C137.222656,185.190104 137.567708,186.255208 138.257812,187.015625 C138.947917,187.776042 139.910156,188.15625 141.144531,188.15625 Z M143.332031,183.171875 L138.082031,183.171875 C138.165365,182.15625 138.454427,181.378906 138.949219,180.839844 C139.44401,180.300781 140.10026,180.03125 140.917969,180.03125 C141.673177,180.03125 142.264323,180.308594 142.691406,180.863281 C143.11849,181.417969 143.332031,182.1875 143.332031,183.171875 L143.332031,183.171875 Z M146.097656,191.84375 C146.49349,191.84375 146.830729,191.773438 147.109375,191.632812 C147.388021,191.492188 147.63151,191.28125 147.839844,191 C148.048177,190.71875 148.30599,190.177083 148.613281,189.375 L148.613281,189.375 L152.417969,179.507812 L151.621094,179.507812 L149.824219,184.226562 C149.329427,185.559896 148.972656,186.5625 148.753906,187.234375 L148.753906,187.234375 L148.707031,187.234375 C148.561198,186.723958 148.214844,185.736979 147.667969,184.273438 L147.667969,184.273438 L145.871094,179.507812 L145.074219,179.507812 L148.324219,188 C148.261719,188.171875 148.122396,188.542969 147.90625,189.113281 C147.690104,189.683594 147.5,190.10026 147.335938,190.363281 C147.171875,190.626302 146.988281,190.820312 146.785156,190.945312 C146.582031,191.070312 146.347656,191.132812 146.082031,191.132812 C145.733073,191.132812 145.407552,191.091146 145.105469,191.007812 L145.105469,191.007812 L145.105469,191.679688 C145.470052,191.789062 145.800781,191.84375 146.097656,191.84375 Z M154.308594,188.15625 C154.735677,188.15625 154.949219,187.901042 154.949219,187.390625 C154.949219,186.880208 154.735677,186.625 154.308594,186.625 C153.891927,186.625 153.683594,186.880208 153.683594,187.390625 C153.683594,187.901042 153.891927,188.15625 154.308594,188.15625 Z M162.792969,188 L162.792969,182.898438 L167.949219,182.898438 L167.949219,182.15625 L162.792969,182.15625 L162.792969,177.3125 L168.253906,177.3125 L168.253906,176.578125 L161.996094,176.578125 L161.996094,188 L162.792969,188 Z M170.605469,188 L170.605469,183.3125 C170.605469,182.375 170.83724,181.598958 171.300781,180.984375 C171.764323,180.369792 172.358073,180.0625 173.082031,180.0625 C173.46224,180.0625 173.829427,180.106771 174.183594,180.195312 L174.183594,180.195312 L174.332031,179.453125 C173.920573,179.380208 173.535156,179.34375 173.175781,179.34375 C172.613281,179.34375 172.134115,179.470052 171.738281,179.722656 C171.342448,179.97526 170.970052,180.414062 170.621094,181.039062 L170.621094,181.039062 L170.566406,181.039062 L170.488281,179.507812 L169.832031,179.507812 L169.832031,188 L170.605469,188 Z M179.292969,188.15625 C180.47526,188.15625 181.402344,187.766927 182.074219,186.988281 C182.746094,186.209635 183.082031,185.127604 183.082031,183.742188 C183.082031,182.377604 182.75,181.303385 182.085938,180.519531 C181.421875,179.735677 180.50651,179.34375 179.339844,179.34375 C178.167969,179.34375 177.246094,179.730469 176.574219,180.503906 C175.902344,181.277344 175.566406,182.356771 175.566406,183.742188 C175.566406,184.622396 175.717448,185.398438 176.019531,186.070312 C176.321615,186.742188 176.75651,187.257812 177.324219,187.617188 C177.891927,187.976562 178.548177,188.15625 179.292969,188.15625 Z M179.324219,187.453125 C178.386719,187.453125 177.661458,187.126302 177.148438,186.472656 C176.635417,185.81901 176.378906,184.908854 176.378906,183.742188 C176.378906,182.565104 176.632812,181.654948 177.140625,181.011719 C177.648438,180.36849 178.371094,180.046875 179.308594,180.046875 C180.246094,180.046875 180.973958,180.369792 181.492188,181.015625 C182.010417,181.661458 182.269531,182.570312 182.269531,183.742188 C182.269531,184.908854 182.013021,185.81901 181.5,186.472656 C180.986979,187.126302 180.261719,187.453125 179.324219,187.453125 Z M186.207031,188 L186.207031,183.3125 C186.207031,182.171875 186.410156,181.342448 186.816406,180.824219 C187.222656,180.30599 187.871094,180.046875 188.761719,180.046875 C190.074219,180.046875 190.730469,180.763021 190.730469,182.195312 L190.730469,182.195312 L190.730469,188 L191.519531,188 L191.519531,183.023438 C191.519531,181.997396 191.727865,181.244792 192.144531,180.765625 C192.561198,180.286458 193.204427,180.046875 194.074219,180.046875 C194.740885,180.046875 195.235677,180.236979 195.558594,180.617188 C195.88151,180.997396 196.042969,181.601562 196.042969,182.429688 L196.042969,182.429688 L196.042969,188 L196.808594,188 L196.808594,182.445312 C196.808594,181.367188 196.576823,180.580729 196.113281,180.085938 C195.64974,179.591146 194.954427,179.34375 194.027344,179.34375 C193.433594,179.34375 192.903646,179.473958 192.4375,179.734375 C191.971354,179.994792 191.60026,180.367188 191.324219,180.851562 L191.324219,180.851562 L191.292969,180.851562 C190.91276,179.846354 190.053385,179.34375 188.714844,179.34375 C188.19401,179.34375 187.717448,179.459635 187.285156,179.691406 C186.852865,179.923177 186.519531,180.25 186.285156,180.671875 L186.285156,180.671875 L186.238281,180.671875 L186.074219,179.507812 L185.433594,179.507812 L185.433594,188 L186.207031,188 Z M34.953125,210.15625 C35.4427083,210.15625 35.875,210.09375 36.25,209.96875 L36.25,209.96875 L36.25,209.34375 C35.8854167,209.427083 35.4583333,209.46875 34.96875,209.46875 C34.4791667,209.46875 34.1197917,209.3125 33.890625,209 C33.6614583,208.6875 33.546875,208.205729 33.546875,207.554688 L33.546875,207.554688 L33.546875,202.179688 L36.0390625,202.179688 L36.0390625,201.507812 L33.546875,201.507812 L33.546875,199.453125 L33.1484375,199.453125 L32.7578125,201.375 L31.5,201.726562 L31.5,202.179688 L32.7578125,202.179688 L32.7578125,207.664062 C32.7578125,208.523438 32.9361979,209.153646 33.2929688,209.554688 C33.6497396,209.955729 34.203125,210.15625 34.953125,210.15625 Z M38.859375,210 L38.859375,205.3125 C38.859375,204.161458 39.0950521,203.329427 39.5664062,202.816406 C40.0377604,202.303385 40.78125,202.046875 41.796875,202.046875 C42.5520833,202.046875 43.109375,202.240885 43.46875,202.628906 C43.828125,203.016927 44.0078125,203.638021 44.0078125,204.492188 L44.0078125,204.492188 L44.0078125,210 L44.7734375,210 L44.7734375,204.445312 C44.7734375,202.377604 43.8098958,201.34375 41.8828125,201.34375 C41.1640625,201.34375 40.5625,201.458333 40.078125,201.6875 C39.59375,201.916667 39.1927083,202.286458 38.875,202.796875 L38.875,202.796875 L38.8203125,202.796875 L38.859375,201.710938 L38.859375,197.84375 L38.0859375,197.84375 L38.0859375,210 L38.859375,210 Z M50.953125,210.15625 C51.4427083,210.15625 51.890625,210.11849 52.296875,210.042969 C52.703125,209.967448 53.1458333,209.825521 53.625,209.617188 L53.625,209.617188 L53.625,208.914062 C53.0625,209.138021 52.5976562,209.283854 52.2304688,209.351562 C51.8632812,209.419271 51.4375,209.453125 50.953125,209.453125 C49.9583333,209.453125 49.1940104,209.145833 48.6601562,208.53125 C48.1263021,207.916667 47.8541667,207.026042 47.84375,205.859375 L47.84375,205.859375 L53.9609375,205.859375 L53.9609375,205.234375 C53.9609375,204.036458 53.671875,203.088542 53.09375,202.390625 C52.515625,201.692708 51.7265625,201.34375 50.7265625,201.34375 C49.5963542,201.34375 48.6979167,201.751302 48.03125,202.566406 C47.3645833,203.38151 47.03125,204.466146 47.03125,205.820312 C47.03125,207.190104 47.3763021,208.255208 48.0664062,209.015625 C48.7565104,209.776042 49.71875,210.15625 50.953125,210.15625 Z M53.140625,205.171875 L47.890625,205.171875 C47.9739583,204.15625 48.2630208,203.378906 48.7578125,202.839844 C49.2526042,202.300781 49.9088542,202.03125 50.7265625,202.03125 C51.4817708,202.03125 52.0729167,202.308594 52.5,202.863281 C52.9270833,203.417969 53.140625,204.1875 53.140625,205.171875 L53.140625,205.171875 Z M60.84375,199.90625 C61.0052083,199.90625 61.1315104,199.838542 61.2226562,199.703125 C61.3138021,199.567708 61.359375,199.382812 61.359375,199.148438 C61.359375,198.908854 61.3138021,198.723958 61.2226562,198.59375 C61.1315104,198.463542 61.0052083,198.398438 60.84375,198.398438 C60.515625,198.398438 60.3515625,198.648438 60.3515625,199.148438 C60.3515625,199.653646 60.515625,199.90625 60.84375,199.90625 Z M61.234375,210 L61.234375,201.507812 L60.4609375,201.507812 L60.4609375,210 L61.234375,210 Z M64.8515625,210 L64.8515625,205.3125 C64.8515625,204.161458 65.0872396,203.329427 65.5585938,202.816406 C66.0299479,202.303385 66.7734375,202.046875 67.7890625,202.046875 C68.5442708,202.046875 69.1015625,202.240885 69.4609375,202.628906 C69.8203125,203.016927 70,203.638021 70,204.492188 L70,204.492188 L70,210 L70.765625,210 L70.765625,204.445312 C70.765625,202.377604 69.8020833,201.34375 67.875,201.34375 C66.4635417,201.34375 65.4817708,201.786458 64.9296875,202.671875 L64.9296875,202.671875 L64.8828125,202.671875 L64.734375,201.507812 L64.078125,201.507812 L64.078125,210 L64.8515625,210 Z M73.8984375,199.90625 C74.0598958,199.90625 74.1861979,199.838542 74.2773438,199.703125 C74.3684896,199.567708 74.4140625,199.382812 74.4140625,199.148438 C74.4140625,198.908854 74.3684896,198.723958 74.2773438,198.59375 C74.1861979,198.463542 74.0598958,198.398438 73.8984375,198.398438 C73.5703125,198.398438 73.40625,198.648438 73.40625,199.148438 C73.40625,199.653646 73.5703125,199.90625 73.8984375,199.90625 Z M74.2890625,210 L74.2890625,201.507812 L73.515625,201.507812 L73.515625,210 L74.2890625,210 Z M79.359375,210.15625 C79.8489583,210.15625 80.28125,210.09375 80.65625,209.96875 L80.65625,209.96875 L80.65625,209.34375 C80.2916667,209.427083 79.8645833,209.46875 79.375,209.46875 C78.8854167,209.46875 78.5260417,209.3125 78.296875,209 C78.0677083,208.6875 77.953125,208.205729 77.953125,207.554688 L77.953125,207.554688 L77.953125,202.179688 L80.4453125,202.179688 L80.4453125,201.507812 L77.953125,201.507812 L77.953125,199.453125 L77.5546875,199.453125 L77.1640625,201.375 L75.90625,201.726562 L75.90625,202.179688 L77.1640625,202.179688 L77.1640625,207.664062 C77.1640625,208.523438 77.3424479,209.153646 77.6992188,209.554688 C78.0559896,209.955729 78.609375,210.15625 79.359375,210.15625 Z M82.875,199.90625 C83.0364583,199.90625 83.1627604,199.838542 83.2539062,199.703125 C83.3450521,199.567708 83.390625,199.382812 83.390625,199.148438 C83.390625,198.908854 83.3450521,198.723958 83.2539062,198.59375 C83.1627604,198.463542 83.0364583,198.398438 82.875,198.398438 C82.546875,198.398438 82.3828125,198.648438 82.3828125,199.148438 C82.3828125,199.653646 82.546875,199.90625 82.875,199.90625 Z M83.265625,210 L83.265625,201.507812 L82.4921875,201.507812 L82.4921875,210 L83.265625,210 Z M88.09375,210.15625 C88.7083333,210.15625 89.2408854,210.042969 89.6914062,209.816406 C90.1419271,209.589844 90.5807292,209.203125 91.0078125,208.65625 L91.0078125,208.65625 L91.0703125,208.65625 L91.265625,210 L91.8359375,210 L91.8359375,204.351562 C91.8359375,203.325521 91.6054688,202.570312 91.1445312,202.085938 C90.6835938,201.601562 89.9869792,201.359375 89.0546875,201.359375 C88.1432292,201.359375 87.2213542,201.578125 86.2890625,202.015625 L86.2890625,202.015625 L86.578125,202.6875 C87.421875,202.25 88.2369792,202.03125 89.0234375,202.03125 C89.7526042,202.03125 90.28125,202.236979 90.609375,202.648438 C90.9375,203.059896 91.1015625,203.669271 91.1015625,204.476562 L91.1015625,204.476562 L91.1015625,205.039062 L89.484375,205.085938 C88.1770833,205.111979 87.1783854,205.354167 86.4882812,205.8125 C85.7981771,206.270833 85.453125,206.914062 85.453125,207.742188 C85.453125,208.497396 85.6848958,209.088542 86.1484375,209.515625 C86.6119792,209.942708 87.2604167,210.15625 88.09375,210.15625 Z M88.140625,209.453125 C87.546875,209.453125 87.0872396,209.30599 86.7617188,209.011719 C86.4361979,208.717448 86.2734375,208.304688 86.2734375,207.773438 C86.2734375,207.106771 86.5273438,206.615885 87.0351562,206.300781 C87.5429688,205.985677 88.3932292,205.799479 89.5859375,205.742188 L89.5859375,205.742188 L91.0703125,205.679688 L91.0703125,206.515625 C91.0703125,207.4375 90.8085938,208.157552 90.2851562,208.675781 C89.7617188,209.19401 89.046875,209.453125 88.140625,209.453125 Z M95.359375,210 L95.359375,197.84375 L94.5859375,197.84375 L94.5859375,210 L95.359375,210 Z M102.742188,199.90625 C102.903646,199.90625 103.029948,199.838542 103.121094,199.703125 C103.21224,199.567708 103.257812,199.382812 103.257812,199.148438 C103.257812,198.908854 103.21224,198.723958 103.121094,198.59375 C103.029948,198.463542 102.903646,198.398438 102.742188,198.398438 C102.414062,198.398438 102.25,198.648438 102.25,199.148438 C102.25,199.653646 102.414062,199.90625 102.742188,199.90625 Z M103.132812,210 L103.132812,201.507812 L102.359375,201.507812 L102.359375,210 L103.132812,210 Z M109.101562,210.15625 C110.309896,210.15625 111.236979,209.671875 111.882812,208.703125 L111.882812,208.703125 L111.945312,208.703125 L112.140625,210 L112.648438,210 L112.648438,197.84375 L111.882812,197.84375 L111.882812,200.898438 C111.882812,201.528646 111.898438,202.171875 111.929688,202.828125 L111.929688,202.828125 L111.882812,202.828125 C111.528646,202.286458 111.127604,201.903646 110.679688,201.679688 C110.231771,201.455729 109.700521,201.34375 109.085938,201.34375 C107.914062,201.34375 107.020833,201.731771 106.40625,202.507812 C105.791667,203.283854 105.484375,204.40625 105.484375,205.875 C105.484375,207.270833 105.794271,208.333333 106.414062,209.0625 C107.033854,209.791667 107.929688,210.15625 109.101562,210.15625 Z M109.101562,209.46875 C107.231771,209.46875 106.296875,208.265625 106.296875,205.859375 C106.296875,204.619792 106.529948,203.674479 106.996094,203.023438 C107.46224,202.372396 108.158854,202.046875 109.085938,202.046875 C110.070312,202.046875 110.782552,202.334635 111.222656,202.910156 C111.66276,203.485677 111.882812,204.429688 111.882812,205.742188 L111.882812,205.742188 L111.882812,205.875 C111.882812,207.15625 111.658854,208.075521 111.210938,208.632812 C110.763021,209.190104 110.059896,209.46875 109.101562,209.46875 Z M118.929688,210.15625 C119.419271,210.15625 119.867188,210.11849 120.273438,210.042969 C120.679688,209.967448 121.122396,209.825521 121.601562,209.617188 L121.601562,209.617188 L121.601562,208.914062 C121.039062,209.138021 120.574219,209.283854 120.207031,209.351562 C119.839844,209.419271 119.414062,209.453125 118.929688,209.453125 C117.934896,209.453125 117.170573,209.145833 116.636719,208.53125 C116.102865,207.916667 115.830729,207.026042 115.820312,205.859375 L115.820312,205.859375 L121.9375,205.859375 L121.9375,205.234375 C121.9375,204.036458 121.648438,203.088542 121.070312,202.390625 C120.492188,201.692708 119.703125,201.34375 118.703125,201.34375 C117.572917,201.34375 116.674479,201.751302 116.007812,202.566406 C115.341146,203.38151 115.007812,204.466146 115.007812,205.820312 C115.007812,207.190104 115.352865,208.255208 116.042969,209.015625 C116.733073,209.776042 117.695312,210.15625 118.929688,210.15625 Z M121.117188,205.171875 L115.867188,205.171875 C115.950521,204.15625 116.239583,203.378906 116.734375,202.839844 C117.229167,202.300781 117.885417,202.03125 118.703125,202.03125 C119.458333,202.03125 120.049479,202.308594 120.476562,202.863281 C120.903646,203.417969 121.117188,204.1875 121.117188,205.171875 L121.117188,205.171875 Z M126.265625,210.15625 C126.880208,210.15625 127.41276,210.042969 127.863281,209.816406 C128.313802,209.589844 128.752604,209.203125 129.179688,208.65625 L129.179688,208.65625 L129.242188,208.65625 L129.4375,210 L130.007812,210 L130.007812,204.351562 C130.007812,203.325521 129.777344,202.570312 129.316406,202.085938 C128.855469,201.601562 128.158854,201.359375 127.226562,201.359375 C126.315104,201.359375 125.393229,201.578125 124.460938,202.015625 L124.460938,202.015625 L124.75,202.6875 C125.59375,202.25 126.408854,202.03125 127.195312,202.03125 C127.924479,202.03125 128.453125,202.236979 128.78125,202.648438 C129.109375,203.059896 129.273438,203.669271 129.273438,204.476562 L129.273438,204.476562 L129.273438,205.039062 L127.65625,205.085938 C126.348958,205.111979 125.35026,205.354167 124.660156,205.8125 C123.970052,206.270833 123.625,206.914062 123.625,207.742188 C123.625,208.497396 123.856771,209.088542 124.320312,209.515625 C124.783854,209.942708 125.432292,210.15625 126.265625,210.15625 Z M126.3125,209.453125 C125.71875,209.453125 125.259115,209.30599 124.933594,209.011719 C124.608073,208.717448 124.445312,208.304688 124.445312,207.773438 C124.445312,207.106771 124.699219,206.615885 125.207031,206.300781 C125.714844,205.985677 126.565104,205.799479 127.757812,205.742188 L127.757812,205.742188 L129.242188,205.679688 L129.242188,206.515625 C129.242188,207.4375 128.980469,208.157552 128.457031,208.675781 C127.933594,209.19401 127.21875,209.453125 126.3125,209.453125 Z M139.71875,210.15625 C141.130208,210.15625 142.111979,209.713542 142.664062,208.828125 L142.664062,208.828125 L142.710938,208.828125 L142.851562,210 L143.507812,210 L143.507812,201.507812 L142.742188,201.507812 L142.742188,206.195312 C142.742188,207.346354 142.503906,208.177083 142.027344,208.6875 C141.550781,209.197917 140.807292,209.453125 139.796875,209.453125 C139.041667,209.453125 138.484375,209.259115 138.125,208.871094 C137.765625,208.483073 137.585938,207.861979 137.585938,207.007812 L137.585938,207.007812 L137.585938,201.507812 L136.820312,201.507812 L136.820312,207.054688 C136.820312,209.122396 137.786458,210.15625 139.71875,210.15625 Z M147.125,210 L147.125,205.3125 C147.125,204.161458 147.360677,203.329427 147.832031,202.816406 C148.303385,202.303385 149.046875,202.046875 150.0625,202.046875 C150.817708,202.046875 151.375,202.240885 151.734375,202.628906 C152.09375,203.016927 152.273438,203.638021 152.273438,204.492188 L152.273438,204.492188 L152.273438,210 L153.039062,210 L153.039062,204.445312 C153.039062,202.377604 152.075521,201.34375 150.148438,201.34375 C148.736979,201.34375 147.755208,201.786458 147.203125,202.671875 L147.203125,202.671875 L147.15625,202.671875 L147.007812,201.507812 L146.351562,201.507812 L146.351562,210 L147.125,210 Z M158.015625,210.15625 C158.505208,210.15625 158.9375,210.09375 159.3125,209.96875 L159.3125,209.96875 L159.3125,209.34375 C158.947917,209.427083 158.520833,209.46875 158.03125,209.46875 C157.541667,209.46875 157.182292,209.3125 156.953125,209 C156.723958,208.6875 156.609375,208.205729 156.609375,207.554688 L156.609375,207.554688 L156.609375,202.179688 L159.101562,202.179688 L159.101562,201.507812 L156.609375,201.507812 L156.609375,199.453125 L156.210938,199.453125 L155.820312,201.375 L154.5625,201.726562 L154.5625,202.179688 L155.820312,202.179688 L155.820312,207.664062 C155.820312,208.523438 155.998698,209.153646 156.355469,209.554688 C156.71224,209.955729 157.265625,210.15625 158.015625,210.15625 Z M161.53125,199.90625 C161.692708,199.90625 161.81901,199.838542 161.910156,199.703125 C162.001302,199.567708 162.046875,199.382812 162.046875,199.148438 C162.046875,198.908854 162.001302,198.723958 161.910156,198.59375 C161.81901,198.463542 161.692708,198.398438 161.53125,198.398438 C161.203125,198.398438 161.039062,198.648438 161.039062,199.148438 C161.039062,199.653646 161.203125,199.90625 161.53125,199.90625 Z M161.921875,210 L161.921875,201.507812 L161.148438,201.507812 L161.148438,210 L161.921875,210 Z M165.539062,210 L165.539062,197.84375 L164.765625,197.84375 L164.765625,210 L165.539062,210 Z M174.765625,210.15625 C175.255208,210.15625 175.6875,210.09375 176.0625,209.96875 L176.0625,209.96875 L176.0625,209.34375 C175.697917,209.427083 175.270833,209.46875 174.78125,209.46875 C174.291667,209.46875 173.932292,209.3125 173.703125,209 C173.473958,208.6875 173.359375,208.205729 173.359375,207.554688 L173.359375,207.554688 L173.359375,202.179688 L175.851562,202.179688 L175.851562,201.507812 L173.359375,201.507812 L173.359375,199.453125 L172.960938,199.453125 L172.570312,201.375 L171.3125,201.726562 L171.3125,202.179688 L172.570312,202.179688 L172.570312,207.664062 C172.570312,208.523438 172.748698,209.153646 173.105469,209.554688 C173.46224,209.955729 174.015625,210.15625 174.765625,210.15625 Z M178.671875,210 L178.671875,205.3125 C178.671875,204.161458 178.907552,203.329427 179.378906,202.816406 C179.85026,202.303385 180.59375,202.046875 181.609375,202.046875 C182.364583,202.046875 182.921875,202.240885 183.28125,202.628906 C183.640625,203.016927 183.820312,203.638021 183.820312,204.492188 L183.820312,204.492188 L183.820312,210 L184.585938,210 L184.585938,204.445312 C184.585938,202.377604 183.622396,201.34375 181.695312,201.34375 C180.976562,201.34375 180.375,201.458333 179.890625,201.6875 C179.40625,201.916667 179.005208,202.286458 178.6875,202.796875 L178.6875,202.796875 L178.632812,202.796875 L178.671875,201.710938 L178.671875,197.84375 L177.898438,197.84375 L177.898438,210 L178.671875,210 Z M190.765625,210.15625 C191.255208,210.15625 191.703125,210.11849 192.109375,210.042969 C192.515625,209.967448 192.958333,209.825521 193.4375,209.617188 L193.4375,209.617188 L193.4375,208.914062 C192.875,209.138021 192.410156,209.283854 192.042969,209.351562 C191.675781,209.419271 191.25,209.453125 190.765625,209.453125 C189.770833,209.453125 189.00651,209.145833 188.472656,208.53125 C187.938802,207.916667 187.666667,207.026042 187.65625,205.859375 L187.65625,205.859375 L193.773438,205.859375 L193.773438,205.234375 C193.773438,204.036458 193.484375,203.088542 192.90625,202.390625 C192.328125,201.692708 191.539062,201.34375 190.539062,201.34375 C189.408854,201.34375 188.510417,201.751302 187.84375,202.566406 C187.177083,203.38151 186.84375,204.466146 186.84375,205.820312 C186.84375,207.190104 187.188802,208.255208 187.878906,209.015625 C188.56901,209.776042 189.53125,210.15625 190.765625,210.15625 Z M192.953125,205.171875 L187.703125,205.171875 C187.786458,204.15625 188.075521,203.378906 188.570312,202.839844 C189.065104,202.300781 189.721354,202.03125 190.539062,202.03125 C191.294271,202.03125 191.885417,202.308594 192.3125,202.863281 C192.739583,203.417969 192.953125,204.1875 192.953125,205.171875 L192.953125,205.171875 Z M78.578125,232 L78.578125,219.84375 L77.8046875,219.84375 L77.8046875,232 L78.578125,232 Z M83.40625,232.15625 C84.0208333,232.15625 84.5533854,232.042969 85.0039062,231.816406 C85.4544271,231.589844 85.8932292,231.203125 86.3203125,230.65625 L86.3203125,230.65625 L86.3828125,230.65625 L86.578125,232 L87.1484375,232 L87.1484375,226.351562 C87.1484375,225.325521 86.9179688,224.570312 86.4570312,224.085938 C85.9960938,223.601562 85.2994792,223.359375 84.3671875,223.359375 C83.4557292,223.359375 82.5338542,223.578125 81.6015625,224.015625 L81.6015625,224.015625 L81.890625,224.6875 C82.734375,224.25 83.5494792,224.03125 84.3359375,224.03125 C85.0651042,224.03125 85.59375,224.236979 85.921875,224.648438 C86.25,225.059896 86.4140625,225.669271 86.4140625,226.476562 L86.4140625,226.476562 L86.4140625,227.039062 L84.796875,227.085938 C83.4895833,227.111979 82.4908854,227.354167 81.8007812,227.8125 C81.1106771,228.270833 80.765625,228.914062 80.765625,229.742188 C80.765625,230.497396 80.9973958,231.088542 81.4609375,231.515625 C81.9244792,231.942708 82.5729167,232.15625 83.40625,232.15625 Z M83.453125,231.453125 C82.859375,231.453125 82.3997396,231.30599 82.0742188,231.011719 C81.7486979,230.717448 81.5859375,230.304688 81.5859375,229.773438 C81.5859375,229.106771 81.8398438,228.615885 82.3476562,228.300781 C82.8554688,227.985677 83.7057292,227.799479 84.8984375,227.742188 L84.8984375,227.742188 L86.3828125,227.679688 L86.3828125,228.515625 C86.3828125,229.4375 86.1210938,230.157552 85.5976562,230.675781 C85.0742188,231.19401 84.359375,231.453125 83.453125,231.453125 Z M92.703125,232.15625 C94.1145833,232.15625 95.0963542,231.713542 95.6484375,230.828125 L95.6484375,230.828125 L95.6953125,230.828125 L95.8359375,232 L96.4921875,232 L96.4921875,223.507812 L95.7265625,223.507812 L95.7265625,228.195312 C95.7265625,229.346354 95.4882812,230.177083 95.0117188,230.6875 C94.5351562,231.197917 93.7916667,231.453125 92.78125,231.453125 C92.0260417,231.453125 91.46875,231.259115 91.109375,230.871094 C90.75,230.483073 90.5703125,229.861979 90.5703125,229.007812 L90.5703125,229.007812 L90.5703125,223.507812 L89.8046875,223.507812 L89.8046875,229.054688 C89.8046875,231.122396 90.7708333,232.15625 92.703125,232.15625 Z M100.109375,232 L100.109375,227.3125 C100.109375,226.161458 100.345052,225.329427 100.816406,224.816406 C101.28776,224.303385 102.03125,224.046875 103.046875,224.046875 C103.802083,224.046875 104.359375,224.240885 104.71875,224.628906 C105.078125,225.016927 105.257812,225.638021 105.257812,226.492188 L105.257812,226.492188 L105.257812,232 L106.023438,232 L106.023438,226.445312 C106.023438,224.377604 105.059896,223.34375 103.132812,223.34375 C101.721354,223.34375 100.739583,223.786458 100.1875,224.671875 L100.1875,224.671875 L100.140625,224.671875 L99.9921875,223.507812 L99.3359375,223.507812 L99.3359375,232 L100.109375,232 Z M112.164062,232.15625 C113.044271,232.15625 113.755208,232.023438 114.296875,231.757812 L114.296875,231.757812 L114.296875,231.039062 C113.635417,231.315104 112.919271,231.453125 112.148438,231.453125 C111.184896,231.453125 110.434896,231.128906 109.898438,230.480469 C109.361979,229.832031 109.09375,228.934896 109.09375,227.789062 C109.09375,226.580729 109.361979,225.654948 109.898438,225.011719 C110.434896,224.36849 111.223958,224.046875 112.265625,224.046875 C112.807292,224.046875 113.445312,224.169271 114.179688,224.414062 L114.179688,224.414062 L114.390625,223.726562 C113.71875,223.471354 113.015625,223.34375 112.28125,223.34375 C111.041667,223.34375 110.065104,223.735677 109.351562,224.519531 C108.638021,225.303385 108.28125,226.398438 108.28125,227.804688 C108.28125,229.174479 108.625,230.242188 109.3125,231.007812 C110,231.773438 110.950521,232.15625 112.164062,232.15625 Z M117.148438,232 L117.148438,227.3125 C117.148438,226.161458 117.384115,225.329427 117.855469,224.816406 C118.326823,224.303385 119.070312,224.046875 120.085938,224.046875 C120.841146,224.046875 121.398438,224.240885 121.757812,224.628906 C122.117188,225.016927 122.296875,225.638021 122.296875,226.492188 L122.296875,226.492188 L122.296875,232 L123.0625,232 L123.0625,226.445312 C123.0625,224.377604 122.098958,223.34375 120.171875,223.34375 C119.453125,223.34375 118.851562,223.458333 118.367188,223.6875 C117.882812,223.916667 117.481771,224.286458 117.164062,224.796875 L117.164062,224.796875 L117.109375,224.796875 L117.148438,223.710938 L117.148438,219.84375 L116.375,219.84375 L116.375,232 L117.148438,232 Z M126.195312,221.90625 C126.356771,221.90625 126.483073,221.838542 126.574219,221.703125 C126.665365,221.567708 126.710938,221.382812 126.710938,221.148438 C126.710938,220.908854 126.665365,220.723958 126.574219,220.59375 C126.483073,220.463542 126.356771,220.398438 126.195312,220.398438 C125.867188,220.398438 125.703125,220.648438 125.703125,221.148438 C125.703125,221.653646 125.867188,221.90625 126.195312,221.90625 Z M126.585938,232 L126.585938,223.507812 L125.8125,223.507812 L125.8125,232 L126.585938,232 Z M130.203125,232 L130.203125,227.3125 C130.203125,226.161458 130.438802,225.329427 130.910156,224.816406 C131.38151,224.303385 132.125,224.046875 133.140625,224.046875 C133.895833,224.046875 134.453125,224.240885 134.8125,224.628906 C135.171875,225.016927 135.351562,225.638021 135.351562,226.492188 L135.351562,226.492188 L135.351562,232 L136.117188,232 L136.117188,226.445312 C136.117188,224.377604 135.153646,223.34375 133.226562,223.34375 C131.815104,223.34375 130.833333,223.786458 130.28125,224.671875 L130.28125,224.671875 L130.234375,224.671875 L130.085938,223.507812 L129.429688,223.507812 L129.429688,232 L130.203125,232 Z M141.15625,235.84375 C142.5,235.84375 143.535156,235.60026 144.261719,235.113281 C144.988281,234.626302 145.351562,233.934896 145.351562,233.039062 C145.351562,232.309896 145.106771,231.759115 144.617188,231.386719 C144.127604,231.014323 143.421875,230.828125 142.5,230.828125 L142.5,230.828125 L141.015625,230.828125 C140.53125,230.828125 140.186198,230.765625 139.980469,230.640625 C139.77474,230.515625 139.671875,230.317708 139.671875,230.046875 C139.671875,229.802083 139.752604,229.570312 139.914062,229.351562 C140.075521,229.132812 140.309896,228.942708 140.617188,228.78125 C140.773438,228.8125 141.044271,228.828125 141.429688,228.828125 C142.346354,228.828125 143.076823,228.574219 143.621094,228.066406 C144.165365,227.558594 144.4375,226.895833 144.4375,226.078125 C144.4375,225.380208 144.203125,224.739583 143.734375,224.15625 L143.734375,224.15625 L145.492188,224.046875 L145.492188,223.507812 L142.773438,223.507812 C142.466146,223.398438 142.033854,223.34375 141.476562,223.34375 C140.559896,223.34375 139.832031,223.60026 139.292969,224.113281 C138.753906,224.626302 138.484375,225.307292 138.484375,226.15625 C138.484375,226.71875 138.622396,227.217448 138.898438,227.652344 C139.174479,228.08724 139.559896,228.40625 140.054688,228.609375 C139.330729,229.041667 138.96875,229.541667 138.96875,230.109375 C138.96875,230.369792 139.045573,230.60026 139.199219,230.800781 C139.352865,231.001302 139.557292,231.15625 139.8125,231.265625 C139.192708,231.40625 138.701823,231.669271 138.339844,232.054688 C137.977865,232.440104 137.796875,232.924479 137.796875,233.507812 C137.796875,234.242188 138.089844,234.815104 138.675781,235.226562 C139.261719,235.638021 140.088542,235.84375 141.15625,235.84375 Z M141.460938,228.226562 C140.794271,228.226562 140.261719,228.045573 139.863281,227.683594 C139.464844,227.321615 139.265625,226.8125 139.265625,226.15625 C139.265625,225.463542 139.459635,224.923177 139.847656,224.535156 C140.235677,224.147135 140.768229,223.953125 141.445312,223.953125 C142.143229,223.953125 142.686198,224.134115 143.074219,224.496094 C143.46224,224.858073 143.65625,225.401042 143.65625,226.125 C143.65625,226.807292 143.467448,227.328125 143.089844,227.6875 C142.71224,228.046875 142.169271,228.226562 141.460938,228.226562 Z M141.21875,235.1875 C139.484375,235.1875 138.617188,234.604167 138.617188,233.4375 C138.617188,232.213542 139.395833,231.601562 140.953125,231.601562 L140.953125,231.601562 L142.34375,231.601562 C143.125,231.601562 143.690104,231.716146 144.039062,231.945312 C144.388021,232.174479 144.5625,232.544271 144.5625,233.054688 C144.5625,234.476562 143.447917,235.1875 141.21875,235.1875 Z M147.703125,232.15625 C148.130208,232.15625 148.34375,231.901042 148.34375,231.390625 C148.34375,230.880208 148.130208,230.625 147.703125,230.625 C147.286458,230.625 147.078125,230.880208 147.078125,231.390625 C147.078125,231.901042 147.286458,232.15625 147.703125,232.15625 Z" id="AmindwithanabilityofthinkingaboutallpartsoftheUXjourney.Fromtheinitialideauntilthelaunching." fill="#FFFFFF" fill-rule="nonzero"></path>
                <g id="icon/strategy" transform="translate(84.000000, 20.000000)" fill="#FFFFFF">
                    <g id="paper">
                        <path d="M44.25,4 L35.4,4 L35.4,1 C35.4,0.44775 34.9597125,0 34.4166667,0 L10.8166667,0 C10.2736208,0 9.83333333,0.44775 9.83333333,1 L9.83333333,4 L0.983333333,4 C0.4402875,4 0,4.44775 0,5 L0,59 C0,59.55225 0.4402875,60 0.983333333,60 L44.25,60 C44.7930458,60 45.2333333,59.55225 45.2333333,59 L45.2333333,5 C45.2333333,4.44775 44.7930458,4 44.25,4 Z M11.8,2 L33.4333333,2 L33.4333333,4 L11.8,4 L11.8,2 Z M11.8,6 L33.4333333,6 L33.4333333,10 L25.3985167,10 C24.8563313,8.437625 23.1712667,7.618 21.6349313,8.169375 C20.7935667,8.471375 20.1317833,9.144375 19.8348167,10 L11.8,10 L11.8,6 Z M43.2666667,58 L1.96666667,58 L1.96666667,6 L9.83333333,6 L9.83333333,11 C9.83333333,11.55225 10.2736208,12 10.8166667,12 L20.65,12 C21.1930458,12 21.6333333,11.55225 21.6333333,11 C21.6333333,10.44775 22.0736208,10 22.6166667,10 C23.1597125,10 23.6,10.44775 23.6,11 C23.6,11.55225 24.0402875,12 24.5833333,12 L34.4166667,12 C34.9597125,12 35.4,11.55225 35.4,11 L35.4,6 L43.2666667,6 L43.2666667,58 Z" id="Shape" fill-rule="nonzero"></path>
                        <path d="M9.83333333,14 C7.66102708,14 5.9,15.790875 5.9,18 C5.9,20.209125 7.66102708,22 9.83333333,22 C12.0056396,22 13.7666667,20.209125 13.7666667,18 C13.7666667,15.790875 12.0056396,14 9.83333333,14 Z M9.83333333,20 C8.74711875,20 7.86666667,19.104625 7.86666667,18 C7.86666667,16.895375 8.74711875,16 9.83333333,16 C10.9195479,16 11.8,16.895375 11.8,18 C11.8,19.104625 10.9195479,20 9.83333333,20 Z" id="Shape" fill-rule="nonzero"></path>
                        <path d="M9.83333333,24 C7.66102708,24 5.9,25.790875 5.9,28 C5.9,30.209125 7.66102708,32 9.83333333,32 C12.0056396,32 13.7666667,30.209125 13.7666667,28 C13.7666667,25.790875 12.0056396,24 9.83333333,24 Z M9.83333333,30 C8.74711875,30 7.86666667,29.104625 7.86666667,28 C7.86666667,26.895375 8.74711875,26 9.83333333,26 C10.9195479,26 11.8,26.895375 11.8,28 C11.8,29.104625 10.9195479,30 9.83333333,30 Z" id="Shape" fill-rule="nonzero"></path>
                        <path d="M38.35,15 L24.5833333,15 C24.0402875,15 23.6,15.44775 23.6,16 C23.6,16.55225 24.0402875,17 24.5833333,17 L38.35,17 C38.8930458,17 39.3333333,16.55225 39.3333333,16 C39.3333333,15.44775 38.8930458,15 38.35,15 Z" id="Path" fill-rule="nonzero"></path>
                        <path d="M20.65,15 L16.7166667,15 C16.1736208,15 15.7333333,15.44775 15.7333333,16 C15.7333333,16.55225 16.1736208,17 16.7166667,17 L20.65,17 C21.1930458,17 21.6333333,16.55225 21.6333333,16 C21.6333333,15.44775 21.1930458,15 20.65,15 Z" id="Path" fill-rule="nonzero"></path>
                        <path d="M38.35,19 L30.4833333,19 C29.9402875,19 29.5,19.44775 29.5,20 C29.5,20.55225 29.9402875,21 30.4833333,21 L38.35,21 C38.8930458,21 39.3333333,20.55225 39.3333333,20 C39.3333333,19.44775 38.8930458,19 38.35,19 Z" id="Path" fill-rule="nonzero"></path>
                        <path d="M26.55,19 L16.7166667,19 C16.1736208,19 15.7333333,19.44775 15.7333333,20 C15.7333333,20.55225 16.1736208,21 16.7166667,21 L26.55,21 C27.0930458,21 27.5333333,20.55225 27.5333333,20 C27.5333333,19.44775 27.0930458,19 26.55,19 Z" id="Path" fill-rule="nonzero"></path>
                        <path d="M38.35,25 L34.4166667,25 C33.8736208,25 33.4333333,25.44775 33.4333333,26 C33.4333333,26.55225 33.8736208,27 34.4166667,27 L38.35,27 C38.8930458,27 39.3333333,26.55225 39.3333333,26 C39.3333333,25.44775 38.8930458,25 38.35,25 Z" id="Path" fill-rule="nonzero"></path>
                        <path d="M30.4833333,25 L16.7166667,25 C16.1736208,25 15.7333333,25.44775 15.7333333,26 C15.7333333,26.55225 16.1736208,27 16.7166667,27 L30.4833333,27 C31.0263792,27 31.4666667,26.55225 31.4666667,26 C31.4666667,25.44775 31.0263792,25 30.4833333,25 Z" id="Path" fill-rule="nonzero"></path>
                        <path d="M38.35,29 L27.5333333,29 C26.9902875,29 26.55,29.44775 26.55,30 C26.55,30.55225 26.9902875,31 27.5333333,31 L38.35,31 C38.8930458,31 39.3333333,30.55225 39.3333333,30 C39.3333333,29.44775 38.8930458,29 38.35,29 Z" id="Path" fill-rule="nonzero"></path>
                        <path d="M23.6,29 L16.7166667,29 C16.1736208,29 15.7333333,29.44775 15.7333333,30 C15.7333333,30.55225 16.1736208,31 16.7166667,31 L23.6,31 C24.1430458,31 24.5833333,30.55225 24.5833333,30 C24.5833333,29.44775 24.1430458,29 23.6,29 Z" id="Path" fill-rule="nonzero"></path>
                        <path d="M55.0666667,4.1 L55.0666667,4 C55.0666667,1.790875 53.3056396,0 51.1333333,0 C48.9610271,0 47.2,1.790875 47.2,4 L47.2,52 C47.2,52.013 47.2068833,52.024 47.2068833,52.036 C47.2110625,52.14125 47.2315896,52.24525 47.26785,52.344 C47.2767,52.366 47.2816167,52.389 47.2904667,52.41 C47.2993167,52.431 47.29735,52.435 47.30325,52.447 L50.15,58.236 L50.15,59 C50.15,59.55225 50.5902875,60 51.1333333,60 C51.6763792,60 52.1166667,59.55225 52.1166667,59 L52.1166667,58.236 L54.9683333,52.447 C54.9742333,52.435 54.9752167,52.422 54.9811167,52.41 C54.9870167,52.398 54.9948833,52.366 55.0037333,52.344 C55.0399938,52.24525 55.0605208,52.14125 55.0647,52.036 C55.0647,52.023 55.0715833,52.013 55.0715833,52 L55.0715833,6.184 C56.2440854,6.607875 57.0289083,7.7345 57.0333333,9 L57.0333333,18 C57.0333333,18.55225 57.4736208,19 58.0166667,19 C58.5597125,19 59,18.55225 59,18 L59,9 C58.99705,6.624875 57.3542688,4.578375 55.0666667,4.1 Z M51.1333333,55.764 L49.7743667,53 L52.4923,53 L51.1333333,55.764 Z M53.1,51 L49.1666667,51 L49.1666667,23 L53.1,23 L53.1,51 Z M53.1,21 L49.1666667,21 L49.1666667,6 L53.1,6 L53.1,21 Z M49.1666667,4 C49.1666667,2.895375 50.0471188,2 51.1333333,2 C52.2195479,2 53.1,2.895375 53.1,4 L49.1666667,4 Z" id="Shape" fill-rule="nonzero"></path>
                        <path d="M29.5,39 L29.5,37 L26.55,37 C26.2891708,37 26.0391583,37.1055 25.8547833,37.293 L25.0995833,38.061 C21.3335396,33.345125 14.5212521,32.627 9.88409792,36.456875 C5.24694375,40.28675 4.54066458,47.2145 8.30670833,51.930375 C12.0727521,56.64625 18.8850396,57.364375 23.5221938,53.5345 C23.6149958,53.457875 23.7064458,53.37975 23.7966667,53.300125 C24.2633813,52.882 24.6937125,52.423625 25.0828667,51.930125 L25.8488833,52.709125 C26.0349792,52.897375 26.28745,53.00225 26.55,53.000125 L29.5,53.000125 L29.5,51.000125 L26.9571,51.000125 L26.2068167,50.237125 C27.9710396,46.972875 27.9758333,43.018875 26.2196,39.750125 L26.9571,39.000125 L29.5,39.000125 L29.5,39 Z M24.75345,48.759 L23.3118833,47.293 L21.92145,48.707 L23.6983333,50.513 C23.5311667,50.731 23.3571167,50.944 23.1702833,51.147 L18.1071,46 L25.5116,46 C25.4058917,46.955 25.1498563,47.886625 24.75345,48.759 Z M15.7333333,44 C15.1902875,44.000125 14.7501229,44.447875 14.7502458,45.00025 C14.7502458,45.265375 14.8538646,45.5195 15.0381167,45.707 L21.66775,52.45 C17.6207188,55.237125 12.1182313,54.160125 9.37755833,50.0445 C6.63688542,45.928875 7.69593542,40.333125 11.7429667,37.546 C15.6067292,34.885125 20.8384313,35.73225 23.6983333,39.482 L21.9175167,41.293 L23.30795,42.707 L24.7455833,41.246 C25.1453083,42.116 25.4040479,43.046 25.5116,44 L15.7333333,44 Z" id="Shape" fill-rule="nonzero"></path>
                        <path d="M35.4,34 C33.2276938,34 31.4666667,35.790875 31.4666667,38 C31.4666667,40.209125 33.2276938,42 35.4,42 C37.5723063,42 39.3333333,40.209125 39.3333333,38 C39.3333333,35.790875 37.5723063,34 35.4,34 Z M35.4,40 C34.3137854,40 33.4333333,39.104625 33.4333333,38 C33.4333333,36.895375 34.3137854,36 35.4,36 C36.4862146,36 37.3666667,36.895375 37.3666667,38 C37.3666667,39.104625 36.4862146,40 35.4,40 Z" id="Shape" fill-rule="nonzero"></path>
                        <path d="M35.4,48 C33.2276938,48 31.4666667,49.790875 31.4666667,52 C31.4666667,54.209125 33.2276938,56 35.4,56 C37.5723063,56 39.3333333,54.209125 39.3333333,52 C39.3333333,49.790875 37.5723063,48 35.4,48 Z M35.4,54 C34.3137854,54 33.4333333,53.104625 33.4333333,52 C33.4333333,50.895375 34.3137854,50 35.4,50 C36.4862146,50 37.3666667,50.895375 37.3666667,52 C37.3666667,53.104625 36.4862146,54 35.4,54 Z" id="Shape" fill-rule="nonzero"></path>
                    </g>
                </g>
            </g>
        </g>
    </g>
</svg>