<?xml version="1.0" encoding="UTF-8"?>
<svg width="796px" height="234px" viewBox="0 0 796 234" version="1.1" xmlns="http://www.w3.org/2000/svg" xmlns:xlink="http://www.w3.org/1999/xlink">
    <!-- Generator: Sketch 64 (93537) - https://sketch.com -->
    <title>interview-data</title>
    <desc>Created with Sketch.</desc>
    <g id="interview-data" stroke="none" stroke-width="1" fill="none" fill-rule="evenodd">
        <rect fill="#FFFFFF" x="0" y="0" width="796" height="234"></rect>
        <text id="The-website-should-l" font-family="Roboto-Regular, Roboto" font-size="17" font-weight="normal" fill="#2F2D2E">
            <tspan x="88.7785645" y="138">The website should </tspan>
            <tspan x="97.2121582" y="161">look professional </tspan>
            <tspan x="102.263184" y="184">and trustworthy</tspan>
        </text>
        <text id="&quot;I-like-to-have-the" font-family="Roboto-Regular, Roboto" font-size="17" font-weight="normal" fill="#2F2D2E">
            <tspan x="332.930176" y="138">"I like to have the </tspan>
            <tspan x="335.652832" y="161">toy in my hands, </tspan>
            <tspan x="333.465576" y="184">touch and feel it"</tspan>
        </text>
        <text id="Buying-online-is-bet" font-family="Roboto-Regular, Roboto" font-size="17" font-weight="normal" fill="#2F2D2E">
            <tspan x="579.574463" y="138">Buying online is </tspan>
            <tspan x="561.491211" y="161">better for comparing </tspan>
            <tspan x="590.938232" y="184">and deciding</tspan>
        </text>
        <g id="Online" transform="translate(596.000000, 20.000000)" fill="#FDCD65" fill-rule="nonzero">
            <path d="M83.3558859,0 L26.7614878,0 C23.6457218,0.0033692085 21.1207321,2.53653664 21.1173737,5.66239367 L21.1173737,18.2637065 C13.4608622,19.602899 7.86985224,26.2666657 7.86080534,34.0638355 L7.87557712,39.1714195 C7.87557712,39.180126 7.87557712,39.1888325 7.87557712,39.1973538 L7.89404185,39.99113 C6.77929469,40.4191382 5.94737045,41.3721163 5.67144228,42.5371417 C5.17602108,44.5694072 6.14090396,46.6763246 8.00058335,47.6230519 L3.6096705,64.173795 C3.53319775,64.462196 3.57554063,64.7693337 3.72716945,65.026084 C3.87879828,65.2828342 4.1269734,65.4676251 4.41584063,65.5388677 C5.604343,65.8045284 6.80844499,65.9942919 8.02089455,66.1070151 C8.36297146,66.1422333 8.70195654,66.0160967 8.938407,65.765608 L11.1767016,63.3957646 L11.2633012,65.0185136 C11.2689182,65.1231126 11.2892459,65.2263898 11.3236808,65.3252799 L5.57874933,67.2785065 C2.24318787,68.4114305 -0.00108823435,71.5518036 0,75.0847443 L0,83.8885281 C0,84.5023771 0.496016874,85 1.10788421,85 L46.5996247,85 C47.211492,85 47.7075085,84.5023771 47.7075085,83.8885281 L47.7075085,75.0847443 C47.7086763,71.5517355 45.4643854,68.4112671 42.1287595,67.2783213 L34.1549505,64.5670708 L35.3673446,63.0739935 L38.2773861,65.7128131 C38.5160799,65.9284579 38.836178,66.0298049 39.1550147,65.9906811 L42.6334006,65.5627644 C42.9405663,65.5249704 43.2179747,65.3600088 43.3984687,65.1078148 C43.5789627,64.8556208 43.6460885,64.5391845 43.5835956,64.2351112 L42.9910624,61.3523235 L69.8169918,61.3523235 C70.4288591,61.3523235 70.9248756,60.8547006 70.9248756,60.2408516 C70.9248756,59.6270026 70.4288591,59.1293797 69.8169918,59.1293797 L64.8442553,59.1293797 L64.8442553,48.3086449 L83.3558859,48.3086449 C86.4716519,48.3052756 88.9966417,45.7721082 89,42.6462512 L89,5.66239367 C88.9966417,2.53653664 86.4716519,0.0033692085 83.3558859,0 Z M24.0001394,20 C27.728602,20 31.3030353,21.4720208 33.9310338,24.0896675 C36.5590324,26.7073142 38.0234756,30.2543455 37.9997153,33.9444307 L37.9873188,37.3493018 C34.6241149,36.1900544 31.9784045,33.8730467 30.8640356,31.0548633 C31.6798231,30.0224644 32.4150894,28.9301492 33.0634726,27.7873693 C33.2683599,27.4399414 33.2683471,27.0102366 33.0634392,26.6628206 C32.8585312,26.3154045 32.4804798,26.1041115 32.0740686,26.1098612 C31.6676575,26.1156108 31.2958625,26.3375122 31.1010714,26.6905829 C25.7856089,36.0039725 18.1223272,36.4270718 14.4394442,36.6306279 L14.384787,36.6336022 C13.4300698,36.6863967 12.5317003,37.3461416 12.0405366,38.355371 C11.9241789,38.5892908 11.7307204,38.7769587 11.492086,38.8874053 C11.0407119,39.0988265 10.5038215,39.0070408 10.1502604,38.6580097 L10.0137113,38.5228633 L10,33.8568737 C10.0082811,26.2075488 16.2714177,20.0085039 24.0001394,20 L24.0001394,20 Z M34,38.9991717 C31.3999111,38.2318631 29.0001259,36.7777791 27,34.7577138 C27.6039348,34.2099747 28.1789476,33.6230731 28.7221083,33 C29.8379622,35.4359081 31.6898638,37.5232967 34,39 L34,38.9991717 Z M8,43.6115211 C8,43.4285078 8.02150814,43.2461389 8.06443324,43.0683169 C8.2101255,42.4564613 8.73359943,42.0112925 9.35630445,41.9696935 C9.77306392,41.9310814 10.132105,41.6576322 10.2828981,41.2639907 C11.8613852,41.7538545 13.5585528,41.0116045 14.2824124,39.5148178 C14.3582519,39.3091674 14.5131846,39.1430743 14.7121183,39.0541585 L14.7651662,39.0511972 C17.0642124,38.9216426 21.2918875,38.6836322 25.5522358,36 C28.8553214,39.1489361 33.1664842,41.002852 37.7068018,41.2267901 C37.8469955,41.6383596 38.2132408,41.9290055 38.6429404,41.9696935 C39.2658014,42.0110349 39.7895397,42.4561638 39.9353623,43.0681319 C40.0835539,43.6791275 39.9744156,44.3247165 39.6338443,44.8517102 C39.293273,45.3787039 38.751625,45.7401293 38.1374256,45.8502256 C37.610418,45.9431902 37.2259043,46.4045903 37.2258836,46.944037 L37.2258836,46.9642105 C37.1990438,50.3218199 35.951606,53.5528602 33.7199529,56.0450665 C31.4313695,58.5954425 28.4360932,60 25.2860787,60 L22.7131661,60 C19.5631517,60 16.5680589,58.5954425 14.2794755,56.0450665 C12.0477857,53.5528972 10.8003984,50.3218186 10.7737284,46.9642105 L10.7737284,46.944037 C10.7737389,46.4047077 10.3894151,45.9433498 9.8625535,45.8502256 C8.78407575,45.6605034 7.99774101,44.7153624 8,43.6115211 Z M7.69587753,63.9047707 C7.02078454,63.827108 6.44930431,63.7427885 6,63.6678994 L9.18093057,52 C9.89523188,54.0796744 11.0392648,55.9940652 12.542189,57.6246302 C13.8002816,58.995198 15.312866,60.120797 17,60.9419379 L17,63.5377219 L15.6017013,64 C15.0444276,63.9948225 14.4896163,63.9757766 13.9518529,63.9552515 L13.5565333,63.9404586 L13.3824563,60.7657175 C13.3581849,60.3229542 13.0661957,59.9368153 12.6399116,59.783745 C12.2136275,59.6306747 11.734918,59.7400708 11.4225272,60.0619453 L7.69587753,63.9047707 Z M23,83 L3,83 L3,75.0015408 C2.99917168,72.3190346 4.59691219,69.9345533 6.97163146,69.0742453 L12.6921915,67 L23,77.7246377 L23,83 Z M23,75 L15,67.038596 L17.9941573,66 L22.9998202,71.1088987 L23,75 Z M19,63.0934579 L19,61 C20.073399,61.3369736 21.1846433,61.5081028 22.301419,61.5084112 L24.698239,61.5084112 C25.8151271,61.5081033 26.9264844,61.3369745 28,61 L28,63.0934579 L23.5000855,68 L19,63.0934579 Z M30.0161688,66 L33,67.035421 L25,75 L25,71.120794 L30.0161688,66 Z M36.3213107,67 L42.0339016,69.074495 C44.4049995,69.934793 46.000442,72.319066 46,75.0015409 L46,83 L26,83 L26,77.754051 L36.3213107,67 Z M39.2590195,63.9137872 L35.9393289,60.6673468 C35.7193542,60.4522837 35.427426,60.3443189 35.1317874,60.3686912 C34.8361489,60.3930635 34.5627142,60.5476364 34.3754034,60.796276 L31.9624434,64 L31,63.6471515 L31,60.9066753 C32.6058801,60.0405413 34.0456366,58.8532847 35.2431892,57.407643 C36.777143,55.5625525 37.917081,53.3749654 38.5821719,51 L41,63.6822608 L39.2590195,63.9137872 Z M45,59 L42.2413152,59 L40,48 L44.9992561,48 L45,59 Z M62,59 L47,59 L47,48 L62,48 L62,59 Z M87,41.8168129 C86.9978625,43.5740161 85.4637728,44.9980159 83.5707195,45 L41.62774,45 C42.314406,44.0314128 42.5360186,42.8413184 42.2394585,41.7149756 C41.9617557,40.6314618 41.1226346,39.7466271 40,39.353516 L40.0012929,39 L87,39 L87,41.8168129 Z M87,38 L39.6159559,38 L39.6276893,34.7940564 C39.6543719,30.5443112 37.968147,26.4595478 34.9427652,23.4451509 C31.9173834,20.430754 27.802749,18.7357206 23.5108676,18.7357536 C23.3398955,18.7357536 23.1696684,18.7392576 23,18.7446057 L23,6.42411149 C23.0021554,4.53391168 24.5490905,3.00213427 26.4579947,3 L83.5418191,3 C85.450796,3.00203266 86.9978444,4.53383978 87,6.42411149 L87,38 Z" id="Shape"></path>
            <path d="M27.2188309,80 L28.7811691,80 C29.4543108,80 30,79.5522847 30,79 C30,78.4477153 29.4543108,78 28.7811691,78 L27.2188309,78 C26.5456892,78 26,78.4477153 26,79 C26,79.5522847 26.5456892,80 27.2188309,80 L27.2188309,80 Z" id="Path"></path>
            <path d="M84.5297059,14.9044437 L81.5559421,12.8125229 L81.5559421,9.54954523 C81.5559421,8.94083292 81.045175,8.44737409 80.4151119,8.44737409 C79.7850489,8.44737409 79.2742818,8.94083292 79.2742818,9.54954523 L79.2742818,11.207578 L72.1712834,6.21106884 C71.7710928,5.92964372 71.228717,5.92964372 70.8285264,6.21106884 L58.4695335,14.9038926 C58.0700912,15.1847888 57.9031911,15.682165 58.0560695,16.1360503 C58.2089478,16.5899356 58.6468584,16.897171 59.140912,16.8971692 L61.6199359,16.8971692 L61.6199359,29.8978289 C61.6199359,30.5065412 62.1307029,31 62.760766,31 L80.2388537,31 C80.8689168,31 81.3796838,30.5065412 81.3796838,29.8978289 L81.3796838,16.8977202 L83.8588978,16.8977202 C84.3529864,16.8978016 84.7909727,16.5905939 84.9439011,16.1366887 C85.0968294,15.6827836 84.9299371,15.1853598 84.5304664,14.9044437 L84.5297059,14.9044437 Z M79.8891979,14.1261554 C79.2843118,14.1261554 78.7939547,14.611602 78.7939547,15.2104307 L78.7939547,28 L64.2047675,28 L64.2047675,15.2104307 C64.2047675,14.611602 63.7144104,14.1261554 63.1095243,14.1261554 L63,14.1261554 L71.5,8 L80,14.1261554 L79.8891979,14.1261554 Z" id="Shape"></path>
            <path d="M46.0118385,20 L48.9881615,20 C49.5469845,20 50,19.5522847 50,19 C50,18.4477153 49.5469845,18 48.9881615,18 L46.0118385,18 C45.4530155,18 45,18.4477153 45,19 C45,19.5522847 45.4530155,20 46.0118385,20 Z" id="Path"></path>
            <path d="M41.1982625,20 L42.8017375,20 C43.4635196,20 44,19.5522847 44,19 C44,18.4477153 43.4635196,18 42.8017375,18 L41.1982625,18 C40.5364804,18 40,18.4477153 40,19 C40,19.5522847 40.5364804,20 41.1982625,20 Z" id="Path"></path>
            <path d="M56.9944134,18 L53.0055866,18 C52.4502165,18 52,18.4477153 52,19 C52,19.5522847 52.4502165,20 53.0055866,20 L56.9944134,20 C57.5497835,20 58,19.5522847 58,19 C58,18.4477153 57.5497835,18 56.9944134,18 L56.9944134,18 Z" id="Path"></path>
            <path d="M41.1618257,25 L52.8381743,25 C53.4798329,25 54,24.5522847 54,24 C54,23.4477153 53.4798329,23 52.8381743,23 L41.1618257,23 C40.5201671,23 40,23.4477153 40,24 C40,24.5522847 40.5201671,25 41.1618257,25 Z" id="Path"></path>
            <path d="M56.7997399,23 L55.2006604,23 C54.537554,23 54,23.4477153 54,24 C54,24.5522847 54.537554,25 55.2006604,25 L56.7993396,25 C57.462446,25 58,24.5522847 58,24 C58,23.4477153 57.462446,23 56.7993396,23 L56.7997399,23 Z" id="Path"></path>
            <path d="M48.9557045,28 L41.0442955,28 C40.467547,28 40,28.6715729 40,29.5 C40,30.3284271 40.467547,31 41.0442955,31 L48.9557045,31 C49.532453,31 50,30.3284271 50,29.5 C50,28.6715729 49.532453,28 48.9557045,28 L48.9557045,28 Z" id="Path"></path>
            <path d="M56.960949,28 L53.0390509,28 C52.4651989,28 52,28.6715729 52,29.5 C52,30.3284271 52.4651989,31 53.0390509,31 L56.960949,31 C57.534801,31 58,30.3284271 58,29.5 C58,28.6715729 57.534801,28 56.960949,28 L56.960949,28 Z" id="Path"></path>
        </g>
        <g id="Group" transform="translate(125.000000, 20.000000)" fill="#FDCD65" fill-rule="nonzero">
            <g>
                <path d="M72.9953488,12.9270833 C51.6976744,10.8020833 39.855814,1.15104167 39.7674419,1.0625 C38.7069767,0.177083333 37.2930233,0.177083333 36.2325581,1.0625 C36.144186,1.15104167 24.3023256,10.8020833 3.00465116,12.9270833 C1.59069767,13.1041667 0.530232558,14.2552083 0.530232558,15.671875 C0.530232558,67.9114583 35.4372093,83.671875 36.9395349,84.3802083 C37.2930233,84.5572917 37.6465116,84.6458333 38,84.6458333 C38.3534884,84.6458333 38.7069767,84.5572917 39.0604651,84.3802083 C40.5627907,83.7604167 75.4697674,67.9114583 75.4697674,15.671875 C75.4697674,14.2552083 74.4093023,13.015625 72.9953488,12.9270833 Z M38,78.7135417 C32.255814,75.703125 6.98139535,60.2083333 6.00930233,18.1510417 C23.0651163,15.9375 33.9348837,9.47395833 38,6.640625 C42.0651163,9.47395833 52.9348837,15.9375 69.9906977,18.1510417 C69.0186047,60.2083333 43.744186,75.703125 38,78.7135417 Z" id="Shape"></path>
                <path d="M17.9395349,38.515625 C17.9395349,49.5833333 26.9534884,58.6145833 38,58.6145833 C49.0465116,58.6145833 58.0604651,49.5833333 58.0604651,38.515625 C58.0604651,27.4479167 49.0465116,18.4166667 38,18.4166667 C26.9534884,18.4166667 17.9395349,27.4479167 17.9395349,38.515625 Z M52.4930233,38.515625 C52.4930233,46.5729167 45.9534884,53.0364583 38,53.0364583 C29.9581395,53.0364583 23.5069767,46.484375 23.5069767,38.515625 C23.5069767,30.4583333 30.0465116,23.9947917 38,23.9947917 C46.0418605,23.9947917 52.4930233,30.4583333 52.4930233,38.515625 Z" id="Shape"></path>
                <path d="M33.7581395,36.8333333 C32.6976744,35.7708333 30.9302326,35.7708333 29.8697674,36.8333333 C28.8093023,37.8958333 28.8093023,39.6666667 29.8697674,40.7291667 L34.1116279,44.9791667 C34.6418605,45.5104167 35.3488372,45.7760417 36.055814,45.7760417 C36.7627907,45.7760417 37.4697674,45.5104167 38,44.9791667 L45.7767442,37.1875 C46.8372093,36.125 46.8372093,34.3541667 45.7767442,33.2916667 C44.7162791,32.2291667 42.9488372,32.2291667 41.8883721,33.2916667 L36.055814,39.1354167 L33.7581395,36.8333333 Z" id="Path"></path>
            </g>
        </g>
        <g id="Touch" transform="translate(368.000000, 20.000000)" fill="#FDCD65" fill-rule="nonzero">
            <path d="M57.5788124,38.3893133 C56.3953697,37.2174767 54.7906887,36.5598329 53.1179781,36.5611368 C51.8703567,36.5588455 50.6509618,36.9291022 49.6186663,37.6236667 C49.2786776,36.7298117 48.739918,35.9233671 48.0423998,35.2642253 C46.8783378,34.1113539 45.3057433,33.4552685 43.6603788,33.4360489 C42.4127574,33.4337576 41.1933625,33.8040143 40.161067,34.4985788 C39.8210783,33.6047238 39.2823187,32.7982791 38.5848005,32.1391374 C36.5773614,30.1788609 33.5014971,29.7769939 31.0502464,31.1547346 L31.0502464,16.2480651 C31.0515617,14.5899166 30.3881424,12.9992056 29.2060145,11.8260657 C27.697484,10.3490257 25.5475915,9.71084385 23.4684043,10.1228928 C20.4884491,10.8009584 18.3923727,13.4519809 18.440114,16.4824467 L18.440114,52.7178415 L14.1211437,47.8270789 C11.3455781,44.6973523 6.58061909,44.2779461 3.29219251,46.873927 L2.20456859,47.7489517 C0.350775034,49.1796806 -0.124092458,51.7619896 1.10118201,53.7491205 L12.3399625,71.7183762 C16.7310063,79.6802685 25.0529002,84.7358047 34.2027795,85 C48.1315471,85 59.4230462,73.8068037 59.4230462,59.9992964 L59.4230462,42.8113127 C59.4243596,41.1531642 58.7609402,39.5624532 57.5788124,38.3893133 Z M56.4730462,60.0809488 C56.4730462,72.2083072 46.5033998,82.0394737 34.2052178,82.0394737 C26.6659674,82.0394737 19.0790001,77.4281835 14.8799239,70.2446089 L3.57104822,52.1288259 C3.19231504,51.48565 3.37136157,50.663969 3.9845936,50.2309819 L5.06617384,49.352641 C5.90996242,48.6850815 6.95873833,48.3200668 8.04051948,48.3174534 C9.40607755,48.3112126 10.7089105,48.8822066 11.6192776,49.8859194 L21.4807445,61.1161364 L21.4807445,16.399169 C21.3936274,14.8273321 22.4465801,13.4144188 23.993828,13.026967 C25.0496345,12.8093025 26.1453688,13.1340473 26.9045512,13.8896233 C27.5177309,14.4904906 27.8565276,15.3115613 27.8429811,16.1638991 L27.8429811,47.5332203 C27.8429811,48.3994602 28.5550987,49.1016864 29.4335403,49.1016864 C30.3119819,49.1016864 31.0240995,48.3994602 31.0240995,47.5332203 L31.0240995,36.5539579 C31.0240995,34.8214781 32.4483347,33.4170258 34.2052178,33.4170258 C35.962101,33.4170258 37.3863362,34.8214781 37.3863362,36.5539579 L37.3863362,47.5332203 C37.3863362,48.3994602 38.0984538,49.1016864 38.9768953,49.1016864 C39.8553369,49.1016864 40.5674545,48.3994602 40.5674545,47.5332203 L40.5674545,39.69089 C40.5674545,37.9584102 41.9916897,36.5539579 43.7485728,36.5539579 C45.505456,36.5539579 46.9296912,37.9584102 46.9296912,39.69089 L46.9296912,47.5332203 C46.9296912,48.3994602 47.6418088,49.1016864 48.5202503,49.1016864 C49.3986919,49.1016864 50.1108095,48.3994602 50.1108095,47.5332203 L50.1108095,42.8278221 C50.1108095,41.0953424 51.5350447,39.69089 53.2919279,39.69089 C55.048811,39.69089 56.4730462,41.0953424 56.4730462,42.8278221 L56.4730462,60.0809488 Z" id="Shape"></path>
            <path d="M15.2399803,21.7637699 C15.597147,21.5428953 15.8512893,21.1895438 15.9462683,20.781769 C16.0412473,20.3739943 15.9692473,19.9453521 15.7461725,19.5905273 C13.30505,15.695516 13.6033173,10.6899451 16.4898758,7.10957629 C19.3764342,3.52920752 24.2207127,2.15617558 28.5686582,3.68604188 C32.9166037,5.21590818 35.8184036,9.31447209 35.8040413,13.9054506 C35.82521,15.9109878 35.2768714,17.8816836 34.2221904,19.5905273 C33.9991157,19.9453521 33.9271156,20.3739943 34.0220947,20.781769 C34.1170737,21.1895438 34.3712159,21.5428953 34.7283827,21.7637699 C34.9801204,21.9190922 35.2706014,22.0009381 35.5667637,22 C36.1132955,22.0010807 36.6216756,21.721227 36.9113369,21.2598296 C40.5357853,15.4165512 39.3443908,7.81567693 34.1040049,3.34957583 C28.863619,-1.11652528 21.136381,-1.11652528 15.8959951,3.34957583 C10.6556092,7.81567693 9.4642147,15.4165512 13.0886631,21.2598296 C13.5494491,21.9813703 14.504365,22.2050568 15.2399803,21.7637699 Z" id="Path"></path>
        </g>
    </g>
</svg>