<svg xmlns="http://www.w3.org/2000/svg" xmlns:xlink="http://www.w3.org/1999/xlink" viewBox="0 0 234.72 225.09"><defs><style>.cls-1{opacity:0.05;}.cls-13,.cls-18,.cls-19,.cls-2,.cls-3,.cls-9{fill:#231f20;}.cls-10,.cls-2,.cls-3,.cls-4,.cls-9{stroke:#444a59;}.cls-10,.cls-11,.cls-2,.cls-3,.cls-4{stroke-miterlimit:10;}.cls-2{stroke-width:4.22px;}.cls-3{stroke-width:3.81px;}.cls-4{fill:#e1d11f;}.cls-10,.cls-4{stroke-width:4.02px;}.cls-10,.cls-11,.cls-12,.cls-5,.cls-7{fill:none;}.cls-11,.cls-12,.cls-14,.cls-15,.cls-16,.cls-17,.cls-5,.cls-7,.cls-9{stroke-linecap:round;}.cls-12,.cls-14,.cls-15,.cls-16,.cls-17,.cls-5,.cls-7,.cls-9{stroke-linejoin:round;}.cls-12,.cls-15,.cls-5,.cls-7{stroke-width:4px;}.cls-5{stroke:url(#linear-gradient);}.cls-15,.cls-16,.cls-6{fill:#fff;}.cls-7{stroke:url(#linear-gradient-2);}.cls-8{fill:#444a59;}.cls-9{stroke-width:3.52px;}.cls-11{stroke:#e9b3a1;stroke-width:9px;}.cls-12{stroke:#f1f1f2;opacity:0.3;}.cls-14{fill:#513018;stroke:#70431c;stroke-width:9.54px;}.cls-15,.cls-16{stroke:#bbbdbf;}.cls-16{stroke-width:2px;}.cls-17{stroke:#a42270;stroke-width:3.14px;fill:url(#linear-gradient-3);}.cls-18,.cls-19{font-size:30px;font-family:SFProDisplay-Heavy, SF Pro Display;}.cls-19{letter-spacing:0.02em;}</style><linearGradient id="linear-gradient" x1="184.77" y1="42.88" x2="213.03" y2="42.88" gradientTransform="translate(-12.47 17.01)" gradientUnits="userSpaceOnUse"><stop offset="0" stop-color="#e72d92"/><stop offset="0.51" stop-color="#ee5b68"/><stop offset="1" stop-color="#f48344"/></linearGradient><linearGradient id="linear-gradient-2" x1="121.28" y1="42.88" x2="149.54" y2="42.88" xlink:href="#linear-gradient"/><linearGradient id="linear-gradient-3" x1="830.62" y1="-121.9" x2="856.23" y2="-121.9" gradientTransform="translate(-605.57 629.68) rotate(-31.79)" xlink:href="#linear-gradient"/></defs><title>Asset 27</title><g id="Layer_2" data-name="Layer 2"><g id="fan_maluco" data-name="fan maluco"><g id="corpo"><g id="corpo-2" data-name="corpo"><g id="corpo-3" data-name="corpo"><ellipse class="cls-1" cx="152.73" cy="209.17" rx="77.46" ry="12.4"/><path class="cls-1" d="M83.94,167.75c4.06,14-9.41,11.72-18.42,11.14-11.56-.75-18.77,4.78-21.19-.86-3-7.1,7.41-7.91,18.35-10.75S83,164.68,83.94,167.75Z"/><path class="cls-2" d="M73.41,159c-9.63-.69-19.68-.42-28.61,3.23-7.87,3.21-5.81,14,3.44,11.44a68.66,68.66,0,0,1,42.05,2"/><path class="cls-3" d="M165.05,24.43c38.83-8.07,56.4-7.95,56.4-7.95a6.25,6.25,0,0,1,7.38,8.31l-8.5,22.09a18.17,18.17,0,0,0-.15,12.71c6.34,29.76,13.8,78,12.48,117.71-.63,18.84-11.22,28.9-28.5,32.21-29.78,5.68-70,9.1-108.84-1.47-16.16-4.4-27.62-15.4-27.43-32.16C68.82,91.09,87,9.14,87,9.14a8.15,8.15,0,0,1,13.23-5.4l22.64,18.38a19.53,19.53,0,0,0,13.7,4.32Z"/></g><g id="olhos"><circle class="cls-4" cx="183.49" cy="56.25" r="18.9"/><path class="cls-5" d="M181.71,75.05A16.85,16.85,0,0,0,198.56,58.2a13.48,13.48,0,0,0-13.48-13.48A10.78,10.78,0,0,0,174.3,55.5a8.63,8.63,0,0,0,8.63,8.63,6.9,6.9,0,0,0,6.9-6.9,5.52,5.52,0,0,0-5.52-5.52,4.42,4.42,0,0,0-4.42,4.41"/><circle class="cls-6" cx="180.75" cy="46.87" r="3.48"/></g><circle class="cls-4" cx="119.95" cy="56.25" r="18.9"/><path class="cls-7" d="M118.22,75.05A16.86,16.86,0,0,0,135.07,58.2a13.49,13.49,0,0,0-13.48-13.48A10.79,10.79,0,0,0,110.8,55.5a8.63,8.63,0,0,0,8.63,8.63,6.9,6.9,0,0,0,6.9-6.9,5.52,5.52,0,0,0-5.52-5.52,4.42,4.42,0,0,0-4.42,4.41"/><circle class="cls-6" cx="114.42" cy="47.51" r="4.11"/><g id="focinho"><path class="cls-8" d="M147.42,80.93a31,31,0,0,1,13.41-.74c2.53.39,3.62-3.49,1.07-3.88a35.81,35.81,0,0,0-15.55.74c-2.49.71-1.43,4.59,1.07,3.88Z"/><path class="cls-8" d="M173.43,83.94a23.51,23.51,0,0,1,14.11,1.63c2.35,1,4.4-2.43,2-3.47a28.45,28.45,0,0,0-17.21-2c-2.54.47-1.47,4.35,1.07,3.88Z"/><path class="cls-8" d="M172.26,88.92a25,25,0,0,1,13.42,5c2,1.59,4.87-1.24,2.84-2.84a29.75,29.75,0,0,0-16.26-6.16c-2.58-.23-2.57,3.79,0,4Z"/><path class="cls-8" d="M138.25,81.44a32.11,32.11,0,0,0-19.38,2.29c-2.36,1-.32,4.5,2,3.47a27.18,27.18,0,0,1,16.28-1.88c2.53.47,3.61-3.41,1.07-3.88Z"/><path class="cls-8" d="M138.44,87a33.56,33.56,0,0,0-18.32,6.92c-2,1.6.84,4.43,2.85,2.85A28.59,28.59,0,0,1,138.44,91c2.55-.23,2.58-4.26,0-4Z"/></g><path class="cls-9" d="M178.34,204.66l-1,10.84a7.08,7.08,0,0,0,6.74,7.68l3.6.15a7.75,7.75,0,0,0,8-7l1.06-11.66"/></g><circle class="cls-10" cx="183.49" cy="56.25" r="18.9"/><circle class="cls-10" cx="119.95" cy="56.25" r="18.9"/><path class="cls-11" d="M147.74,101.26s6.63-2.31,9.09-6.91"/><path class="cls-12" d="M147.74,101.26s6.63-2.31,9.09-6.91"/><path class="cls-13" d="M154.41,85.71c-1.58.93-5.74,1.31-5.53,3.13s4.66,5.11,5.85,6.5a6.16,6.16,0,0,0,4.14,2.53,5.14,5.14,0,0,0,4.18-2.39,7,7,0,0,0,.45-7.55,5.44,5.44,0,0,0-7-2"/><path class="cls-13" d="M163.42,95.26a6.88,6.88,0,0,1-12.9-3.34"/></g><g id="bandeirinha"><line class="cls-14" x1="134.09" y1="161.8" x2="63.29" y2="43.61"/><path class="cls-15" d="M36.75,138.54,2,83.83S36.34,70.94,60.41,50.11a18.3,18.3,0,0,0,9.48-5.67C81.68,64.81,100.76,97.2,100.76,97.2s-2.31,5.9-8,6.31C83.4,114.5,66.44,132.77,36.75,138.54Z"/><path class="cls-16" d="M66.61,59.14c8.85,15.3,8.85,15.3,21.56,37.31"/><path class="cls-17" d="M56.66,72.87c3.82,5.94-3.85,17.69-3.85,17.69S38.94,92.65,35.12,86.7C29,77.17,39.24,73.75,43.45,76,42.33,71.77,50.53,63.33,56.66,72.87Z"/><text class="cls-18" transform="translate(29.72 104.2) rotate(-31.79)">I</text><text class="cls-19" transform="translate(42.34 129.79) rotate(-31.79)">GO</text></g><path class="cls-9" d="M112.19,141.45l9.12-5.95a7.07,7.07,0,0,1,9.94,2.32l1.83,3.1a7.75,7.75,0,0,1-2.41,10.41l-9.78,6.43"/></g></g></svg>