<?xml version="1.0" encoding="UTF-8"?>
<svg width="634px" height="239px" viewBox="0 0 634 239" version="1.1" xmlns="http://www.w3.org/2000/svg" xmlns:xlink="http://www.w3.org/1999/xlink">
    <!-- Generator: Sketch 61.2 (89653) - https://sketch.com -->
    <title>INTERVIEW</title>
    <desc>Created with Sketch.</desc>
    <g id="INTERVIEW" stroke="none" stroke-width="1" fill="none" fill-rule="evenodd">
        <rect fill="#FFFFFF" x="0" y="0" width="634" height="239"></rect>
        <g id="Group-2" transform="translate(22.000000, 0.000000)">
            <text id="Dog-owners-like-to-s" font-family="Roboto-Regular, Roboto" font-size="17" font-weight="normal" fill="#2F2D2E">
                <tspan x="2.49975586" y="175">Dog owners like to see </tspan>
                <tspan x="4.15576172" y="198">photos and reviews of </tspan>
                <tspan x="40.1604004" y="221">dog walkers.</tspan>
            </text>
            <g id="smartphone-dog" transform="translate(53.000000, 0.000000)" fill="#D72483" fill-rule="nonzero">
                <path d="M60.8474733,0 L10.1525267,0 C4.55441333,0 0,4.54789844 0,10.1377676 L0,110.86176 C0,116.452102 4.55441333,121 10.1525267,121 L60.8472367,121 C66.4455867,121 71,116.452102 71,110.861996 L71,10.1377676 C71,4.54789844 66.4455867,0 60.8474733,0 Z M66.2666667,110.861996 C66.2666667,113.845875 63.8356267,116.273437 60.8474733,116.273437 L10.1525267,116.273437 C7.16437333,116.273437 4.73333333,113.845875 4.73333333,110.861996 L4.73333333,100.779057 L66.2666667,100.779057 L66.2666667,110.861996 Z M66.2666667,96.0524941 L4.73333333,96.0524941 L4.73333333,17.3644453 L66.2666667,17.3644453 L66.2666667,96.0524941 Z M66.2666667,12.6376465 L4.73333333,12.6376465 L4.73333333,10.1377676 C4.73333333,7.15388867 7.16437333,4.7265625 10.1525267,4.7265625 L60.8472367,4.7265625 C63.8356267,4.7265625 66.2666667,7.15388867 66.2666667,10.1377676 L66.2666667,12.6376465 Z" id="Shape"></path>
                <path d="M35.9998773,105 C33.7967901,105 32,106.79679 32,109.000123 C32,111.20321 33.7967901,113 35.9998773,113 C38.2032099,113 40,111.20321 40,109.000123 C40,106.79679 38.2029644,105 35.9998773,105 Z" id="Path"></path>
                <path d="M35.5,59 C28.6074657,59 23,64.6076579 23,71.5001168 C23,78.3925758 28.6074657,84 35.5,84 C42.3925343,84 48,78.3925758 48,71.5001168 C48,64.6076579 42.3925343,59 35.5,59 Z M35.5,79.3271465 C31.1926056,79.3271465 27.6883205,75.8159643 27.6883205,71.5001168 C27.6883205,67.1840357 31.1926056,63.6728535 35.5,63.6728535 C39.8073944,63.6728535 43.3116795,67.1840357 43.3116795,71.5001168 C43.3116795,75.8159643 39.8073944,79.3271465 35.5,79.3271465 Z" id="Shape"></path>
                <path d="M50.500118,46 C46.3645301,46 43,49.5889029 43,54.000119 C43,58.4113351 46.3645301,62 50.500118,62 C54.6354699,62 58,58.4113351 58,54.000119 C58,49.5889029 54.6354699,46 50.500118,46 Z M50.500118,57.2396281 C48.9664963,57.2396281 47.718836,55.7861212 47.718836,53.999881 C47.718836,52.2131647 48.9664963,50.7598959 50.500118,50.7598959 C52.0335037,50.7598959 53.281164,52.2131647 53.281164,53.999881 C53.281164,55.7863592 52.0335037,57.2396281 50.500118,57.2396281 Z" id="Shape"></path>
                <path d="M35.5,39 C31.364583,39 28,42.5886649 28,46.999881 C28,51.4110971 31.364583,55 35.5,55 C39.635417,55 43,51.4110971 43,46.999881 C43,42.5886649 39.635417,39 35.5,39 Z M35.5,50.2396281 C33.9665901,50.2396281 32.7189102,48.7863592 32.7189102,46.999643 C32.7189102,45.2134028 33.9665901,43.7598959 35.5,43.7598959 C37.0336458,43.7598959 38.2810898,45.2131647 38.2810898,46.999643 C38.2810898,48.7863592 37.0334099,50.2396281 35.5,50.2396281 Z" id="Shape"></path>
                <path d="M20.500118,46 C16.3645301,46 13,49.5889029 13,54.000119 C13,58.4113351 16.3645301,62 20.500118,62 C24.6354699,62.000238 28,58.4113351 28,54.000119 C28,49.5889029 24.6354699,46 20.500118,46 Z M20.500118,57.2401041 C18.9664963,57.2401041 17.718836,55.7865972 17.718836,54.000357 C17.718836,52.2136408 18.9664963,50.7603719 20.500118,50.7603719 C22.0335037,50.7603719 23.281164,52.2136408 23.281164,54.000357 C23.281164,55.7865972 22.0335037,57.2401041 20.500118,57.2401041 Z" id="Shape"></path>
                <path d="M33.5398544,21 L33.4601456,21 C32.1014072,21 31,22.1195 31,23.5 C31,24.8805 32.1014072,26 33.4601456,26 L33.5398544,26 C34.8985928,26 36,24.8805 36,23.5 C36,22.1195 34.8985928,21 33.5398544,21 Z" id="Path"></path>
                <path d="M25.673147,21 L10.326853,21 C9.04173211,21 8,22.1195 8,23.5 C8,24.8805 9.04173211,26 10.326853,26 L25.673147,26 C26.9582679,26 28,24.8805 28,23.5 C28,22.1195 26.9582679,21 25.673147,21 Z" id="Path"></path>
            </g>
        </g>
        <g id="Group" transform="translate(229.000000, 0.000000)">
            <text id="Dog-walkers-who-like" font-family="Roboto-Regular, Roboto" font-size="17" font-weight="normal" fill="#2F2D2E">
                <tspan x="8.21069336" y="175">Dog walkers who like </tspan>
                <tspan x="32.984375" y="198">and love dogs.</tspan>
            </text>
            <g id="heart-dog" transform="translate(30.000000, 0.000000)" fill="#D72483" fill-rule="nonzero">
                <path d="M122.256631,12.3711159 C114.660779,4.39324332 104.512388,0 93.6806499,0 C83.7261918,0 74.3496079,3.71015793 67.0002944,10.5030917 C59.6504575,3.70989641 50.2738736,0 40.3194155,0 C29.4879392,0 19.3392861,4.39376636 11.7431723,12.3713774 C-3.91439075,28.8161614 -3.91439075,55.5739135 11.7431723,72.0184359 L52.3440659,114.659493 C56.2371266,118.748329 61.4421815,121 67.0000327,121 C72.5578839,121 77.7626771,118.748329 81.6559995,114.659493 L122.256631,72.0181744 C137.914456,55.5736519 137.914456,28.8161614 122.256631,12.3711159 Z M118.465379,68.4141929 L77.8647473,111.055249 C74.969357,114.096444 71.1105814,115.771468 67.0002944,115.771468 C62.8900075,115.771468 59.0309702,114.096706 56.1355799,111.055249 L15.5346862,68.4141929 C1.76934702,53.9569468 1.76934702,30.4328666 15.5346862,15.9756205 C22.1331297,9.04565113 30.9352418,5.22905531 40.3196773,5.22905531 C49.703851,5.22905531 58.5062248,9.04538961 65.1046683,15.9756205 C65.5987926,16.4942109 66.2839713,16.7878958 67.0002944,16.7878958 C67.7166176,16.7878958 68.402058,16.4942109 68.8959206,15.9756205 C75.4941023,9.04565113 84.2962144,5.22905531 93.6806499,5.22905531 C103.064824,5.22905531 111.867197,9.04538961 118.465379,15.9756205 C132.230718,30.4328666 132.230718,53.9566852 118.465379,68.4141929 Z" id="Shape"></path>
                <path d="M40.3783545,9 C40.3670745,9 40.3557944,9 40.3445143,9.00026062 C32.1703966,9.10216492 24.4933891,12.4743893 18.7271735,18.4950829 C18.5062939,18.7257358 18.2890869,18.9595163 18.0773888,19.193818 C17.9278623,19.3595754 17.780172,19.5266359 17.6343181,19.6952601 C16.6899399,20.7862355 16.814283,22.4312993 17.912385,23.3698092 C18.4076588,23.7930639 19.0159958,24 19.6214471,24 C20.3591114,24 21.0923161,23.6924627 21.6109371,23.0935469 C21.7329193,22.9525489 21.8564754,22.812854 21.9829172,22.6728985 C22.1610374,22.4753449 22.3428302,22.2798763 22.5275086,22.0870139 C27.310784,17.0924002 33.6617272,14.2951142 40.4103585,14.2106717 C41.858405,14.1929492 43.0178915,13.0117976 43,11.5728881 C42.982215,10.1451854 41.8114484,9 40.3783545,9 Z" id="Path"></path>
                <path d="M16.3361853,25.3096984 C14.8559581,24.5799434 13.0636006,25.1840018 12.3314099,26.657809 L12.3000175,26.7221466 C11.5800847,28.2022088 12.2001597,29.9831088 13.6857684,30.7009494 C14.1058289,30.9040893 14.5501063,31 14.9875073,31 C16.096706,31 17.1625533,30.3819422 17.6791828,29.32067 L17.6896469,29.299522 C18.4212397,27.8254169 17.8152166,26.0388576 16.3361853,25.3096984 Z" id="Path"></path>
                <path d="M67.5001287,57 C57.8504673,57 50,65.07486 50,75 C50,84.92514 57.8507246,93 67.5001287,93 C77.1495327,93 85,84.9248762 85,75 C85,65.0751238 77.1495327,57 67.5001287,57 Z M67.5001287,87.7256207 C60.6878461,87.7256207 55.1458856,82.0167658 55.1458856,75.0002638 C55.1458856,67.9837618 60.6881034,62.2751707 67.5001287,62.2751707 C74.3121539,62.2751707 79.8541144,67.9837618 79.8541144,75.0002638 C79.8543718,82.0170296 74.3124113,87.7256207 67.5001287,87.7256207 Z" id="Shape"></path>
                <path d="M67,28 C61.4857785,28 57,32.9348586 57,39.0001322 C57,45.0651414 61.4862891,50 67,50 C72.5142215,50 77,45.0656701 77,39.0001322 C77,32.9345943 72.5142215,28 67,28 Z M67,44.713539 C64.3012307,44.713539 62.1051933,42.1502782 62.1051933,38.9996035 C62.1051933,35.8489287 64.3012307,33.2854036 67,33.2854036 C69.6987693,33.2854036 71.8948067,35.8489287 71.8948067,38.9996035 C71.8948067,42.1502782 69.6990247,44.713539 67,44.713539 Z" id="Shape"></path>
                <path d="M88.9998723,38 C83.4858357,38 79,42.9345943 79,49.0001322 C79,55.0654057 83.4860911,60 88.9998723,60 C94.5141643,60 99,55.0656701 99,49.0001322 C99.0002553,42.9348586 94.5139089,38 88.9998723,38 Z M88.9998723,54.7140677 C86.3010685,54.7140677 84.1052585,52.1508069 84.1052585,49.0001322 C84.1052585,45.8494575 86.3010685,43.2859323 88.9998723,43.2859323 C91.6986761,43.2859323 93.8947415,45.8494575 93.8947415,49.0001322 C93.8949969,52.1508069 91.6989315,54.7140677 88.9998723,54.7140677 Z" id="Shape"></path>
                <path d="M43.9997447,38 C38.4857785,38 34,42.9345943 34,49.0001322 C34,55.0654057 38.4860338,60 43.9997447,60 C49.5142215,60 54,55.0656701 54,49.0001322 C54,42.9345943 49.5142215,38 43.9997447,38 Z M44,54.7140677 C41.3012307,54.7140677 39.1054486,52.1508069 39.1054486,49.0001322 C39.1054486,45.8494575 41.3012307,43.2859323 44,43.2859323 C46.6990247,43.2859323 48.895062,45.8494575 48.895062,49.0001322 C48.8948067,52.1508069 46.69928,54.7140677 44,54.7140677 Z" id="Shape"></path>
            </g>
        </g>
        <g id="Group-3" transform="translate(436.000000, 0.000000)">
            <text id="When-my-dog-likes-th" font-family="Roboto-Regular, Roboto" font-size="17" font-weight="normal" fill="#2F2D2E">
                <tspan x="2.34204102" y="175">When my dog likes the </tspan>
                <tspan x="11.9543457" y="198">experience with dog </tspan>
                <tspan x="15.8930664" y="221">walkers I feel trust.</tspan>
            </text>
            <g id="dog-report" transform="translate(41.000000, 0.000000)" fill="#D72483" fill-rule="nonzero">
                <path d="M85.6902375,4.72654404 L73.5568375,4.72654404 C72.5762,1.97593173 69.9363875,0 66.8403375,0 L28.159425,0 C25.063375,0 22.4235625,1.97593173 21.4431625,4.72654404 L9.309525,4.72654404 C4.1762,4.72654404 0,8.88235788 0,13.990334 L0,111.73621 C0,116.844186 4.1762,121 9.309525,121 L85.6902375,121 C90.8235625,121 95,116.844186 95,111.73621 L95,13.990334 C95,8.88212155 90.8235625,4.72654404 85.6902375,4.72654404 Z M25.784425,7.08981606 C25.784425,5.78670786 26.8500875,4.72654404 28.159425,4.72654404 L66.8401,4.72654404 C68.149675,4.72654404 69.2151,5.78670786 69.2151,7.08981606 L69.2151,10.8445826 C69.2151,12.1476908 68.149675,13.2078547 66.8401,13.2078547 L28.159425,13.2078547 C26.84985,13.2078547 25.784425,12.1476908 25.784425,10.8445826 L25.784425,7.08981606 Z M85.6902375,116.273456 L9.309525,116.273456 C6.79535,116.273456 4.75,114.23797 4.75,111.73621 L4.75,13.990334 C4.75,11.4883379 6.79535,9.45308807 9.309525,9.45308807 L21.034425,9.45308807 L21.034425,10.8445826 C21.034425,14.7539072 24.2307,17.9343987 28.159425,17.9343987 L66.8401,17.9343987 C70.768825,17.9343987 73.9651,14.7539072 73.9651,10.8445826 L73.9651,9.45308807 L85.69,9.45308807 C88.2044125,9.45308807 90.25,11.4885743 90.25,13.990334 L90.25,111.73621 L90.25,111.73621 C90.25,114.23797 88.20465,116.273456 85.6902375,116.273456 Z" id="Shape"></path>
                <path d="M32.287533,95.6513528 C31.3532879,94.7676523 29.8570305,94.7855141 28.9454739,95.6905113 L23.1414794,101.451854 L22.0347074,100.37946 C21.1115702,99.4852253 19.6155491,99.4852253 18.6921756,100.37946 C17.7692748,101.273694 17.7692748,102.723705 18.6921756,103.617939 L21.4904204,106.329267 C21.933791,106.758866 22.5350354,107 23.1615681,107 C23.1662949,107 23.1710216,107 23.1759847,107 C23.8077169,106.996336 24.4117974,106.747645 24.8530409,106.309573 L32.3279468,98.8896033 C33.2395034,97.9846061 33.2215417,96.5348243 32.287533,95.6513528 Z" id="Path"></path>
                <path d="M58.8751336,28.1553521 C56.9832441,28.1553521 55.2625888,28.9634029 53.9853378,30.2768433 C54.0762986,29.7836174 54.1247477,29.2736963 54.1247477,28.7513731 C54.1247477,24.4773852 50.9285326,21 47.0001187,21 C43.0714674,21 39.8752523,24.4773852 39.8752523,28.7513731 C39.8752523,29.2734578 39.9237014,29.7833789 40.0144247,30.2768433 C38.7374112,28.9634029 37.0167559,28.1553521 35.1248664,28.1553521 C31.1962151,28.1553521 28,31.6327373 28,35.9067251 C28,40.1809515 31.1962151,43.6583367 35.1248664,43.6583367 C35.5989075,43.6583367 36.0617863,43.6065814 36.5101779,43.5099873 C36.3821678,44.209996 36.3128191,44.9319469 36.3128191,45.6710702 C36.3128191,51.9179613 41.1071417,57 47.0001187,57 C52.8933333,57 57.6874184,51.9177228 57.6874184,45.6710702 C57.6874184,44.9319469 57.6180697,44.209996 57.4900596,43.5099873 C57.9384512,43.6065814 58.40133,43.6583367 58.8751336,43.6583367 C62.8037849,43.6583367 66,40.1809515 66,35.9067251 C66,31.6327373 62.8037849,28.1553521 58.8751336,28.1553521 Z M35.1248664,38.888261 C33.837403,38.888261 32.7499109,37.5228268 32.7499109,35.9067251 C32.7499109,34.2906235 33.837403,32.9254278 35.1248664,32.9254278 C36.4123298,32.9254278 37.4998219,34.2906235 37.4998219,35.9067251 C37.4998219,37.5228268 36.4123298,38.888261 35.1248664,38.888261 Z M51.8896771,34.3814934 C51.8205659,34.7559444 51.7761542,35.1399355 51.7590545,35.5315587 C51.5096842,35.3994276 51.254614,35.2777907 50.9947938,35.1664094 C51.3125629,34.9312447 51.6110948,34.6679365 51.8896771,34.3814934 Z M47.0001187,25.7700757 C48.2873446,25.7700757 49.3748367,27.1352714 49.3748367,28.7513731 C49.3748367,30.3674747 48.2873446,31.7326704 47.0001187,31.7326704 C45.7126554,31.7326704 44.6251633,30.3672362 44.6251633,28.7513731 C44.6251633,27.1352714 45.7126554,25.7700757 47.0001187,25.7700757 Z M43.0054436,35.1664094 C42.745386,35.2780292 42.4905533,35.3996661 42.2409455,35.5317972 C42.2238458,35.1399355 42.1794341,34.7559444 42.1105604,34.3814934 C42.3889052,34.6679365 42.6874371,34.9312447 43.0054436,35.1664094 Z M47.0001187,52.2299243 C43.7262426,52.2299243 41.0627301,49.2877416 41.0627301,45.6710702 C41.0627301,42.0546372 43.7262426,39.112216 47.0001187,39.112216 C50.2739949,39.112216 52.9375074,42.0546372 52.9375074,45.6710702 C52.9375074,49.2877416 50.2739949,52.2299243 47.0001187,52.2299243 Z M59.5001781,38.888261 C57.8738781,38.888261 56.5001781,37.2853251 56.5001781,35.388121 C56.5001781,33.4909169 57.8738781,31.888261 59.5001781,31.888261 C61.1264781,31.888261 62.5001781,33.4909169 62.5001781,35.388121 C62.5001781,37.2853251 61.1264781,38.888261 59.5001781,38.888261 Z" id="Shape"></path>
                <path d="M74.5879555,82 L39.4118034,82 C38.0800055,82 37,83.11925 37,84.5 C37,85.88075 38.0800055,87 39.4118034,87 L74.5881966,87 C75.9199945,87 77,85.88075 77,84.5 C77,83.11925 75.9199945,82 74.5879555,82 Z" id="Path"></path>
                <path d="M32.287533,80.6513146 C31.3532879,79.7676289 29.8570305,79.7854904 28.9454739,80.6907014 L23.1414794,86.4519472 L22.0347074,85.3795709 C21.1115702,84.4853516 19.6155491,84.4853516 18.6921756,85.3795709 C17.7692748,86.2737903 17.7692748,87.7237767 18.6921756,88.617996 L21.4904204,91.3292782 C21.933791,91.7588699 22.5350354,92 23.1615681,92 C23.1662949,92 23.1710216,92 23.1759847,91.999771 C23.8077169,91.9961071 24.4117974,91.7474202 24.8530409,91.3093558 L32.3279468,83.8895107 C33.2395034,82.9845286 33.2215417,81.5347712 32.287533,80.6513146 Z" id="Path"></path>
                <path d="M32.287533,66.6515152 C31.3532879,65.7675983 29.8570305,65.7854599 28.9454739,66.6906731 L23.1414794,72.4519333 L22.0347074,71.3795544 C21.1115702,70.4853328 19.6155491,70.4853328 18.6921756,71.3795544 C17.7692748,72.2737759 17.7692748,73.723766 18.6921756,74.6179876 L21.4904204,77.3292766 C21.933791,77.7588693 22.5350354,78 23.1615681,78 C23.1662949,78 23.1710216,78 23.1759847,78 C23.8077169,77.9963361 24.4117974,77.7476486 24.8530409,77.3095831 L32.3279468,69.8897194 C33.2395034,68.9847351 33.2215417,67.534974 32.287533,66.6515152 Z" id="Path"></path>
                <path d="M55.5567759,97 L39.4432241,97 C38.0940758,97 37,98.11925 37,99.5 C37,100.88075 38.0940758,102 39.4432241,102 L55.5567759,102 C56.9059242,102 58,100.88075 58,99.5 C58,98.11925 56.9059242,97 55.5567759,97 Z" id="Path"></path>
                <path d="M62.5397333,97 L62.4602667,97 C61.1017074,97 60,98.11925 60,99.5 C60,100.88075 61.1017074,102 62.4602667,102 L62.5397333,102 C63.8982926,102 65,100.88075 65,99.5 C65,98.11925 63.8982926,97 62.5397333,97 Z" id="Path"></path>
                <path d="M73.5398544,68 L73.4601456,68 C72.1016532,68 71,69.11925 71,70.5 C71,71.88075 72.1016532,73 73.4601456,73 L73.5398544,73 C74.8983468,73 76,71.88075 76,70.5 C76,69.11925 74.8985928,68 73.5398544,68 Z" id="Path"></path>
                <path d="M66.6436456,68 L39.3563544,68 C38.0549399,68 37,69.11925 37,70.5 C37,71.88075 38.0551755,73 39.3563544,73 L66.6436456,73 C67.9448245,73 69,71.88075 69,70.5 C69,69.11925 67.9448245,68 66.6436456,68 Z" id="Path"></path>
            </g>
        </g>
    </g>
</svg>