<svg width="40" height="40" viewBox="0 0 40 40" fill="none" xmlns="http://www.w3.org/2000/svg">
<mask id="mask0" mask-type="alpha" maskUnits="userSpaceOnUse" x="0" y="0" width="40" height="40">
<circle cx="20" cy="20" r="20" fill="white"/>
</mask>
<g mask="url(#mask0)">
<path d="M20.0065 0C11.6567 0 9.21471 0.00861611 8.74003 0.0480041C7.02651 0.190478 5.96025 0.460347 4.79862 1.03886C3.9034 1.48351 3.19738 1.99894 2.50059 2.72146C1.2316 4.03911 0.462511 5.66017 0.184102 7.5871C0.048743 8.52257 0.00936576 8.71335 0.00136726 13.4916C-0.00170908 15.0844 0.00136726 17.1805 0.00136726 19.9922C0.00136726 28.3375 0.0105963 30.7777 0.0505888 31.2516C0.189024 32.9194 0.450514 33.9687 1.00426 35.1165C2.06252 37.3136 4.08368 38.963 6.46477 39.5784C7.28923 39.7908 8.19983 39.9077 9.36884 39.9631C9.86413 39.9846 14.9124 40 19.9638 40C25.0151 40 30.0665 39.9938 30.5495 39.9692C31.9031 39.9055 32.6891 39.8 33.5581 39.5753C34.7388 39.2725 35.8391 38.7155 36.7822 37.9432C37.7254 37.171 38.4886 36.2021 39.0186 35.1042C39.5616 33.9841 39.837 32.8948 39.9615 31.314C39.9886 30.9694 40 25.4745 40 19.9869C40 14.4985 39.9877 9.01369 39.9606 8.66904C39.8345 7.06275 39.5592 5.98266 38.9986 4.84102C38.5387 3.90648 38.0281 3.20858 37.2867 2.49498C35.9638 1.23087 34.3457 0.461578 32.4171 0.1834C31.4828 0.0483118 31.2967 0.0083084 26.5161 0H20.0065Z" fill="white"/>
<path d="M20.0008 9C17.0134 9 16.6384 9.01306 15.4651 9.06646C14.294 9.12008 13.4947 9.30548 12.7953 9.5775C12.0718 9.85846 11.4581 10.2343 10.8466 10.8459C10.2348 11.4574 9.85893 12.0711 9.57705 12.7943C9.30434 13.494 9.11871 14.2935 9.066 15.4641C9.01375 16.6374 9 17.0126 9 20C9 22.9874 9.01329 23.3612 9.06646 24.5345C9.12031 25.7056 9.30571 26.5049 9.57751 27.2043C9.8587 27.9278 10.2345 28.5415 10.8462 29.1529C11.4574 29.7648 12.0711 30.1415 12.7941 30.4225C13.494 30.6945 14.2936 30.8799 15.4644 30.9335C16.6377 30.9869 17.0124 31 19.9997 31C22.9873 31 23.3611 30.9869 24.5345 30.9335C25.7055 30.8799 26.5058 30.6945 27.2056 30.4225C27.9289 30.1415 28.5417 29.7648 29.1529 29.1529C29.7648 28.5415 30.1406 27.9278 30.4225 27.2045C30.6929 26.5049 30.8785 25.7053 30.9335 24.5348C30.9862 23.3614 31 22.9874 31 20C31 17.0126 30.9862 16.6377 30.9335 15.4643C30.8785 14.2933 30.6929 13.494 30.4225 12.7945C30.1406 12.0711 29.7648 11.4574 29.1529 10.8459C28.541 10.2341 27.9291 9.85823 27.205 9.5775C26.5037 9.30548 25.7039 9.12008 24.5328 9.06646C23.3595 9.01306 22.986 9 19.9976 9H20.0008ZM19.014 10.9823C19.3069 10.9818 19.6337 10.9823 20.0008 10.9823C22.9378 10.9823 23.2859 10.9928 24.4458 11.0455C25.5183 11.0946 26.1004 11.2738 26.4881 11.4244C27.0015 11.6237 27.3674 11.8621 27.7522 12.2471C28.1372 12.6321 28.3756 12.9987 28.5754 13.5121C28.726 13.8994 28.9054 14.4814 28.9542 15.5539C29.0069 16.7135 29.0184 17.0619 29.0184 19.9975C29.0184 22.9331 29.0069 23.2814 28.9542 24.441C28.9052 25.5135 28.726 26.0956 28.5754 26.4829C28.376 26.9962 28.1372 27.3618 27.7522 27.7465C27.3672 28.1315 27.0017 28.3699 26.4881 28.5692C26.1008 28.7205 25.5183 28.8992 24.4458 28.9483C23.2862 29.001 22.9378 29.0124 20.0008 29.0124C17.0635 29.0124 16.7154 29.001 15.5558 28.9483C14.4833 28.8988 13.9012 28.7196 13.5133 28.569C12.9999 28.3696 12.6332 28.1313 12.2482 27.7463C11.8632 27.3613 11.6249 26.9955 11.4251 26.482C11.2745 26.0947 11.0951 25.5126 11.0463 24.4401C10.9935 23.2805 10.983 22.9322 10.983 19.9947C10.983 17.0573 10.9935 16.7108 11.0463 15.5512C11.0953 14.4787 11.2745 13.8966 11.4251 13.5089C11.6244 12.9955 11.8632 12.6289 12.2482 12.2439C12.6332 11.8589 12.9999 11.6205 13.5133 11.4207C13.901 11.2694 14.4833 11.0907 15.5558 11.0414C16.5706 10.9956 16.9639 10.9818 19.014 10.9795V10.9823ZM25.8726 12.8087C25.6115 12.8087 25.3562 12.8862 25.1392 13.0312C24.9221 13.1763 24.7529 13.3825 24.653 13.6237C24.5531 13.8649 24.527 14.1304 24.578 14.3864C24.6289 14.6425 24.7547 14.8777 24.9393 15.0623C25.124 15.2469 25.3592 15.3726 25.6153 15.4234C25.8714 15.4743 26.1368 15.4481 26.378 15.3481C26.6192 15.2482 26.8254 15.0789 26.9703 14.8618C27.1153 14.6446 27.1927 14.3894 27.1926 14.1283C27.1926 13.3995 26.6013 12.8083 25.8726 12.8083V12.8087ZM20.0008 14.351C16.8811 14.351 14.3518 16.8804 14.3518 20C14.3518 23.1196 16.8811 25.6478 20.0008 25.6478C23.1205 25.6478 25.6491 23.1196 25.6491 20C25.6491 16.8804 23.1203 14.351 20.0006 14.351H20.0008ZM20.0008 16.3333C22.0257 16.3333 23.6675 17.9749 23.6675 20C23.6675 22.0249 22.0257 23.6667 20.0008 23.6667C17.9756 23.6667 16.3341 22.0249 16.3341 20C16.3341 17.9749 17.9756 16.3333 20.0008 16.3333Z" fill="#2D3C6B"/>
</g>
</svg>
