<svg width="40" height="40" viewBox="0 0 40 40" fill="none" xmlns="http://www.w3.org/2000/svg">
<circle cx="20" cy="20" r="20" fill="white"/>
<path fill-rule="evenodd" clip-rule="evenodd" d="M13.6492 31L13.6492 16.1559H8.31531L8.31531 31H13.6492ZM10.9822 14.1292C12.8423 14.1292 14 12.9893 14 11.5648C13.9653 10.1082 12.8423 9 11.0175 9C9.19295 9 8 10.1082 8 11.5648C8 12.9893 9.15748 14.1292 10.9475 14.1292H10.9821H10.9822Z" fill="#3C8089"/>
<path fill-rule="evenodd" clip-rule="evenodd" d="M16 31H20.914V22.8154C20.914 22.3774 20.9459 21.9398 21.0757 21.6267C21.4309 20.7515 22.2395 19.8451 23.597 19.8451C25.3751 19.8451 26.0864 21.1891 26.0864 23.1593V31L31 31V22.5964C31 18.0947 28.5757 16 25.3427 16C22.6917 16 21.5279 17.4689 20.8813 18.4694H20.9141V16.3439H16C16.0646 17.7191 16 31 16 31Z" fill="#3C8089"/>
</svg>
