<svg width="40" height="40" viewBox="0 0 40 40" fill="none" xmlns="http://www.w3.org/2000/svg">
<mask id="mask0" mask-type="alpha" maskUnits="userSpaceOnUse" x="0" y="0" width="40" height="40">
<circle cx="20" cy="20" r="20" fill="white"/>
</mask>
<g mask="url(#mask0)">
<path d="M20.0065 0C11.6567 0 9.21471 0.00861611 8.74003 0.0480041C7.02651 0.190478 5.96025 0.460347 4.79862 1.03886C3.9034 1.48351 3.19738 1.99894 2.50059 2.72146C1.2316 4.03911 0.462511 5.66017 0.184102 7.5871C0.048743 8.52257 0.00936576 8.71335 0.00136726 13.4916C-0.00170908 15.0844 0.00136726 17.1805 0.00136726 19.9922C0.00136726 28.3375 0.0105963 30.7777 0.0505888 31.2516C0.189024 32.9194 0.450514 33.9687 1.00426 35.1165C2.06252 37.3136 4.08368 38.963 6.46477 39.5784C7.28923 39.7908 8.19983 39.9077 9.36884 39.9631C9.86413 39.9846 14.9124 40 19.9638 40C25.0151 40 30.0665 39.9938 30.5495 39.9692C31.9031 39.9055 32.6891 39.8 33.5581 39.5753C34.7388 39.2725 35.8391 38.7155 36.7822 37.9432C37.7254 37.171 38.4886 36.2021 39.0186 35.1042C39.5616 33.9841 39.837 32.8948 39.9615 31.314C39.9886 30.9694 40 25.4745 40 19.9869C40 14.4985 39.9877 9.01369 39.9606 8.66904C39.8345 7.06275 39.5592 5.98266 38.9986 4.84102C38.5387 3.90648 38.0281 3.20858 37.2867 2.49498C35.9638 1.23087 34.3457 0.461578 32.4171 0.1834C31.4828 0.0483118 31.2967 0.0083084 26.5161 0H20.0065Z" fill="white"/>
</g>
<path fill-rule="evenodd" clip-rule="evenodd" d="M9.2862 13.4882C9.32084 13.1476 9.19036 12.8116 8.93634 12.583L6.34987 9.46533V9H14.3841L20.5939 22.6194L26.0532 9H33.7122V9.46533L31.4998 11.5865C31.3093 11.732 31.2146 11.971 31.2539 12.2077V27.7935C31.2146 28.029 31.3093 28.268 31.4998 28.4135L33.6602 30.5347V31H22.7924V30.5347L25.0313 28.3616C25.2507 28.1422 25.2507 28.0775 25.2507 27.7415V15.144L19.0282 30.9492H18.1876L10.942 15.144V25.737C10.882 26.1815 11.0298 26.6307 11.3427 26.9517L14.2536 30.4827V30.9492H6V30.4827L8.91093 26.9517C9.22269 26.6296 9.36126 26.1781 9.2862 25.737V13.4882V13.4882Z" fill="#3C8089"/>
</svg>
