<svg width="40" height="40" viewBox="0 0 40 40" fill="none" xmlns="http://www.w3.org/2000/svg">
<circle cx="20" cy="20" r="20" fill="white"/>
<path d="M15.2366 31C25.1203 31 30.5253 22.5368 30.5253 15.1979C30.5253 14.9575 30.5206 14.7182 30.5101 14.48C31.5617 13.6935 32.4694 12.7196 33.1905 11.604C32.2277 12.0464 31.1916 12.3442 30.1048 12.4785C31.2141 11.7908 32.0658 10.7032 32.4676 9.40659C31.4128 10.0534 30.2588 10.5093 29.0555 10.7547C28.075 9.6752 26.6791 9 25.1332 9C22.1658 9 19.7595 11.4872 19.7595 14.5531C19.7595 14.9889 19.8067 15.4129 19.8989 15.8195C15.433 15.5872 11.4729 13.3772 8.82259 10.0167C8.34525 10.8643 8.09416 11.8275 8.09498 12.8082C8.09498 14.735 9.04362 16.4361 10.4862 17.4312C9.6329 17.4043 8.79833 17.1661 8.05261 16.7366C8.05182 16.7599 8.05182 16.7826 8.05182 16.8075C8.05182 19.4972 9.90403 21.7429 12.3627 22.2518C11.9009 22.3818 11.4244 22.4475 10.9458 22.4473C10.6069 22.447 10.2687 22.4135 9.93593 22.3471C10.62 24.5538 12.6037 26.1596 14.9556 26.2045C13.1164 27.6944 10.7997 28.5818 8.28173 28.5818C7.84854 28.5818 7.42062 28.5564 7 28.505C9.37812 30.0804 12.2019 30.9997 15.2369 30.9997" fill="#3C8089"/>
</svg>
