<?xml version="1.0" encoding="UTF-8"?>
<svg width="471px" height="214px" viewBox="0 0 471 214" version="1.1" xmlns="http://www.w3.org/2000/svg" xmlns:xlink="http://www.w3.org/1999/xlink">
    <!-- Generator: Sketch 64 (93537) - https://sketch.com -->
    <title>Logo</title>
    <desc>Created with Sketch.</desc>
    <g id="Portfolio" stroke="none" stroke-width="1" fill="none" fill-rule="evenodd">
        <g id="Logo">
            <path d="M164.61091,135.101124 C163.310391,135.101124 162.216788,134.65169 161.33007,133.752809 C160.443352,132.853928 160,131.745325 160,130.426966 L160,69.5730337 C160,68.1947497 160.443352,67.0711654 161.33007,66.2022472 C162.216788,65.333329 163.310391,64.8988764 164.61091,64.8988764 C165.970545,64.8988764 167.078926,65.333329 167.936086,66.2022472 C168.793247,67.0711654 169.221821,68.1947497 169.221821,69.5730337 L169.221821,95.3707865 L210.36533,95.3707865 L210.36533,69.5730337 C210.36533,68.1947497 210.808682,67.0711654 211.6954,66.2022472 C212.582118,65.333329 213.675721,64.8988764 214.97624,64.8988764 C216.335875,64.8988764 217.429477,65.333329 218.25708,66.2022472 C219.084684,67.0711654 219.498479,68.1947497 219.498479,69.5730337 L219.498479,130.426966 C219.498479,131.745325 219.084684,132.853928 218.25708,133.752809 C217.429477,134.65169 216.335875,135.101124 214.97624,135.101124 C213.675721,135.101124 212.582118,134.65169 211.6954,133.752809 C210.808682,132.853928 210.36533,131.745325 210.36533,130.426966 L210.36533,103.640449 L169.221821,103.640449 L169.221821,130.426966 C169.221821,131.745325 168.793247,132.853928 167.936086,133.752809 C167.078926,134.65169 165.970545,135.101124 164.61091,135.101124 Z M237.578664,116.044944 L257.267847,116.044944 C257.094131,114.710379 256.74099,113.481921 256.20842,112.359551 C255.459636,110.781515 254.395591,109.533088 253.016252,108.614232 C251.636913,107.695376 249.962026,107.235955 247.991542,107.235955 C245.745189,107.235955 243.823996,107.735326 242.227903,108.734082 C240.631811,109.732839 239.419977,111.101115 238.592378,112.838951 C238.119208,113.832532 237.781305,114.901193 237.578664,116.044944 Z M237.511981,120.838951 C237.729838,122.204958 238.168788,123.463379 238.828835,124.614232 C239.814077,126.332093 241.173691,127.690382 242.907717,128.689139 C244.641743,129.687895 246.631903,130.187266 248.878255,130.187266 C250.099955,130.187266 251.351194,129.957555 252.632009,129.498127 C253.912824,129.038699 254.947313,128.509366 255.735507,127.910112 C256.326652,127.470659 256.96705,127.240949 257.656719,127.220974 C258.346389,127.200999 258.947378,127.410734 259.459703,127.850187 C260.129668,128.449441 260.48435,129.108611 260.52376,129.827715 C260.563169,130.54682 260.247897,131.16604 259.577932,131.685393 C258.238003,132.76405 256.572968,133.642943 254.582779,134.322097 C252.59259,135.001252 250.691101,135.340824 248.878255,135.340824 C245.607251,135.340824 242.70083,134.631717 240.158905,133.213483 C237.61698,131.795249 235.626821,129.837715 234.188367,127.340824 C232.749914,124.843933 232.030698,121.977544 232.030698,118.741573 C232.030698,115.465652 232.710505,112.579288 234.070139,110.082397 C235.429773,107.585506 237.311557,105.627972 239.715548,104.209738 C242.119539,102.791504 244.878176,102.082397 247.991542,102.082397 C251.065497,102.082397 253.705907,102.771529 255.912849,104.149813 C258.119792,105.528097 259.804531,107.425706 260.967117,109.842697 C262.129702,112.259687 262.710987,115.046176 262.710987,118.202247 C262.710987,118.961302 262.454827,119.590509 261.942501,120.089888 C261.430175,120.589266 260.779925,120.838951 259.991732,120.838951 L237.511981,120.838951 L237.511981,120.838951 Z M282.691599,135.340824 C279.814691,135.340824 277.233395,134.611743 274.947634,133.153558 C272.661872,131.695373 270.858905,129.717865 269.538681,127.220974 C268.218456,124.724082 267.558354,121.897644 267.558354,118.741573 C267.558354,115.585502 268.27757,112.749076 269.716024,110.23221 C271.154477,107.715343 273.105227,105.727847 275.568333,104.269663 C278.031439,102.811478 280.799928,102.082397 283.873883,102.082397 C286.947839,102.082397 289.706476,102.811478 292.149876,104.269663 C294.593277,105.727847 296.534175,107.715343 297.972629,110.23221 C299.411082,112.749076 300.130298,115.585502 300.130298,118.741573 L297.824843,118.741573 C297.824843,121.897644 297.164741,124.724082 295.844516,127.220974 C294.524292,129.717865 292.721326,131.695373 290.435564,133.153558 C288.149802,134.611743 285.568506,135.340824 282.691599,135.340824 Z M283.873883,129.947566 C285.883777,129.947566 287.676891,129.458182 289.253279,128.479401 C290.829666,127.500619 292.071053,126.162306 292.977476,124.464419 C293.883899,122.766533 294.337103,120.858937 294.337103,118.741573 C294.337103,116.584259 293.883899,114.656688 292.977476,112.958801 C292.071053,111.260915 290.829666,109.922602 289.253279,108.94382 C287.676891,107.965039 285.883777,107.475655 283.873883,107.475655 C281.903399,107.475655 280.120137,107.965039 278.524045,108.94382 C276.927952,109.922602 275.666861,111.260915 274.740734,112.958801 C273.814606,114.656688 273.351549,116.584259 273.351549,118.741573 C273.351549,120.858937 273.814606,122.766533 274.740734,124.464419 C275.666861,126.162306 276.927952,127.500619 278.524045,128.479401 C280.120137,129.458182 281.903399,129.947566 283.873883,129.947566 Z M297.115472,135.161049 C296.248459,135.161049 295.529243,134.871414 294.957803,134.292135 C294.386362,133.712856 294.100646,132.983775 294.100646,132.104869 L294.100646,122.93633 L295.223817,116.58427 L300.130298,118.741573 L300.130298,132.104869 C300.130298,132.983775 299.844582,133.712856 299.273142,134.292135 C298.701702,134.871414 297.982485,135.161049 297.115472,135.161049 Z M323.775993,135.340824 C320.702037,135.340824 317.933548,134.611743 315.470443,133.153558 C313.007337,131.695373 311.056587,129.707878 309.618133,127.191011 C308.17968,124.674145 307.460464,121.837719 307.460464,118.681648 C307.460464,115.525577 308.120566,112.699139 309.440791,110.202247 C310.761015,107.705356 312.563981,105.727847 314.849743,104.269663 C317.135505,102.811478 319.716801,102.082397 322.593708,102.082397 C324.91888,102.082397 327.066676,102.57178 329.03716,103.550562 C331.007645,104.529338 332.662827,105.85767 334.002756,107.535581 L334.002756,91.3558052 C334.002756,90.4369492 334.288472,89.6978804 334.859913,89.1385768 C335.431353,88.5792731 336.150569,88.2996255 337.017582,88.2996255 C337.924005,88.2996255 338.653073,88.5792731 339.204809,89.1385768 C339.756545,89.6978804 340.032408,90.4369492 340.032408,91.3558052 L340.032408,118.681648 C340.032408,121.837719 339.313192,124.674145 337.874739,127.191011 C336.436285,129.707878 334.495387,131.695373 332.051986,133.153558 C329.608586,134.611743 326.849949,135.340824 323.775993,135.340824 Z M323.775993,129.947566 C325.785887,129.947566 327.579001,129.458182 329.155389,128.479401 C330.731776,127.500619 331.973163,126.152318 332.879586,124.434457 C333.786008,122.716596 334.239213,120.799012 334.239213,118.681648 C334.239213,116.524334 333.786008,114.60675 332.879586,112.928839 C331.973163,111.250928 330.731776,109.922602 329.155389,108.94382 C327.579001,107.965039 325.785887,107.475655 323.775993,107.475655 C321.805509,107.475655 320.022247,107.965039 318.426155,108.94382 C316.830062,109.922602 315.568971,111.250928 314.642844,112.928839 C313.716716,114.60675 313.253659,116.524334 313.253659,118.681648 C313.253659,120.799012 313.716716,122.716596 314.642844,124.434457 C315.568971,126.152318 316.830062,127.500619 318.426155,128.479401 C320.022247,129.458182 321.805509,129.947566 323.775993,129.947566 Z M386.230184,136 C381.028106,136 376.269457,135.116114 371.954096,133.348315 C367.638735,131.580516 363.929354,129.093649 360.825841,125.88764 C357.722328,122.681632 355.313447,118.876427 353.599126,114.47191 C351.884804,110.067394 351.027656,105.228491 351.027656,99.9550562 C351.027656,94.6816216 351.884804,89.8576998 353.599126,85.4831461 C355.313447,81.1085924 357.722328,77.3183681 360.825841,74.1123596 C363.929354,70.906351 367.638735,68.4194845 371.954096,66.6516854 C376.269457,64.8838863 381.028106,64 386.230184,64 C391.432263,64 396.176133,64.8838863 400.461937,66.6516854 C404.74774,68.4194845 408.457122,70.906351 411.590192,74.1123596 C414.723262,77.3183681 417.146922,81.1085924 418.861243,85.4831461 C420.575565,89.8576998 421.432712,94.6816216 421.432712,99.9550562 C421.432712,105.228491 420.575565,110.067394 418.861243,114.47191 C417.146922,118.876427 414.723262,122.681632 411.590192,125.88764 C408.457122,129.093649 404.74774,131.580516 400.461937,133.348315 C396.176133,135.116114 391.432263,136 386.230184,136 Z M386.230184,127.550562 C390.072629,127.550562 393.604669,126.846449 396.826411,125.438202 C400.048153,124.029956 402.841273,122.082409 405.205854,119.595506 C407.570436,117.108602 409.38818,114.187283 410.659143,110.831461 C411.930105,107.475639 412.565577,103.850207 412.565577,99.9550562 C412.565577,96.0599056 411.930105,92.4344737 410.659143,89.0786517 C409.38818,85.7228297 407.570436,82.8015106 405.205854,80.3146067 C402.841273,77.8277029 400.048153,75.895138 396.826411,74.5168539 C393.604669,73.1385699 390.072629,72.4494382 386.230184,72.4494382 C382.38774,72.4494382 378.855699,73.1385699 375.633957,74.5168539 C372.412215,75.895138 369.633874,77.8277029 367.29885,80.3146067 C364.963826,82.8015106 363.146081,85.7228297 361.845562,89.0786517 C360.545042,92.4344737 359.894792,96.0599056 359.894792,99.9550562 C359.894792,103.850207 360.545042,107.475639 361.845562,110.831461 C363.146081,114.187283 364.963826,117.108602 367.29885,119.595506 C369.633874,122.082409 372.412215,124.029956 375.633957,125.438202 C378.855699,126.846449 382.38774,127.550562 386.230184,127.550562 Z M435.827029,135.101124 C435.078245,135.101124 434.40829,134.821476 433.817145,134.262172 C433.226,133.702869 432.930431,132.9638 432.930431,132.044944 L432.930431,102.501873 C432.930431,99.6254538 433.492011,97.1285999 434.615187,95.011236 C435.738363,92.8938721 437.304875,91.2459485 439.314769,90.0674157 C441.324663,88.888883 443.6498,88.2996255 446.290249,88.2996255 C447.157262,88.2996255 447.876478,88.5592983 448.447919,89.0786517 C449.019359,89.5980051 449.305075,90.2571745 449.305075,91.0561798 C449.305075,91.8152348 449.019359,92.4644168 448.447919,93.0037453 C447.876478,93.5430739 447.157262,93.8127341 446.290249,93.8127341 C444.832091,93.8127341 443.551295,94.1523062 442.447824,94.8314607 C441.344352,95.5106151 440.487204,96.4494322 439.876354,97.6479401 C439.265504,98.8464479 438.960084,100.264661 438.960084,101.902622 L438.960084,132.044944 C438.960084,132.9638 438.68422,133.702869 438.132484,134.262172 C437.580749,134.821476 436.812271,135.101124 435.827029,135.101124 Z M430.388519,108.674157 C429.560916,108.674157 428.890961,108.434459 428.378635,107.955056 C427.866309,107.475653 427.61015,106.876408 427.61015,106.157303 C427.61015,105.358298 427.866309,104.719104 428.378635,104.2397 C428.890961,103.760297 429.560916,103.520599 430.388519,103.520599 L444.989736,103.520599 C445.817339,103.520599 446.487294,103.760297 446.99962,104.2397 C447.511946,104.719104 447.768105,105.358298 447.768105,106.157303 C447.768105,106.876408 447.511946,107.475653 446.99962,107.955056 C446.487294,108.434459 445.817339,108.674157 444.989736,108.674157 L430.388519,108.674157 Z M457.521954,135.101124 C456.77317,135.101124 456.103215,134.821476 455.51207,134.262172 C454.920925,133.702869 454.625356,132.9638 454.625356,132.044944 L454.625356,102.501873 C454.625356,99.6254538 455.186936,97.1285999 456.310112,95.011236 C457.433288,92.8938721 458.9998,91.2459485 461.009694,90.0674157 C463.019588,88.888883 465.344725,88.2996255 467.985174,88.2996255 C468.852187,88.2996255 469.571403,88.5592983 470.142844,89.0786517 C470.714284,89.5980051 471,90.2571745 471,91.0561798 C471,91.8152348 470.714284,92.4644168 470.142844,93.0037453 C469.571403,93.5430739 468.852187,93.8127341 467.985174,93.8127341 C466.527015,93.8127341 465.24622,94.1523062 464.142749,94.8314607 C463.039277,95.5106151 462.182129,96.4494322 461.571279,97.6479401 C460.960429,98.8464479 460.655009,100.264661 460.655009,101.902622 L460.655009,132.044944 C460.655009,132.9638 460.379145,133.702869 459.827409,134.262172 C459.275674,134.821476 458.507196,135.101124 457.521954,135.101124 Z M452.083444,108.674157 C451.255841,108.674157 450.585886,108.434459 450.07356,107.955056 C449.561234,107.475653 449.305075,106.876408 449.305075,106.157303 C449.305075,105.358298 449.561234,104.719104 450.07356,104.2397 C450.585886,103.760297 451.255841,103.520599 452.083444,103.520599 L466.684661,103.520599 C467.512264,103.520599 468.182219,103.760297 468.694545,104.2397 C469.206871,104.719104 469.46303,105.358298 469.46303,106.157303 C469.46303,106.876408 469.206871,107.475653 468.694545,107.955056 C468.182219,108.434459 467.512264,108.674157 466.684661,108.674157 L452.083444,108.674157 Z" id="HeadOf" fill="#0E0E0E" fill-rule="nonzero"></path>
            <path d="M175.459487,195.409289 L188.249505,168.277778 C188.721234,167.425922 189.399336,167 190.283828,167 C190.932456,167 191.477886,167.220567 191.920132,167.661706 C192.362378,168.102846 192.583498,168.673277 192.583498,169.373016 L192.583498,200.267857 C192.583498,200.937173 192.355008,201.5 191.89802,201.956349 C191.441032,202.412701 190.902973,202.640873 190.283828,202.640873 C189.6352,202.640873 189.089771,202.412701 188.647525,201.956349 C188.205278,201.5 187.984158,200.937173 187.984158,200.267857 L187.984158,177.576502 L177.281848,200.085317 C176.780636,200.876327 176.117276,201.271825 175.291749,201.271825 C174.318807,201.271825 173.611223,200.800269 173.168977,199.857143 L162.59934,178.00154 L162.59934,200.267857 C162.59934,200.937173 162.37822,201.5 161.935974,201.956349 C161.493727,202.412701 160.948298,202.640873 160.29967,202.640873 C159.651042,202.640873 159.105613,202.412701 158.663366,201.956349 C158.22112,201.5 158,200.937173 158,200.267857 L158,169.373016 C158,168.673277 158.22112,168.102846 158.663366,167.661706 C159.105613,167.220567 159.651042,167 160.29967,167 C161.184163,167 161.862264,167.425922 162.333993,168.277778 L175.459487,195.409289 L175.459487,195.409289 Z M203.683828,202.640873 C203.0352,202.640873 202.497142,202.420306 202.069637,201.979167 C201.642132,201.538027 201.428383,200.982808 201.428383,200.313492 L201.428383,180.005952 C201.428383,179.306213 201.642132,178.743388 202.069637,178.31746 C202.497142,177.891532 203.0352,177.678571 203.683828,177.678571 C204.36194,177.678571 204.907369,177.891532 205.320132,178.31746 C205.732895,178.743388 205.939274,179.306213 205.939274,180.005952 L205.939274,200.313492 C205.939274,200.982808 205.732895,201.538027 205.320132,201.979167 C204.907369,202.420306 204.36194,202.640873 203.683828,202.640873 Z M203.683828,173.617063 C202.887785,173.617063 202.202313,173.320439 201.627393,172.727183 C201.052472,172.133926 200.765017,171.426591 200.765017,170.605159 C200.765017,169.783726 201.052472,169.076392 201.627393,168.483135 C202.202313,167.889878 202.887785,167.593254 203.683828,167.593254 C204.479872,167.593254 205.165344,167.889878 205.740264,168.483135 C206.315184,169.076392 206.60264,169.783726 206.60264,170.605159 C206.60264,171.426591 206.315184,172.133926 205.740264,172.727183 C205.165344,173.320439 204.479872,173.617063 203.683828,173.617063 Z M224.425083,202.823413 C222.21385,202.823413 220.260625,202.283405 218.565347,201.203373 C216.870069,200.123341 215.535978,198.632615 214.563036,196.731151 C213.590094,194.829686 213.10363,192.646838 213.10363,190.18254 C213.10363,187.687818 213.626947,185.489758 214.673597,183.588294 C215.720247,181.686829 217.157527,180.196103 218.985479,179.116071 C220.81343,178.03604 222.92144,177.496032 225.309571,177.496032 C227.668219,177.496032 229.761487,178.03604 231.589439,179.116071 C233.417391,180.196103 234.85467,181.686829 235.90132,183.588294 C236.94797,185.489758 237.471287,187.687818 237.471287,190.18254 L234.862046,190.18254 C234.862046,192.646838 234.412436,194.829686 233.513201,196.731151 C232.613967,198.632615 231.383066,200.123341 229.820462,201.203373 C228.257858,202.283405 226.459416,202.823413 224.425083,202.823413 Z M225.221122,213 C223.127822,213 221.167226,212.574078 219.339274,211.722222 C217.511322,210.870366 215.963483,209.623024 214.69571,207.980159 C214.312429,207.46296 214.172387,206.930558 214.275578,206.382937 C214.378768,205.835315 214.666224,205.394182 215.137954,205.059524 C215.66865,204.694443 216.221449,204.572751 216.79637,204.694444 C217.256306,204.791799 217.645478,205.005977 217.963894,205.336983 L218.189439,205.607143 C218.985483,206.64154 219.987893,207.447748 221.1967,208.025794 C222.405507,208.603839 223.77645,208.892857 225.309571,208.892857 C226.72476,208.892857 228.029367,208.542993 229.223432,207.843254 C230.417498,207.143515 231.368313,206.109134 232.075908,204.740079 C232.783502,203.371025 233.137294,201.697761 233.137294,199.720238 L233.137294,193.240079 L234.5967,189.224206 L237.471287,190.18254 L237.471287,200.039683 C237.471287,202.443134 236.955341,204.625982 235.923432,206.588294 C234.891524,208.550605 233.454245,210.109783 231.611551,211.265873 C229.768858,212.421963 227.638736,213 225.221122,213 Z M225.309571,198.71627 C226.842692,198.71627 228.198894,198.351194 229.378218,197.621032 C230.557542,196.890869 231.478875,195.886911 232.142244,194.609127 C232.805614,193.331343 233.137294,191.855828 233.137294,190.18254 C233.137294,188.509251 232.805614,187.026131 232.142244,185.733135 C231.478875,184.440139 230.557542,183.428575 229.378218,182.698413 C228.198894,181.96825 226.842692,181.603175 225.309571,181.603175 C223.77645,181.603175 222.420248,181.96825 221.240924,182.698413 C220.0616,183.428575 219.132897,184.440139 218.454785,185.733135 C217.776674,187.026131 217.437624,188.509251 217.437624,190.18254 C217.437624,191.855828 217.776674,193.331343 218.454785,194.609127 C219.132897,195.886911 220.0616,196.890869 221.240924,197.621032 C222.420248,198.351194 223.77645,198.71627 225.309571,198.71627 Z M246.360396,187.03373 C246.360396,185.208324 246.795265,183.573089 247.665017,182.127976 C248.534768,180.682863 249.706703,179.534396 251.180858,178.68254 C252.655013,177.830684 254.276559,177.404762 256.045545,177.404762 C257.81453,177.404762 259.133879,177.701386 260.00363,178.294643 C260.873382,178.8879 261.205062,179.595234 260.99868,180.416667 C260.910231,180.842595 260.740705,181.169642 260.490099,181.397817 C260.239493,181.625993 259.952037,181.770502 259.627723,181.831349 C259.384487,181.876984 259.12467,181.879837 258.848268,181.839906 L258.566337,181.785714 C256.679419,181.39021 254.984166,181.359787 253.480528,181.694444 C251.97689,182.029102 250.790213,182.652773 249.920462,183.565476 C249.050711,184.478179 248.615842,185.634252 248.615842,187.03373 L246.360396,187.03373 Z M246.40462,202.640873 C245.697026,202.640873 245.151597,202.450729 244.768317,202.070437 C244.385037,201.690144 244.193399,201.119713 244.193399,200.359127 L244.193399,179.960317 C244.193399,179.230155 244.385037,178.66733 244.768317,178.271825 C245.151597,177.876321 245.697026,177.678571 246.40462,177.678571 C247.141698,177.678571 247.694498,177.868715 248.063036,178.249008 C248.431575,178.629301 248.615842,179.199732 248.615842,179.960317 L248.615842,200.359127 C248.615842,201.089289 248.431575,201.652114 248.063036,202.047619 C247.694498,202.443124 247.141698,202.640873 246.40462,202.640873 Z M274.00066,202.823413 C271.848394,202.823413 269.91728,202.268193 268.207261,201.157738 C266.497241,200.047283 265.14841,198.541345 264.160726,196.639881 C263.173042,194.738416 262.679208,192.585991 262.679208,190.18254 C262.679208,187.779089 263.217266,185.619057 264.293399,183.702381 C265.369532,181.785705 266.828924,180.272162 268.671617,179.161706 C270.514311,178.051251 272.585467,177.496032 274.885149,177.496032 C277.18483,177.496032 279.248616,178.051251 281.076568,179.161706 C282.90452,180.272162 284.35654,181.785705 285.432673,183.702381 C286.508806,185.619057 287.046865,187.779089 287.046865,190.18254 L285.322112,190.18254 C285.322112,192.585991 284.828278,194.738416 283.840594,196.639881 C282.85291,198.541345 281.504079,200.047283 279.794059,201.157738 C278.08404,202.268193 276.152926,202.823413 274.00066,202.823413 Z M274.885149,198.71627 C276.388786,198.71627 277.730247,198.343588 278.909571,197.598214 C280.088895,196.85284 281.017598,195.83367 281.69571,194.540675 C282.373821,193.247679 282.712871,191.794982 282.712871,190.18254 C282.712871,188.539674 282.373821,187.071766 281.69571,185.77877 C281.017598,184.485774 280.088895,183.466604 278.909571,182.72123 C277.730247,181.975856 276.388786,181.603175 274.885149,181.603175 C273.410994,181.603175 272.076904,181.975856 270.882838,182.72123 C269.688773,183.466604 268.745328,184.485774 268.052475,185.77877 C267.359622,187.071766 267.013201,188.539674 267.013201,190.18254 C267.013201,191.794982 267.359622,193.247679 268.052475,194.540675 C268.745328,195.83367 269.688773,196.85284 270.882838,197.598214 C272.076904,198.343588 273.410994,198.71627 274.885149,198.71627 Z M284.791419,202.686508 C284.142791,202.686508 283.604733,202.465941 283.177228,202.024802 C282.749723,201.583662 282.535974,201.028443 282.535974,200.359127 L282.535974,193.376984 L283.376238,188.539683 L287.046865,190.18254 L287.046865,200.359127 C287.046865,201.028443 286.833115,201.583662 286.405611,202.024802 C285.978106,202.465941 285.440047,202.686508 284.791419,202.686508 Z M296.466667,202.640873 C295.818039,202.640873 295.27998,202.420306 294.852475,201.979167 C294.42497,201.538027 294.211221,200.982808 294.211221,200.313492 L294.211221,180.005952 C294.211221,179.306213 294.42497,178.743388 294.852475,178.31746 C295.27998,177.891532 295.818039,177.678571 296.466667,177.678571 C297.144778,177.678571 297.690207,177.891532 298.10297,178.31746 C298.515734,178.743388 298.722112,179.306213 298.722112,180.005952 L298.722112,200.313492 C298.722112,200.982808 298.515734,201.538027 298.10297,201.979167 C297.690207,202.420306 297.144778,202.640873 296.466667,202.640873 Z M296.466667,173.617063 C295.670623,173.617063 294.985151,173.320439 294.410231,172.727183 C293.835311,172.133926 293.547855,171.426591 293.547855,170.605159 C293.547855,169.783726 293.835311,169.076392 294.410231,168.483135 C294.985151,167.889878 295.670623,167.593254 296.466667,167.593254 C297.26271,167.593254 297.948182,167.889878 298.523102,168.483135 C299.098023,169.076392 299.385479,169.783726 299.385479,170.605159 C299.385479,171.426591 299.098023,172.133926 298.523102,172.727183 C297.948182,173.320439 297.26271,173.617063 296.466667,173.617063 Z M327.556436,202.686508 C326.907808,202.686508 326.369749,202.465941 325.942244,202.024802 C325.514739,201.583662 325.30099,201.028443 325.30099,200.359127 L325.30099,189.132937 C325.30099,187.398801 324.991422,185.984132 324.372277,184.888889 C323.753132,183.793645 322.920247,182.979831 321.873597,182.447421 C320.826947,181.915011 319.625529,181.64881 318.269307,181.64881 C317.031017,181.64881 315.910676,181.907405 314.908251,182.424603 C313.905826,182.941802 313.109794,183.633924 312.520132,184.500992 C311.93047,185.36806 311.635644,186.364412 311.635644,187.490079 L308.849505,187.490079 C308.849505,185.573403 309.299115,183.862111 310.19835,182.356151 C311.097584,180.850191 312.328485,179.656089 313.891089,178.77381 C315.453693,177.89153 317.207911,177.450397 319.153795,177.450397 C321.188129,177.450397 323.008683,177.899136 324.615512,178.796627 C326.22234,179.694118 327.490094,181.009912 328.418812,182.744048 C329.347529,184.478183 329.811881,186.607792 329.811881,189.132937 L329.811881,200.359127 C329.811881,201.028443 329.598132,201.583662 329.170627,202.024802 C328.743122,202.465941 328.205064,202.686508 327.556436,202.686508 Z M309.380198,202.686508 C308.73157,202.686508 308.193511,202.465941 307.766007,202.024802 C307.338502,201.583662 307.124752,201.028443 307.124752,200.359127 L307.124752,180.005952 C307.124752,179.306213 307.338502,178.743388 307.766007,178.31746 C308.193511,177.891532 308.73157,177.678571 309.380198,177.678571 C310.058309,177.678571 310.603738,177.891532 311.016502,178.31746 C311.429265,178.743388 311.635644,179.306213 311.635644,180.005952 L311.635644,200.359127 C311.635644,201.028443 311.429265,201.583662 311.016502,202.024802 C310.603738,202.465941 310.058309,202.686508 309.380198,202.686508 Z M340.198058,188.128968 L354.927889,188.128968 C354.797929,187.112654 354.533738,186.177143 354.135314,185.322421 C353.575135,184.120695 352.779103,183.169977 351.747195,182.470238 C350.715286,181.770499 349.462274,181.420635 347.988119,181.420635 C346.307582,181.420635 344.870303,181.800922 343.676238,182.561508 C342.482172,183.322094 341.575581,184.364081 340.956436,185.6875 C340.690946,186.254983 340.482378,186.854628 340.330731,187.486437 L340.198058,188.128968 L340.198058,188.128968 Z M340.148171,191.779762 C340.311154,192.82002 340.63954,193.778349 341.133333,194.654762 C341.870411,195.96297 342.887562,196.997351 344.184818,197.757937 C345.482075,198.518522 346.970949,198.89881 348.651485,198.89881 C349.565461,198.89881 350.501535,198.723877 351.459736,198.374008 C352.226296,198.094112 352.874917,197.780146 353.40561,197.432104 L353.781518,197.164683 C354.223765,196.830025 354.702858,196.655093 355.218812,196.639881 C355.734766,196.624669 356.184377,196.78439 356.567657,197.119048 C357.068869,197.575399 357.334213,198.077378 357.363696,198.625 C357.393179,199.172622 357.157318,199.644178 356.656106,200.039683 C355.65368,200.861115 354.408038,201.530421 352.919142,202.047619 C351.430246,202.564817 350.007708,202.823413 348.651485,202.823413 C346.204388,202.823413 344.030043,202.283405 342.128383,201.203373 C340.226723,200.123341 338.737849,198.632615 337.661716,196.731151 C336.585583,194.829686 336.047525,192.646838 336.047525,190.18254 C336.047525,187.687818 336.556101,185.489758 337.573267,183.588294 C338.590434,181.686829 339.998231,180.196103 341.7967,179.116071 C343.595169,178.03604 345.658954,177.496032 347.988119,177.496032 C350.2878,177.496032 352.263138,178.020828 353.914191,179.070437 C355.565245,180.120045 356.825628,181.565136 357.69538,183.405754 C358.565131,185.246372 359,187.368374 359,189.771825 C359,190.349871 358.808363,190.829032 358.425083,191.209325 C358.041802,191.589618 357.555338,191.779762 356.965677,191.779762 L340.148171,191.779762 L340.148171,191.779762 Z" id="Migraine" fill="#0E0E0E" fill-rule="nonzero"></path>
            <g id="Head/Front/Chongo">
                <g id="Head" transform="translate(32.627028, 57.568394)" fill="#FDDF9D">
                    <path d="M81.6010251,19.4491293 C93.9980118,42.4482487 92.5249275,100.787422 76.5029267,104.898007 C70.1133651,106.537304 56.5016881,102.521673 42.6481871,94.2105538 L51.3438134,155.440865 L0,155.440865 L17.6747479,73.4396505 C7.8174483,61.9228538 1.14593286,47.8090099 2.26078862,31.9941035 C5.47310123,-13.5745029 69.2040384,-3.54999012 81.6010251,19.4491293 Z"></path>
                </g>
                <path d="M93.9475759,51.9682136 C86.9317827,49.8388867 76.7473159,49.1167638 72.4630135,49.6052738 C74.90012,43.7934457 75.8671997,37.3183699 75.0787963,31.0137405 C74.3125023,24.887625 71.5622619,19.6714152 69.018703,14.2054577 C67.8462519,11.6860091 66.5175613,9.1802922 64.5365628,7.2532006 C62.5185515,5.28989129 59.9640198,3.99394922 57.2853482,3.37567329 C54.5441153,2.74280728 51.6777597,2.7955032 48.9322687,3.36983726 C47.7177279,3.62387623 46.6279822,4.17658265 45.436861,4.48383249 C44.2170795,4.79863484 43.6253675,4.03874934 42.7400105,3.27508759 C40.6063755,1.4350215 37.4784745,0.526660523 34.7791674,0.201559295 C31.7506766,-0.163020962 28.6081997,0.291674472 25.7198986,1.28259812 C22.9085708,2.24725963 20.2077898,3.81371887 18.1752028,6.09577844 C17.270193,7.11159104 16.4487075,8.26781167 15.9148075,9.54435751 C15.6958429,10.0682271 15.6596491,10.3785666 15.134429,10.570469 C14.6486782,10.7481246 14.0805496,10.7532741 13.5792403,10.9223473 C8.73188624,12.5564358 4.58744601,16.2842861 2.33081746,21.0706894 C1.01424609,23.8630583 0.3905984,28.7794331 0.561413668,34.2898814 C0.732228936,39.8003298 5.73123683,54.178662 10.406793,59.4231936 C14.5802211,64.1043766 20.7146674,67.1935249 26.6348985,68.5457675 C22.7053285,73.0163385 20.0895457,78.6027928 18.1552225,84.2843402 C16.0541783,90.4559424 14.7538205,96.8685384 14.273638,103.402318 C13.8175301,109.610138 13.7752766,116.174985 15.2374422,122.250293 C16.6052745,127.931669 19.5304246,132.592426 24.413645,135.549233 C26.650457,136.903707 29.0571016,137.921237 31.477667,138.851225 C33.8631849,139.767654 36.2559088,140.658678 38.7547577,141.172935 C43.4840314,142.145836 48.9332513,141.978823 52.5762186,138.232091 C53.8891869,136.881393 55.3331737,135.184138 56.2910822,133.534086 C56.6354968,132.940699 56.843161,132.552603 56.4247209,131.972605 C55.9234117,131.277946 55.1125714,130.745665 54.4686159,130.202228 C50.7963333,127.103811 48.5231637,122.967438 47.9501219,118.051784 C47.3687276,113.06421 48.7147781,106.626553 53.5866981,104.449885 C59.6006075,101.762908 66.2235887,104.847079 71.5688128,107.72201 C73.8405085,99.7417535 78.5049281,92.5563984 85.8178851,88.8958341 C93.9084364,84.8461439 103.192238,84.3722239 111.506503,80.8975543 C113.673057,79.9921114 115.879734,78.9642834 117.474884,77.1194112 C118.14144,76.3483686 118.923456,75.348176 119.189587,74.3284154 C119.539243,72.9888748 118.671246,71.8657822 118.000759,70.8214761 C114.445574,65.2842847 100.963369,54.0975405 93.9475759,51.9682136 Z" id="hair" fill="#191847"></path>
            </g>
        </g>
    </g>
</svg>