<?xml version="1.0" encoding="UTF-8"?>
<svg width="606px" height="263px" viewBox="0 0 606 263" version="1.1" xmlns="http://www.w3.org/2000/svg" xmlns:xlink="http://www.w3.org/1999/xlink">
    <!-- Generator: Sketch 64 (93537) - https://sketch.com -->
    <title>Research_interview</title>
    <desc>Created with Sketch.</desc>
    <g id="Research_interview" stroke="none" stroke-width="1" fill="none" fill-rule="evenodd">
        <rect fill="#FFFFFF" x="0" y="0" width="606" height="263"></rect>
        <g id="Group-2" transform="translate(10.000000, 148.000000)" fill="#2F2D2E" font-family="Roboto-Regular, Roboto" font-size="17" font-weight="normal">
            <text id="People-need-to-ident">
                <tspan x="0.914306641" y="18">People need to identify </tspan>
                <tspan x="37.2841797" y="41">their triggers.</tspan>
            </text>
        </g>
        <g id="Group" transform="translate(217.000000, 148.000000)" fill="#2F2D2E" font-family="Roboto-Regular, Roboto" font-size="17" font-weight="normal">
            <text id="People-need-to-learn">
                <tspan x="10.4477539" y="18">People need to learn </tspan>
                <tspan x="11.8381348" y="41">living with migraine.</tspan>
            </text>
        </g>
        <g id="Group-3" transform="translate(424.000000, 148.000000)" fill="#2F2D2E" font-family="Roboto-Regular, Roboto" font-size="17" font-weight="normal">
            <text id="People-don’t-feel-av">
                <tspan x="24.8039551" y="18">People don’t feel </tspan>
                <tspan x="13.0998535" y="41">available when they </tspan>
                <tspan x="32.3825684" y="64">have migraine.</tspan>
            </text>
        </g>
        <g id="atoms/icon/wellness" transform="translate(242.000000, 0.000000)" fill="#F07256">
            <circle id="Oval" cx="62.2058824" cy="37.6941176" r="9.10588235"></circle>
            <path d="M86.5588235,57.2823529 C82.6411765,58.5529412 78.4058824,58.6588235 77.5588235,57.9176471 C77.2411765,57.6 76.8176471,56.8588235 76.3941176,56.2235294 C74.8058824,53.7882353 72.2647059,49.5529412 66.3352941,49.5529412 L58.0764706,49.5529412 C52.1470588,49.5529412 49.6058824,53.6823529 48.0176471,56.2235294 C47.5941176,56.9647059 47.1705882,57.6 46.8529412,57.9176471 C46.0058824,58.6588235 41.7705882,58.5529412 37.9588235,57.2823529 C35.8411765,56.6470588 33.5117647,57.8117647 32.8764706,59.9294118 C32.2411765,62.0470588 33.4058824,64.3764706 35.5235294,65.0117647 C36.6882353,65.3294118 40.3941176,66.4941176 44.3117647,66.4941176 C47.4882353,66.4941176 50.6647059,65.7529412 52.8882353,63.5294118 C53.2058824,63.2117647 53.5235294,62.7882353 53.7352941,62.4705882 L53.3117647,72.6352941 C41.0294118,80.3647059 41.0294118,82.4823529 41.0294118,84.7058824 C41.0294118,87.2470588 41.0294118,89.8941176 57.3352941,97.3058824 C57.9705882,97.6235294 58.7117647,97.7294118 59.4529412,97.7294118 C59.9823529,97.7294118 60.4058824,97.6235294 60.9352941,97.5176471 L60.6176471,108.529412 C60.5117647,111.282353 62.7352941,113.611765 65.5941176,113.717647 C65.5941176,113.717647 65.7,113.717647 65.7,113.717647 C68.4529412,113.717647 70.6764706,111.494118 70.7823529,108.741176 L71.6294118,75.1764706 C71.6294118,75.0705882 71.6294118,74.9647059 71.6294118,74.8588235 L70.9941176,62.5764706 C71.2058824,62.8941176 71.5235294,63.2117647 71.7352941,63.5294118 C76.6058824,68.7176471 86.9823529,65.7529412 88.9941176,65.1176471 C91.1117647,64.4823529 92.2764706,62.1529412 91.6411765,60.0352941 C91.0058824,57.8117647 88.6764706,56.6470588 86.5588235,57.2823529 Z M53.8411765,84.2823529 C55.9588235,82.8 58.7117647,80.8941176 61.2529412,79.3058824 L61.0411765,87.8823529 C58.5,86.7176471 55.9588235,85.4470588 53.8411765,84.2823529 Z" id="Shape"></path>
            <circle id="Oval" cx="62.2058824" cy="16.5176471" r="3.38823529"></circle>
            <path d="M48.5470588,23.6117647 C49.0764706,23.6117647 49.7117647,23.5058824 50.2411765,23.1882353 C51.8294118,22.2352941 52.4647059,20.1176471 51.5117647,18.5294118 L51.5117647,18.5294118 C51.0882353,17.7882353 50.3470588,17.1529412 49.3941176,16.9411765 C48.5470588,16.7294118 47.5941176,16.8352941 46.8529412,17.2588235 C46.1117647,17.6823529 45.4764706,18.4235294 45.2647059,19.3764706 C45.0529412,20.2235294 45.1588235,21.1764706 45.5823529,21.9176471 C46.2176471,22.9764706 47.3823529,23.6117647 48.5470588,23.6117647 Z" id="Path"></path>
            <path d="M36.9,33.1411765 C37.4294118,33.4588235 38.0647059,33.5647059 38.5941176,33.5647059 C39.7588235,33.5647059 40.9235294,32.9294118 41.5588235,31.8705882 C42.5117647,30.2823529 41.9823529,28.1647059 40.2882353,27.2117647 C39.5470588,26.7882353 38.5941176,26.6823529 37.7470588,26.8941176 C36.9,27.1058824 36.1588235,27.7411765 35.6294118,28.4823529 C34.6764706,30.0705882 35.2058824,32.1882353 36.9,33.1411765 Z" id="Path"></path>
            <circle id="Oval" cx="34.8882353" cy="43.8352941" r="3.38823529"></circle>
            <circle id="Oval" cx="89.5235294" cy="43.8352941" r="3.38823529"></circle>
            <path d="M84.9705882,33.4588235 C85.2882353,33.5647059 85.6058824,33.5647059 85.8176471,33.5647059 C86.4529412,33.5647059 86.9823529,33.4588235 87.5117647,33.1411765 C89.1,32.1882353 89.7352941,30.0705882 88.7823529,28.4823529 C88.3588235,27.7411765 87.6176471,27.1058824 86.6647059,26.8941176 C85.8176471,26.6823529 84.8647059,26.7882353 84.1235294,27.2117647 C83.3823529,27.6352941 82.7470588,28.3764706 82.5352941,29.3294118 C82.3235294,30.2823529 82.4294118,31.1294118 82.8529412,31.8705882 C83.3823529,32.7176471 84.1235294,33.2470588 84.9705882,33.4588235 Z" id="Path"></path>
            <path d="M74.1705882,23.1882353 C74.7,23.5058824 75.3352941,23.6117647 75.8647059,23.6117647 C77.0294118,23.6117647 78.1941176,22.9764706 78.8294118,21.9176471 L78.8294118,21.9176471 C79.7823529,20.3294118 79.2529412,18.2117647 77.5588235,17.2588235 C76.8176471,16.8352941 75.8647059,16.7294118 75.0176471,16.9411765 C74.1705882,17.1529412 73.4294118,17.7882353 72.9,18.5294118 C71.9470588,20.1176471 72.5823529,22.2352941 74.1705882,23.1882353 Z" id="Path"></path>
        </g>
        <g id="atoms/icon/head-pain" transform="translate(455.000000, 0.000000)" fill="#F07256">
            <path d="M73.9290264,37.3710075 C73.2151729,36.5020351 72.5751544,35.8069307 71.8764819,35.2404813 C70.8838495,34.4450261 69.5524041,34.4714922 68.5973792,35.2099717 C68.7391838,36.6564211 68.565637,38.1028704 68.0863995,39.4548503 C68.2230288,39.6320266 68.3793244,39.7970725 68.5590816,39.9411661 C68.6743194,40.029019 69.0045068,40.3429371 69.3712668,40.7645578 C69.743202,41.1887516 70.1737913,41.7313079 70.6012753,42.3319428 C71.4607287,43.5299043 72.3108664,44.9873812 72.7852737,46.2015165 C73.1016602,46.985209 73.2327691,47.663772 73.2303539,47.9589433 C73.1527236,47.9850419 73.0426612,48.0151839 72.8960262,48.0401797 C72.7735429,48.0611321 72.6386387,48.0721596 72.495109,48.0721596 C71.8409445,48.0835548 70.8890249,47.8038222 70.1237629,47.4432207 C69.3685066,47.0984254 68.7888672,46.7098874 68.7112369,46.6554847 L68.7077867,46.6529116 L68.7074417,46.6532792 C68.1761056,46.2739309 67.5654141,46.1202801 66.9733539,46.1662283 C66.8063625,46.1313076 66.6341958,46.1121932 66.4578889,46.1121932 L53.1279084,46.1121932 C52.9616071,46.1121932 52.799101,46.1305725 52.6414253,46.1618173 C52.0759319,46.1368214 51.4987077,46.2923101 50.9929034,46.6536468 L50.9925583,46.6532792 L50.9891081,46.6558523 C50.9114778,46.7098874 50.3321835,47.098793 49.5765821,47.4435883 C48.8113202,47.8038222 47.8597455,48.0839224 47.2052361,48.0725272 C47.0617063,48.0725272 46.9268022,48.0614997 46.8043188,48.0405473 C46.6576839,48.015919 46.5476214,47.985777 46.4699911,47.9593109 C46.467576,47.663772 46.5986849,46.9855766 46.9150714,46.2018841 C47.3894786,44.9873812 48.2396163,43.5299043 49.0990697,42.3323104 C49.5265537,41.7316755 49.957143,41.1894868 50.3290783,40.7649254 C50.6958382,40.3433047 51.0260256,40.0293866 51.1412634,39.9415336 C51.3237808,39.7952346 51.4818016,39.6268804 51.620156,39.4463958 C51.4890471,39.0707233 51.3720841,38.6865964 51.2847932,38.2870308 C51.0581128,37.250807 51.0060142,36.2142156 51.1029658,35.2103393 C50.147941,34.4718598 48.8161505,34.4453937 47.8238631,35.2408489 C47.1251906,35.8072983 46.4851722,36.5024027 45.7713187,37.3713751 C44.7172721,38.6674819 43.5907705,40.3043406 42.6657627,42.0871308 C41.7607662,43.8871975 40.9817033,45.7685007 40.95,47.981366 C40.9382304,49.2131454 41.2818737,50.6878988 42.2448341,51.8432204 C43.2008941,53.002953 44.5554561,53.6227023 45.9427953,53.8502378 C46.3740746,53.921917 46.7936231,53.9538969 47.2052361,53.9538969 C48.4242039,53.9454425 49.5172381,53.6936463 50.4615673,53.3672303 L50.4615673,67.1314733 L50.4615673,74.0931771 L50.4615673,105.705539 C50.4615673,108.215781 52.371962,110.25 54.727092,110.25 C57.082912,110.25 58.9933068,108.215781 58.9933068,105.705539 L58.9933068,76.9335111 L60.5924904,76.9335111 L60.5924904,105.705539 C60.5924904,108.215781 62.5028852,110.25 64.8580152,110.25 C67.2138352,110.25 69.12423,108.215781 69.12423,105.705539 L69.12423,74.0931771 L69.12423,67.1314733 L69.12423,53.3245904 C70.0947809,53.6704884 71.2250777,53.9447073 72.4947639,53.9535293 C72.9063769,53.9535293 73.3259254,53.9215494 73.7572047,53.8498702 C75.1445439,53.6223347 76.4991059,53.0025854 77.4551659,51.8428528 C78.4181263,50.6878988 78.7617696,49.2127778 78.75,47.9809984 C78.7182967,45.7677655 77.9392338,43.8864624 77.0342373,42.0867632 C76.1095745,40.303973 74.983073,38.6674819 73.9290264,37.3710075 Z" id="Path"></path>
            <path d="M53.8710797,38.4439425 C55.0362643,42.4229998 59.1221202,44.8450931 63.2099873,43.8931494 C66.0736732,43.2267889 68.2029173,41.0755303 68.9789249,38.4436073 C69.2088779,37.6632816 69.3211727,36.8410571 69.2967025,36.0024081 C69.2816181,35.4852078 69.2155821,34.9619739 69.0939014,34.4390753 C68.1073829,30.2042669 63.8740353,27.5703327 59.6386765,28.5571362 C56.077757,29.3860646 53.649507,32.5107191 53.5529669,36.0024081 C53.5348657,36.6630704 53.5992257,37.33647 53.7561032,38.0102048 C53.7902945,38.1570186 53.8291787,38.3011509 53.8710797,38.4439425 Z" id="Path"></path>
            <polygon id="Path" points="75.8321492 28.35 83.1809907 23.0489017 80.11266 21.4413366 85.05 16.823878 83.9796117 15.75 78.3593778 21.7668966 81.2136308 23.0127685 75.6 28.0938158"></polygon>
            <polygon id="Path" points="87.8148455 25.2 80.6241519 27.3705513 82.3697285 29.7647593 75.6 31.1787184 75.673907 31.5 83.9373949 30.7462086 82.1800085 27.9542995 88.2 26.5895529"></polygon>
            <polygon id="Path" points="74.1138006 15.75 72.45 22.416607 74.4445156 22.2874303 72.5355715 28.2430199 72.7392747 28.35 75.6 21.5756852 73.3837519 21.5109149 75.0236033 16.1604543"></polygon>
        </g>
        <g id="atoms/icon/trigger" transform="translate(36.000000, 0.000000)" fill="#F07256">
            <path d="M103.354441,41.1884999 C101.439479,29.5919635 91.2883887,20.9254107 91.2883887,20.9254107 C85.9190519,16.485651 79.1831198,13.5588892 71.7805074,12.8040011 C69.3284792,12.4921225 66.874457,12.6306636 66.874457,12.6306636 C47.5270975,13.1986822 32.0196314,28.5725586 32.0196314,47.4686013 L32.0196314,56.454443 L22.05,75.2425526 L32.0196314,75.2425526 L32.0196314,100.721232 L54.2520622,100.123894 L54.2520622,113.4 L96.7574284,113.4 L96.7574284,68.3889554 C101.270649,62.5602404 103.95,55.3174393 103.95,47.4686014 C103.95,45.3228248 103.739959,43.2263432 103.354441,41.1884999 Z M53.4551159,43.0120436 L53.4551159,64.8249493 C53.4551159,65.5580122 52.7723194,66.15 51.9269883,66.15 C51.0843156,66.15 50.4,65.5580122 50.4,64.8249493 L50.4,43.0120436 C50.4,33.189858 59.6052218,25.2 70.9226319,25.2 C71.7687224,25.2 72.45,25.7919878 72.45,26.5253803 C72.45,27.2567951 71.7687224,27.8517495 70.9226319,27.8517495 C61.2905673,27.8517495 53.4551159,34.6516987 53.4551159,43.0120436 Z M67.6569977,34.1216586 C66.8240253,34.1216586 66.15,33.5346521 66.15,32.8108293 C66.15,32.0870065 66.8240253,31.5 67.6569977,31.5 C75.5113796,31.5 81.9,37.0524565 81.9,43.8776293 L81.9,64.8404737 C81.9,65.5642965 81.2259747,66.15 80.3922526,66.15 C79.5592803,66.15 78.8852549,65.5642965 78.8852549,64.8404737 L78.8852549,43.8776293 C78.8852549,38.4981476 73.8476841,34.1216586 67.6569977,34.1216586 Z M69.2988595,40.3726794 C65.773404,40.3726794 62.9071181,42.7838668 62.9071181,45.7495634 L62.9071181,55.4141399 C62.9071181,56.1237453 62.2209582,56.7 61.3785591,56.7 C60.5338791,56.7 59.85,56.1237453 59.85,55.4141399 L59.85,45.7495635 C59.85,41.3659352 64.0863249,37.8 69.2988596,37.8 C74.5113943,37.8 78.75,41.3659352 78.75,45.7495635 L78.75,55.41414 C78.75,56.1237454 78.0665011,56.7 77.2187799,56.7 C76.3763807,56.7 75.690601,56.1237454 75.690601,55.41414 L75.690601,45.7495635 C75.690601,42.7838669 72.8243151,40.3726794 69.2988595,40.3726794 Z M53.55,55.5949634 L53.55,42.0561358 C53.55,41.4443946 54.2563921,40.95 55.1263697,40.95 C55.993608,40.95 56.7,41.4443946 56.7,42.0561358 L56.7,55.5949634 C56.7,56.2047809 55.9936079,56.7 55.1263697,56.7 C54.2563921,56.7 53.55,56.2047809 53.55,55.5949634 Z M88.2,92.4991596 C88.2,97.0827416 84.3492015,100.8 79.5988314,100.8 L69.8837195,100.8 C64.3554303,100.694645 61.8336045,95.5595351 60.7752268,92.2116543 C60.6788911,91.9057437 60.2932194,90.4282334 60.2866436,90.4053853 L56.7189342,74.8997783 C56.3506884,73.2953342 61.4630573,72.8294869 62.5493822,75.9444441 L64.4435463,80.5077168 L64.4435463,59.6759646 C64.4435463,58.0328057 65.8231526,56.7 67.5249741,56.7 C69.2281107,56.7 70.6083746,58.0328057 70.6083746,59.6759646 L70.6083746,68.6977895 C70.9660991,67.4360667 72.1510613,66.5024682 73.5714377,66.5024682 C75.2752318,66.5024682 76.6548383,67.8352738 76.6548383,69.4784328 L76.6548383,70.3422178 C77.2012886,69.5095316 78.1567549,68.9529266 79.2542587,68.9529266 C80.9573953,68.9529266 82.3376593,70.2863669 82.3376593,71.9288912 L82.3376593,72.7742708 C82.8538609,71.8260748 83.8717973,71.171096 85.0587323,71.171096 C86.7618688,71.171096 88.1421328,72.503267 88.1421328,74.1470606 L88.1421328,85.7538938 C88.1782998,86.0642471 88.2,86.3777737 88.2,86.6982818 L88.2,92.4991596 L88.2,92.4991596 Z M81.9,64.8929394 L81.9,42.2073733 C81.9,41.5134884 82.6066956,40.95 83.4761739,40.95 C84.3456522,40.95 85.05,41.5134884 85.05,42.2073733 L85.05,64.8929394 C85.05,65.5865116 84.3456521,66.15 83.4761739,66.15 C82.6066957,66.15 81.9,65.5865116 81.9,64.8929394 Z M91.35,68.0400861 C91.35,68.7355135 90.7455496,69.3 89.9985592,69.3 C89.2515689,69.3 88.644429,68.7355135 88.644429,68.0400861 L88.644429,40.9152874 C88.644429,30.1637301 79.2609925,21.420141 67.7239915,21.420141 C56.1869904,21.420141 46.8035539,30.1637301 46.8035539,40.9152874 L46.8035539,68.0400861 C46.8035539,68.7355134 46.1964141,69.3 45.4517769,69.3 C44.7044504,69.3 44.1,68.7355134 44.1,68.0400861 L44.1,40.9152874 C44.1,28.7756947 54.6970438,18.9 67.7239915,18.9 C80.7509391,18.9 91.35,28.7756948 91.35,40.9152874 L91.35,68.0400861 Z" id="Shape"></path>
        </g>
    </g>
</svg>